<svg width="147" height="147" viewBox="0 0 147 147" fill="none" xmlns="http://www.w3.org/2000/svg">
<g clip-path="url(#clip0)">
<path d="M81.6665 87.7916C81.6665 89.4161 81.0212 90.974 79.8725 92.1227C78.7239 93.2713 77.166 93.9166 75.5415 93.9166C73.9171 93.9166 72.3591 93.2713 71.2105 92.1227C70.0618 90.974 69.4165 89.4161 69.4165 87.7916V75.5416C69.4165 73.9172 70.0618 72.3593 71.2105 71.2106C72.3591 70.0619 73.9171 69.4166 75.5415 69.4166C77.166 69.4166 78.7239 70.0619 79.8725 71.2106C81.0212 72.3593 81.6665 73.9172 81.6665 75.5416V87.7916Z" fill="#67757F"/>
<path d="M110.814 138.086C110.997 143.007 107.008 147 102.083 147H49.7474C47.3833 147 45.116 146.061 43.4443 144.389C41.7726 142.718 40.8335 140.45 40.8335 138.086V85.7501C40.8335 80.8297 41.3031 76.8362 49.7474 76.8362C58.1917 76.8362 61.2502 93.9168 102.083 85.7501C106.538 85.7501 110.997 89.7436 110.814 94.664V138.086V138.086Z" fill="#6572A6"/>
<path d="M76.3056 75.697C65.7094 75.697 47.8774 67.7998 47.8774 51.6135C47.8774 35.3291 65.644 29.5063 76.4812 5.05938C79.5478 -1.85371 80.5604 0.539126 84.0762 4.74904C92.4879 14.8063 104.73 35.3046 104.73 52.0095C104.726 70.9603 85.783 75.697 76.3056 75.697V75.697Z" fill="#EFA561"/>
<path d="M76.3051 71.2418C59.2204 71.2418 62.0869 47.5503 76.3051 33.3362C85.7825 38.0728 99.9925 71.2418 76.3051 71.2418Z" fill="#FBC55C"/>
<path d="M44.9167 118.417C44.9167 119.5 44.4865 120.538 43.7207 121.304C42.9549 122.07 41.9163 122.5 40.8333 122.5C39.7504 122.5 38.7118 122.07 37.946 121.304C37.1802 120.538 36.75 119.5 36.75 118.417V89.8334C36.75 88.7504 37.1802 87.7118 37.946 86.946C38.7118 86.1802 39.7504 85.75 40.8333 85.75C41.9163 85.75 42.9549 86.1802 43.7207 86.946C44.4865 87.7118 44.9167 88.7504 44.9167 89.8334V118.417ZM61.25 130.667C61.25 131.75 60.8198 132.788 60.054 133.554C59.2882 134.32 58.2496 134.75 57.1667 134.75C56.0837 134.75 55.0451 134.32 54.2793 133.554C53.5135 132.788 53.0833 131.75 53.0833 130.667V102.083C53.0833 101 53.5135 99.9618 54.2793 99.196C55.0451 98.4302 56.0837 98 57.1667 98C58.2496 98 59.2882 98.4302 60.054 99.196C60.8198 99.9618 61.25 101 61.25 102.083V130.667ZM61.25 85.75C61.25 86.833 60.8198 87.8716 60.054 88.6374C59.2882 89.4032 58.2496 89.8334 57.1667 89.8334C56.0837 89.8334 55.0451 89.4032 54.2793 88.6374C53.5135 87.8716 53.0833 86.833 53.0833 85.75V81.6667C53.0833 80.5837 53.5135 79.5451 54.2793 78.7794C55.0451 78.0136 56.0837 77.5834 57.1667 77.5834C58.2496 77.5834 59.2882 78.0136 60.054 78.7794C60.8198 79.5451 61.25 80.5837 61.25 81.6667V85.75Z" fill="#A7B4E6"/>
</g>
<defs>
<clipPath id="clip0">
<rect width="147" height="147" fill="white"/>
</clipPath>
</defs>
</svg>
