<svg width="282" height="130" viewBox="0 0 282 130" fill="none" preserveAspectRatio="none" xmlns="http://www.w3.org/2000/svg">
<path fill-rule="evenodd" clip-rule="evenodd" d="M144.514 17.2628C138.653 16.6346 133.315 20.6878 132.592 26.3157C132.287 28.6927 132.854 30.9703 134.052 32.856C134.059 33.3354 134.205 33.8212 134.501 34.2573C134.951 34.9205 135.657 35.332 136.411 35.4467C137.926 36.6278 139.804 37.4191 141.897 37.6435C142.819 37.7423 143.729 37.7253 144.609 37.6045C144.592 37.8223 144.648 38.0481 144.784 38.2476C145.112 38.731 145.783 38.8766 146.284 38.5727C146.784 38.2689 146.924 37.6307 146.596 37.1473L146.593 37.1433C150.378 35.887 153.298 32.6481 153.819 28.5906C154.008 27.1225 153.864 25.6923 153.444 24.369C154.095 23.7942 154.546 23.0037 154.662 22.0989C154.843 20.6878 154.162 19.3748 153.015 18.6424C153.599 17.9828 153.997 17.1586 154.115 16.2392C154.434 13.7545 152.594 11.5154 150.007 11.2381C149.399 11.1729 148.803 11.2219 148.244 11.3671C148.174 10.1804 147.227 9.18474 145.952 9.04811C144.518 8.89441 143.211 9.88613 143.035 11.2632C142.867 12.5677 143.773 13.75 145.088 14.0017C144.917 14.3865 144.799 14.8001 144.743 15.2349C144.649 15.9671 144.743 16.678 144.987 17.3236C144.831 17.3001 144.673 17.2798 144.514 17.2628ZM145.829 6.26516C145.902 5.69637 146.441 5.28675 147.034 5.35023C147.626 5.41372 148.047 5.92627 147.974 6.49506C147.901 7.06384 147.362 7.47347 146.769 7.40998C146.177 7.3465 145.756 6.83394 145.829 6.26516ZM137.659 7.24833C136.163 7.08794 134.8 8.12278 134.615 9.55971C134.431 10.9966 135.494 12.2915 136.991 12.4519C138.488 12.6123 139.85 11.5775 140.035 10.1405C140.068 9.88135 140.061 9.62679 140.018 9.38269C140.729 9.37927 141.347 8.86502 141.436 8.17032C141.533 7.42192 140.979 6.74751 140.199 6.66397C139.529 6.59215 138.91 6.98051 138.689 7.56651C138.381 7.39973 138.034 7.28848 137.659 7.24833ZM138.546 1.00486C136.987 0.837797 135.567 1.91576 135.375 3.41256C135.183 4.90936 136.291 6.25819 137.85 6.42526C139.409 6.59233 140.828 5.51437 141.02 4.01757C141.213 2.52077 140.105 1.17193 138.546 1.00486ZM142.178 2.24656C142.197 2.09688 142.339 1.98908 142.495 2.00579C142.651 2.0225 142.762 2.15738 142.742 2.30706C142.723 2.45674 142.581 2.56454 142.425 2.54783C142.27 2.53113 142.159 2.39624 142.178 2.24656ZM139.486 13.3641C138.769 13.2872 138.116 13.7831 138.028 14.4716C137.939 15.1602 138.449 15.7806 139.166 15.8575C139.883 15.9343 140.536 15.4385 140.625 14.7499C140.713 14.0614 140.203 13.4409 139.486 13.3641ZM43.9681 38.7435C40.8971 41.2392 38.859 44.4577 37.8913 47.9155C34.9934 45.3637 31.3888 43.526 27.3877 42.6972C27.6314 42.5607 27.8659 42.4022 28.0882 42.2215C30.1598 40.538 30.3906 37.566 28.6036 35.5832C28.2751 35.2187 27.9012 34.913 27.4969 34.6672C28.3829 33.7702 28.4292 32.3585 27.561 31.3952C26.6303 30.3625 25.0011 30.2362 23.9222 31.113C22.9864 31.8734 22.7718 33.1388 23.3385 34.1349C22.7234 34.3177 22.137 34.6189 21.6171 35.0414C19.5455 36.7249 19.3147 39.697 21.1017 41.6797C21.2801 41.8777 21.472 42.0584 21.6748 42.2215C9.62554 42.6632 0 52.084 0 63.6409C0 66.7701 0.705712 69.7428 1.97417 72.423C0.744569 73.7647 0 75.5183 0 77.4372C0 80.391 1.7644 82.9533 4.34644 84.2244C3.26919 85.7363 2.64 87.5599 2.64 89.5232C2.64 94.7498 7.09924 98.9868 12.6 98.9868C13.8596 98.9868 15.0646 98.7646 16.174 98.3593C16.6523 100.793 18.8997 102.635 21.6 102.635C24.6486 102.635 27.12 100.287 27.12 97.3905C27.12 94.6749 24.9479 92.4413 22.1644 92.1727C22.4219 91.332 22.56 90.4429 22.56 89.5232C22.56 87.9042 22.1321 86.3801 21.3779 85.0475C21.7694 85.0667 22.1635 85.0765 22.56 85.0765C33.6975 85.0765 42.95 77.408 44.7881 67.3248C47.174 69.0959 49.909 70.2768 52.7584 70.8491C53.449 71.5381 54.3678 72.0277 55.43 72.2006C56.9594 72.4496 58.4549 71.9883 59.5484 71.0657C63.0443 70.5911 66.4384 69.2019 69.3131 66.8657C70.5571 65.8548 71.6315 64.7253 72.5341 63.5093C72.8115 63.8035 73.1901 64.0133 73.6312 64.0851C74.69 64.2575 75.708 63.5698 75.9048 62.5491C76.0988 61.5431 75.4228 60.589 74.3895 60.3968C77.3196 54.1063 76.3874 46.4751 71.332 40.8657C69.4996 38.8326 67.3073 37.2666 64.9234 36.1809C64.9387 34.6398 64.3871 33.083 63.2449 31.8157C61.502 29.8818 58.845 29.1339 56.4158 29.6606C56.2167 28.1135 55.55 26.6002 54.3998 25.3239C51.3099 21.8955 45.9011 21.476 42.3189 24.387C41.4896 25.061 40.8309 25.8543 40.3466 26.7182C38.5967 25.3856 36.0531 25.3704 34.2994 26.7956C32.3141 28.4089 32.0929 31.2572 33.8054 33.1573C35.415 34.9433 38.1602 35.2559 40.1327 33.9472C40.4604 34.6245 40.8915 35.2709 41.4276 35.8658C42.3614 36.9019 43.5069 37.6631 44.7498 38.1408C44.4853 38.3342 44.2246 38.5351 43.9681 38.7435ZM30.2673 23.5124C29.5599 22.7275 29.6513 21.5511 30.4713 20.8847C31.2913 20.2183 32.5294 20.3143 33.2368 21.0992C33.9441 21.884 33.8528 23.0605 33.0327 23.7268C32.2127 24.3932 30.9746 24.2972 30.2673 23.5124ZM13.9872 26.2689C11.8292 28.0225 11.5888 31.1184 13.4502 33.1838C15.3116 35.2491 18.5699 35.5018 20.7279 33.7482C22.8858 31.9945 23.1262 28.8986 21.2648 26.8333C19.4034 24.7679 16.1451 24.5152 13.9872 26.2689ZM20.186 23.1896C19.9999 22.9831 20.0239 22.6735 20.2397 22.4981C20.4555 22.3228 20.7813 22.348 20.9675 22.5546C21.1536 22.7611 21.1296 23.0707 20.9138 23.2461C20.698 23.4214 20.3721 23.3962 20.186 23.1896ZM32.4025 40.2267C31.4099 41.0334 31.2993 42.4575 32.1555 43.4076C33.0118 44.3576 34.5106 44.4739 35.5032 43.6672C36.4959 42.8605 36.6065 41.4364 35.7502 40.4863C34.894 39.5363 33.3952 39.42 32.4025 40.2267ZM22.56 108.45C22.56 109.647 21.5392 110.617 20.28 110.617C19.0208 110.617 18 109.647 18 108.45C18 107.254 19.0208 106.284 20.28 106.284C21.5392 106.284 22.56 107.254 22.56 108.45ZM39.36 104.46C42.5412 104.46 45.12 102.009 45.12 98.9868C45.12 95.9642 42.5412 93.5139 39.36 93.5139C36.1788 93.5139 33.6 95.9642 33.6 98.9868C33.6 99.5489 33.6892 100.091 33.8549 100.602C32.3606 100.764 31.2 101.97 31.2 103.434C31.2 105.008 32.5431 106.284 34.2 106.284C35.6395 106.284 36.8421 105.321 37.133 104.036C37.8181 104.309 38.5705 104.46 39.36 104.46ZM39.12 117.686C42.4337 117.686 45.12 115.134 45.12 111.985C45.12 108.836 42.4337 106.284 39.12 106.284C35.8063 106.284 33.12 108.836 33.12 111.985C33.12 115.134 35.8063 117.686 39.12 117.686ZM31.2 115.976C31.2 116.29 30.9314 116.546 30.6 116.546C30.2686 116.546 30 116.29 30 115.976C30 115.661 30.2686 115.406 30.6 115.406C30.9314 115.406 31.2 115.661 31.2 115.976ZM33.96 92.1456C35.4843 92.1456 36.72 90.9715 36.72 89.5232C36.72 88.0749 35.4843 86.9008 33.96 86.9008C32.4357 86.9008 31.2 88.0749 31.2 89.5232C31.2 90.9715 32.4357 92.1456 33.96 92.1456ZM133.868 95.6019C134.314 102.03 140.127 106.93 146.852 106.545C153.002 106.193 157.785 101.544 158.218 95.8356C158.584 96.1003 158.975 96.3358 159.386 96.5385C158.309 98.0504 157.68 99.874 157.68 101.837C157.68 107.064 162.139 111.301 167.64 111.301C168.9 111.301 170.105 111.079 171.214 110.673C171.692 113.107 173.94 114.949 176.64 114.949C179.689 114.949 182.16 112.601 182.16 109.705C182.16 106.989 179.988 104.755 177.204 104.487C177.462 103.646 177.6 102.757 177.6 101.837C177.6 100.218 177.172 98.6942 176.418 97.3616C176.809 97.3808 177.204 97.3905 177.6 97.3905C190.06 97.3905 200.16 87.7935 200.16 75.9549C200.16 74.7469 200.055 73.5623 199.853 72.4088C201.532 73.2788 203.321 73.9007 205.158 74.2697C205.849 74.9586 206.768 75.4482 207.83 75.6212C209.359 75.8702 210.855 75.4089 211.948 74.4863C215.444 74.0117 218.838 72.6225 221.713 70.2863C222.957 69.2754 224.032 68.1459 224.934 66.9299C225.211 67.2241 225.59 67.4338 226.031 67.5057C227.09 67.678 228.108 66.9904 228.305 65.9697C228.499 64.9636 227.823 64.0096 226.79 63.8173C229.72 57.5269 228.787 49.8957 223.732 44.2863C221.9 42.2532 219.707 40.6872 217.323 39.6015C217.339 38.0604 216.787 36.5035 215.645 35.2363C213.902 33.3023 211.245 32.5545 208.816 33.0812C208.617 31.534 207.95 30.0208 206.8 28.7445C203.71 25.316 198.301 24.8966 194.719 27.8076C193.89 28.4815 193.231 29.2749 192.747 30.1388C190.997 28.8061 188.453 28.791 186.699 30.2161C184.714 31.8295 184.493 34.6777 186.205 36.5778C187.815 38.3639 190.56 38.6765 192.533 37.3678C192.86 38.0451 193.291 38.6915 193.828 39.2864C194.761 40.3224 195.907 41.0837 197.15 41.5613C196.885 41.7547 196.625 41.9557 196.368 42.1641C191.408 46.1953 189.142 52.1128 189.729 57.878C186.227 55.7517 182.065 54.5194 177.6 54.5194C174.401 54.5194 171.358 55.152 168.601 56.2927C169.377 54.0749 168.893 51.5337 167.105 49.6961C166.208 48.7744 165.1 48.1495 163.917 47.8263C164.343 47.1266 164.263 46.2171 163.655 45.5923C163.251 45.1775 162.698 44.973 162.147 44.9846C162.557 44.8706 162.947 44.667 163.282 44.3724C164.238 43.533 164.454 42.2174 163.899 41.1646C165.006 40.9054 166.062 40.3841 166.958 39.5965C167.469 39.1483 167.892 38.6445 168.229 38.104C169.871 38.5987 171.73 38.3045 173.128 37.1688C175.286 35.4151 175.526 32.3192 173.665 30.2539C171.856 28.2464 168.727 27.9514 166.571 29.5467C163.923 27.536 160.054 27.6103 157.489 29.8636C156.092 31.091 155.342 32.7352 155.257 34.4089C154.912 34.2119 154.458 34.2452 154.147 34.518C153.77 34.8493 153.747 35.4084 154.096 35.7667C154.426 36.1069 154.973 36.1439 155.351 35.8635C155.572 37.081 156.153 38.2539 157.102 39.2287C157.697 39.8399 158.384 40.3207 159.125 40.6694C158.934 40.8923 158.786 41.1379 158.68 41.3961C158.435 41.3812 158.185 41.4581 157.99 41.6291C157.613 41.9603 157.59 42.5194 157.938 42.8778C158.118 43.0627 158.362 43.158 158.608 43.1615C158.729 43.5447 158.941 43.9083 159.246 44.2218C159.857 44.8501 160.708 45.1417 161.542 45.0871C161.288 45.17 161.048 45.3031 160.839 45.4872C160.169 46.0757 160.02 46.9998 160.415 47.7361C159.269 47.9863 158.174 48.5156 157.249 49.3284C156.427 50.05 155.83 50.9157 155.459 51.8467C155.152 51.7561 154.804 51.8194 154.551 52.0416C154.174 52.3729 154.151 52.9319 154.499 53.2903C154.648 53.4428 154.84 53.5344 155.04 53.5637C154.892 55.0397 155.263 56.5574 156.163 57.8489C156.086 57.9826 156.022 58.1218 155.972 58.2645C155.822 58.0363 155.648 57.8181 155.449 57.6135C154.882 57.0308 154.185 56.6312 153.439 56.4178C154.129 55.5795 154.098 54.3656 153.313 53.5586C152.442 52.6628 150.971 52.6079 150.028 53.4361C149.085 54.2642 149.027 55.6619 149.899 56.5578C149.951 56.6118 150.006 56.6627 150.063 56.7106C149.708 56.8843 149.373 57.1057 149.066 57.3753C147.234 58.9844 147.122 61.6998 148.815 63.4403C150.509 65.1809 153.366 65.2876 155.198 63.6785C156.065 62.9174 156.547 61.9088 156.634 60.8729C157.64 61.8075 159.251 61.8381 160.295 60.9209C160.382 60.8442 160.463 60.7632 160.537 60.6786C160.898 60.7509 161.264 60.796 161.631 60.8136C157.558 64.6914 155.04 70.0437 155.04 75.9549C155.04 79.0842 155.746 82.0569 157.014 84.737C156.292 85.5246 155.738 86.454 155.403 87.4755C152.987 84.7084 149.277 83.0339 145.238 83.265C143.446 83.3676 141.77 83.835 140.284 84.5872C139.484 84.0129 138.475 83.6963 137.401 83.7578C135.714 83.8543 134.315 84.8585 133.691 86.2438C132.789 85.7304 131.724 85.4611 130.601 85.5253C127.632 85.6953 125.385 88.1338 125.582 90.9719C125.626 91.619 125.795 92.231 126.062 92.7883C124.684 93.1051 123.705 94.331 123.802 95.7329C123.911 97.3058 125.333 98.5046 126.979 98.4104C128.523 98.322 129.716 97.1259 129.766 95.6787C130.261 95.7889 130.781 95.8335 131.314 95.803C132.246 95.7497 133.107 95.4728 133.843 95.0302C133.847 95.2199 133.855 95.4105 133.868 95.6019ZM120.516 96.4369C119.836 96.4758 119.249 95.9806 119.204 95.331C119.159 94.6813 119.673 94.1231 120.353 94.0842C121.033 94.0452 121.62 94.5404 121.665 95.1901C121.71 95.8398 121.196 96.398 120.516 96.4369ZM123.369 104.931C123.483 106.572 124.967 107.823 126.684 107.725C128.401 107.627 129.701 106.217 129.587 104.575C129.473 102.934 127.989 101.683 126.272 101.781C125.952 101.8 125.646 101.864 125.362 101.966C125.21 101.208 124.487 100.655 123.661 100.702C122.766 100.754 122.09 101.488 122.149 102.343C122.2 103.084 122.787 103.672 123.525 103.782C123.398 104.141 123.341 104.529 123.369 104.931ZM115.825 105.258C115.943 106.968 117.489 108.271 119.278 108.169C121.066 108.066 122.42 106.597 122.302 104.888C122.183 103.178 120.637 101.875 118.849 101.977C117.06 102.08 115.706 103.549 115.825 105.258ZM116.52 101.136C116.341 101.146 116.187 101.016 116.175 100.845C116.163 100.674 116.298 100.527 116.477 100.517C116.656 100.506 116.811 100.637 116.822 100.808C116.834 100.979 116.699 101.126 116.52 101.136ZM130.196 101.738C130.251 102.524 130.962 103.123 131.785 103.076C132.608 103.029 133.23 102.354 133.176 101.567C133.121 100.781 132.41 100.181 131.587 100.228C130.765 100.275 130.142 100.951 130.196 101.738ZM175.32 122.931C176.579 122.931 177.6 121.961 177.6 120.764C177.6 119.568 176.579 118.598 175.32 118.598C174.061 118.598 173.04 119.568 173.04 120.764C173.04 121.961 174.061 122.931 175.32 122.931ZM200.129 111.876C199.826 114.628 197.377 116.774 194.4 116.774C193.61 116.774 192.858 116.623 192.173 116.35C191.882 117.635 190.679 118.598 189.24 118.598C187.583 118.598 186.24 117.322 186.24 115.748C186.24 114.284 187.401 113.078 188.895 112.916C188.729 112.405 188.64 111.863 188.64 111.301C188.64 108.278 191.219 105.828 194.4 105.828C196.005 105.828 197.457 106.452 198.502 107.458C197.985 105.144 197.927 102.688 198.407 100.2C200.355 90.1008 210.427 83.2963 220.903 85.0021C221.173 85.046 221.44 85.0951 221.705 85.1493C221.357 83.9784 221.279 82.7099 221.528 81.4219C221.677 80.6452 221.936 79.9126 222.286 79.2363C219.934 78.6629 218.428 76.4309 218.881 74.0819C219.357 71.6108 221.822 69.9459 224.385 70.3633C226.665 70.7344 228.255 72.6272 228.244 74.7797C229.275 74.5663 230.362 74.5335 231.46 74.7121C236.085 75.4652 239.137 79.6903 238.277 84.1491C237.961 85.7888 237.16 87.2318 236.043 88.3635C238.027 89.7981 239.105 92.2394 238.616 94.7743C238.303 96.396 237.403 97.7793 236.166 98.7542C236.761 101.174 236.851 103.758 236.346 106.377C234.398 116.477 224.326 123.281 213.85 121.575C207.679 120.571 202.745 116.838 200.129 111.876ZM200.16 124.299C200.16 127.448 197.474 130 194.16 130C190.846 130 188.16 127.448 188.16 124.299C188.16 121.15 190.846 118.598 194.16 118.598C197.474 118.598 200.16 121.15 200.16 124.299ZM185.64 128.86C185.971 128.86 186.24 128.605 186.24 128.29C186.24 127.975 185.971 127.72 185.64 127.72C185.309 127.72 185.04 127.975 185.04 128.29C185.04 128.605 185.309 128.86 185.64 128.86ZM191.76 101.837C191.76 103.286 190.524 104.46 189 104.46C187.476 104.46 186.24 103.286 186.24 101.837C186.24 100.389 187.476 99.2148 189 99.2148C190.524 99.2148 191.76 100.389 191.76 101.837ZM46.0069 96.7796C47.9547 86.6802 58.0267 79.8757 68.5034 81.5815C68.7731 81.6254 69.0405 81.6745 69.3054 81.7288C68.9572 80.5578 68.8792 79.2894 69.1276 78.0014C69.2774 77.2246 69.536 76.492 69.8856 75.8157C67.5338 75.2423 66.0275 73.0104 66.4806 70.6614C66.9572 68.1902 69.4216 66.5253 71.985 66.9427C74.2646 67.3138 75.8548 69.2067 75.8439 71.3591C76.8754 71.1457 77.9624 71.1129 79.0595 71.2916C83.6849 72.0446 86.7373 76.2697 85.8774 80.7285C85.5611 82.3682 84.7598 83.8112 83.6429 84.943C85.6273 86.3775 86.7049 88.8188 86.216 91.3537C85.9033 92.9754 85.0027 94.3588 83.766 95.3337C84.3605 97.7538 84.4514 100.337 83.9462 102.957C81.9984 113.056 71.9264 119.861 61.4498 118.155C50.9731 116.449 44.0591 106.879 46.0069 96.7796ZM57.0888 75.9404C57.3271 74.7048 58.5593 73.8723 59.841 74.081C61.1227 74.2897 61.9686 75.4605 61.7303 76.6961C61.492 77.9316 60.2598 78.7641 58.978 78.5554C57.6963 78.3467 56.8505 77.1759 57.0888 75.9404ZM97.2 60.2203C97.2 61.1019 96.4478 61.8166 95.52 61.8166C94.5922 61.8166 93.84 61.1019 93.84 60.2203C93.84 59.3387 94.5922 58.624 95.52 58.624C96.4478 58.624 97.2 59.3387 97.2 60.2203ZM81.12 59.3082C82.0478 59.3082 82.8 58.5935 82.8 57.7119C82.8 56.8303 82.0478 56.1156 81.12 56.1156C80.1922 56.1156 79.44 56.8303 79.44 57.7119C79.44 58.5935 80.1922 59.3082 81.12 59.3082ZM83.2743 47.8111C83.2032 48.6305 82.4807 49.2745 81.6 49.2745C80.6722 49.2745 79.92 48.5598 79.92 47.6782C79.92 46.9521 80.4303 46.3392 81.1287 46.1456C78.8966 43.9856 77.52 41.0248 77.52 37.7586C77.52 31.1466 83.1612 25.7866 90.12 25.7866C97.0788 25.7866 102.72 31.1466 102.72 37.7586C102.72 39.8545 102.153 41.8247 101.157 43.5382C103.308 44.1295 104.88 46.0144 104.88 48.2483C104.88 49.0322 104.686 49.7731 104.342 50.4302C105.002 49.7214 105.966 49.2745 107.04 49.2745C108.658 49.2745 110.026 50.2884 110.48 51.6839C112.021 50.7967 113.779 50.2145 115.66 50.0255C114.899 46.0834 116.604 41.9555 120.325 39.6962C125.276 36.6898 131.922 38.1304 135.169 42.9138C135.271 43.064 135.369 43.2158 135.462 43.3689C135.823 42.6949 136.37 42.1026 137.087 41.6673C137.487 41.4246 137.912 41.2475 138.348 41.1331C137.747 39.9991 138.116 38.6076 139.247 37.9211C140.459 37.1855 142.085 37.538 142.879 38.7084C143.589 39.7544 143.395 41.0997 142.481 41.8989C142.926 42.218 143.321 42.6161 143.641 43.0879C145.075 45.1997 144.465 47.9876 142.279 49.3149C141.439 49.8246 140.49 50.0448 139.557 50.0031C139.71 51.3263 139.098 52.6681 137.854 53.4236C137.069 53.9006 136.163 54.0635 135.298 53.9469C134.502 55.1491 133.424 56.2049 132.084 57.0185C131.11 57.6097 130.071 58.0289 129.005 58.2846C129.391 59.4342 129.6 60.6592 129.6 61.9306C129.6 65.9662 127.498 69.5354 124.279 71.7042C124.306 71.9012 124.32 72.1022 124.32 72.3063C124.32 74.7474 122.302 76.7406 119.764 76.8613C121.103 78.2424 121.92 80.0865 121.92 82.112C121.92 86.394 118.267 89.8653 113.76 89.8653C109.253 89.8653 105.6 86.394 105.6 82.112C105.6 81.3945 105.703 80.6998 105.895 80.0404C105.758 80.0531 105.62 80.0596 105.48 80.0596C103.16 80.0596 101.28 78.2729 101.28 76.069C101.28 73.865 103.16 72.0783 105.48 72.0783C107.569 72.0783 109.302 73.5277 109.626 75.426C110.838 74.7477 112.251 74.3587 113.76 74.3587C114.29 74.3587 114.808 74.4067 115.31 74.4983C115.172 74.2601 115.056 74.0089 114.964 73.7472C112.057 73.2985 109.484 71.9045 107.605 69.908C107.318 70.1246 106.955 70.254 106.56 70.254C105.632 70.254 104.88 69.5393 104.88 68.6577C104.88 68.0662 105.219 67.5499 105.722 67.2741C104.876 65.6656 104.4 63.8509 104.4 61.9306C104.4 59.7676 105.004 57.7385 106.06 55.9873C104.548 55.5817 103.44 54.2613 103.44 52.695C103.44 52.2052 103.548 51.7394 103.744 51.3181C102.798 52.4358 101.347 53.1511 99.72 53.1511C98.9081 53.1511 98.1401 52.973 97.4567 52.6556C97.1507 52.9609 96.7187 53.1511 96.24 53.1511C95.3122 53.1511 94.56 52.4365 94.56 51.5549C94.56 51.1 94.7602 50.6895 95.0816 50.3988C94.8503 49.9492 94.6892 49.4611 94.6121 48.9473C93.2167 49.4534 91.7024 49.7306 90.12 49.7306C87.596 49.7306 85.2453 49.0254 83.2743 47.8111ZM93 56.7997C93.3314 56.7997 93.6 56.5445 93.6 56.2296C93.6 55.9148 93.3314 55.6595 93 55.6595C92.6686 55.6595 92.4 55.9148 92.4 56.2296C92.4 56.5445 92.6686 56.7997 93 56.7997ZM88.32 58.9661C88.32 59.281 88.0514 59.5362 87.72 59.5362C87.3886 59.5362 87.12 59.281 87.12 58.9661C87.12 58.6512 87.3886 58.396 87.72 58.396C88.0514 58.396 88.32 58.6512 88.32 58.9661ZM91.8 64.553C92.1314 64.553 92.4 64.2978 92.4 63.9829C92.4 63.6681 92.1314 63.4128 91.8 63.4128C91.4686 63.4128 91.2 63.6681 91.2 63.9829C91.2 64.2978 91.4686 64.553 91.8 64.553ZM85.2 66.4913C85.2 66.8062 84.9314 67.0614 84.6 67.0614C84.2686 67.0614 84 66.8062 84 66.4913C84 66.1765 84.2686 65.9213 84.6 65.9213C84.9314 65.9213 85.2 66.1765 85.2 66.4913ZM96.9853 79.5534C96.172 80.0195 95.219 80.2877 94.2 80.2877C91.2177 80.2877 88.8 77.9905 88.8 75.1568C88.8 72.3231 91.2177 70.0259 94.2 70.0259C94.4897 70.0259 94.774 70.0476 95.0514 70.0894C95.2009 68.2675 96.8042 66.8334 98.76 66.8334C100.814 66.8334 102.48 68.4159 102.48 70.368C102.48 72.1053 101.161 73.5499 99.4224 73.8467C99.5383 74.2649 99.6 74.704 99.6 75.1568C99.6 76.7691 98.8173 78.2077 97.5933 79.1483C97.9092 79.1647 98.16 79.4133 98.16 79.7176C98.16 80.0324 97.8914 80.2877 97.56 80.2877C97.2286 80.2877 96.96 80.0324 96.96 79.7176C96.96 79.6605 96.9688 79.6054 96.9853 79.5534ZM114.72 104.574C114.72 112.067 108.327 118.142 100.44 118.142C92.5534 118.142 86.16 112.067 86.16 104.574C86.16 100.282 88.2575 96.4548 91.5318 93.9686C91.0452 93.689 90.72 93.1814 90.72 92.6017C90.72 91.7201 91.4722 91.0055 92.4 91.0055C93.2656 91.0055 93.9784 91.6275 94.07 92.4269C95.9877 91.5172 98.1509 91.0055 100.44 91.0055C108.327 91.0055 114.72 97.0802 114.72 104.574ZM104.16 84.9624C104.16 85.2773 103.891 85.5325 103.56 85.5325C103.229 85.5325 102.96 85.2773 102.96 84.9624C102.96 84.6476 103.229 84.3923 103.56 84.3923C103.891 84.3923 104.16 84.6476 104.16 84.9624ZM94.44 87.813C94.7713 87.813 95.04 87.5577 95.04 87.2428C95.04 86.928 94.7713 86.6727 94.44 86.6727C94.1086 86.6727 93.84 86.928 93.84 87.2428C93.84 87.5577 94.1086 87.813 94.44 87.813ZM53.28 83.2522C53.28 84.1338 52.5278 84.8484 51.6 84.8484C50.6722 84.8484 49.92 84.1338 49.92 83.2522C49.92 82.3706 50.6722 81.6559 51.6 81.6559C52.5278 81.6559 53.28 82.3706 53.28 83.2522ZM44.64 77.5512C45.5678 77.5512 46.32 76.8365 46.32 75.9549C46.32 75.0734 45.5678 74.3587 44.64 74.3587C43.7122 74.3587 42.96 75.0734 42.96 75.9549C42.96 76.8365 43.7122 77.5512 44.64 77.5512ZM54 74.5867C54 75.4683 53.2478 76.183 52.32 76.183C51.3922 76.183 50.64 75.4683 50.64 74.5867C50.64 73.7051 51.3922 72.9904 52.32 72.9904C53.2478 72.9904 54 73.7051 54 74.5867ZM49.08 79.8316C49.4114 79.8316 49.68 79.5763 49.68 79.2615C49.68 78.9466 49.4114 78.6914 49.08 78.6914C48.7486 78.6914 48.48 78.9466 48.48 79.2615C48.48 79.5763 48.7486 79.8316 49.08 79.8316ZM44.4 81.9979C44.4 82.3128 44.1314 82.568 43.8 82.568C43.4686 82.568 43.2 82.3128 43.2 81.9979C43.2 81.6831 43.4686 81.4278 43.8 81.4278C44.1314 81.4278 44.4 81.6831 44.4 81.9979ZM40.68 90.0933C41.0114 90.0933 41.28 89.8381 41.28 89.5232C41.28 89.2084 41.0114 88.9531 40.68 88.9531C40.3486 88.9531 40.08 89.2084 40.08 89.5232C40.08 89.8381 40.3486 90.0933 40.68 90.0933ZM77.04 59.1941C77.04 59.509 76.7714 59.7642 76.44 59.7642C76.1086 59.7642 75.84 59.509 75.84 59.1941C75.84 58.8793 76.1086 58.624 76.44 58.624C76.7714 58.624 77.04 58.8793 77.04 59.1941ZM67.8 76.6391C68.1314 76.6391 68.4 76.3838 68.4 76.069C68.4 75.7541 68.1314 75.4989 67.8 75.4989C67.4686 75.4989 67.2 75.7541 67.2 76.069C67.2 76.3838 67.4686 76.6391 67.8 76.6391ZM90.24 52.9231C90.24 53.8047 89.4878 54.5194 88.56 54.5194C87.6322 54.5194 86.88 53.8047 86.88 52.9231C86.88 52.0415 87.6322 51.3268 88.56 51.3268C89.4878 51.3268 90.24 52.0415 90.24 52.9231ZM182.667 26.9329C181.96 26.1481 182.051 24.9717 182.871 24.3053C183.691 23.6389 184.929 23.7349 185.637 24.5197C186.344 25.3046 186.253 26.481 185.433 27.1474C184.613 27.8138 183.375 27.7178 182.667 26.9329ZM174.017 38.462C171.946 40.1455 171.715 43.1175 173.502 45.1003C175.289 47.083 178.417 47.3256 180.488 45.6421C182.56 43.9586 182.791 40.9865 181.004 39.0038C180.675 38.6392 180.301 38.3335 179.897 38.0878C180.783 37.1907 180.829 35.779 179.961 34.8157C179.03 33.7831 177.401 33.6567 176.322 34.5335C175.386 35.294 175.172 36.5593 175.739 37.5555C175.123 37.7383 174.537 38.0395 174.017 38.462ZM172.586 26.6102C172.4 26.4037 172.424 26.0941 172.64 25.9187C172.856 25.7434 173.181 25.7686 173.367 25.9751C173.554 26.1817 173.53 26.4913 173.314 26.6666C173.098 26.842 172.772 26.8167 172.586 26.6102ZM184.803 43.6473C183.81 44.454 183.699 45.8781 184.556 46.8281C185.412 47.7782 186.911 47.8944 187.903 47.0878C188.896 46.2811 189.006 44.857 188.15 43.9069C187.294 42.9568 185.795 42.8406 184.803 43.6473ZM209.489 79.3609C209.727 78.1254 210.959 77.2929 212.241 77.5016C213.523 77.7103 214.369 78.8811 214.13 80.1166C213.892 81.3522 212.66 82.1847 211.378 81.976C210.096 81.7673 209.251 80.5965 209.489 79.3609ZM249.6 63.6409C249.6 64.5225 248.848 65.2371 247.92 65.2371C246.992 65.2371 246.24 64.5225 246.24 63.6409C246.24 62.7593 246.992 62.0446 247.92 62.0446C248.848 62.0446 249.6 62.7593 249.6 63.6409ZM233.52 62.7287C234.448 62.7287 235.2 62.014 235.2 61.1325C235.2 60.2509 234.448 59.5362 233.52 59.5362C232.592 59.5362 231.84 60.2509 231.84 61.1325C231.84 62.014 232.592 62.7287 233.52 62.7287ZM235.674 51.2317C235.603 52.0511 234.881 52.695 234 52.695C233.072 52.695 232.32 51.9804 232.32 51.0988C232.32 50.3726 232.83 49.7598 233.529 49.5662C231.297 47.4062 229.92 44.4454 229.92 41.1791C229.92 34.5672 235.561 29.2071 242.52 29.2071C249.479 29.2071 255.12 34.5672 255.12 41.1791C255.12 43.2751 254.553 45.2452 253.557 46.9587C255.708 47.5501 257.28 49.435 257.28 51.6689C257.28 52.4528 257.086 53.1937 256.742 53.8508C257.402 53.142 258.366 52.6951 259.44 52.6951C261.058 52.6951 262.426 53.709 262.88 55.1045C264.782 54.0095 267.014 53.3792 269.4 53.3792C276.359 53.3792 282 58.7392 282 65.3512C282 69.3868 279.898 72.956 276.679 75.1248C276.706 75.3218 276.72 75.5228 276.72 75.7269C276.72 78.168 274.702 80.1611 272.164 80.2819C273.503 81.663 274.32 83.507 274.32 85.5325C274.32 89.8146 270.667 93.2858 266.16 93.2858C261.653 93.2858 258 89.8146 258 85.5325C258 84.8151 258.103 84.1204 258.294 83.461C258.158 83.4737 258.02 83.4802 257.88 83.4802C255.56 83.4802 253.68 81.6935 253.68 79.4895C253.68 77.2855 255.56 75.4989 257.88 75.4989C259.969 75.4989 261.702 76.9483 262.026 78.8466C263.238 78.1683 264.651 77.7792 266.16 77.7792C266.69 77.7792 267.208 77.8272 267.71 77.9189C267.572 77.6806 267.456 77.4295 267.364 77.1677C264.457 76.7191 261.884 75.3251 260.005 73.3285C259.718 73.5452 259.355 73.6746 258.96 73.6746C258.032 73.6746 257.28 72.9599 257.28 72.0783C257.28 71.4868 257.619 70.9705 258.122 70.6947C257.276 69.0862 256.8 67.2715 256.8 65.3512C256.8 63.1881 257.404 61.1591 258.46 59.4079C256.948 59.0023 255.84 57.6819 255.84 56.1156C255.84 55.6258 255.948 55.16 256.144 54.7387C255.198 55.8564 253.747 56.5717 252.12 56.5717C251.308 56.5717 250.54 56.3935 249.857 56.0761C249.551 56.3814 249.119 56.5717 248.64 56.5717C247.712 56.5717 246.96 55.857 246.96 54.9754C246.96 54.5205 247.16 54.1101 247.482 53.8193C247.25 53.3698 247.089 52.8817 247.012 52.3679C245.617 52.874 244.102 53.1511 242.52 53.1511C239.996 53.1511 237.645 52.446 235.674 51.2317ZM245.4 60.2203C245.731 60.2203 246 59.9651 246 59.6502C246 59.3354 245.731 59.0801 245.4 59.0801C245.069 59.0801 244.8 59.3354 244.8 59.6502C244.8 59.9651 245.069 60.2203 245.4 60.2203ZM240.72 62.3867C240.72 62.7015 240.451 62.9568 240.12 62.9568C239.789 62.9568 239.52 62.7015 239.52 62.3867C239.52 62.0718 239.789 61.8166 240.12 61.8166C240.451 61.8166 240.72 62.0718 240.72 62.3867ZM244.2 67.9736C244.531 67.9736 244.8 67.7183 244.8 67.4035C244.8 67.0886 244.531 66.8334 244.2 66.8334C243.869 66.8334 243.6 67.0886 243.6 67.4035C243.6 67.7183 243.869 67.9736 244.2 67.9736ZM237.6 69.9119C237.6 70.2268 237.331 70.482 237 70.482C236.669 70.482 236.4 70.2268 236.4 69.9119C236.4 69.5971 236.669 69.3418 237 69.3418C237.331 69.3418 237.6 69.5971 237.6 69.9119ZM249.385 82.974C248.572 83.4401 247.619 83.7082 246.6 83.7082C243.618 83.7082 241.2 81.4111 241.2 78.5774C241.2 75.7437 243.618 73.4465 246.6 73.4465C246.89 73.4465 247.174 73.4682 247.451 73.5099C247.601 71.6881 249.204 70.254 251.16 70.254C253.215 70.254 254.88 71.8365 254.88 73.7886C254.88 75.5259 253.561 76.9704 251.822 77.2673C251.938 77.6855 252 78.1246 252 78.5774C252 80.1897 251.217 81.6283 249.993 82.5689C250.309 82.5853 250.56 82.8339 250.56 83.1381C250.56 83.453 250.291 83.7082 249.96 83.7082C249.629 83.7082 249.36 83.453 249.36 83.1381C249.36 83.0811 249.369 83.026 249.385 82.974ZM267.12 107.994C267.12 115.488 260.727 121.563 252.84 121.563C244.953 121.563 238.56 115.488 238.56 107.994C238.56 103.702 240.658 99.8754 243.932 97.3891C243.445 97.1095 243.12 96.602 243.12 96.0223C243.12 95.1407 243.872 94.426 244.8 94.426C245.666 94.426 246.378 95.0481 246.47 95.8474C248.388 94.9378 250.551 94.426 252.84 94.426C260.727 94.426 267.12 100.501 267.12 107.994ZM256.56 88.383C256.56 88.6979 256.291 88.9531 255.96 88.9531C255.629 88.9531 255.36 88.6979 255.36 88.383C255.36 88.0682 255.629 87.813 255.96 87.813C256.291 87.813 256.56 88.0682 256.56 88.383ZM246.84 91.2335C247.171 91.2335 247.44 90.9782 247.44 90.6634C247.44 90.3485 247.171 90.0933 246.84 90.0933C246.509 90.0933 246.24 90.3485 246.24 90.6634C246.24 90.9782 246.509 91.2335 246.84 91.2335ZM242.64 56.3437C242.64 57.2253 241.888 57.9399 240.96 57.9399C240.032 57.9399 239.28 57.2253 239.28 56.3437C239.28 55.4621 240.032 54.7474 240.96 54.7474C241.888 54.7474 242.64 55.4621 242.64 56.3437ZM133.468 36.2986C134.074 35.9308 134.887 36.107 135.284 36.6923C135.682 37.2775 135.513 38.05 134.907 38.4178C134.301 38.7856 133.488 38.6094 133.091 38.0242C132.694 37.439 132.863 36.6664 133.468 36.2986ZM155.275 45.9049C154.898 46.2361 154.309 46.2142 153.961 45.8558C153.612 45.4975 153.635 44.9384 154.012 44.6071C154.389 44.2759 154.978 44.2978 155.326 44.6562C155.675 45.0145 155.652 45.5736 155.275 45.9049ZM149.623 39.3516C149.971 39.71 150.56 39.7319 150.937 39.4007C151.314 39.0694 151.337 38.5103 150.988 38.152C150.64 37.7936 150.051 37.7717 149.674 38.1029C149.297 38.4342 149.274 38.9933 149.623 39.3516ZM155.16 42.9974C155.284 43.1254 155.495 43.1332 155.629 43.0149C155.764 42.8966 155.772 42.697 155.648 42.569C155.523 42.441 155.313 42.4332 155.178 42.5515C155.044 42.6698 155.035 42.8694 155.16 42.9974ZM152.474 42.0039C152.34 42.1222 152.13 42.1144 152.005 41.9864C151.881 41.8584 151.889 41.6587 152.024 41.5404C152.158 41.4221 152.368 41.43 152.493 41.5579C152.617 41.6859 152.609 41.8856 152.474 42.0039ZM151.392 45.4474C151.517 45.5754 151.727 45.5832 151.861 45.4649C151.996 45.3466 152.004 45.1469 151.88 45.0189C151.755 44.8909 151.545 44.8831 151.41 45.0014C151.276 45.1197 151.268 45.3194 151.392 45.4474ZM148.083 43.6266C147.948 43.7449 147.738 43.7371 147.613 43.6091C147.489 43.4811 147.497 43.2815 147.632 43.1632C147.767 43.0448 147.977 43.0527 148.101 43.1807C148.226 43.3087 148.217 43.5083 148.083 43.6266ZM146.923 53.0867C146.418 52.9477 145.945 52.6804 145.562 52.2868C144.442 51.135 144.516 49.338 145.728 48.2732C146.941 47.2084 148.832 47.279 149.952 48.4308C150.061 48.5427 150.159 48.6607 150.245 48.7835C151.081 48.1567 152.297 48.237 153.032 48.9924C153.804 49.7859 153.753 51.0238 152.918 51.7573C152.174 52.4102 151.061 52.4435 150.28 51.8835C150.145 52.0855 149.98 52.2743 149.787 52.4445C149.097 53.0503 148.187 53.2886 147.325 53.1693C147.437 53.2975 147.425 53.4878 147.294 53.6021C147.16 53.7204 146.95 53.7125 146.825 53.5846C146.701 53.4566 146.709 53.2569 146.844 53.1386C146.868 53.1172 146.895 53.0999 146.923 53.0867ZM142.883 69.3381C139.678 72.1539 134.676 71.9673 131.713 68.9213C128.749 65.8752 128.946 61.1233 132.152 58.3075C133.988 56.6946 136.413 56.0668 138.707 56.3971C138.644 56.1041 138.739 55.7878 138.987 55.57C139.364 55.2387 139.952 55.2606 140.301 55.619C140.626 55.9533 140.628 56.4624 140.32 56.7981C141.43 57.197 142.462 57.8402 143.322 58.7243C146.286 61.7703 146.089 66.5222 142.883 69.3381ZM147.305 57.8903C147.171 58.0086 146.96 58.0007 146.836 57.8727C146.711 57.7448 146.72 57.5451 146.854 57.4268C146.989 57.3085 147.199 57.3163 147.324 57.4443C147.448 57.5723 147.44 57.7719 147.305 57.8903ZM142.433 55.2073C142.558 55.3352 142.768 55.3431 142.903 55.2248C143.037 55.1065 143.046 54.9068 142.921 54.7788C142.797 54.6508 142.586 54.643 142.452 54.7613C142.317 54.8796 142.309 55.0793 142.433 55.2073ZM155.781 40.4747C155.404 40.806 154.816 40.784 154.467 40.4257C154.118 40.0673 154.141 39.5083 154.519 39.177C154.896 38.8457 155.484 38.8677 155.833 39.226C156.182 39.5844 156.158 40.1434 155.781 40.4747Z" fill="url(#hello)"/>
<defs>
<linearGradient id="hello" x1="282" y1="66.2711" x2="2.66632e-07" y2="66.2711" gradientUnits="userSpaceOnUse">
<stop stop-color="#FBC55C"/>
<stop offset="1" stop-color="#505B89"/>
</linearGradient>
</defs>
</svg>
