<svg id="Layer_2" data-name="Layer 2" xmlns="http://www.w3.org/2000/svg" viewBox="0 0 597.35 544.29"><defs>
<style>.cls-1{fill:none;stroke:#efefef;stroke-miterlimit:10;stroke-width:18px;}</style>
</defs>
<circle class="cls-1" cx="70.62" cy="310.43" r="29.17"/><line class="cls-1" y1="542.79" x2="597.35" y2="542.79"/>
<line class="cls-1" x1="53.5" y1="334.49" x2="53.5" y2="542.79"/>
<line class="cls-1" x1="87.74" y1="334.49" x2="87.74" y2="542.79"/>
<rect class="cls-1" x="127.69" y="1.5" width="342.43" height="241.22"/>
<rect class="cls-1" x="167.26" y="31.94" width="264.81" height="179.59"/>
<line class="cls-1" x1="127.69" y1="1.5" x2="167.26" y2="31.94"/>
<line class="cls-1" x1="470.12" y1="1.5" x2="432.07" y2="31.94"/>
<line class="cls-1" x1="470.12" y1="242.72" x2="432.07" y2="211.52"/>
<path class="cls-1" d="M262,251.61l39.57-31.2s31.2-48.7,64.69-48.7,49.61,16.74,49.61,16.74S489.56,235.63,523,151.16c0,0,9.89-46.41,43.38-46.41" transform="translate(-134.34 -8.89)"/>
<path class="cls-1" d="M222.08,376.41S343,435,415.9,376.41" transform="translate(-134.34 -8.89)"/>
<path class="cls-1" d="M222.08,402.45S343,461,415.9,402.45" transform="translate(-134.34 -8.89)"/>
<path class="cls-1" d="M450.12,376.41S571,435,643.93,376.41" transform="translate(-134.34 -8.89)"/>
<path class="cls-1" d="M450.12,402.45S571,461,643.93,402.45" transform="translate(-134.34 -8.89)"/>
<circle class="cls-1" cx="315.46" cy="102.52" r="35.57"/><circle class="cls-1" cx="298.67" cy="310.43" r="29.17"/><line class="cls-1" x1="281.55" y1="334.49" x2="281.55" y2="542.79"/>
<line class="cls-1" x1="315.8" y1="334.49" x2="315.8" y2="542.79"/>
<circle class="cls-1" cx="526.88" cy="310.43" r="29.17"/>
<line class="cls-1" x1="509.76" y1="334.49" x2="509.76" y2="542.79"/>
<line class="cls-1" x1="544" y1="334.49" x2="544" y2="542.79"/></svg>