<svg width="109" height="109" viewBox="0 0 109 109" fill="none" xmlns="http://www.w3.org/2000/svg">
<path d="M43.1457 68.125V74.9375C43.1457 79.1534 41.471 83.1965 38.4899 86.1776C35.5089 89.1586 31.4657 90.8334 27.2499 90.8334V90.8334C23.0341 90.8334 18.9909 89.1586 16.0098 86.1776C13.0288 83.1965 11.3541 79.1534 11.3541 74.9375V43.1459" stroke="white" stroke-width="4.16667" stroke-linecap="round" stroke-linejoin="round"/>
<path d="M65.8541 68.125V74.9375C65.8541 79.1534 67.5288 83.1965 70.5098 86.1776C73.4909 89.1586 77.5341 90.8334 81.7499 90.8334V90.8334C85.9657 90.8334 90.0089 89.1586 92.99 86.1776C95.971 83.1965 97.6457 79.1534 97.6457 74.9375V43.1459" stroke="white" stroke-width="4.16667" stroke-linecap="round" stroke-linejoin="round"/>
<path d="M72.6666 18.1667H36.3332C22.5376 18.1667 11.3541 29.3502 11.3541 43.1459C11.3541 56.9415 22.5376 68.125 36.3332 68.125H72.6666C86.4622 68.125 97.6457 56.9415 97.6457 43.1459C97.6457 29.3502 86.4622 18.1667 72.6666 18.1667Z" stroke="white" stroke-width="4.16667"/>
<path d="M47.6873 43.1459H29.5206" stroke="white" stroke-width="4.16667" stroke-linecap="round" stroke-linejoin="round"/>
<path d="M38.6041 34.0625V52.2292" stroke="white" stroke-width="4.16667" stroke-linecap="round" stroke-linejoin="round"/>
<path d="M81.7499 38.6042C81.7499 36.0959 79.7165 34.0625 77.2082 34.0625C74.6999 34.0625 72.6666 36.0959 72.6666 38.6042C72.6666 41.1125 74.6999 43.1458 77.2082 43.1458C79.7165 43.1458 81.7499 41.1125 81.7499 38.6042Z" fill="white"/>
<path d="M72.6665 49.9584C72.6665 47.4501 70.6331 45.4167 68.1248 45.4167C65.6165 45.4167 63.5831 47.4501 63.5831 49.9584C63.5831 52.4666 65.6165 54.5 68.1248 54.5C70.6331 54.5 72.6665 52.4666 72.6665 49.9584Z" fill="white"/>
</svg>
