<svg width="313" height="157" viewBox="0 0 313 157" fill="none" xmlns="http://www.w3.org/2000/svg">
<path d="M190.832 112.844C182.062 117.137 174.974 123.321 169.57 131.396C164.165 139.47 161.462 148.005 161.462 157H151.673C151.673 148.005 148.97 139.47 143.565 131.396C138.161 123.321 131.073 117.137 122.303 112.844C110.576 108.04 101.118 100.757 93.9281 90.9956C86.7387 81.2342 83.144 70.5273 83.144 58.875V19.625C83.144 16.9674 84.0873 14.6676 85.9739 12.7256C87.8605 10.7835 90.1805 9.8125 92.9338 9.8125C95.2793 9.8125 97.3698 10.5791 99.2054 12.1123C101.041 13.6455 102.163 15.5365 102.571 17.7852C108.383 13.2878 114.961 10.6813 122.303 9.96582V9.8125C122.303 7.05273 123.272 4.72738 125.21 2.83643C127.147 0.945475 129.467 0 132.17 0C134.872 0 137.166 0.945475 139.053 2.83643C140.94 4.72738 141.883 7.05273 141.883 9.8125V58.875C141.883 61.6348 140.914 63.9601 138.977 65.8511C137.039 67.742 134.744 68.6875 132.093 68.6875C129.442 68.6875 127.147 67.742 125.21 65.8511C123.272 63.9601 122.303 61.6348 122.303 58.875V58.5684C114.961 57.5462 108.434 54.9909 102.724 50.9023V58.875C102.724 61.3281 101.908 63.4746 100.276 65.3145C98.6446 67.1543 96.605 68.2275 94.1576 68.5342C95.8912 75.7913 99.2309 82.4863 104.177 88.6191C109.123 94.752 115.165 99.556 122.303 103.031C130.054 106.2 136.886 110.569 142.801 116.14C148.715 121.711 153.304 128.022 156.568 135.075C159.831 128.022 164.42 121.711 170.334 116.14C176.249 110.569 183.082 106.2 190.832 103.031C197.97 99.556 204.012 94.752 208.958 88.6191C213.904 82.4863 217.244 75.7913 218.978 68.5342C216.53 68.2275 214.491 67.1543 212.859 65.3145C211.227 63.4746 210.411 61.3281 210.411 58.875V50.9023C204.803 54.9909 198.276 57.5462 190.832 58.5684V58.875C190.832 61.6348 189.889 63.9601 188.002 65.8511C186.115 67.742 183.821 68.6875 181.119 68.6875C178.416 68.6875 176.096 67.742 174.159 65.8511C172.221 63.9601 171.252 61.6348 171.252 58.875V9.8125C171.252 7.05273 172.221 4.72738 174.159 2.83643C176.096 0.945475 178.416 0 181.119 0C183.821 0 186.115 0.945475 188.002 2.83643C189.889 4.72738 190.832 7.05273 190.832 9.8125V9.96582C198.174 10.6813 204.752 13.2878 210.564 17.7852C211.074 15.5365 212.222 13.6455 214.006 12.1123C215.791 10.5791 217.856 9.8125 220.201 9.8125C222.955 9.8125 225.275 10.7835 227.161 12.7256C229.048 14.6676 229.991 16.9674 229.991 19.625V58.875C229.991 70.5273 226.396 81.2342 219.207 90.9956C212.018 100.757 202.559 108.04 190.832 112.844Z" fill="url(#paint0)"/>
<path d="M272 8V65.7778M285 26.7778V47V26.7778ZM298 18.1111V55.6667V18.1111ZM259 26.7778V47V26.7778ZM311 28.2222V45.5556V28.2222Z" stroke="url(#paint1)" stroke-width="4" stroke-linecap="round"/>
<path d="M41 8V65.7778M28 26.7778V47V26.7778ZM15 18.1111V55.6667V18.1111ZM54 26.7778V47V26.7778ZM2 28.2222V45.5556V28.2222Z" stroke="url(#paint2)" stroke-width="4" stroke-linecap="round"/>
<defs>
<linearGradient id="paint0" x1="188.094" y1="157" x2="134.756" y2="2.08241" gradientUnits="userSpaceOnUse">
<stop stop-color="#EFA561"/>
<stop offset="1" stop-color="#505B89"/>
</linearGradient>
<linearGradient id="paint1" x1="311" y1="37.2369" x2="259" y2="37.2369" gradientUnits="userSpaceOnUse">
<stop stop-color="#EFA561"/>
<stop offset="1" stop-color="#505B89"/>
</linearGradient>
<linearGradient id="paint2" x1="2" y1="37.2369" x2="54" y2="37.2369" gradientUnits="userSpaceOnUse">
<stop stop-color="#EFA561"/>
<stop offset="1" stop-color="#505B89"/>
</linearGradient>
</defs>
</svg>