<svg width="414" height="546" viewBox="0 0 414 546" fill="none" xmlns="http://www.w3.org/2000/svg">
<path fill-rule="evenodd" clip-rule="evenodd" d="M316.387 386.189L316.739 386.903L316.387 386.189ZM302.588 431.712C302.538 431.572 301.679 431.305 302.051 431.753C302.397 432.168 302.6 431.749 302.588 431.712ZM290.433 435.683C290.414 435.632 289.576 435.522 289.989 435.947C290.334 436.3 290.452 435.739 290.433 435.683ZM347.435 470.202C347.192 471.003 347.007 470.832 347.769 470.861L347.435 470.202ZM448.574 390.073C448.546 389.992 447.575 389.796 447.972 390.21C448.311 390.563 448.586 390.113 448.574 390.073ZM341.415 483.917C341.384 483.826 340.389 483.551 340.83 484.041C341.177 484.427 341.447 484.007 341.415 483.917ZM390.09 475.967L390.124 476.77C390.525 476.256 391.115 476.637 390.09 475.967ZM400.97 485.498L401.523 486.182C401.439 485.326 402.097 485.404 400.97 485.498ZM302.243 419.643L301.622 420.436C303.095 420.046 302.358 420.219 302.243 419.643ZM375.657 489.859L376.536 490.513C376.322 489.748 376.832 489.64 375.657 489.859ZM307.215 422.442L306.486 422.911L305.881 425.109C303.56 425.262 304.49 424.233 303.419 425.779C305.007 426.133 304.297 425.525 305.576 426.106C306.764 426.647 305.859 426.841 307.815 427.092L308.806 427.616L308.92 428.384L310.297 429.091L309.254 429.393C309.13 430.429 309.642 431.612 310.224 432.647C309.599 432.94 309.278 433.405 308.332 433.825C305.675 433.31 306.891 432.375 304.154 433.74C301.524 435.053 302.203 434.837 300.12 436.302C295.378 433.154 296.24 434.344 295.172 431.284C293.089 432.622 295.482 433.984 292.51 436.224C289.047 438.834 291.638 438.136 290.635 441.673C288.896 442.92 287.95 442.869 287.917 445.26C287.891 447.149 287.866 448.553 289.943 449.188C292.859 448.539 292.797 446.448 294.231 444.387C296.806 444.653 295.431 444.566 297.396 443.205C298.919 442.15 299.424 442.724 301.113 442.036C299.169 439.658 300.88 438.239 303.528 438.407L304.104 439.262L305.954 440.969L306.105 439.249L307.004 440.124L305.954 440.969L307.521 440.806C307.445 438.711 307.178 438.466 305.31 438.171L304.955 436.321L310.674 436.417C312.593 436.565 311.894 435.683 313.787 436.479C315.364 437.141 315.124 437.101 316.889 437.232L316.941 438.151L314.521 439.126C313.818 437.988 314.55 437.399 312.317 436.809C311.252 438.223 309.939 440.006 309.857 441.978L309.011 442.718C306.592 442.952 306.839 445.336 307.89 446.969C309.384 448.005 309.533 447.756 310.517 447.337C310.185 449.001 311.087 450.888 312.459 451.619C312.956 452.875 313.67 454.098 314.707 454.866L316.281 453.757C319.094 455.234 318.698 453.218 321.671 454.46C322.168 455.954 321.324 455.307 322.174 456.163C323.799 453.945 325.022 448.313 325.047 448.26C326.114 449.419 325.939 448.86 326.263 450.359L327.141 451.052L327.719 452.278L328.503 452.126C330.148 451.749 329.289 451.807 329.531 452.335L331.371 452.793C330.818 454.289 330.609 452.701 330.564 454.926L333.112 455.377L332.07 456.943L332.638 458.926C335.194 459.496 333.399 458.948 335.684 458.632L336.879 459.385C336.394 461.021 336.716 462.923 337.104 464.595C337.939 468.191 338.249 466.638 340.253 468.403C340.57 470.942 338.665 470.391 338.976 473.561C339.232 476.138 337.68 477.927 339.955 479.415C341.805 479.371 341.683 479.304 342.314 477.713C344.028 473.383 345.647 473.877 345.159 468.514L346.921 466.759C347.721 466.125 347.743 467.03 347.441 465.885L349.001 465.451C350.327 467.261 349.518 468.183 349.594 470.024C352.54 471.242 352.084 471.929 354.343 473.229C355.604 473.201 355.686 472.788 356.301 472.835C357.42 472.92 356.527 473.573 358.093 473.393C358.583 473.336 362.473 472.63 362.67 472.538L361.733 471.271C363.517 469.912 364.961 470.781 366.593 471.692L368.209 476.03C369.551 475.553 368.987 475.539 369.634 474.438C372.887 475.469 373.288 474.369 375.304 474.992C379.262 476.215 377.783 475.432 380.902 474.475C383.004 475.346 382.164 476.888 383.766 478.693C385.247 478.713 386.541 478.141 386.009 476.407C385.307 474.114 384.227 475.62 382.924 474.617C383.463 473.911 385.513 473.517 386.587 474.189C386.797 473.245 386.958 472.821 387.249 472.463C387.479 472.547 387.744 472.662 388.058 472.819C389.37 473.47 389.91 473.452 391.379 473.398C392.175 472.425 392.315 471.79 392.849 471.402C393.767 471.372 394.618 471.241 395.197 470.909C396.652 470.907 398.104 471.48 399.369 470.909C398.746 470.118 397.212 470.692 395.561 470.638C395.579 470.62 395.597 470.6 395.613 470.584C397.339 468.682 396.602 464.586 395.251 464.344L394.716 462.24C395.255 461.933 395.658 461.757 395.983 461.66L396.26 462.403C397.133 462.093 397.2 461.977 397.317 461.633C397.618 461.678 397.965 461.712 398.479 461.634C397.985 461.026 397.78 461.054 397.556 461.046C397.593 460.973 397.636 460.895 397.684 460.81C400.939 461.841 401.34 460.74 403.356 461.364C406.757 462.416 406.141 461.984 407.884 461.235C408.119 461.566 408.37 461.83 408.629 461.993C408.7 461.728 408.706 461.363 408.662 460.942C408.754 460.911 408.851 460.879 408.953 460.848C411.055 461.718 410.216 463.26 411.818 465.064C413.298 465.084 414.593 464.512 414.061 462.78C413.359 460.487 412.279 461.993 410.974 460.988C411.288 460.581 412.105 460.276 412.947 460.222C413.141 460.397 413.404 460.453 414.126 461.513C414.921 462.68 416.489 466.798 417.538 469.378L417.514 469.374C417.213 470.521 416.908 470.439 418.035 470.57C418.082 470.679 418.126 470.78 418.168 470.873C419.471 473.737 421.041 476.837 422.27 479.739C423.287 482.141 424.63 488.475 426.616 489.516C427.983 486.722 421.738 475.995 420.231 471.835C419.267 469.175 417.9 466.504 416.615 463.807C417.067 463.736 417.131 463.681 416.989 462.949L416.469 463.501C415.887 462.271 415.327 461.037 414.832 459.793C415.158 458.71 415.509 458.65 416.709 457.538C418.375 457.627 422.453 458.29 423.665 456.955C424.527 456.004 424.775 454.506 424.637 453.213C425.073 453.567 425.546 453.947 426.05 454.35C426.011 455.168 426.128 455.226 426.892 456.105C427.406 456.199 427.833 456.161 428.166 456.031C431.409 458.593 435.261 461.551 438.169 463.58L437.182 463.92C438.244 464.332 438.151 464.336 438.464 463.784C440.547 465.223 442.095 466.137 442.491 465.999C442.083 464.697 434.795 459.78 428.908 455.282C429.124 454.651 428.857 453.778 428.018 453.01L426.494 453.393C425.59 452.66 424.759 451.959 424.043 451.304C423.876 451.048 423.684 450.862 423.473 450.771C423.402 450.701 423.333 450.633 423.264 450.564L422.768 448.613C424.953 447.369 424.894 448.253 426.53 448.006C425.509 446.744 425.72 448.223 424.444 446.423C425.493 445.282 425.01 446.026 426.503 445.515L426.561 442.493L427.756 442.067C427.344 440.34 426.774 441.261 427.213 439.528C428.947 439.064 427.929 439.81 429.738 439.785L431.239 439.66L431.984 441.707L432.082 441.681C431.928 443.297 433.245 444.791 434.811 445.074C435.189 446.465 435.898 447.874 436.681 448.366C436.867 447.668 436.607 446.283 436.15 445.004C436.748 444.827 437.334 444.441 437.844 443.788C439.161 442.106 438.664 440.344 437.476 439.39L437.904 439.108C439.168 438.012 438.387 438.736 438.539 439.001C438.929 441.026 439.582 442.33 440.127 444.225C441.157 447.81 440.679 445.686 442.178 447.885C443.157 449.323 445.312 455.247 446.22 457.245C447.522 460.108 449.093 463.208 450.322 466.112C451.338 468.512 452.681 474.848 454.668 475.888C456.034 473.093 449.789 462.366 448.282 458.206C446.283 452.688 442.543 447.121 441.412 441.361L444.952 443.314L445.707 442.088C444.42 441.244 444.183 441.772 444.714 440.135C445.616 440.858 445.324 440.804 445.707 442.088L446.364 441.352C446.994 441.51 447.731 441.47 448.105 441.669C447.492 439.897 449.24 438.985 450.001 437.369C452.081 439.178 469.087 452.88 470.543 452.372C469.867 450.222 450.464 438.228 449.519 434.519C450.425 433.196 451.977 432.944 451.413 431.017C450.91 429.294 449.074 429.006 447.609 429.597C447.058 431.158 447.638 431.553 446.374 432.909C444.258 432.68 438.962 426.577 438.962 426.576C439.421 421.911 444.006 426.191 445.992 425.608C445.188 424.108 437.947 424.204 440.178 419.828C441.685 416.868 449.699 416.795 451.123 414.843C449.316 414.368 446.544 416.201 444.54 416.492L442.687 414.758L442.577 414.102L444.037 414.143L442.779 412.834C443.8 411.88 444.015 412.208 444.322 411.111L441.94 412.343L440.616 412.003C440.29 410.457 440.426 410.636 441.186 409.453C442.287 407.742 441.321 407.833 442.634 407.136L443.689 406.296L444.043 406.014C445.849 406.403 444.371 406.47 445.719 405.837C445.997 404.303 446.222 405.125 445.019 403.798C446.335 402.968 445.958 403.538 445.925 402.103L444.209 401.634L444.333 399.372L443.056 398.841L442.337 399.056C443.109 397.544 442.124 398.439 442.528 397.051C442.639 396.672 443.756 395.021 444.044 394.565C445.074 392.933 446.703 391.066 447.151 389.255C447.979 388.411 448.213 387.862 448.872 386.955C450.007 385.39 450.287 385.915 451.7 384.776C452.276 382.405 451.442 383.077 453.009 380.603C453.628 379.626 455.015 378.172 455.017 377.159L451.472 382.067C448.687 381.915 449.923 381.645 447.876 383.222L447.071 383.731C445.812 382.125 447.039 382.687 445.104 381.562L441.666 381.819L440.499 379.62L441.869 380.166C442.998 379.072 442.181 379.679 442.075 377.964L443.729 376.536L443.477 375.445L443.418 374.855L444.395 374.348C445.481 373.817 446.846 373.417 446.832 371.951C446.815 370.026 445.758 370.282 444.62 369.427L444.468 369.011C446.314 365.784 450.274 365.754 450.545 365.552C452.245 363.507 451.165 363.642 451.957 361.664L456.531 360.661L457.541 357.738L453.678 354.748L452.058 355.12L451.052 352.743L449.115 353.444L450.708 353.909C450.352 356.638 450.048 355.681 448.728 357.339C449.138 360.477 450.471 359.628 450.882 361.292L448.025 362.587L447.248 361.106L445.125 360.57C445.383 359.16 445.168 359.391 446.334 359.393L445.981 358.283L445.397 359.266C444.186 357.68 445.668 358.568 443.73 357.44C441.832 359.29 444.348 358.6 442.647 359.838L441.861 358.298C439.874 356.035 441.51 356.994 438.816 355.938L437.74 355.283L436.48 356.376L435.661 355.661C435.651 355.467 436.561 352.464 436.741 352.106C437.585 350.434 439.126 350.352 438.505 348.321C436.313 349.098 437.028 351.362 435.75 352.275C434.184 353.125 434.326 352.68 432.812 352.171L431.747 352.533C429.599 354.506 431.919 354.209 430.395 356.755L429.544 358.173L427.083 359.747L425.62 356.74C427.567 355.781 428.067 354.358 428.929 352.61L427.428 352.246C428.569 350.625 428.081 352.724 429.46 350.545L428.372 349.063C428.533 347.093 428.224 346.594 426.604 345.53C425.299 345.958 424.234 346.748 422.809 345.784C421.753 345.07 421.172 342.904 420.096 342.917L419.051 341.444C419.14 339.995 419.611 339.126 418.767 337.658L416.925 336.812L414.722 335.139C414.018 336.492 414.284 335.65 412.732 336.357L411.756 336.339L411.716 337.362C410.652 337.474 410.936 337.108 410.689 337.182C409.606 337.51 412.512 337.791 408.002 337.652C406.297 337.602 406.934 338.321 406.765 337.48L405.619 336.77L404.842 336.847C404.78 336.856 404.721 336.866 404.665 336.876C404.488 335.902 404.381 335.282 403.376 334.748C401.234 333.504 402.773 333.883 401.758 332.8L400.615 334.067L400.74 336.265C400.701 336.564 400.694 336.832 400.717 337.07C399.553 336.675 399.427 336.987 398.791 336.658C397.599 336.043 398.486 335.8 396.728 335.312L396.604 335.812C396.272 335.525 395.701 335.378 394.948 335.55C394.473 336.909 394.429 336.534 395.192 337.495L395.081 337.696L393.932 337.388C393.071 338.415 394.189 337.998 392.582 338.782L390.785 339.577C390.279 341.624 390.962 342.398 389.076 343.973C386.799 343.544 387.677 342.889 385.961 341.661C384.365 342.146 385.129 341.939 384.014 343.07L383.22 343.411L382.298 343.84C382.292 342.986 381.894 342.102 381.144 341.436C381.264 341.416 381.247 341.222 381.611 340.702C380.57 340.624 380.898 340.441 380.541 340.997C380.033 340.695 379.422 340.479 378.714 340.392C378.436 340.569 378.196 340.761 377.985 340.959C378.164 340.56 378.436 340.151 378.232 338.894C376.734 338.221 376.314 337.669 374.825 338.397C375.309 340.567 374.705 338.881 376.078 340.279C374.846 340.593 375.209 340.249 374.203 340.498L371.782 342.004L371.832 342.081L371.125 344.41L370.223 345.18L370.187 346.502C370.695 348.115 371.167 348.194 371.51 349.116L370.656 350.243C369.59 349.659 370.391 349.416 368.677 348.939L368.234 350.719C368.101 350.785 367.984 350.849 367.88 350.91L367.264 350.896L367.03 351.324L365.88 351.014C365.178 351.852 365.791 351.73 365.172 352.081C364.908 350.722 365.809 349.018 364.641 346.85C366.517 342.208 359.486 346.118 361.79 341.17L361.265 340.215C360.401 337.916 359.793 337.643 358.745 335.573C357.563 333.24 355.65 333.897 353.635 334.564L352.717 333.521C352.275 331.639 352.007 330.98 350.018 330.516C347.625 331.085 348.09 331.626 347.007 333.562L345.483 335.858L344.317 335.571L343.908 336.539L342.549 333.552C341.898 332.044 342.782 332.082 342.503 330.567C341.891 332.679 341.903 334.027 338.151 333.599C337.07 335.954 337.713 338.316 337.057 339.66C336.371 341.062 336.613 341.425 336.9 343C337.23 344.803 336.982 344.009 338.145 344.372L338.306 345.778C335.845 347.31 336.667 346.54 334.175 346.403C331.77 348.314 331.502 349.507 332.767 352.042L332.498 352.239C331.952 351.226 331.432 350.66 330.693 349.2C329.512 346.868 327.598 347.526 325.583 348.191L324.666 347.149C324.223 345.267 323.956 344.609 321.966 344.143C319.574 344.712 320.039 345.255 318.956 347.192L317.432 349.486L316.266 349.201L315.858 350.166L314.497 347.18C313.846 345.672 314.731 345.709 314.453 344.193C313.839 346.306 313.851 347.655 310.1 347.226C309.018 349.58 309.662 351.945 309.004 353.289C308.319 354.689 308.561 355.054 308.85 356.629C309.178 358.43 308.93 357.638 310.094 358.001L310.255 359.408C307.795 360.937 308.616 360.167 306.123 360.031C303.72 361.942 303.451 363.135 304.715 365.671L303.58 366.502L304.887 367.008L303.84 367.537L301.367 368.803C300.139 375.556 305.296 372.916 306.526 376.21L306.978 377.469L305.978 378.381L305.077 376.993L302.096 375.303C300.093 375.127 299.81 375.003 298.764 376.786L297.768 377.852C297.14 378.712 297.436 378.782 296.987 379.367C296.275 380.295 296.632 378.869 295.709 380.816C296.69 381.74 296.698 381.345 297.578 382.323C298.301 383.127 297.359 382.278 298.787 382.566C299.13 386.793 300.841 384.252 299.625 386.457L301.241 387.695L300.028 389.884L301.615 390.476L302.328 392.728C301.937 397.741 306.314 398.495 306.798 398.749L306.954 401.795L309.06 402.096C311.524 399.424 311.429 399.635 310.388 396.874L312.813 397.103C312.66 398.777 312.436 398.172 312.656 400.157C311.211 401.115 311.242 400.606 310.433 402.271C307.132 409.067 310.656 407.375 309.529 411.949L312.354 413.331L312.438 413.941L310.432 414.95L311.028 416.526L309.646 418.989L308.864 417.714L306.596 418.838C305.596 419.805 305.423 419.676 305.511 421.054L306.646 421.328L307.059 421.304L307.215 422.442ZM310.388 429.065L310.955 427.963C310.968 427.969 310.985 427.975 310.999 427.98C312.036 429.352 311.203 428.553 312.665 428.925C314.214 429.009 313.868 428.823 314.863 429.893L313.866 430.517L314.28 432.236C313.043 432.742 312.849 432.662 312.568 432.53C312.947 431.404 312.207 429.977 311.219 428.826L310.388 429.065ZM405.661 366.158C405.433 366.057 405.153 365.93 404.762 365.798L404.263 365.967C404.297 365.798 404.332 365.617 404.366 365.427L403.221 365.373C403.996 364.487 403.455 364.753 404.366 365.427L404.693 364.188C405.256 364.323 405.557 365.238 405.661 366.158ZM400.996 363.611L400.32 362.691C400.367 362.108 400.374 361.654 400.318 361.278C400.989 361.07 400.992 361.857 402.149 362.64L403.138 361.359C404.149 362.226 403.975 362.014 404.197 363.204L401.771 364.247C401.537 364.04 401.267 363.828 400.996 363.611ZM383.684 350.48L383.664 350.99C383.311 351.028 383.107 351.011 382.982 350.977C382.97 350.857 382.951 350.687 382.887 350.448C383.274 350.432 383.537 350.411 383.684 350.48ZM364.542 352.405L364.531 352.41L363.065 353.058L362.962 353.073L363.311 350.939C364.222 351.918 364.301 351.615 364.542 352.405ZM411.526 324.661C411.498 324.587 410.322 324.401 410.874 324.955C411.343 325.425 411.543 324.71 411.526 324.661ZM280.711 448.734C280.668 448.619 279.405 448.347 279.97 448.927C280.473 449.444 280.713 448.742 280.711 448.734ZM388.939 476.576L388.052 477.518C388.96 477.338 389.122 477.527 388.939 476.576ZM342.873 487.595C343.095 488.414 342.677 488.112 343.531 488.091C343.516 488.032 344.359 487.417 342.873 487.595ZM285.745 376.926C285.632 377.756 285.376 377.495 286.224 377.739C286.331 377.088 286.687 377.153 285.745 376.926ZM351.739 484.508L350.652 484.284C351.083 485.747 351.064 485.168 351.739 484.508ZM394.744 481.342C395.005 482.172 394.524 482.18 395.625 481.773C395.38 481.012 395.82 480.929 394.744 481.342ZM299.297 417.741C298.123 417.687 298.632 417.348 297.969 418.361C299.231 418.62 298.474 418.704 299.297 417.741ZM305.521 412.646C304.614 412.943 304.452 412.646 304.673 413.794C305.348 413.592 305.656 413.688 305.521 412.646ZM333.425 471.446C333.134 472.645 333.255 472.697 334.311 472.351C334.186 471.536 334.821 471.616 333.425 471.446ZM439.525 459.606C439.857 460.817 439.74 460.485 440.777 460.205C440.57 459.651 441.727 460.267 440.403 459.6C439.528 459.16 439.966 459.462 439.525 459.606ZM366.191 340.968C365.926 342.105 366.006 342.125 366.895 342.748C367.187 341.742 367.07 341.676 366.191 340.968ZM337.154 468.715C336.337 469.28 336.208 469.922 336.463 470.822C337.115 470.098 337.37 469.612 337.154 468.715ZM432.28 446.269C431.55 447.347 431.914 447.776 433.137 447.3C433.023 446.238 433.31 446.513 432.28 446.269ZM389.463 483.002C389.144 484.218 388.819 484.053 390.206 484.224C390.708 483.008 390.74 483.208 389.463 483.002ZM300.108 430.786C298.658 430.915 298.854 431.09 299.504 432.116C300.307 431.82 300.701 431.87 300.108 430.786ZM296.401 368.309C295.646 369.167 295.581 369.158 296.684 369.906C297.697 368.707 297.304 368.821 296.401 368.309ZM309.712 436.862C308.359 437.849 308.985 438.6 310.327 438.105C310.316 436.882 310.716 437.596 309.712 436.862ZM294.262 459.994L293.104 458.97C292.248 460.101 292.36 459.515 292.88 460.649L294.262 459.994ZM329.716 455.783C328.047 455.42 329.157 456.187 327.404 456.747L328.5 457.536C329.473 456.613 329.557 456.836 329.716 455.783ZM324.021 453.044C323.571 454.414 323.649 454.81 325.212 454.543C325.707 453.193 325.412 452.97 324.021 453.044ZM354.511 493.233C354.27 491.727 354.204 491.621 352.82 492.122C352.49 493.383 352.414 493.016 353.386 493.778L354.511 493.233ZM309.05 410.391C307.811 410.072 306.915 410.453 306.455 411.704C307.568 412.436 308.729 411.499 309.05 410.391ZM382.818 483.209C381.801 482.301 381.221 482.358 380.075 483.057C380.621 484.602 381.865 484.308 382.818 483.209ZM319.325 456.616C318.279 456.949 317.873 458.708 318.257 459.663C319.702 459.333 319.983 457.717 319.325 456.616ZM365.186 490.152C364.111 489.278 364.181 489.409 363.106 490.161L363.505 491.668C364.818 491.573 365.274 491.692 365.186 490.152ZM305.024 355.562C304.205 356.782 304.24 356.887 305.452 357.72C307.439 357.145 306.886 355.33 305.024 355.562ZM351.303 475.595C349.509 476.4 349.745 477.517 351.489 477.977C352.77 476.94 352.591 476.49 351.303 475.595ZM315.694 344.687L315.622 346.926L318.075 346.541C317.313 344.55 316.517 344.629 315.694 344.687ZM363.899 334.13C363.539 335.64 364.125 336.61 365.674 336.891C366.559 335.363 365.586 334.024 363.899 334.13ZM396.213 487.527C393.899 488.458 395.102 491.199 397.346 489.839C397.411 488.315 397.536 488.344 396.213 487.527ZM329.668 442.523L330.809 444.278L328.964 444.98C328.859 443.276 329.037 444.447 328.331 444.285C328.626 443.12 328.502 442.902 329.668 442.523ZM399.966 466.639L398.054 467.119C397.943 468.824 397.87 468.616 398.84 469.733C401.033 470.13 401.647 468.175 399.966 466.639ZM382.582 491.605C384.337 489.804 381.87 487.224 380.046 488.853C378.519 490.215 380.655 493.584 382.582 491.605ZM283.167 442.453L281.201 443.02C281.021 444.528 282.19 446.348 282.956 447.567C285.585 446.556 284.658 444.19 283.167 442.453ZM404.849 495.277C407.212 493.118 405.251 490.725 403.461 491.447C401.725 492.144 401.391 495.761 404.849 495.277ZM297.146 352.3L295.005 355.201C298.918 360.48 302.624 354.855 297.146 352.3ZM312.443 462.066C316.135 460.03 313.44 454.498 310.193 456.534C307.106 458.472 309.261 463.82 312.443 462.066ZM288.49 439.852C288.797 434.892 284.933 434.238 282.145 437.791C279.696 440.914 284.129 443.952 288.49 439.852ZM406.892 320.728C405.401 322.116 405.388 324.653 404.827 326.462C403.877 329.527 402.435 329.896 404.651 333.083C405.097 332.758 405.442 332.407 405.714 332.035C406.413 332.793 407.455 333.165 408.509 332.754C411.432 331.616 410.73 327.733 407.414 326.886C407.469 326.742 407.529 326.597 407.595 326.455C408.463 324.58 411.233 320.351 406.892 320.728ZM286.001 458.113C280.388 458.972 282.257 465.209 285.353 465.542C288.437 465.876 290.483 460.334 286.001 458.113ZM324.462 351.314L323.291 353.6L323.334 354.645L321.393 353.503C322.538 352.335 321.834 353.265 322.958 352.644C323.542 352.32 323.875 351.843 324.462 351.314ZM364.726 483.194L364.998 481.132C363.752 479.869 363.889 480.5 363.089 479.972C361.66 479.027 362.805 478.938 361.142 477.861C358.943 478.172 359.134 479.428 358.492 481.278L357.183 480.543C355.973 481.259 354.729 481.619 354.472 483.042C354.237 484.339 354.917 485.861 356.239 486.197C358.112 486.674 357.38 485.139 360.007 486.445C361.318 487.099 361.859 487.08 363.327 487.024C364.687 485.363 364.134 484.689 366.894 484.545C368.434 484.464 369.979 485.141 371.316 484.537C370.339 483.295 367.123 485.417 364.726 483.194ZM310.551 359.56C311.245 358.303 310.945 357.8 312.324 357.448L312.742 358.828L312.996 360.436L311.427 360.78L310.551 359.56ZM315.516 361.592L317.348 360.34L317.88 361.509L319.747 361.495C317.716 362.24 317.498 362.559 315.516 361.592ZM324.403 361.298C324.304 359.552 323.928 360.463 325.198 359.172L326.255 360.756L324.403 361.298ZM305.609 383.4C305.662 383.549 305.336 384.068 304.916 383.623C304.373 383.048 305.572 383.293 305.609 383.4ZM308.211 383.985C307.495 384.034 307.972 384.812 307.403 383.436C309.15 383.261 308.186 383.918 308.211 383.985ZM315.343 385.208L315.474 383.471L316.895 384.187L315.343 385.208ZM311.872 386.082C312.457 388.216 311.043 386.687 309.227 388.575C308.619 387.086 310.603 386.301 311.872 386.082ZM316.739 386.903L316.387 386.189L316.739 386.903ZM312.697 368.498C313.087 370.085 313.428 369.675 312.222 370.586C311.021 369.768 311.766 370.609 311.108 369.039L312.697 368.498ZM391.497 464.075C390.924 464.966 390.569 465.198 390.072 464.978C389.986 464.857 389.857 464.723 389.655 464.561C390.439 463.556 389.988 463.581 391.497 464.075ZM378.255 471.001C378.291 471.099 377.994 471.645 377.594 471.287C377.068 470.814 378.238 470.953 378.255 471.001ZM367.03 333.439L366.236 333.894L367.03 333.439ZM451.916 371.972C451.904 371.934 451.191 371.863 451.552 372.262C451.88 372.626 451.916 371.972 451.916 371.972ZM476.624 376.447C476.598 376.363 475.627 376.168 476.024 376.582C476.363 376.933 476.637 376.485 476.624 376.447ZM366.88 346.907C366.872 346.881 365.799 346.757 366.253 347.157C366.559 347.426 366.932 347.057 366.88 346.907ZM418.142 462.34L418.175 463.143C418.577 462.629 419.166 463.009 418.142 462.34ZM429.022 471.869L429.575 472.556C429.491 471.698 430.15 471.776 429.022 471.869ZM463.42 387.508L463.513 388.379C463.919 387.728 464.54 388.175 463.42 387.508ZM457.077 406.007L455.971 406.209C457.174 406.738 456.331 406.902 457.077 406.007ZM450.105 342.306C450.084 342.247 448.929 342.054 449.464 342.565C449.854 342.938 450.15 342.427 450.105 342.306ZM454.486 351.938L453.851 352.78C455.429 352.305 454.611 352.468 454.486 351.938ZM403.708 476.23L404.586 476.886C404.373 476.12 404.881 476.012 403.708 476.23ZM439.577 311.034C439.55 310.96 438.373 310.774 438.925 311.326C439.395 311.799 439.595 311.082 439.577 311.034ZM437.48 342.982L436.551 342.594C436.857 343.665 436.647 343.503 437.48 342.982ZM449.064 371.272C447.978 371.079 448.722 370.756 448.171 371.63C449.199 371.935 448.392 372.118 449.064 371.272ZM422.795 467.714C423.056 468.544 422.576 468.552 423.677 468.146C423.432 467.385 423.872 467.3 422.795 467.714ZM444.18 427.712C443.957 428.912 443.778 428.843 444.97 428.399C444.735 427.664 445.415 427.895 444.18 427.712ZM435.813 345.965C434.853 346.266 434.811 345.953 434.91 347.088C435.965 346.751 435.862 346.947 435.813 345.965ZM467.577 445.979C467.908 447.19 467.792 446.858 468.83 446.577C468.621 446.025 469.778 446.639 468.454 445.973C467.578 445.531 468.017 445.833 467.577 445.979ZM446.772 421.918C445.638 421.117 446.32 421.192 445.208 421.696C445.824 422.686 445.821 422.646 446.772 421.918ZM394.243 327.34C393.976 328.479 394.058 328.495 394.947 329.121C395.239 328.113 395.122 328.049 394.243 327.34ZM460.332 432.641C459.602 433.719 459.964 434.149 461.188 433.673C461.074 432.611 461.362 432.885 460.332 432.641ZM437.193 393.492L436.213 391.748L437.588 391.838L437.193 393.492ZM453.501 372.272L452.959 373.566L454.507 373.558C454.298 372.213 454.652 372.55 453.501 372.272ZM457.283 421.788C456.85 422.953 456.761 423.089 458.089 423.249C458.591 422.122 458.594 421.959 457.283 421.788ZM471.436 375.501C471.068 376.815 470.996 376.475 472.198 376.854C472.968 375.762 472.996 375.293 471.436 375.501ZM382.561 479.605C382.322 478.099 382.254 477.994 380.873 478.494C380.539 479.755 380.466 479.386 381.436 480.151L382.561 479.605ZM410.868 469.582C409.853 468.673 409.273 468.729 408.127 469.43C408.67 470.975 409.917 470.68 410.868 469.582ZM393.236 476.525C392.162 475.651 392.234 475.781 391.157 476.534L391.555 478.039C392.871 477.945 393.326 478.063 393.236 476.525ZM333.077 341.935C332.256 343.154 332.292 343.259 333.504 344.09C335.49 343.517 334.936 341.703 333.077 341.935ZM384.692 329.065C383.679 329.547 382.343 332.029 382.654 333.13C383.692 332.376 385.203 330.351 384.692 329.065ZM423 321.923C422.494 323.372 422.477 322.85 423.407 324.079C425.868 323.693 425.219 321.41 423 321.923ZM343.745 331.058L343.674 333.298L346.126 332.914C345.365 330.922 344.568 331.001 343.745 331.058ZM391.951 320.502C391.589 322.012 392.177 322.98 393.727 323.265C394.611 321.736 393.638 320.398 391.951 320.502ZM431.427 321.121C429.285 319.878 430.824 320.254 429.809 319.173L428.667 320.438L428.792 322.636C428.524 324.677 429.76 325.17 431.557 325.36L432.839 323.88C432.546 322.526 432.635 321.763 431.427 321.121ZM438.376 435.95L438.67 437.496L437.439 436.744L438.376 435.95ZM424.263 473.899C421.95 474.831 423.153 477.571 425.399 476.212C425.463 474.687 425.589 474.716 424.263 473.899ZM431.815 344.442C432.542 343.008 432.513 342.87 431.426 341.692C428.007 341.334 428.707 345.69 431.815 344.442ZM442.583 327.512C441.033 327.511 441.587 327.261 440.499 328.409L440.813 330.316C442.241 330.838 442.153 330.86 443.379 330.112C443.566 328.505 443.609 328.699 442.583 327.512ZM434.507 383.526L433.006 384.063L432.232 383.438L433.651 381.71L434.474 382.154L434.507 383.526ZM410.632 477.978C412.388 476.176 409.923 473.596 408.098 475.226C406.571 476.588 408.707 479.955 410.632 477.978ZM432.901 481.65C435.263 479.491 433.301 477.097 431.512 477.819C429.775 478.518 429.443 482.132 432.901 481.65ZM325.197 338.672L323.055 341.573C326.968 346.852 330.675 341.229 325.197 338.672ZM437.897 400.056C438.826 399.323 438.633 399.336 439.918 399.49C439.991 400.363 439.468 401.177 438.607 401.524C438.073 400.038 438.566 400.98 438.816 399.868L437.897 400.056ZM465.895 430.16C468.536 426.786 463.883 423.087 460.984 426.25C458.105 429.392 463.115 433.713 465.895 430.16ZM434.943 307.1C433.453 308.489 433.438 311.025 432.878 312.835C431.927 315.899 430.486 316.269 432.701 319.454C435.128 317.688 434.582 315.125 435.647 312.826C436.515 310.953 439.285 306.724 434.943 307.1ZM465.835 407.281C464.029 406.616 459.56 408.869 457.577 409.663C455.09 410.656 452.183 410.166 449.891 411.419C451.178 411.913 452.439 411.045 453.338 411.933C451.604 413.08 448.638 413.692 446.536 413.858L445.75 413.088L445.315 414.032C447.444 416.03 453.457 413.317 455.983 412.462C458.202 411.71 465.895 409.955 465.835 407.281ZM421.848 339.717C428.427 341.759 427.376 336.308 428.578 334.345C430.397 331.372 427.151 329.337 425.54 330.736C424.146 331.946 425.893 331.604 422.904 333.277C420.564 334.585 420.502 337.639 421.848 339.717ZM352.512 337.685L351.343 339.971L351.386 341.017L349.444 339.877C350.59 338.706 349.885 339.637 351.008 339.016C351.594 338.693 351.926 338.216 352.512 337.685ZM438.124 380.086C436.73 379.479 436.884 379.012 436.284 377.637L436.75 376.252L437.307 377.813C437.964 376.706 437.252 377.174 438.294 376.813C439.31 378.189 439.075 377.972 437.847 379.042L438.124 380.086ZM435.339 378.61C435.69 380.055 435.954 379.723 435.239 380.901L434.236 380.113L433.843 378.649L435.339 378.61ZM338.602 345.933C339.296 344.675 338.997 344.172 340.374 343.819L340.795 345.2L341.047 346.807L339.477 347.152L338.602 345.933ZM435.36 394.431C435.411 394.578 434.705 395.283 434.767 394.631C434.831 393.974 435.358 394.425 435.36 394.431ZM438.838 395.018C437.665 395.365 436.825 394.779 438.422 393.736L438.838 395.018ZM433.122 392.236C435.344 391.793 433.19 391.084 435.217 391.114C435.371 392.49 435.156 392.277 434.303 393.501L433.122 392.236ZM343.569 347.965L345.398 346.712L345.931 347.88L347.798 347.866C345.767 348.613 345.55 348.93 343.569 347.965ZM352.454 347.669C352.356 345.925 351.98 346.836 353.25 345.545L354.305 347.129L352.454 347.669ZM357.924 351.482L360.35 350.998C360.938 352.084 360.693 351.735 360.187 353.062L358.854 353.02L357.924 351.482ZM441.314 434.99C440.953 434.145 440.742 434.784 441.479 434.104C441.766 434.75 442.24 434.326 441.314 434.99ZM435.954 432.412L433.254 432.791L434.317 430.358L435.954 432.412ZM430.832 363.496C431.174 364.64 431.174 364.145 430.362 364.347C430.11 362.988 430.359 363.714 430.832 363.496ZM440.033 362.48C438.738 363.481 437.864 364.971 437.445 363.228C438.708 361.84 438.443 361.988 440.033 362.48ZM340.748 354.87C341.139 356.457 341.481 356.046 340.274 356.959C339.072 356.139 339.818 356.982 339.158 355.41L340.748 354.87ZM372.776 344.632C374.199 345.434 373.798 345.545 373.047 346.321C372.275 345.674 372.331 345.75 372.776 344.632ZM393.473 343.524C392.648 343.505 391.832 342.68 391.9 341.895C393.132 342.131 393.279 342.535 393.473 343.524ZM398.136 343.034C398.882 342.064 398.345 342.367 399.375 342.928C398.473 343.575 399.035 343.749 398.136 343.034ZM409.843 340.661C408.702 341.187 408.729 341.091 407.793 340.32C408.687 339.38 409.468 339.68 409.843 340.661ZM391.718 348.073C390.741 348.339 390.506 348.387 390.791 347.177C392.247 347.359 391.609 347.577 391.718 348.073ZM402.046 343.987C403.505 343.673 404.466 343.727 405.112 345.052C404.75 345.253 405.388 345.787 403.057 346.014L402.046 343.987ZM415.084 340.701C415.088 340.715 414.865 341.337 414.417 340.831C413.915 340.262 415.042 340.583 415.084 340.701ZM405.22 346.62C405.658 347.73 405.346 348.158 404.179 348.007C404.261 346.719 404.087 347.067 405.22 346.62ZM404.932 351.495L405.708 349.02C407.491 349.717 405.955 349.75 408.192 349.732L405.68 351.727L404.932 351.495ZM410.07 348.064L411.382 348.258L411.124 347.17C412.286 348.089 412.551 348.057 410.992 349.13L410.07 348.064ZM431.134 383.331C431.176 384.16 430.72 384.881 430.098 385.212C429.564 384.081 429.907 383.699 431.134 383.331ZM425.855 395.991C427.236 395.531 426.672 396.108 426.804 396.398C426.004 396.668 426.308 397.11 425.855 395.991ZM431.584 395.857C430.009 396.643 429.863 397.39 428.544 397.598C427.314 396.493 427.387 395.702 428.124 394.08L431.068 394.893L431.584 395.857ZM438.107 430.305L436.968 429.736L438.171 428.831L438.107 430.305ZM406.307 457.373C406.343 457.472 406.046 458.017 405.646 457.658C405.119 457.186 406.29 457.324 406.307 457.373Z" fill="url(#paint0_linear)" fill-opacity="0.4"/>
<path fill-rule="evenodd" clip-rule="evenodd" d="M137.966 183.871L137.564 182.712L137.966 183.871ZM167.833 116.926C167.882 117.149 169.145 117.723 168.662 116.967C168.213 116.265 167.822 116.867 167.833 116.926ZM187.188 113.194C187.207 113.276 188.467 113.605 187.917 112.875C187.457 112.269 187.169 113.105 187.188 113.194ZM106.653 49.4468C107.179 48.2691 107.43 48.5663 106.27 48.375L106.653 49.4468ZM-63.4525 152.494C-63.4263 152.624 -61.9785 153.111 -62.506 152.401C-62.9568 151.796 -63.4637 152.431 -63.4525 152.494ZM118.501 29.6373C118.531 29.7821 120 30.3933 119.42 29.5592C118.963 28.9035 118.47 29.4924 118.501 29.6373ZM42.5272 32.4237L42.6301 31.1902C41.9174 31.898 41.0887 31.2032 42.5272 32.4237ZM27.7218 15.7591L27.0072 14.6055C26.9717 15.9318 25.9803 15.6847 27.7218 15.7591ZM166.038 135.445L167.139 134.353C164.812 134.665 165.972 134.542 166.038 135.445ZM67.2746 13.9627L66.0568 12.7925C66.2364 14.0036 65.4358 14.0705 67.2746 13.9627ZM158.973 130.208L160.177 129.632L161.526 126.387C165.104 126.601 163.484 127.994 165.42 125.837C163.06 124.99 164.029 126.056 162.184 124.921C160.471 123.866 161.892 123.744 158.95 122.984L157.534 121.992L157.508 120.796L155.538 119.449L157.192 119.189C157.581 117.628 157.025 115.721 156.335 114.027C157.347 113.7 157.927 113.049 159.455 112.591C163.419 113.889 161.38 115.084 165.828 113.523C170.104 112.022 169.023 112.223 172.491 110.384C179.137 116.109 178.048 114.123 179.092 119.007C182.536 117.363 179.139 114.82 184.115 111.966C189.913 108.643 185.817 109.212 188.032 103.997C190.931 102.424 192.367 102.684 192.878 99.0357C193.282 96.1527 193.591 94.0108 190.536 92.6399C185.951 93.0709 185.645 96.2808 183.054 99.1546C179.167 98.2536 181.253 98.6511 177.987 100.353C175.454 101.673 174.792 100.698 172.076 101.425C174.592 105.435 171.702 107.276 167.684 106.509L166.967 105.091L164.466 102.125L163.905 104.726L162.699 103.215L164.466 102.125L162.038 102.073C161.752 105.29 162.113 105.716 164.913 106.527L165.1 109.423L156.372 108.177C153.466 107.581 154.365 109.063 151.623 107.482C149.339 106.167 149.698 106.275 147.023 105.734L147.121 104.319L151.01 103.293C151.866 105.169 150.634 105.929 153.935 107.261C155.836 105.303 158.187 102.831 158.692 99.8307L160.129 98.8629C163.873 98.9707 163.954 95.2777 162.661 92.5786C160.576 90.708 160.301 91.0591 158.714 91.5105C159.543 89.0306 158.526 85.9711 156.569 84.5909C156.051 82.5735 155.194 80.5673 153.756 79.1927L151.135 80.5859C147.117 77.7865 147.334 80.9444 143.026 78.4738C142.555 76.0942 143.72 77.2459 142.585 75.7728C139.672 78.8509 136.719 87.2269 136.67 87.303C135.261 85.3265 135.421 86.2145 135.215 83.8609L134.005 82.6311L133.357 80.6453L132.128 80.7271C129.539 80.9871 130.866 81.0633 130.596 80.2107L127.871 79.1555C129.005 76.9747 129.018 79.4435 129.515 76.0496L125.705 74.87L127.6 72.6762L127.113 69.535C123.314 68.1715 125.954 69.3548 122.398 69.3975L120.716 68.0173C121.773 65.6098 121.646 62.6395 121.375 60.0073C120.789 54.349 120.017 56.6636 117.291 53.58C117.295 49.6363 120.103 50.8456 120.237 45.9396C120.342 41.9495 123.06 39.5142 119.867 36.8002C117.029 36.5123 117.203 36.6386 115.931 38.9494C112.476 45.2393 110.095 44.173 109.809 52.4654L106.777 54.8097C105.432 55.6252 105.572 54.2376 105.813 56.0469L103.344 56.4091C101.665 53.3868 103.079 52.1329 103.318 49.3038C99.0458 46.874 99.8763 45.9118 96.6721 43.4894C94.7379 43.2907 94.5322 43.9055 93.6006 43.7161C91.9059 43.3706 93.3968 42.5439 90.9669 42.5179C90.2075 42.5105 84.1226 42.8411 83.8027 42.9433L84.9924 45.061C82.0014 46.796 79.9606 45.1892 77.6411 43.482L76.0044 36.5383C73.8589 37.0101 74.7193 37.1401 73.5184 38.6987C68.7411 36.4955 67.9162 38.1005 64.9532 36.7612C59.1358 34.129 61.2458 35.6113 56.2926 36.4733C53.2454 34.7382 54.826 32.5407 52.7236 29.4738C50.4621 29.158 48.3727 29.784 48.8534 32.537C49.4856 36.1779 51.4273 34.0825 53.2267 35.8677C52.2671 36.8429 49.0554 37.051 47.5421 35.8175C47.039 37.22 46.7116 37.8367 46.1972 38.329C45.8624 38.1562 45.4789 37.9296 45.0281 37.6287C43.1482 36.3804 42.3177 36.3042 40.0618 36.1036C38.657 37.4392 38.3203 38.3829 37.4281 38.8733C36.0196 38.7414 34.6915 38.7785 33.7431 39.1742C31.5172 38.8974 29.4072 37.742 27.3627 38.3717C28.1633 39.7018 30.6193 39.1185 33.1333 39.5197C33.1034 39.5439 33.0716 39.5699 33.0435 39.5922C30.0375 42.1668 30.3761 48.5719 32.3963 49.2016L32.8097 52.5211C31.9268 52.8871 31.2758 53.0784 30.7596 53.1639L30.479 51.975C29.0854 52.2815 28.9601 52.445 28.7151 52.9484C28.2624 52.8221 27.7386 52.7032 26.938 52.7236C27.5759 53.749 27.8958 53.7453 28.2362 53.801C28.1651 53.9051 28.0847 54.0165 27.9949 54.1373C23.2157 51.9341 22.3907 53.541 19.4278 52.1979C14.4278 49.9353 15.2864 50.7137 12.4768 51.5236C12.1813 50.9719 11.8483 50.5205 11.4836 50.2214C11.3246 50.6134 11.2441 51.1707 11.231 51.8227C11.0833 51.8524 10.9299 51.8821 10.7672 51.91C7.72003 50.175 9.30064 47.9793 7.19814 44.9124C4.93852 44.5966 2.84725 45.2226 3.32798 47.9737C3.96023 51.6146 5.90186 49.5192 7.70319 51.3063C7.14577 51.8691 5.83639 52.1775 4.53822 52.0976C4.27635 51.793 3.88353 51.6574 2.9838 49.8982C1.99241 47.9607 0.387482 41.3625 -0.719887 37.2163L-0.684349 37.2274C-0.00346375 35.5314 0.447334 35.7154 -1.25112 35.2974C-1.30163 35.1228 -1.35026 34.9593 -1.39516 34.8088C-2.83735 30.1797 -4.64243 25.1381 -5.96304 20.4644C-7.05544 16.5968 -7.8897 6.65305 -10.7273 4.68027C-13.3554 8.68899 -5.86951 26.2917 -4.36559 32.9419C-3.40412 37.194 -1.82725 41.5408 -0.381317 45.9118C-1.08652 45.9322 -1.19501 46.0046 -1.11832 47.1508L-0.216713 46.4077C0.436111 48.3991 1.05527 50.3942 1.5734 52.3911C0.866341 53.9849 0.318268 54.0091 -1.73186 55.4785C-4.2627 55.0215 -10.3719 53.2233 -12.4819 55.0308C-13.9839 56.3181 -14.6517 58.5621 -14.6891 60.5646C-15.2877 59.9404 -15.9387 59.268 -16.6308 58.5547C-16.4138 57.3119 -16.5821 57.2005 -17.581 55.7088C-18.3498 55.4673 -19.0101 55.4432 -19.5432 55.5769C-24.0101 51.0369 -29.3318 45.7724 -33.389 42.1111L-31.814 41.7804C-33.3591 40.9464 -33.2169 40.9575 -33.8005 41.7414C-36.7092 39.1408 -38.9015 37.4448 -39.5338 37.5804C-39.1597 39.6498 -28.9614 48.57 -20.8227 56.58C-21.2753 57.5033 -21.034 58.889 -19.8986 60.2246L-17.495 59.933C-16.2529 61.2278 -15.1175 62.4593 -14.1486 63.5981C-13.9428 64.0216 -13.6847 64.343 -13.3798 64.5231C-13.2844 64.6439 -13.1908 64.7609 -13.0992 64.8798L-12.7157 67.9579C-16.2978 69.4384 -16.0378 68.099 -18.5874 68.1622C-17.2686 70.2873 -17.306 67.9857 -15.7011 70.9839C-17.5249 72.5257 -16.6439 71.4818 -19.0251 71.9759L-19.6947 76.5846L-21.6046 77.0063C-21.3071 79.7258 -20.2578 78.4274 -21.2641 80.9927C-24.0045 81.368 -22.3041 80.4243 -25.0763 80.1141L-27.3958 80.0156L-28.1403 76.7425L-28.2955 76.7629C-27.7493 74.322 -29.4758 71.7845 -31.8159 71.0508C-32.1264 68.8514 -32.9401 66.561 -34.0418 65.6581C-34.4608 66.6891 -34.3299 68.857 -33.8772 70.9003C-34.8256 71.0564 -35.7964 71.5338 -36.7018 72.4329C-39.0399 74.7511 -38.6191 77.5413 -36.9861 79.228L-37.695 79.5772C-39.8387 81.0094 -38.505 80.0528 -38.6864 79.6181C-38.894 76.4471 -39.6404 74.3276 -40.1099 71.3257C-40.9947 65.647 -40.6729 68.9851 -42.5416 65.3349C-43.7631 62.9479 -45.9179 53.476 -46.9224 50.2474C-48.3628 45.6183 -50.1678 40.5767 -51.4884 35.9011C-52.5808 32.0354 -53.4151 22.0898 -56.2527 20.117C-58.8809 24.1276 -51.3949 41.7303 -49.891 48.3805C-47.8951 57.2023 -43.2468 66.4328 -42.6258 75.457L-47.665 71.7901L-49.0549 73.5196C-47.2498 75.0577 -46.7859 74.296 -47.912 76.6961C-49.1521 75.418 -48.7163 75.5555 -49.0549 73.5196L-50.2015 74.5189C-51.1349 74.1549 -52.2703 74.075 -52.8034 73.6979C-52.2067 76.5252 -55.0556 77.584 -56.5314 79.9079C-59.3635 76.7425 -82.7341 52.5193 -85.0592 53.0171C-84.44 56.4333 -57.0739 78.5054 -56.3425 84.3587C-57.983 86.207 -60.4053 86.2925 -59.9134 89.3482C-59.4757 92.0789 -56.7222 92.8721 -54.3691 92.2517C-53.2262 89.9705 -54.0361 89.2554 -51.842 87.4256C-48.6508 88.1817 -41.7261 98.5323 -41.7261 98.5341C-43.3254 105.578 -49.5131 98.1515 -52.6631 98.6604C-51.7223 101.109 -40.6299 102.355 -44.8835 108.617C-47.7586 112.853 -60.0294 111.422 -62.5827 114.132C-59.9115 115.206 -55.3193 112.938 -52.1974 112.879L-49.6983 115.886L-49.6553 116.91L-51.8813 116.566L-50.209 118.81C-51.9542 120.071 -52.2198 119.529 -52.9007 121.147L-49.0193 119.722L-47.0609 120.497C-46.8588 122.923 -47.0328 122.624 -48.4226 124.286C-50.4372 126.69 -48.9408 126.736 -51.0844 127.55L-52.8596 128.631L-53.4544 128.993C-56.1424 128.052 -53.8678 128.234 -56.0526 128.941C-56.7727 131.234 -56.9579 129.933 -55.3736 132.194C-57.5471 133.21 -56.8607 132.411 -57.0851 134.611L-54.5524 135.658L-55.1772 139.093L-53.3253 140.15L-52.1843 139.961C-53.6564 142.123 -51.9785 140.945 -52.8633 142.989C-53.1065 143.548 -55.1323 145.857 -55.6598 146.498C-57.549 148.795 -60.3997 151.337 -61.4342 154.019C-62.8632 155.15 -63.3271 155.944 -64.5093 157.205C-66.5464 159.378 -66.8737 158.522 -69.253 159.991C-70.5905 163.506 -69.1857 162.638 -72.0589 166.12C-73.1943 167.494 -75.5942 169.45 -75.7925 170.999L-69.427 164.176C-65.1958 164.946 -67.1393 165.12 -63.705 163.103L-62.375 162.48C-60.7589 165.178 -62.5266 164.082 -59.7843 166.175L-54.4776 166.443L-53.1158 170.03L-55.1061 168.932C-57.0421 170.386 -55.6766 169.616 -55.845 172.259L-58.6489 174.124L-58.4731 175.84L-58.4974 176.754L-60.0892 177.341C-61.8513 177.943 -64.0174 178.292 -64.2774 180.536C-64.6216 183.483 -62.9568 183.295 -61.3799 184.822L-61.2284 185.487C-64.6721 190.066 -70.7345 189.349 -71.1872 189.605C-74.1819 192.405 -72.5041 192.407 -74.0959 195.278L-81.2844 195.932L-83.3925 200.207L-78.0596 205.521L-75.51 205.265L-74.4288 209.092L-71.3312 208.393L-73.6788 207.375C-72.6088 203.272 -72.3282 204.793 -69.99 202.512C-70.0125 197.636 -72.216 198.678 -72.5228 196.055L-67.9044 194.625L-67.0009 197.038L-63.8584 198.265C-64.5243 200.372 -64.1502 200.06 -65.9328 199.833L-65.6073 201.598L-64.5243 200.207C-62.9774 202.865 -65.0742 201.223 -62.3264 203.32C-59.0679 200.857 -63.0484 201.427 -60.2089 199.861L-59.3036 202.367C-56.6998 206.21 -59.0174 204.429 -55.1005 206.562L-53.5816 207.771L-51.4436 206.342L-50.3287 207.593C-50.3512 207.892 -52.3208 212.307 -52.665 212.82C-54.2774 215.214 -56.6493 215.043 -56.0919 218.268C-52.5883 217.501 -53.2468 213.903 -51.1162 212.753C-48.5573 211.754 -48.8603 212.407 -46.6437 213.477L-44.9453 213.128C-41.279 210.526 -44.8854 210.533 -42.0646 206.933L-40.4896 204.929L-36.423 202.997L-34.7639 207.875C-37.927 208.967 -38.9651 211.046 -40.6206 213.554L-38.3946 214.399C-40.4522 216.658 -39.3018 213.542 -41.8289 216.607L-40.4503 219.084C-41.077 222.063 -40.6991 222.886 -38.4264 224.826C-36.3482 224.422 -34.5675 223.419 -32.5735 225.167C-31.0957 226.462 -30.6243 229.886 -28.9764 230.073L-27.6614 232.525C-28.0767 234.725 -28.9652 235.962 -27.9569 238.369L-25.3026 240.017L-22.2555 242.999C-20.9181 241.065 -21.4867 242.302 -18.9764 241.52L-17.4875 241.735L-17.2293 240.179C-15.5814 240.212 -16.0864 240.717 -15.6936 240.651C-13.9746 240.359 -18.3648 239.369 -11.4942 240.45C-8.89606 240.855 -9.73219 239.633 -9.63492 240.951L-8.01877 242.257L-6.816 242.289C-6.71873 242.287 -6.62708 242.283 -6.53916 242.278C-6.45686 243.801 -6.41196 244.771 -4.97726 245.779C-1.94135 248.094 -4.22155 247.219 -2.8785 249.069L-0.886368 247.353L-0.654419 243.968C-0.536575 243.519 -0.474846 243.11 -0.463623 242.742C1.24045 243.569 1.49297 243.117 2.40206 243.742C4.10612 244.912 2.70322 245.113 5.29767 246.197L5.58386 245.456C6.03654 245.96 6.88202 246.294 8.06608 246.175C9.05373 244.189 9.04999 244.771 8.06795 243.155L8.27558 242.868L9.97404 243.561C11.4892 242.157 9.69907 242.579 12.3066 241.689L15.2078 240.82C16.3769 237.788 15.4809 236.473 18.6684 234.428C22.069 235.522 20.5988 236.354 22.9874 238.563C25.522 238.128 24.3137 238.297 26.2366 236.783L27.516 236.413L29.0087 235.936C28.8535 237.242 29.2931 238.67 30.3106 239.833C30.1236 239.841 30.1124 240.14 29.4558 240.866C31.0327 241.186 30.4958 241.401 31.1487 240.621C31.8669 241.18 32.7611 241.628 33.8273 241.897C34.2856 241.68 34.6896 241.433 35.0506 241.171C34.7008 241.747 34.2051 242.319 34.2762 244.28C36.4367 245.597 36.9735 246.522 39.3903 245.696C39.0685 242.285 39.6671 244.979 37.8359 242.577C39.7812 242.334 39.1602 242.79 40.7464 242.603L44.7382 240.766L44.6765 240.639L46.2066 237.214L47.7348 236.211L48.0434 234.195C47.5777 231.632 46.8706 231.42 46.5246 229.945L48.0472 228.387C49.5642 229.484 48.2922 229.702 50.8231 230.761L51.8425 228.125C52.0595 228.048 52.2503 227.974 52.4205 227.9L53.3595 228.041L53.801 227.432L55.4995 228.127C56.734 226.98 55.7744 227.049 56.7883 226.631C56.9304 228.76 55.2245 231.192 56.5937 234.732C52.8302 241.468 64.3359 236.842 59.8597 243.964L60.4789 245.525C61.358 249.207 62.2353 249.742 63.4399 253.108C64.7979 256.903 67.8507 256.266 71.0605 255.634L72.2633 257.404C72.5776 260.367 72.86 261.426 75.8136 262.518C79.5828 262.11 78.9748 261.192 81.0044 258.441L83.7765 255.223L85.5049 255.887L86.3167 254.486L87.8206 259.314C88.5258 261.746 87.1809 261.517 87.3156 263.887C88.6587 260.776 88.9 258.712 94.5565 260.089C96.6627 256.697 96.1334 252.961 97.396 251.033C98.7147 249.021 98.4154 248.419 98.2789 245.956C98.1218 243.136 98.3481 244.397 96.6384 243.619L96.6627 241.438C100.722 239.569 99.317 240.589 103.101 241.278C107.147 238.819 107.787 237.047 106.341 232.927L106.79 232.678C107.43 234.331 108.116 235.297 108.965 237.671C110.323 241.464 113.376 240.827 116.586 240.197L117.789 241.968C118.103 244.93 118.385 245.987 121.339 247.083C125.106 246.673 124.5 245.753 126.53 243L129.302 239.787L131.03 240.446L131.84 239.049L133.346 243.877C134.051 246.307 132.706 246.08 132.839 248.452C134.184 245.339 134.425 243.275 140.08 244.652C142.188 241.262 141.659 237.522 142.923 235.594C144.24 233.584 143.941 232.98 143.802 230.517C143.647 227.699 143.873 228.959 142.164 228.18L142.188 225.998C146.245 224.133 144.841 225.152 148.628 225.84C152.671 223.38 153.312 221.608 151.866 217.488L153.763 216.437L151.861 215.411L153.565 214.804L157.59 213.344C160.768 203.255 152.373 206.3 151.126 201.026L150.677 199.014L152.383 197.812L153.492 200.108L157.727 203.266C160.755 203.92 161.165 204.163 163.108 201.639L164.837 200.201C165.963 199.007 165.523 198.843 166.322 198.035C167.59 196.753 166.769 198.865 168.555 196.066C167.233 194.465 167.145 195.067 165.987 193.402C165.037 192.033 166.314 193.514 164.186 192.799C164.474 186.269 161.369 189.824 163.653 186.687L161.419 184.484L163.696 181.37L161.384 180.159L160.725 176.58C162.289 168.99 155.74 166.994 155.048 166.513L155.396 161.827L152.233 160.961C147.951 164.572 148.136 164.267 149.197 168.689L145.533 167.873C146.088 165.343 146.315 166.311 146.361 163.233C148.756 162.048 148.61 162.819 150.168 160.43C156.524 150.674 150.809 152.583 153.413 145.807L149.358 143.15L149.347 142.201L152.609 141.044L152.001 138.519L154.59 135.019L155.54 137.12L159.225 135.839C160.94 134.551 161.18 134.782 161.311 132.658L159.627 132.021L158.991 131.979L158.973 130.208ZM155.394 119.471L154.315 121.048C154.296 121.035 154.272 121.024 154.251 121.013C152.929 118.715 154.049 120.097 151.885 119.248C149.532 118.821 150.026 119.172 148.709 117.344L150.355 116.583L150.052 113.874C152.042 113.339 152.323 113.499 152.727 113.755C151.93 115.403 152.789 117.727 154.077 119.677L155.394 119.471ZM-2.42583 197.316C-2.09661 197.515 -1.69257 197.764 -1.12019 198.041L-0.325203 197.877C-0.409378 198.13 -0.497292 198.399 -0.585205 198.683L1.1544 198.986C-0.201744 200.192 0.677414 199.889 -0.585205 198.683L-1.32407 200.515C-2.16021 200.201 -2.44453 198.743 -2.42583 197.316ZM4.21836 202.109L5.07507 203.645C4.89176 204.527 4.79262 205.22 4.80571 205.805C3.7395 205.995 3.88728 204.791 2.26738 203.372L0.509064 205.14C-0.86953 203.619 -0.645065 203.978 -0.755424 202.114L3.15589 200.987C3.47388 201.349 3.84612 201.724 4.21836 202.109ZM28.167 225.517L28.2961 224.74C28.8441 224.751 29.1528 224.816 29.3361 224.892C29.3324 225.078 29.3286 225.342 29.381 225.719C28.7861 225.669 28.3784 225.65 28.167 225.517ZM57.8133 226.258L57.832 226.252L60.1983 225.543L60.3591 225.541L59.4145 228.736C58.2099 227.064 58.0303 227.512 57.8133 226.258ZM-19.3842 259.633C-19.3562 259.752 -17.5922 260.263 -18.3311 259.31C-18.9577 258.5 -19.4011 259.555 -19.3842 259.633ZM204.569 95.1105C204.612 95.2944 206.492 95.9539 205.738 94.9582C205.068 94.0703 204.567 95.0975 204.569 95.1105ZM44.4052 31.7141L45.9428 30.4453C44.5193 30.5456 44.308 30.2261 44.4052 31.7141ZM116.979 23.7319C116.797 22.4372 117.379 22.9796 116.068 22.8477C116.079 22.9406 114.672 23.7189 116.979 23.7319ZM183.047 203.931C183.379 202.683 183.72 203.132 182.47 202.596C182.18 203.571 181.649 203.402 183.047 203.931ZM102.824 26.7468L104.444 27.2985C104.066 24.9784 103.984 25.8663 102.824 26.7468ZM36.4442 23.3102C36.2047 21.9913 36.9417 22.0712 35.1797 22.4817C35.4079 23.6929 34.7195 23.7356 36.4442 23.3102ZM170.177 138.92C171.962 139.229 171.118 139.649 172.326 138.228C170.447 137.589 171.621 137.605 170.177 138.92ZM159.678 145.511C161.122 145.233 161.313 145.717 161.195 143.919C160.123 144.099 159.67 143.893 159.678 145.511ZM128.32 50.2419C128.995 48.4641 128.821 48.362 127.14 48.687C127.173 49.9576 126.217 49.7124 128.32 50.2419ZM-36.2285 47.9254C-36.5035 46.0102 -36.3875 46.5396 -38.028 46.7681C-37.8185 47.6561 -39.4683 46.4913 -37.5716 47.7657C-36.3183 48.6072 -36.93 48.061 -36.2285 47.9254ZM53.0902 243.426C53.715 241.739 53.5952 241.693 52.3569 240.569C51.7153 242.051 51.8818 242.174 53.0902 243.426ZM122.091 53.6989C123.449 52.993 123.771 52.0363 123.554 50.6115C122.416 51.5923 121.934 52.2871 122.091 53.6989ZM-27.7156 69.7115C-26.3913 68.2031 -26.8645 67.4767 -28.8268 67.969C-28.8567 69.6149 -29.2439 69.1393 -27.7156 69.7115ZM44.8411 21.7889C45.5631 19.9907 46.027 20.3065 43.9395 19.7771C42.9368 21.5399 42.9275 21.2279 44.8411 21.7889ZM171.447 118.819C173.69 118.901 173.424 118.596 172.628 116.902C171.342 117.199 170.75 117.047 171.447 118.819ZM165.089 215.055C166.41 213.888 166.507 213.914 164.964 212.558C163.185 214.196 163.808 214.098 165.089 215.055ZM157.929 107.681C160.188 106.433 159.375 105.164 157.227 105.662C157.008 107.534 156.535 106.366 157.929 107.681ZM186.011 75.288L187.584 77.075C189.113 75.5109 188.828 76.3858 188.25 74.5524L186.011 75.288ZM130.978 74.9035C133.46 75.7784 131.909 74.3926 134.698 73.8744L133.174 72.457C131.509 73.6812 131.423 73.3226 130.978 74.9035ZM139.16 80.1865C140.112 78.1784 140.069 77.558 137.628 77.6657C136.61 79.6348 137.018 80.0323 139.16 80.1865ZM100.265 12.8723C100.344 15.2222 100.424 15.3968 102.637 14.8971C103.385 13.0321 103.43 13.6079 102.091 12.2556L100.265 12.8723ZM153.845 148.281C155.679 149.007 157.123 148.597 158.067 146.773C156.505 145.439 154.551 146.648 153.845 148.281ZM55.043 22.7511C56.4235 24.3356 57.3214 24.3598 59.2087 23.5109C58.6719 21.044 56.7116 21.2539 55.043 22.7511ZM147.029 75.6279C148.694 75.3214 149.654 72.7096 149.249 71.1752C146.977 71.4019 146.236 73.8186 147.029 75.6279ZM83.3463 15.5287C84.8222 17.0724 84.7399 16.8588 86.5281 15.9151L86.2082 13.5355C84.1824 13.4278 83.5072 13.1584 83.3463 15.5287ZM149.448 232.884C150.935 231.177 150.903 231.01 149.208 229.503C146.06 229.999 146.556 232.88 149.448 232.884ZM101.777 40.4578C104.674 39.5717 104.528 37.8182 101.951 36.7798C99.7922 38.1191 99.9792 38.8417 101.777 40.4578ZM131.036 247.459L131.577 244.048L127.751 244.165C128.533 247.356 129.766 247.388 131.036 247.459ZM55.2787 254.323C56.1205 252.082 55.4115 250.487 53.0958 249.758C51.4478 251.924 52.6787 254.159 55.2787 254.323ZM35.3873 13.5708C39.106 12.5937 37.7947 8.17072 34.1004 9.81842C33.7076 12.1367 33.5224 12.068 35.3873 13.5708ZM128.498 95.1848L127.091 92.2833L130.048 91.5644C129.88 94.1892 129.833 92.365 130.883 92.7495C130.207 94.4734 130.355 94.83 128.498 95.1848ZM25.6268 44.7861L28.644 44.4201C29.1416 41.8343 29.2126 42.1668 27.9444 40.2721C24.6672 39.243 23.3522 42.113 25.6268 44.7861ZM57.0202 9.9596C53.9899 12.3763 57.2652 16.7956 60.3685 14.6556C62.9667 12.8668 60.3479 7.30507 57.0202 9.9596ZM199.603 104.241L202.719 103.752C203.284 101.482 201.847 98.4747 200.91 96.4629C196.694 97.5031 197.657 101.298 199.603 104.241ZM23.6721 0.0603973C19.6429 2.90625 22.1812 6.94284 25.0581 6.18308C27.8471 5.45118 29.0536 -0.013907 23.6721 0.0603973ZM160.869 239.387L164.702 235.364C159.734 226.54 152.983 234.428 160.869 239.387ZM158.604 68.621C152.566 71.0229 155.622 79.9989 160.98 77.5116C166.075 75.1431 163.808 66.5517 158.604 68.621ZM190.961 107.194C189.537 114.718 195.321 116.462 200.269 111.565C204.616 107.263 198.421 101.765 190.961 107.194ZM-13.0543 266.538C-10.5066 264.703 -9.99781 260.828 -8.79131 258.17C-6.74866 253.667 -4.47221 253.379 -7.2481 248.081C-7.99258 248.491 -8.58741 248.961 -9.07563 249.478C-9.99968 248.185 -11.5204 247.416 -13.2114 247.841C-17.9009 249.019 -17.5754 255.09 -12.6671 257.023C-12.7793 257.233 -12.899 257.443 -13.0262 257.648C-14.7153 260.347 -19.7658 266.28 -13.0543 266.538ZM198.284 79.7537C207.033 79.5196 205.375 69.6241 200.704 68.5189C196.052 67.4155 191.857 75.4942 198.284 79.7537ZM118.902 235.639L121.133 232.369L121.268 230.762L124.018 232.882C122.04 234.448 123.297 233.161 121.459 233.894C120.503 234.277 119.902 234.942 118.902 235.639ZM82.7103 26.2564L81.8966 29.3568C83.5595 31.5264 83.4716 30.5363 84.594 31.4967C86.5973 33.2169 84.8278 33.1333 87.1641 35.0986C90.5872 35.0466 90.5367 33.0905 91.876 30.3859L93.7353 31.7605C95.7237 30.8986 97.6953 30.5883 98.3631 28.4614C98.9729 26.5239 98.2246 24.0663 96.2681 23.2972C93.4959 22.2087 94.3189 24.696 90.5535 22.1938C88.6736 20.9418 87.8431 20.8656 85.5872 20.6687C83.1873 22.948 83.9037 24.0849 79.6538 23.7728C77.2839 23.6 75.0504 22.2681 72.8899 22.935C74.1451 25.0211 79.4724 22.3963 82.7103 26.2564ZM141.765 225.708C140.462 227.497 140.823 228.323 138.647 228.596L138.273 226.406L138.195 223.899L140.66 223.674L141.765 225.708ZM134.562 221.645L131.52 223.208L130.931 221.318L128.073 220.98C131.322 220.232 131.717 219.786 134.562 221.645ZM120.914 220.386C120.729 223.074 121.479 221.753 119.289 223.482L117.978 220.858L120.914 220.386ZM153.913 190.209C153.86 189.971 154.459 189.241 155.014 190.003C155.735 190.985 153.948 190.38 153.913 190.209ZM150.046 188.814C151.15 188.877 150.57 187.595 151.176 189.81C148.469 189.741 150.071 188.922 150.046 188.814ZM139.373 185.572L138.838 188.203L136.803 186.834L139.373 185.572ZM144.85 184.904C144.365 181.528 146.234 184.138 149.375 181.601C150.018 183.995 146.833 184.813 144.85 184.904ZM137.564 182.712L137.966 183.871L137.564 182.712ZM140.203 211.629C139.912 209.129 139.311 209.69 141.331 208.529C143.011 210.011 142.033 208.581 142.738 211.109L140.203 211.629ZM38.0865 50.3347C39.134 49.0827 39.7214 48.7966 40.4397 49.2295C40.5482 49.4301 40.7184 49.6604 40.9971 49.9465C39.6035 51.3323 40.2994 51.3806 38.0865 50.3347ZM59.6708 42.295C59.6352 42.1371 60.1945 41.3606 60.737 41.9848C61.4515 42.8096 59.6876 42.3712 59.6708 42.295ZM50.3573 254.776L51.6592 254.233L50.3573 254.776ZM-72.0495 179.526C-72.0383 179.587 -70.9609 179.832 -71.436 179.153C-71.8681 178.534 -72.0495 179.526 -72.0495 179.526ZM-108.976 167.929C-108.952 168.063 -107.504 168.547 -108.031 167.838C-108.482 167.236 -108.989 167.869 -108.976 167.929ZM53.18 234.214C53.1875 234.255 54.8036 234.65 54.1863 233.952C53.7711 233.482 53.1295 233.974 53.18 234.214ZM-2.99821 47.8604L-2.89533 46.6269C-3.60802 47.3347 -4.43667 46.6399 -2.99821 47.8604ZM-17.8036 31.1976L-18.5182 30.0404C-18.5537 31.3685 -19.547 31.1233 -17.8036 31.1976ZM-86.6529 153.558L-86.6267 152.21C-87.373 153.127 -88.2372 152.323 -86.6529 153.558ZM-73.3907 126.497L-71.6604 126.4C-73.3982 125.36 -72.0776 125.271 -73.3907 126.497ZM-74.99 225.232C-74.9694 225.325 -73.2392 225.844 -73.9593 224.959C-74.485 224.313 -75.0349 225.037 -74.99 225.232ZM-79.8366 209.662L-78.7031 208.497C-81.2077 208.919 -79.9245 208.828 -79.8366 209.662ZM21.751 29.4013L20.5333 28.2292C20.7129 29.4422 19.9141 29.5091 21.751 29.4013ZM-64.9078 275.07C-64.8816 275.189 -63.1176 275.7 -63.8546 274.749C-64.4831 273.935 -64.9265 274.994 -64.9078 275.07ZM-55.5513 226.627L-54.2045 227.4C-54.4664 225.704 -54.1764 225.992 -55.5513 226.627ZM-67.8221 181.146C-66.1984 181.649 -67.3975 182 -66.3874 180.77C-67.9006 180.105 -66.6305 179.981 -67.8221 181.146ZM-9.08124 38.7488C-9.32067 37.4299 -8.58367 37.5098 -10.3457 37.9185C-10.1175 39.1296 -10.8078 39.1742 -9.08124 38.7488ZM-49.487 95.7923C-48.9146 94.0015 -48.6546 94.1409 -50.5625 94.5904C-50.3455 95.7589 -51.3407 95.2759 -49.487 95.7923ZM-52.4275 222.388C-50.9011 222.112 -50.8974 222.598 -50.83 220.845C-52.5079 221.157 -52.3134 220.876 -52.4275 222.388ZM-81.7539 63.3621C-82.027 61.4469 -81.9129 61.9764 -83.5553 62.2067C-83.342 63.0909 -84.9937 61.9281 -83.097 63.2024C-81.8418 64.0457 -82.4554 63.4996 -81.7539 63.3621ZM-54.5674 104.153C-52.9868 105.595 -54.0156 105.35 -52.218 104.792C-52.9699 103.161 -52.9718 103.223 -54.5674 104.153ZM7.56477 258.864C8.19141 257.174 8.06982 257.133 6.82964 256.006C6.18992 257.49 6.3564 257.61 7.56477 258.864ZM-73.2411 85.1482C-71.9167 83.6417 -72.3881 82.9135 -74.3522 83.4057C-74.3821 85.0516 -74.7693 84.5779 -73.2411 85.1482ZM-45.3886 149.457L-44.2251 152.312L-46.3108 151.911L-45.3886 149.457ZM-74.4158 178.762L-73.3364 176.888L-75.7064 176.602C-75.6447 178.699 -76.1217 178.116 -74.4158 178.762ZM-70.6672 102.329C-69.7805 100.631 -69.6178 100.44 -71.6193 99.9403C-72.6032 101.566 -72.6387 101.815 -70.6672 102.329ZM-101.223 170.373C-100.407 168.436 -100.362 168.969 -102.128 168.159C-103.516 169.681 -103.649 170.392 -101.223 170.373ZM54.7419 28.3109C54.8186 30.6589 54.9009 30.8336 57.11 30.3339C57.8638 28.4707 57.905 29.0484 56.5675 27.6923L54.7419 28.3109ZM9.51949 38.1878C10.8981 39.7724 11.796 39.7984 13.6833 38.9476C13.1502 36.4807 11.1862 36.6925 9.51949 38.1878ZM37.8228 30.9654C39.2968 32.5091 39.2126 32.2955 41.0046 31.3518L40.6847 28.9741C38.6552 28.8645 37.9818 28.597 37.8228 30.9654ZM103.92 248.321C105.411 246.615 105.376 246.446 103.683 244.943C100.535 245.438 101.032 248.317 103.92 248.321ZM22.503 258.064C24.1453 257.523 26.6668 253.984 26.4031 252.242C24.6709 253.195 21.9699 256 22.503 258.064ZM-37.4593 261.612C-36.4062 259.494 -36.481 260.295 -37.667 258.236C-41.5053 258.354 -40.9516 261.968 -37.4593 261.612ZM85.5105 262.897L86.0511 259.487L82.2277 259.602C83.0077 262.793 84.2423 262.827 85.5105 262.897ZM9.75331 269.759C10.5969 267.521 9.88425 265.927 7.56851 265.193C5.92243 267.361 7.15325 269.594 9.75331 269.759ZM-50.5027 261.216C-47.4649 263.529 -49.747 262.658 -48.402 264.506L-46.4118 262.791L-46.1798 259.407C-45.3774 256.338 -47.1731 255.346 -49.8854 254.711L-52.13 256.726C-51.943 258.853 -52.2254 260.003 -50.5027 261.216ZM-39.025 84.3141L-39.1765 81.8937L-37.4388 83.2813L-39.025 84.3141ZM-10.1344 29.0094C-6.41758 28.0304 -7.73071 23.6093 -11.4269 25.2552C-11.8178 27.5734 -12.0049 27.5047 -10.1344 29.0094ZM-46.6063 225.485C-47.9943 227.538 -47.9756 227.755 -46.5408 229.765C-41.38 230.971 -41.6119 224.175 -46.6063 225.485ZM-66.3331 249.298C-63.9631 249.599 -64.8591 249.874 -62.9736 248.328L-63.0877 245.352C-65.1696 244.278 -65.0312 244.262 -67.0514 245.17C-67.6462 247.591 -67.6743 247.286 -66.3331 249.298ZM-43.2 165.211L-40.8001 164.68L-39.7377 165.783L-42.2404 168.152L-43.4133 167.316L-43.2 165.211ZM11.4967 25.3963C8.46451 27.8131 11.738 32.2323 14.8431 30.0924C17.4413 28.3035 14.8225 22.7437 11.4967 25.3963ZM-21.8533 15.4971C-25.8825 18.343 -23.3423 22.3814 -20.4673 21.6217C-17.6764 20.8861 -16.4718 15.4247 -21.8533 15.4971ZM115.344 254.826L119.179 250.802C114.21 241.979 107.458 249.862 115.344 254.826ZM-45.2015 139.286C-46.7634 140.228 -46.466 140.245 -48.402 139.762C-48.3459 138.413 -47.3882 137.269 -46.0059 136.905C-45.4746 139.279 -46.047 137.745 -46.6437 139.396L-45.2015 139.286ZM-82.2272 87.8714C-86.9148 92.521 -80.5119 99.0728 -75.4689 94.7948C-70.4614 90.5445 -77.2908 82.9748 -82.2272 87.8714ZM-58.5778 281.977C-56.032 280.14 -55.5213 276.265 -54.3167 273.606C-52.2722 269.104 -49.9976 268.816 -52.7716 263.52C-56.8232 265.752 -56.4809 269.776 -58.5535 273.086C-60.2407 275.783 -65.2912 281.717 -58.5778 281.977ZM-86.5388 122.863C-83.905 124.227 -76.6361 121.643 -73.4506 120.811C-69.4569 119.77 -65.1042 121.08 -61.3575 119.605C-63.2317 118.602 -65.3268 119.687 -66.5314 118.156C-63.6582 116.735 -59.0043 116.371 -55.757 116.521L-54.7039 117.85L-53.8566 116.49C-56.7278 113.025 -66.4472 116.016 -70.4745 116.837C-74.0136 117.56 -86.116 118.763 -86.5388 122.863ZM-32.2723 234.628C-41.9412 230.24 -41.3837 238.776 -43.5985 241.546C-46.9542 245.742 -42.3807 249.478 -39.6479 247.648C-37.2835 246.067 -40.0201 246.253 -35.1268 244.271C-31.2959 242.722 -30.6131 238.065 -32.2723 234.628ZM73.3781 251.077L75.606 247.808L75.7425 246.201L78.4922 248.317C76.5151 249.887 77.7721 248.599 75.9352 249.333C74.9775 249.714 74.377 250.379 73.3781 251.077ZM-49.3934 169.775C-47.3788 170.972 -47.7043 171.655 -47.0515 173.873L-48.0298 175.902L-48.5816 173.407C-49.7993 174.973 -48.6209 174.395 -50.2838 174.746C-51.5726 172.447 -51.2546 172.824 -49.1708 171.425L-49.3934 169.775ZM-45.4185 172.567C-45.6766 170.29 -46.1443 170.747 -44.8237 169.084L-43.4413 170.481L-43.1234 172.796L-45.4185 172.567ZM96.24 241.145C94.9362 242.934 95.2972 243.76 93.1237 244.035L92.7458 241.843L92.6691 239.337L95.1364 239.112L96.24 241.145ZM-42.4051 148.374C-42.4537 148.14 -41.2397 147.198 -41.4586 148.182C-41.683 149.174 -42.4032 148.383 -42.4051 148.374ZM-47.6108 146.808C-45.7496 146.503 -44.5786 147.56 -47.2217 148.847L-47.6108 146.808ZM-39.4047 152.161C-42.8877 152.41 -39.7302 153.909 -42.8241 153.473C-42.796 151.34 -42.5079 151.706 -40.9666 149.999L-39.4047 152.161ZM89.0346 237.082L85.9969 238.646L85.4058 236.757L82.5476 236.419C85.7986 235.668 86.1914 235.224 89.0346 237.082ZM75.389 235.824C75.2038 238.511 75.9539 237.19 73.7635 238.919L72.4541 236.294L75.389 235.824ZM67.7572 228.942L63.9543 229.215C63.2641 227.441 63.5709 228.022 64.6015 226.091L66.6311 226.412L67.7572 228.942ZM-43.7032 85.2169C-43.3141 86.5785 -42.8671 85.6423 -44.126 86.5395C-44.4402 85.4974 -45.2464 86.0547 -43.7032 85.2169ZM-36.0022 90.1897L-31.799 90.1303L-33.8941 93.6449L-36.0022 90.1897ZM-41.4342 196.543C-41.7373 194.729 -41.8327 195.485 -40.5513 195.332C-40.4279 197.459 -40.6692 196.3 -41.4342 196.543ZM-55.7028 196.326C-53.5292 195.044 -51.9056 192.934 -51.6007 195.68C-53.7986 197.56 -53.3646 197.383 -55.7028 196.326ZM94.6781 227.068C94.3863 224.565 93.784 225.128 95.806 223.965C97.4858 225.45 96.5075 224.017 97.2146 226.548L94.6781 227.068ZM43.7243 236.556C41.7023 235.057 42.3364 234.964 43.6346 233.922C44.6914 235.061 44.6203 234.933 43.7243 236.556ZM11.8577 234.268C13.1147 234.455 14.2052 235.875 13.949 237.062C12.1102 236.463 11.9643 235.817 11.8577 234.268ZM4.63175 234.119C3.30367 235.459 4.18282 235.1 2.71631 234.043C4.22023 233.228 3.39345 232.854 4.63175 234.119ZM-13.7296 235.496C-11.8833 234.911 -11.9432 235.052 -10.66 236.411C-12.2088 237.676 -13.3461 237.067 -13.7296 235.496ZM15.4173 227.651C16.9624 227.432 17.3309 227.404 16.6631 229.198C14.4708 228.641 15.4884 228.429 15.4173 227.651ZM-1.16508 231.91C-3.4565 232.109 -4.91553 231.842 -5.64878 229.692C-5.05769 229.455 -5.92937 228.515 -2.32108 228.617L-1.16508 231.91ZM-21.7374 234.426C-21.7411 234.403 -21.281 233.495 -20.6936 234.355C-20.0352 235.321 -21.6962 234.613 -21.7374 234.426ZM-5.51223 227.274C-5.96864 225.492 -5.40936 224.898 -3.65291 225.353C-4.02702 227.307 -3.69406 226.808 -5.51223 227.274ZM-4.13364 219.875L-5.79655 223.51C-8.38914 222.102 -6.03411 222.348 -9.45909 221.944L-5.23352 219.377L-4.13364 219.875ZM-12.6521 224.133L-14.6218 223.583L-14.4366 225.297C-16.0359 223.668 -16.4475 223.666 -13.8568 222.325L-12.6521 224.133ZM-38.0785 166.159C-37.9831 164.882 -37.1469 163.868 -36.1312 163.482C-35.5327 165.313 -36.1312 165.832 -38.0785 166.159ZM-27.5679 147.818C-29.7676 148.257 -28.7949 147.482 -28.9408 147.014C-27.6651 146.754 -28.0449 146.02 -27.5679 147.818ZM-36.3557 146.921C-33.7949 146.022 -33.4283 144.907 -31.3707 144.844C-29.7022 146.771 -29.9659 147.965 -31.4062 150.304L-35.7515 148.495L-36.3557 146.921ZM-39.7002 92.9966L-38.0673 94.087L-40.0818 95.2387L-39.7002 92.9966ZM14.1454 57.7317C14.1098 57.5738 14.6691 56.7974 15.2116 57.4234C15.9261 58.2463 14.1622 57.8098 14.1454 57.7317Z" fill="url(#paint1_linear)" fill-opacity="0.4"/>
<path fill-rule="evenodd" clip-rule="evenodd" d="M140.021 440.828L141.805 440.209L140.021 440.828ZM243.05 486.763C242.706 486.838 241.823 488.779 242.987 488.037C244.067 487.347 243.141 486.745 243.05 486.763ZM248.793 516.53C248.667 516.558 248.161 518.497 249.285 517.652C250.217 516.944 248.93 516.501 248.793 516.53ZM346.901 392.669C348.714 393.478 348.256 393.863 348.551 392.08L346.901 392.669ZM188.311 131.051C188.111 131.091 187.362 133.318 188.454 132.507C189.386 131.813 188.408 131.034 188.311 131.051ZM377.388 410.891C377.165 410.937 376.224 413.196 377.508 412.304C378.517 411.602 377.611 410.843 377.388 410.891ZM373.1 294.045L374.998 294.203C373.909 293.107 374.978 291.833 373.1 294.045ZM398.747 271.275L400.522 270.176C398.481 270.121 398.861 268.596 398.747 271.275ZM214.549 484.001L216.23 485.695C215.75 482.117 215.939 483.9 214.549 484.001ZM401.511 332.106L403.312 330.233C401.448 330.509 401.345 329.278 401.511 332.106ZM222.609 473.135L223.495 474.988L228.489 477.062C228.161 482.565 226.016 480.074 229.336 483.052C230.639 479.421 228.998 480.911 230.745 478.075C232.369 475.439 232.557 477.626 233.727 473.101L235.253 470.923L237.095 470.882L239.167 467.853L239.567 470.396C241.969 470.995 244.905 470.14 247.512 469.079C248.015 470.635 249.016 471.527 249.722 473.877C247.724 479.973 245.886 476.838 248.287 483.679C250.597 490.255 250.288 488.592 253.119 493.926C244.307 504.148 247.364 502.473 239.848 504.079C242.378 509.375 246.292 504.15 250.683 511.803C255.797 520.721 254.922 514.421 262.947 517.827C265.369 522.286 264.969 524.496 270.583 525.281C275.02 525.902 278.317 526.377 280.426 521.679C279.763 514.628 274.823 514.156 270.4 510.172C271.787 504.194 271.175 507.401 268.556 502.378C266.524 498.483 268.025 497.465 266.907 493.287C260.735 497.157 257.901 492.712 259.082 486.533L261.263 485.431L265.829 481.584L261.827 480.721L264.151 478.866L265.829 481.584L265.909 477.85C260.958 477.41 260.303 477.965 259.054 482.272L254.597 482.56L256.515 469.136C257.433 464.666 255.151 466.049 257.584 461.832C259.608 458.319 259.442 458.872 260.274 454.758L262.453 454.907L264.031 460.888C261.143 462.206 259.974 460.31 257.924 465.388C260.938 468.311 264.743 471.927 269.36 472.704L270.849 474.913C270.683 480.672 276.367 480.796 280.521 478.808C283.4 475.601 282.859 475.178 282.165 472.738C285.981 474.013 290.69 472.447 292.814 469.438C295.919 468.641 299.006 467.324 301.122 465.112L298.978 461.081C303.286 454.902 298.426 455.235 302.228 448.61C305.89 447.885 304.118 449.677 306.385 447.931C301.648 443.452 288.757 438.909 288.64 438.834C291.682 436.668 290.315 436.913 293.938 436.596L295.83 434.735L298.886 433.739L298.76 431.849C298.36 427.868 298.243 429.907 299.555 429.493L301.179 425.302C304.535 427.045 300.736 427.065 305.959 427.83L307.774 421.97L311.151 424.884L315.985 424.136C318.084 418.294 316.262 422.353 316.197 416.884L318.321 414.298C322.026 415.923 326.597 415.727 330.648 415.31C339.356 414.41 335.794 413.222 340.54 409.03C346.609 409.036 344.748 413.354 352.299 413.561C358.439 413.722 362.187 417.902 366.364 412.992C366.807 408.627 366.613 408.895 363.057 406.939C353.376 401.625 355.017 397.963 342.255 397.523L338.647 392.859C337.392 390.791 339.528 391.007 336.743 391.378L336.186 387.58C340.837 384.997 342.767 387.172 347.121 387.54C350.861 380.969 352.341 382.247 356.069 377.319C356.375 374.344 355.429 374.027 355.721 372.595C356.252 369.988 357.525 372.281 357.565 368.544C357.576 367.376 357.067 358.018 356.91 357.526L353.651 359.355C350.981 354.755 353.454 351.617 356.081 348.049L366.767 345.532C366.041 342.232 365.841 343.556 363.442 341.709C366.833 334.361 364.363 333.093 366.424 328.536C370.475 319.589 368.194 322.834 366.867 315.216C369.538 310.529 372.92 312.96 377.64 309.727C378.126 306.249 377.162 303.035 372.925 303.775C367.322 304.747 370.547 307.733 367.799 310.501C366.298 309.025 365.978 304.085 367.877 301.758C365.718 300.984 364.769 300.481 364.011 299.689C364.277 299.174 364.626 298.585 365.089 297.891C367.01 295 367.128 293.723 367.436 290.253C365.381 288.093 363.928 287.575 363.174 286.203C363.377 284.036 363.32 281.994 362.711 280.535C363.137 277.112 364.915 273.867 363.946 270.722C361.899 271.954 362.796 275.731 362.179 279.597C362.142 279.551 362.102 279.503 362.067 279.459C358.105 274.836 348.248 275.357 347.278 278.464L342.17 279.1C341.606 277.742 341.312 276.741 341.18 275.947L343.01 275.515C342.538 273.372 342.287 273.179 341.512 272.802C341.706 272.106 341.889 271.301 341.858 270.069C340.28 271.05 340.286 271.542 340.2 272.066C340.04 271.957 339.868 271.833 339.682 271.695C343.073 264.344 340.6 263.076 342.667 258.519C346.149 250.829 344.951 252.149 343.705 247.828C344.554 247.374 345.249 246.862 345.709 246.301C345.106 246.056 344.248 245.932 343.245 245.912C343.199 245.685 343.153 245.449 343.11 245.199C345.78 240.512 349.16 242.943 353.88 239.71C354.366 236.235 353.402 233.018 349.168 233.758C343.565 234.73 346.79 237.716 344.039 240.487C343.173 239.629 342.698 237.615 342.821 235.619C343.29 235.216 343.499 234.612 346.206 233.228C349.188 231.704 359.343 229.235 365.724 227.532L365.707 227.587C368.317 228.634 368.034 229.327 368.677 226.715C368.946 226.637 369.197 226.563 369.429 226.494C376.553 224.276 384.312 221.499 391.505 219.468C397.457 217.788 412.761 216.505 415.797 212.141C409.628 208.099 382.537 219.612 372.302 221.925C365.758 223.404 359.068 225.829 352.341 228.053C352.31 226.968 352.199 226.801 350.435 226.919L351.578 228.306C348.513 229.31 345.443 230.262 342.37 231.059C339.917 229.972 339.88 229.129 337.618 225.976C338.322 222.083 341.089 212.688 338.307 209.442C336.326 207.132 332.873 206.105 329.791 206.048C330.751 205.127 331.786 204.126 332.884 203.062C334.797 203.395 334.968 203.136 337.264 201.6C337.635 200.418 337.673 199.402 337.467 198.582C344.454 191.712 352.556 183.528 358.191 177.288L358.7 179.71C359.983 177.334 359.966 177.552 358.76 176.655C362.762 172.181 365.372 168.81 365.164 167.837C361.979 168.413 348.25 184.097 335.923 196.615C334.502 195.918 332.369 196.289 330.314 198.036L330.763 201.732C328.77 203.643 326.875 205.389 325.122 206.879C324.47 207.196 323.976 207.593 323.698 208.062C323.513 208.208 323.332 208.352 323.149 208.493L318.412 209.083C316.134 203.574 318.195 203.974 318.098 200.052C314.827 202.081 318.369 202.023 313.755 204.491C311.382 201.686 312.989 203.041 312.229 199.379L305.136 198.349L304.487 195.412C300.301 195.869 302.3 197.483 298.352 195.936C297.774 191.721 299.226 194.336 299.704 190.073L299.855 186.505L304.893 185.36L304.861 185.121C308.618 185.962 312.523 183.306 313.652 179.707C317.037 179.23 320.562 177.978 321.952 176.284C320.365 175.639 317.029 175.841 313.884 176.537C313.644 175.078 312.909 173.585 311.525 172.193C307.957 168.597 303.663 169.244 301.068 171.756L300.53 170.665C298.326 167.368 299.798 169.42 300.467 169.141C305.347 168.821 308.609 167.673 313.229 166.951C321.969 165.591 316.831 166.085 322.449 163.211C326.123 161.333 340.7 158.019 345.669 156.474C352.793 154.259 360.552 151.482 367.748 149.451C373.697 147.771 389.004 146.488 392.04 142.124C385.867 138.082 358.777 149.595 348.542 151.908C334.965 154.978 320.759 162.127 306.871 163.082L312.514 155.332L309.853 153.194C307.486 155.97 308.658 156.684 304.964 154.952C306.931 153.045 306.72 153.715 309.853 153.194L308.315 151.431C308.875 149.995 308.998 148.249 309.578 147.429C305.227 148.347 303.598 143.965 300.021 141.695C304.893 137.34 342.172 101.396 341.406 97.8204C336.149 98.7727 302.18 140.861 293.171 141.986C290.327 139.463 290.195 135.737 285.492 136.494C281.29 137.167 280.069 141.402 281.024 145.021C284.535 146.779 285.635 145.533 288.451 148.908C287.288 153.816 271.358 164.466 271.355 164.466C260.514 162.006 271.944 152.489 271.161 147.645C267.393 149.092 265.475 166.152 255.837 159.61C249.319 155.188 251.52 136.316 247.349 132.389C245.697 136.497 249.188 143.56 249.279 148.361L244.651 152.205L243.075 152.271L243.604 148.847L240.151 151.419C238.209 148.735 239.044 148.326 236.554 147.279L238.747 153.249L237.555 156.261C233.821 156.572 234.281 156.304 231.723 154.167C228.023 151.068 227.952 153.37 226.7 150.073L225.036 147.343L224.478 146.428C225.928 142.294 225.648 145.792 224.558 142.432C221.031 141.324 223.032 141.039 219.552 143.476C217.989 140.133 219.218 141.189 215.833 140.844L214.221 144.739L208.935 143.778L207.308 146.626L207.6 148.381C204.272 146.117 206.084 148.698 202.94 147.337C202.079 146.963 198.525 143.847 197.539 143.036C194.003 140.13 190.092 135.746 185.964 134.155C184.223 131.957 183.002 131.244 181.061 129.426C177.716 126.293 179.034 125.789 176.772 122.13C171.363 120.073 172.698 122.233 167.341 117.815C165.225 116.068 162.215 112.377 159.831 112.072L170.331 121.862C169.148 128.37 168.879 125.381 171.984 130.663L172.941 132.708C168.79 135.194 170.477 132.475 167.255 136.692L166.843 144.854L161.323 146.948L163.013 143.888C160.774 140.91 161.96 143.01 157.892 142.751L155.022 138.439L152.38 138.709L150.974 138.672L150.07 136.224C149.144 133.514 148.607 130.182 145.153 129.782C140.619 129.253 140.908 131.813 138.558 134.239L137.534 134.472C130.487 129.175 131.591 119.851 131.196 119.155C126.888 114.549 126.885 117.13 122.465 114.682L121.459 103.626L114.881 100.384L106.701 108.586L107.096 112.507L101.207 114.17L102.281 118.934L103.848 115.323C110.163 116.969 107.822 117.4 111.333 120.996C118.837 120.962 117.233 117.573 121.27 117.101L123.471 124.204L119.758 125.594L117.868 130.427C114.626 129.403 115.106 129.978 115.455 127.236L112.739 127.737L114.881 129.403C110.789 131.782 113.317 128.557 110.089 132.783C113.88 137.794 113.002 131.672 115.412 136.039L111.556 137.432C105.641 141.436 108.382 137.872 105.1 143.896L103.239 146.232L105.438 149.52L103.514 151.235C103.053 151.2 96.2578 148.171 95.4688 147.642C91.7837 145.162 92.0467 141.514 87.0837 142.371C88.2644 147.76 93.8021 146.747 95.5717 150.024C97.1098 153.959 96.1035 153.493 94.4567 156.902L94.9942 159.515C98.9995 165.153 98.988 159.607 104.529 163.945L107.613 166.367L110.586 172.622L103.079 175.173C101.398 170.309 98.199 168.712 94.3395 166.166L93.0387 169.589C89.5623 166.425 94.3567 168.194 89.6395 164.307L85.8286 166.428C81.243 165.464 79.9765 166.045 76.9919 169.54C77.6122 172.737 79.156 175.475 76.4658 178.542C74.4732 180.815 69.2043 181.54 68.9156 184.074L65.1418 186.097C61.7569 185.458 59.8529 184.092 56.1478 185.642L53.612 189.724L49.0235 194.411C51.9996 196.468 50.0956 195.593 51.2992 199.454L50.9675 201.744L53.3633 202.141C53.3118 204.675 52.5342 203.899 52.6371 204.503C53.086 207.147 54.6097 200.395 52.9459 210.961C52.3227 214.957 54.2038 213.671 52.174 213.821L50.1642 216.307L50.1156 218.156C50.1185 218.306 50.1242 218.447 50.1327 218.582C47.7885 218.709 46.2961 218.778 44.7438 220.984C41.1816 225.654 42.5281 222.147 39.6807 224.212L42.3223 227.276L47.5312 227.633C48.223 227.814 48.852 227.909 49.418 227.926C48.1458 230.547 48.8405 230.935 47.88 232.334C46.0788 234.954 45.7701 232.797 44.1005 236.787L45.2412 237.227C44.4665 237.923 43.9519 239.224 44.1348 241.045C47.191 242.564 46.2961 242.558 48.7833 241.048L49.2236 241.367L48.1572 243.979C50.3186 246.309 49.6696 243.556 51.039 247.567L52.377 252.029C57.0427 253.827 59.0667 252.449 62.2143 257.351C60.5305 262.581 59.2497 260.32 55.8505 263.993C56.5195 267.892 56.2593 266.033 58.5893 268.99L59.1582 270.958L59.8929 273.254C57.8831 273.015 55.6847 273.691 53.895 275.256C53.8836 274.969 53.4233 274.951 52.3055 273.942C51.8138 276.367 51.4821 275.541 52.6829 276.545C51.8223 277.65 51.1334 279.025 50.7188 280.665C51.0533 281.37 51.4335 281.991 51.8366 282.546C50.9504 282.008 50.0698 281.246 47.0509 281.355C45.0239 284.678 43.6002 285.504 44.8724 289.221C50.1213 288.726 45.9759 289.646 49.6725 286.83C50.047 289.822 49.3437 288.867 49.6324 291.306L52.4599 297.445L52.6543 297.351L57.926 299.704L59.4698 302.054L62.5717 302.529C66.517 301.813 66.8429 300.725 69.1128 300.193L71.5114 302.535C69.8218 304.868 69.4873 302.911 67.8577 306.804L71.9145 308.372C72.0317 308.705 72.1461 308.999 72.2604 309.261L72.0431 310.705L72.9809 311.384L71.9116 313.996C73.6756 315.895 73.5698 314.419 74.213 315.978C70.9368 316.197 67.1945 313.573 61.7455 315.679C51.3792 309.891 58.4978 327.586 47.5369 320.702L45.1354 321.654C39.4691 323.006 38.6458 324.356 33.4655 326.208C27.6248 328.297 28.6054 332.992 29.5774 337.929L26.8529 339.778C22.293 340.262 20.6635 340.696 18.9824 345.239C19.6114 351.036 21.0237 350.101 25.2577 353.222L30.2092 357.485L29.1886 360.144L31.3442 361.392L23.914 363.705C20.1717 364.79 20.5234 362.721 16.8754 362.928C21.6641 364.994 24.8403 365.365 22.7218 374.065C27.9422 377.304 33.6914 376.49 36.6589 378.432C39.755 380.46 40.6813 380 44.4722 379.79C48.8119 379.548 46.8708 379.896 48.0686 377.267L51.4249 377.304C54.301 383.547 52.7315 381.386 51.6708 387.206C55.4559 393.429 58.1833 394.413 64.5243 392.189L64.9074 392.879C62.363 393.863 60.8764 394.919 57.2227 396.225C51.3849 398.314 52.3655 403.009 53.3347 407.946L50.6102 409.795C46.0503 410.279 44.4236 410.713 42.7368 415.256C43.3686 421.05 44.7838 420.117 49.0206 423.239L53.9665 427.502L52.9516 430.161L55.1015 431.406L47.6712 433.722C43.9318 434.807 44.2806 432.738 40.6298 432.943C45.4213 435.011 48.5975 435.382 46.4791 444.079C51.6965 447.321 57.4515 446.507 60.419 448.452C63.5123 450.477 64.4414 450.017 68.2323 449.804C72.5692 449.565 70.6309 449.913 71.8287 447.284L75.1879 447.321C78.0582 453.561 76.4887 451.4 75.4309 457.226C79.216 463.443 81.9434 464.43 88.2844 462.206L89.9025 465.123L91.4806 462.197L92.4155 464.818L94.6625 471.009C110.189 475.897 105.503 462.986 113.62 461.067L116.716 460.376L118.566 463L115.032 464.706L110.172 471.219C109.166 475.877 108.791 476.507 112.676 479.496L114.889 482.154C116.727 483.886 116.979 483.21 118.223 484.438C120.195 486.389 116.945 485.126 121.253 487.873C123.717 485.839 122.791 485.704 125.353 483.923C127.46 482.462 125.181 484.427 126.282 481.153C136.331 481.596 130.859 476.82 135.687 480.333L139.078 476.898L143.869 480.399L145.733 476.843L151.243 475.831C162.924 478.236 165.994 468.164 166.735 467.099L173.948 467.635L175.28 462.77C169.722 456.185 170.191 456.469 163.387 458.101L164.642 452.465C168.536 453.319 167.046 453.667 171.784 453.739C173.607 457.422 172.421 457.197 176.098 459.594C191.112 469.369 188.173 460.58 198.603 464.585L202.691 458.348L204.152 458.331L205.933 463.348L209.818 462.413L215.204 466.395L211.971 467.856L213.943 473.523C215.925 476.162 215.57 476.53 218.838 476.731L219.818 474.142L219.884 473.164L222.609 473.135ZM239.133 467.632L236.706 465.972C236.726 465.943 236.743 465.906 236.76 465.874C240.296 463.84 238.169 465.563 239.476 462.235C240.134 458.616 239.593 459.375 242.406 457.35L243.578 459.881L247.747 459.415C248.57 462.476 248.324 462.908 247.93 463.529C245.394 462.304 241.817 463.624 238.816 465.606L239.133 467.632ZM119.329 224.908C119.023 225.415 118.64 226.036 118.214 226.916L118.466 228.139C118.077 228.01 117.662 227.874 117.225 227.739L116.759 230.415C114.903 228.329 115.369 229.681 117.225 227.739L114.406 226.603C114.889 225.317 117.133 224.88 119.329 224.908ZM111.953 235.127L109.589 236.445C108.231 236.163 107.164 236.01 106.264 236.03C105.972 234.391 107.825 234.618 110.009 232.126L107.287 229.422C109.629 227.302 109.077 227.647 111.944 227.477L113.68 233.493C113.122 233.982 112.545 234.555 111.953 235.127ZM75.9284 271.959L77.1234 272.158C77.1062 273.001 77.0062 273.475 76.8889 273.757C76.603 273.752 76.1971 273.746 75.6168 273.826C75.6939 272.912 75.7225 272.284 75.9284 271.959ZM74.7877 317.555L74.7963 317.583L75.8883 321.223L75.8912 321.47L70.9739 320.017C73.5469 318.165 72.8579 317.888 74.7877 317.555ZM23.4223 198.827C23.2393 198.87 22.4531 201.583 23.9197 200.446C25.1662 199.483 23.5424 198.801 23.4223 198.827ZM276.624 543.261C276.341 543.327 275.326 546.219 276.859 545.059C278.225 544.029 276.644 543.258 276.624 543.261ZM374.192 296.933L376.144 299.298C375.99 297.109 376.482 296.784 374.192 296.933ZM386.476 408.55C388.469 408.271 387.634 409.165 387.837 407.149C387.694 407.166 386.496 405.003 386.476 408.55ZM109.148 510.16C111.07 510.672 110.378 511.196 111.204 509.274C109.703 508.828 109.963 508.011 109.148 510.16ZM381.836 386.781L380.987 389.272C384.558 388.691 383.192 388.564 381.836 386.781ZM387.125 284.69C389.155 284.321 389.032 285.455 388.4 282.745C386.536 283.096 386.471 282.037 387.125 284.69ZM209.2 490.367C208.726 493.112 208.08 491.814 210.267 493.673C211.25 490.782 211.225 492.588 209.2 490.367ZM199.057 474.22C199.486 476.441 198.74 476.734 201.507 476.553C201.23 474.904 201.547 474.208 199.057 474.22ZM345.677 425.992C348.413 427.031 348.571 426.763 348.07 424.177C346.115 424.229 346.492 422.758 345.677 425.992ZM349.242 172.921C352.19 172.498 351.375 172.676 351.024 170.153C349.657 170.475 351.449 167.938 349.488 170.855C348.193 172.783 349.034 171.842 349.242 172.921ZM48.366 310.291C50.9618 311.251 51.0333 311.067 52.7629 309.163C50.4815 308.176 50.2928 308.432 48.366 310.291ZM340.357 416.412C341.443 418.501 342.916 418.996 345.108 418.662C343.599 416.913 342.53 416.17 340.357 416.412ZM315.714 186.013C318.035 188.05 319.153 187.322 318.395 184.304C315.862 184.258 316.594 183.663 315.714 186.013ZM389.467 297.604C392.234 298.714 391.748 299.428 392.563 296.217C389.85 294.675 390.33 294.661 389.467 297.604ZM240.136 492.321C240.011 495.77 240.479 495.362 243.087 494.136C242.629 492.16 242.864 491.248 240.136 492.321ZM92.0295 482.542C93.8249 484.573 93.7849 484.723 95.8719 482.35C93.3503 479.614 93.5018 480.572 92.0295 482.542ZM257.278 471.53C259.199 475.005 261.152 473.754 260.386 470.451C257.504 470.114 259.302 469.387 257.278 471.53ZM307.131 514.72L304.381 517.139C306.788 519.49 305.442 519.053 308.263 518.164L307.131 514.72ZM307.723 430.08C306.376 433.898 308.509 431.513 309.307 435.802L311.488 433.458C309.604 430.897 310.156 430.765 307.723 430.08ZM299.592 442.663C302.683 444.128 303.638 444.062 303.472 440.307C300.441 438.742 299.83 439.369 299.592 442.663ZM403.189 382.845C399.573 382.966 399.304 383.089 400.073 386.493C402.944 387.644 402.057 387.713 404.139 385.653L403.189 382.845ZM194.795 465.25C193.677 468.069 194.309 470.29 197.116 471.743C199.169 469.34 197.308 466.334 194.795 465.25ZM387.986 313.294C385.547 315.417 385.51 316.798 386.817 319.701C390.613 318.875 390.29 315.86 387.986 313.294ZM306.608 454.766C307.08 457.327 311.099 458.803 313.461 458.181C313.112 454.686 309.393 453.547 306.608 454.766ZM399.101 356.824C396.725 359.094 397.054 358.967 398.507 361.717L402.169 361.225C402.335 358.11 402.749 357.071 399.101 356.824ZM64.5901 458.486C67.2174 460.773 67.4747 460.724 69.7932 458.118C69.0299 453.276 64.5958 454.038 64.5901 458.486ZM360.735 385.169C362.099 389.626 364.798 389.401 366.396 385.437C364.334 382.117 363.222 382.405 360.735 385.169ZM42.1593 430.169L47.4082 431.001L47.2281 425.117C42.3166 426.32 42.268 428.216 42.1593 430.169ZM31.5958 313.657C35.0436 314.951 37.4994 313.861 38.62 310.299C35.2866 307.765 31.8474 309.658 31.5958 313.657ZM402.114 283.064C403.618 288.783 410.425 286.767 407.889 281.085C404.321 280.481 404.427 280.196 402.114 283.064ZM276.51 426.265L280.975 424.102L282.082 428.65C278.042 428.391 280.85 428.319 280.258 429.933C277.605 428.895 277.056 429.122 276.51 426.265ZM354.074 268.053L354.637 272.693C358.617 273.458 358.105 273.568 361.021 271.617C362.605 266.577 358.188 264.554 354.074 268.053ZM407.672 316.335C403.953 311.674 397.151 316.712 400.445 321.484C403.198 325.48 411.757 321.453 407.672 316.335ZM262.573 535.623L263.325 540.416C266.818 541.285 271.447 539.075 274.543 537.634C272.942 531.15 267.101 532.631 262.573 535.623ZM422.907 265.046C418.527 258.85 412.315 262.753 413.484 267.178C414.611 271.467 423.021 273.323 422.907 265.046ZM54.5811 476.052L60.7734 481.947C74.3531 474.306 62.2143 463.923 54.5811 476.052ZM317.392 472.568C313.695 463.282 299.881 467.983 303.709 476.222C307.354 484.058 320.577 480.572 317.392 472.568ZM258.027 522.332C246.449 520.143 243.764 529.038 251.3 536.647C257.921 543.333 266.384 533.805 258.027 522.332ZM12.7959 208.562C15.6204 212.48 21.584 213.263 25.6751 215.118C32.605 218.26 33.0481 221.761 41.2016 217.492C40.5698 216.347 39.8465 215.432 39.0518 214.681C41.0415 213.26 42.2251 210.921 41.5704 208.32C39.7579 201.108 30.4151 201.609 27.439 209.158C27.116 208.985 26.7929 208.801 26.4784 208.605C22.3245 206.007 13.1932 198.24 12.7959 208.562ZM300.258 533.595C300.619 547.05 315.848 544.501 317.549 537.318C319.247 530.163 306.814 523.71 300.258 533.595ZM60.3504 411.507L65.382 414.939L67.8549 415.146L64.5929 419.375C62.1829 416.334 64.1641 418.268 63.0348 415.44C62.4459 413.97 61.4224 413.046 60.3504 411.507ZM382.591 355.846L377.82 354.594C374.481 357.152 376.004 357.017 374.526 358.743C371.879 361.824 372.008 359.102 368.983 362.695C369.063 367.96 372.073 367.882 376.236 369.942L374.12 372.802C375.447 375.86 375.924 378.892 379.198 379.919C382.18 380.857 385.962 379.706 387.145 376.697C388.821 372.434 384.993 373.699 388.844 367.908C390.77 365.017 390.888 363.74 391.191 360.27C387.683 356.579 385.933 357.681 386.414 351.145C386.679 347.5 388.729 344.065 387.703 340.742C384.492 342.673 388.532 350.866 382.591 355.846ZM75.6339 446.671C72.8808 444.666 71.6086 445.221 71.1883 441.875L74.5589 441.3L78.4184 441.179L78.7644 444.971L75.6339 446.671ZM81.8862 435.592L79.4819 430.914L82.3894 430.008L82.9097 425.612C84.0618 430.609 84.748 431.216 81.8862 435.592ZM83.8246 414.603C79.6878 414.318 81.7204 415.471 79.0588 412.103L83.0984 410.086L83.8246 414.603ZM130.267 465.353C130.633 465.273 131.756 466.193 130.584 467.048C129.072 468.155 130.004 465.408 130.267 465.353ZM132.414 459.407C132.317 461.104 134.289 460.212 130.882 461.144C130.987 456.982 132.248 459.444 132.414 459.407ZM137.403 442.991L133.355 442.169L135.462 439.039L137.403 442.991ZM138.432 451.415C143.626 450.67 139.61 453.544 143.515 458.374C139.83 459.364 138.572 454.464 138.432 451.415ZM141.805 440.209L140.021 440.828L141.805 440.209ZM97.3013 444.269C101.149 443.82 100.286 442.896 102.073 446.003C99.7914 448.587 101.993 447.082 98.1018 448.167L97.3013 444.269ZM345.534 287.215C347.461 288.826 347.902 289.73 347.236 290.834C346.927 291.001 346.572 291.263 346.132 291.692C343.999 289.549 343.925 290.619 345.534 287.215ZM357.908 320.411C358.151 320.357 359.346 321.217 358.385 322.051C357.116 323.15 357.79 320.437 357.908 320.411ZM30.8982 306.088L31.733 308.09L30.8982 306.088ZM146.708 117.829C146.614 117.846 146.237 119.503 147.283 118.773C148.235 118.108 146.708 117.829 146.708 117.829ZM164.556 61.0369C164.35 61.0743 163.604 63.301 164.696 62.4897C165.623 61.7964 164.648 61.0168 164.556 61.0369ZM62.5431 310.429C62.4802 310.44 61.8713 312.926 62.9462 311.976C63.6695 311.338 62.9119 310.351 62.5431 310.429ZM349.342 224.028L351.241 224.186C350.152 223.09 351.221 221.816 349.342 224.028ZM374.987 201.258L376.768 200.159C374.724 200.104 375.101 198.577 374.987 201.258ZM186.673 95.3693L188.748 95.4096C187.336 94.2617 188.574 92.9326 186.673 95.3693ZM228.321 115.766L228.469 118.427C230.07 115.755 230.208 117.786 228.321 115.766ZM76.3658 113.307C76.2228 113.338 75.4252 115.999 76.786 114.892C77.7809 114.083 76.666 113.237 76.3658 113.307ZM100.329 105.853L102.121 107.596C101.472 103.744 101.612 105.717 100.329 105.853ZM377.751 262.092L379.555 260.219C377.688 260.495 377.585 259.267 377.751 262.092ZM-0.334964 128.813C-0.517917 128.853 -1.30411 131.566 0.159634 130.432C1.41183 129.466 -0.217746 128.784 -0.334964 128.813ZM74.2188 143.203L73.0295 145.274C75.6396 144.871 75.1965 145.317 74.2188 143.203ZM144.215 124.331C143.441 126.828 142.9 124.984 144.793 126.537C145.816 124.21 146.008 126.163 144.215 124.331ZM363.365 214.673C365.395 214.304 365.272 215.438 364.643 212.728C362.779 213.079 362.711 212.017 363.365 214.673ZM275.575 152.53C278.331 153.41 278.117 153.81 277.425 150.875C275.626 151.209 276.37 149.679 275.575 152.53ZM80.7427 148.007C81.1687 150.355 80.4197 150.36 83.1184 150.464C82.6381 147.883 83.0699 148.183 80.7427 148.007ZM325.485 102.904C328.433 102.484 327.618 102.659 327.263 100.133C325.903 100.461 327.692 97.9211 325.731 100.838C324.433 102.769 325.274 101.825 325.485 102.904ZM262.707 144.716C260.489 147.147 260.866 145.565 261.724 148.329C264.234 147.173 264.139 147.17 262.707 144.716ZM24.6059 240.274C27.2075 241.237 27.2703 241.05 29.0057 239.143C26.7214 238.159 26.5356 238.415 24.6059 240.274ZM291.956 115.996C294.275 118.033 295.396 117.308 294.638 114.288C292.105 114.242 292.834 113.646 291.956 115.996ZM192.985 158.833L188.591 160.622L189.208 157.414L192.985 158.833ZM147.883 114.19L150.768 115.85L151.208 112.205C147.981 112.3 148.878 111.566 147.883 114.19ZM265.515 119.955C268.128 121.319 268.422 121.569 269.191 118.491C266.69 116.977 266.307 116.923 265.515 119.955ZM160.794 72.9615C163.776 74.2158 162.955 74.2848 164.202 71.5691C161.86 69.4345 160.765 69.2302 160.794 72.9615ZM379.429 312.831C375.816 312.949 375.547 313.075 376.316 316.473C379.183 317.632 378.294 317.696 380.381 315.639L379.429 312.831ZM364.229 243.28C361.79 245.4 361.75 246.781 363.059 249.684C366.856 248.864 366.53 245.843 364.229 243.28ZM375.344 286.81C372.968 289.077 373.297 288.947 374.749 291.703L378.409 291.211C378.577 288.09 378.989 287.054 375.344 286.81ZM40.8328 388.466C43.4573 390.759 43.7174 390.705 46.0303 388.101C45.2698 383.259 40.8385 384.024 40.8328 388.466ZM25.838 263.248C26.67 265.774 32.1161 269.652 34.7978 269.247C33.3311 266.583 29.0142 262.428 25.838 263.248ZM20.3776 171.028C23.6367 172.647 22.4045 172.532 25.5722 170.708C25.3921 164.805 19.8287 165.657 20.3776 171.028ZM18.3992 360.152L23.6481 360.984L23.4709 355.103C18.5593 356.303 18.5079 358.202 18.3992 360.152ZM7.83855 243.64C11.2835 244.937 13.7364 243.841 14.8657 240.279C11.5294 237.748 8.09301 239.641 7.83855 243.64ZM20.9865 150.967C17.4272 155.639 18.768 152.13 15.9235 154.198L18.5622 157.259L23.7711 157.616C28.4939 158.85 30.0206 156.088 30.9983 151.917L27.8964 148.465C24.623 148.752 22.8534 148.318 20.9865 150.967ZM293.24 168.62L296.965 168.387L294.829 171.059L293.24 168.62ZM378.354 213.053C379.861 218.769 386.665 216.75 384.132 211.065C380.564 210.464 380.67 210.176 378.354 213.053ZM75.977 156.96C72.8179 154.825 72.4834 154.854 69.3901 157.061C67.5347 164.998 77.9925 164.641 75.977 156.96ZM39.3291 126.621C38.8659 130.266 38.4428 128.888 40.8214 131.787L45.4013 131.612C47.0537 128.41 47.0795 128.623 45.6815 125.516C41.9564 124.601 42.4252 124.558 39.3291 126.621ZM168.739 162.199L169.556 165.89L167.858 167.524L164.213 163.675L165.5 161.871L168.739 162.199ZM383.915 246.321C380.195 241.657 373.394 246.692 376.688 251.468C379.441 255.464 387.997 251.436 383.915 246.321ZM399.15 195.029C394.77 188.833 388.555 192.739 389.724 197.161C390.856 201.453 399.261 203.306 399.15 195.029ZM30.821 406.035L37.0134 411.933C50.593 404.292 38.4599 393.906 30.821 406.035ZM208.637 159.12C207.188 156.718 207.162 157.176 207.905 154.198C209.981 154.284 211.742 155.757 212.302 157.883C208.649 158.7 211.01 157.82 208.469 156.902L208.637 159.12ZM287.765 102.176C280.609 94.9666 270.526 104.814 277.11 112.57C283.651 120.271 295.301 109.768 287.765 102.176ZM-10.9642 138.548C-8.13681 142.463 -2.17322 143.249 1.91784 145.102C8.84774 148.246 9.29089 151.744 17.4415 147.478C14.0052 141.247 7.81283 141.773 2.71832 138.585C-1.43277 135.991 -10.564 128.223 -10.9642 138.548ZM233.913 95.5448C231.814 99.5954 235.791 110.775 237.072 115.674C238.673 121.816 236.657 128.511 238.927 134.273C240.471 131.39 238.801 128.168 241.157 126.316C243.344 130.735 243.904 137.892 243.673 142.886L241.629 144.506L243.721 145.809C249.053 141.393 244.45 126.445 243.187 120.251C242.075 114.808 240.222 96.195 233.913 95.5448ZM61.9056 179.005C68.6583 164.135 55.5217 164.992 51.2592 161.586C44.801 156.425 39.0518 163.459 41.8677 167.662C44.3007 171.298 44.0148 167.089 47.0652 174.615C49.4495 180.507 56.6167 181.557 61.9056 179.005ZM36.5903 341.493L41.6219 344.919L44.0948 345.129L40.8385 349.358C38.4228 346.318 40.404 348.251 39.2747 345.426C38.6887 343.953 37.6652 343.029 36.5903 341.493ZM161.715 152.673C159.873 155.772 158.821 155.271 155.408 156.275L152.286 154.771L156.126 153.922C153.715 152.049 154.605 153.862 154.064 151.304C157.604 149.322 157.023 149.811 159.176 153.016L161.715 152.673ZM157.418 158.787C160.923 158.39 160.219 157.671 162.778 159.702L160.628 161.828L157.066 162.317L157.418 158.787ZM51.8767 376.654C49.1236 374.649 47.8514 375.204 47.4282 371.861L50.8017 371.28L54.6583 371.162L55.0043 374.957L51.8767 376.654ZM194.652 163.421C195.012 163.347 196.461 165.214 194.946 164.877C193.42 164.532 194.637 163.424 194.652 163.421ZM197.062 155.415C197.531 158.278 195.904 160.078 193.923 156.013L197.062 155.415ZM188.822 168.036C188.439 162.679 186.132 167.535 186.804 162.777C190.086 162.82 189.523 163.263 192.15 165.634L188.822 168.036ZM58.129 365.572L55.7218 360.9L58.6293 359.991L59.1496 355.595C60.3046 360.595 60.9879 361.199 58.129 365.572ZM60.0645 344.586C55.9305 344.301 57.9632 345.454 55.3016 342.086L59.3412 340.072L60.0645 344.586ZM70.6566 332.848L70.2363 326.999C72.9666 325.938 72.0717 326.41 75.045 327.995L74.5504 331.116L70.6566 332.848ZM291.851 161.425C289.755 162.023 291.196 162.711 289.815 160.775C291.419 160.291 290.561 159.051 291.851 161.425ZM284.197 173.269L284.289 179.733L278.88 176.511L284.197 173.269ZM120.518 164.914C123.311 164.448 122.148 164.302 122.382 166.272C119.109 166.462 120.893 166.091 120.518 164.914ZM120.853 142.97C122.825 146.313 126.073 148.81 121.848 149.279C118.954 145.898 119.226 146.566 120.853 142.97ZM73.5412 374.252C77.3921 373.803 76.5259 372.877 78.3155 375.987C76.0313 378.57 78.2355 377.065 74.3417 378.153L73.5412 374.252ZM58.9381 295.886C61.2452 292.776 61.3881 293.752 62.992 295.748C61.2395 297.374 61.4367 297.264 58.9381 295.886ZM62.4602 246.876C62.1715 248.809 59.9873 250.487 58.1605 250.092C59.081 247.264 60.0759 247.04 62.4602 246.876ZM62.6889 235.763C60.6277 233.72 61.1794 235.072 62.8061 232.817C64.0612 235.13 64.6358 233.858 62.6889 235.763ZM60.5705 207.524C61.471 210.363 61.2538 210.271 59.1611 212.244C57.2142 209.862 58.1519 208.113 60.5705 207.524ZM72.6435 252.351C72.9809 254.727 73.0237 255.294 70.2621 254.267C71.1197 250.895 71.4456 252.46 72.6435 252.351ZM66.0881 226.847C65.7822 223.323 66.1939 221.079 69.5016 219.952C69.8675 220.861 71.3141 219.52 71.1569 225.07L66.0881 226.847ZM62.2172 195.208C62.2515 195.202 63.6495 195.91 62.3258 196.813C60.8392 197.826 61.9285 195.271 62.2172 195.208ZM73.2239 220.162C75.9655 219.46 76.8804 220.32 76.18 223.021C73.1724 222.446 73.9415 222.958 73.2239 220.162ZM84.6108 222.282L79.016 219.724C81.183 215.737 80.8056 219.359 81.426 214.091L85.3769 220.59L84.6108 222.282ZM78.0582 209.181L78.9044 206.151L76.2657 206.436C78.7729 203.976 78.7758 203.343 80.8399 207.328L78.0582 209.181ZM167.281 170.076C169.245 170.222 170.806 171.508 171.4 173.07C168.582 173.991 167.784 173.07 167.281 170.076ZM195.506 186.241C194.832 182.857 196.024 184.353 196.744 184.129C197.145 186.091 198.274 185.507 195.506 186.241ZM196.887 172.725C198.271 176.664 199.986 177.227 200.084 180.392C197.119 182.958 195.281 182.552 191.681 180.337L194.466 173.654L196.887 172.725ZM279.878 167.581L278.199 170.093L276.427 166.994L279.878 167.581ZM334.15 250.394C334.393 250.34 335.588 251.2 334.625 252.034C333.359 253.133 334.03 250.42 334.15 250.394Z" fill="url(#paint2_linear)"/>
<defs>
<linearGradient id="paint0_linear" x1="388.888" y1="497.287" x2="366.041" y2="315.773" gradientUnits="userSpaceOnUse">
<stop stop-color="#444C71"/>
<stop offset="1" stop-color="#6572A6"/>
</linearGradient>
<linearGradient id="paint1_linear" x1="205.916" y1="142.716" x2="-108.976" y2="142.716" gradientUnits="userSpaceOnUse">
<stop stop-color="#FBC55C"/>
<stop offset="1" stop-color="#CE894B"/>
</linearGradient>
<linearGradient id="paint2_linear" x1="422.908" y1="303.185" x2="-10.9642" y2="303.185" gradientUnits="userSpaceOnUse">
<stop stop-color="#444C71"/>
<stop offset="1" stop-color="#6572A6"/>
</linearGradient>
</defs>
</svg>
