<svg width="34" height="30" viewBox="0 0 34 30" fill="none" xmlns="http://www.w3.org/2000/svg">
<path fill-rule="evenodd" clip-rule="evenodd" d="M26.5724 19.5608L26.5291 19.4375L26.5724 19.5608ZM29.7859 12.4391C29.7912 12.4628 29.927 12.5238 29.8751 12.4434C29.8268 12.3687 29.7847 12.4327 29.7859 12.4391ZM31.8684 12.042C31.8704 12.0507 32.0061 12.0857 31.9469 12.0081C31.8974 11.9436 31.8664 12.0326 31.8684 12.042ZM23.2033 5.26039C23.2598 5.1351 23.2868 5.16672 23.162 5.14637L23.2033 5.26039ZM4.90075 16.2229C4.90357 16.2367 5.05935 16.2885 5.00259 16.213C4.95409 16.1486 4.89955 16.2161 4.90075 16.2229ZM24.4781 3.15299C24.4813 3.16841 24.6393 3.23342 24.5769 3.14469C24.5278 3.07493 24.4746 3.13758 24.4781 3.15299ZM16.3036 3.44942L16.3147 3.3182C16.238 3.39349 16.1489 3.31959 16.3036 3.44942ZM14.7106 1.67659L14.6338 1.55387C14.6299 1.69497 14.5233 1.66868 14.7106 1.67659ZM29.5927 14.4091L29.7113 14.2929C29.4609 14.3261 29.5857 14.3131 29.5927 14.4091ZM18.9663 1.48549L18.8353 1.36099C18.8546 1.48984 18.7685 1.49695 18.9663 1.48549ZM28.8326 13.852L28.9622 13.7908L29.1073 13.4455C29.4923 13.4683 29.318 13.6165 29.5263 13.387C29.2723 13.2969 29.3766 13.4104 29.1781 13.2896C28.9938 13.1774 29.1467 13.1643 28.8301 13.0835L28.6778 12.978L28.675 12.8507L28.463 12.7074L28.641 12.6798C28.6828 12.5138 28.623 12.3108 28.5488 12.1306C28.6577 12.0958 28.7201 12.0266 28.8845 11.9778C29.311 12.116 29.0916 12.243 29.5702 12.077C30.0303 11.9174 29.9139 11.9387 30.2871 11.7431C31.0022 12.3521 30.885 12.1409 30.9973 12.6604C31.3679 12.4855 31.0024 12.215 31.5377 11.9114C32.1616 11.5579 31.7209 11.6184 31.9592 11.0636C32.2711 10.8963 32.4257 10.9239 32.4806 10.5358C32.5241 10.2291 32.5573 10.0012 32.2286 9.85541C31.7354 9.90125 31.7023 10.2427 31.4236 10.5485C31.0054 10.4526 31.2298 10.4949 30.8784 10.6759C30.6059 10.8164 30.5346 10.7127 30.2424 10.7899C30.5131 11.2166 30.2021 11.4124 29.7698 11.3308L29.6928 11.18L29.4237 10.8644L29.3633 11.1411L29.2335 10.9804L29.4237 10.8644L29.1624 10.8589C29.1316 11.2012 29.1705 11.2464 29.4718 11.3328L29.4919 11.6409L28.5528 11.5083C28.24 11.4448 28.3369 11.6025 28.0418 11.4344C27.7961 11.2945 27.8347 11.3059 27.5469 11.2484L27.5574 11.0978L27.9758 10.9887C28.068 11.1883 27.9353 11.2692 28.2906 11.4109C28.495 11.2026 28.748 10.9395 28.8024 10.6204L28.9569 10.5174C29.3599 10.5289 29.3685 10.136 29.2294 9.84888C29.005 9.64988 28.9755 9.68723 28.8048 9.73525C28.8939 9.47143 28.7845 9.14596 28.5739 8.99913C28.5182 8.78451 28.426 8.57109 28.2712 8.42485L27.9893 8.57306C27.557 8.27525 27.5803 8.6112 27.1168 8.34837C27.0661 8.09522 27.1915 8.21775 27.0693 8.06103C26.7559 8.38849 26.4382 9.27955 26.4329 9.28765C26.2814 9.07738 26.2985 9.17184 26.2763 8.92146L26.1461 8.79064L26.0765 8.57939L25.9443 8.58808C25.6657 8.61575 25.8084 8.62385 25.7794 8.53314L25.4862 8.4209C25.6082 8.18889 25.6096 8.45153 25.6631 8.09048L25.2531 7.96499L25.457 7.7316L25.4047 7.39743C24.9959 7.25238 25.2799 7.37826 24.8973 7.38281L24.7164 7.23598C24.8301 6.97987 24.8164 6.66387 24.7872 6.38385C24.7242 5.78191 24.6411 6.02814 24.3479 5.70009C24.3483 5.28055 24.6503 5.4092 24.6648 4.88729C24.6761 4.46281 24.9685 4.20373 24.625 3.91501C24.3197 3.88438 24.3384 3.89782 24.2015 4.14365C23.8298 4.81279 23.5736 4.69935 23.5428 5.58152L23.2166 5.83092C23.0719 5.91767 23.0869 5.77005 23.1129 5.96253L22.8472 6.00106C22.6665 5.67954 22.8187 5.54615 22.8444 5.24518C22.3847 4.98669 22.4741 4.88432 22.1293 4.62663C21.9212 4.60549 21.8991 4.6709 21.7989 4.65074C21.6165 4.61398 21.7769 4.52604 21.5155 4.52328C21.4338 4.52249 20.7791 4.55766 20.7447 4.56853L20.8727 4.79382C20.5509 4.97839 20.3313 4.80745 20.0817 4.62584L19.9056 3.88714C19.6748 3.93734 19.7673 3.95117 19.6381 4.11697C19.1241 3.8826 19.0354 4.05334 18.7166 3.91086C18.0906 3.63083 18.3177 3.78853 17.7847 3.88023C17.4569 3.69565 17.6269 3.46187 17.4007 3.1356C17.1574 3.10201 16.9326 3.16861 16.9843 3.46147C17.0523 3.84881 17.2612 3.62589 17.4548 3.8158C17.3516 3.91955 17.006 3.94169 16.8432 3.81047C16.7891 3.95967 16.7539 4.02528 16.6985 4.07765C16.6625 4.05927 16.6212 4.03516 16.5727 4.00315C16.3704 3.87035 16.2811 3.86224 16.0384 3.8409C15.8872 3.98299 15.851 4.08338 15.755 4.13555C15.6034 4.12152 15.4605 4.12547 15.3585 4.16756C15.119 4.13812 14.892 4.0152 14.672 4.08219C14.7581 4.22369 15.0224 4.16164 15.2929 4.20432C15.2897 4.20689 15.2863 4.20966 15.2832 4.21203C14.9598 4.48593 14.9962 5.16731 15.2136 5.23431L15.2581 5.58745C15.1631 5.62638 15.093 5.64674 15.0375 5.65583L15.0073 5.52935C14.8574 5.56196 14.8439 5.57935 14.8175 5.6329C14.7688 5.61946 14.7125 5.60682 14.6263 5.60899C14.6949 5.71808 14.7294 5.71768 14.766 5.72361C14.7583 5.73468 14.7497 5.74653 14.74 5.75938C14.2258 5.525 14.137 5.69594 13.8182 5.55306C13.2803 5.31237 13.3727 5.39517 13.0704 5.48133C13.0386 5.42264 13.0027 5.37462 12.9635 5.3428C12.9464 5.3845 12.9377 5.44378 12.9363 5.51315C12.9204 5.51631 12.9039 5.51947 12.8864 5.52243C12.5586 5.33786 12.7286 5.10427 12.5024 4.77801C12.2593 4.74441 12.0343 4.81101 12.086 5.10368C12.154 5.49101 12.3629 5.2681 12.5567 5.45821C12.4968 5.51809 12.3559 5.55089 12.2162 5.54239C12.188 5.50998 12.1458 5.49556 12.049 5.30841C11.9423 5.1023 11.7696 4.40036 11.6505 3.95927L11.6543 3.96046C11.7275 3.78004 11.776 3.7996 11.5933 3.75514C11.5879 3.73656 11.5826 3.71917 11.5778 3.70316C11.4226 3.2107 11.2284 2.67436 11.0863 2.17716C10.9688 1.76571 10.879 0.707865 10.5737 0.497995C10.2909 0.924455 11.0964 2.79708 11.2582 3.50456C11.3617 3.9569 11.5313 4.41933 11.6869 4.88432C11.611 4.8865 11.5993 4.89421 11.6076 5.01614L11.7046 4.93709C11.7748 5.14894 11.8415 5.36118 11.8972 5.57362C11.8211 5.74317 11.7622 5.74574 11.5416 5.90206C11.2693 5.85344 10.612 5.66215 10.3849 5.85443C10.2233 5.99138 10.1515 6.2301 10.1474 6.44314C10.083 6.37674 10.013 6.3052 9.93853 6.22931C9.96188 6.09711 9.94376 6.08525 9.83629 5.92656C9.75357 5.90087 9.68253 5.8983 9.62517 5.91253C9.14455 5.42955 8.57197 4.8695 8.13543 4.48L8.30489 4.44482C8.13865 4.35609 8.15395 4.35728 8.09115 4.44067C7.77819 4.16401 7.54231 3.98358 7.47428 3.99801C7.51454 4.21815 8.61182 5.16712 9.4875 6.01925C9.4388 6.11746 9.46476 6.26488 9.58693 6.40697L9.84555 6.37595C9.97919 6.51369 10.1014 6.64471 10.2056 6.76585C10.2277 6.8109 10.2555 6.84509 10.2883 6.86426C10.2986 6.8771 10.3087 6.88955 10.3185 6.9022L10.3598 7.22966C9.97436 7.38716 10.0023 7.24467 9.72801 7.25139C9.8699 7.47747 9.86588 7.23262 10.0386 7.55157C9.84233 7.7156 9.93712 7.60454 9.68092 7.6571L9.60886 8.14739L9.40338 8.19225C9.43538 8.48157 9.54829 8.34343 9.44001 8.61634C9.14516 8.65626 9.3281 8.55587 9.02984 8.52287L8.78027 8.51239L8.70017 8.16419L8.68346 8.16636C8.74223 7.90669 8.55647 7.63675 8.30469 7.55869C8.27128 7.32471 8.18373 7.08105 8.06519 6.985C8.02011 7.09468 8.03419 7.3253 8.0829 7.54268C7.98086 7.55928 7.87641 7.61007 7.77899 7.70572C7.52742 7.95234 7.5727 8.24917 7.7484 8.4286L7.67212 8.46576C7.44148 8.61812 7.58498 8.51635 7.56546 8.4701C7.54312 8.13277 7.46281 7.90729 7.4123 7.58794C7.3171 6.98382 7.35172 7.33894 7.15066 6.95062C7.01923 6.69668 6.78738 5.68903 6.6793 5.34557C6.52433 4.8531 6.33011 4.31677 6.18802 3.81936C6.07049 3.40812 5.98072 2.35007 5.67541 2.1402C5.39264 2.56686 6.19809 4.43949 6.3599 5.14696C6.57465 6.08545 7.07478 7.06741 7.1416 8.02744L6.5994 7.63734L6.44986 7.82132C6.64408 7.98495 6.69399 7.90393 6.57283 8.15925C6.4394 8.02329 6.48629 8.03791 6.44986 7.82132L6.32649 7.92764C6.22606 7.88891 6.10389 7.88041 6.04654 7.84029C6.11074 8.14107 5.80422 8.25371 5.64542 8.50093C5.34071 8.16419 2.82615 5.58725 2.57598 5.64021C2.6426 6.00363 5.58706 8.35173 5.66575 8.97442C5.48924 9.17105 5.22861 9.18014 5.28154 9.50523C5.32864 9.79572 5.62489 9.88011 5.87808 9.8141C6.00105 9.57143 5.9139 9.49535 6.14998 9.30069C6.49334 9.38112 7.23841 10.4823 7.23841 10.4824C7.06633 11.2318 6.40055 10.4417 6.06163 10.4959C6.16286 10.7563 7.35635 10.8889 6.89868 11.5551C6.58934 12.0057 5.26906 11.8535 4.99434 12.1418C5.28174 12.2561 5.77584 12.0148 6.11174 12.0085L6.38063 12.3284L6.38526 12.4373L6.14576 12.4007L6.32569 12.6394C6.13791 12.7736 6.10933 12.7159 6.03607 12.8881L6.45369 12.7365L6.66441 12.8189C6.68614 13.077 6.66743 13.0452 6.51789 13.222C6.30113 13.4777 6.46214 13.4827 6.23149 13.5692L6.0405 13.6843L5.9765 13.7228C5.68728 13.6226 5.93202 13.642 5.69694 13.7173C5.61946 13.9611 5.59953 13.8228 5.77 14.0633C5.53614 14.1714 5.61 14.0864 5.58585 14.3204L5.85836 14.4318L5.79113 14.7972L5.99038 14.9097L6.11315 14.8895C5.95476 15.1196 6.13529 14.9943 6.0401 15.2116C6.01393 15.2711 5.79596 15.5168 5.73921 15.5849C5.53593 15.8294 5.22921 16.0997 5.11791 16.3851C4.96415 16.5055 4.91424 16.5898 4.78704 16.724C4.56787 16.9552 4.53265 16.8641 4.27664 17.0204C4.13274 17.3943 4.28389 17.302 3.97475 17.6724C3.85258 17.8186 3.59436 18.0267 3.57303 18.1915L4.25792 17.4657C4.71318 17.5475 4.50407 17.5661 4.87358 17.3515L5.01668 17.2853C5.19057 17.5722 5.00038 17.4556 5.29543 17.6783L5.86641 17.7068L6.01292 18.0884L5.79878 17.9716C5.59048 18.1263 5.7374 18.0443 5.71928 18.3255L5.41759 18.5239L5.43651 18.7065L5.4339 18.8037L5.26262 18.8662C5.07303 18.9302 4.83997 18.9674 4.812 19.2061C4.77496 19.5195 4.95409 19.4996 5.12375 19.662L5.14005 19.7328C4.76953 20.2199 4.11724 20.1436 4.06854 20.1709C3.74632 20.4687 3.92685 20.4689 3.75558 20.7744L2.98213 20.844L2.75531 21.2987L3.3291 21.8641L3.60342 21.8368L3.71975 22.2439L4.05304 22.1696L3.80046 22.0613C3.91558 21.6247 3.94577 21.7866 4.19734 21.5439C4.19493 21.0252 3.95784 21.136 3.92484 20.857L4.42175 20.7048L4.51896 20.9615L4.85708 21.0922C4.78543 21.3163 4.82568 21.2831 4.63388 21.259L4.6689 21.4467L4.78543 21.2987C4.95187 21.5815 4.72626 21.4068 5.02191 21.6299C5.37251 21.3678 4.94423 21.4285 5.24974 21.2619L5.34715 21.5285C5.62731 21.9374 5.37794 21.7479 5.79939 21.9747L5.96281 22.1034L6.19285 21.9514L6.3128 22.0844C6.31039 22.1162 6.09846 22.586 6.06143 22.6405C5.88794 22.8952 5.63274 22.8771 5.69272 23.2201C6.06968 23.1385 5.99884 22.7557 6.22807 22.6334C6.5034 22.5271 6.47079 22.5966 6.70929 22.7105L6.89204 22.6733C7.28651 22.3964 6.89848 22.3972 7.20198 22.0143L7.37144 21.801L7.80898 21.5955L7.9875 22.1144C7.64717 22.2306 7.53547 22.4518 7.35735 22.7186L7.59685 22.8085C7.37547 23.0488 7.49924 22.7174 7.22734 23.0434L7.37567 23.3069C7.30824 23.6238 7.3489 23.7114 7.59343 23.9177C7.81703 23.8748 8.00863 23.7681 8.22318 23.9541C8.38218 24.0918 8.43289 24.456 8.6102 24.476L8.75169 24.7368C8.70701 24.9708 8.61141 25.1024 8.71989 25.3585L9.00548 25.5338L9.33334 25.851C9.47724 25.6453 9.41606 25.7769 9.68615 25.6937L9.84635 25.7166L9.87413 25.551C10.0514 25.5546 9.9971 25.6083 10.0394 25.6012C10.2243 25.5702 9.75196 25.4649 10.4912 25.5799C10.7707 25.623 10.6808 25.4929 10.6912 25.6332L10.8651 25.7722L10.9946 25.7755C11.005 25.7753 11.0149 25.7749 11.0243 25.7743C11.0332 25.9364 11.038 26.0395 11.1924 26.1468C11.519 26.3931 11.2737 26.3 11.4182 26.4968L11.6325 26.3142L11.6575 25.9542C11.6702 25.9063 11.6768 25.8629 11.678 25.8237C11.8614 25.9117 11.8886 25.8637 11.9864 25.9301C12.1697 26.0546 12.0188 26.0759 12.2979 26.1913L12.3287 26.1125C12.3774 26.166 12.4684 26.2016 12.5958 26.1889C12.7021 25.9777 12.7017 26.0395 12.596 25.8676L12.6183 25.8372L12.8011 25.9109C12.9641 25.7615 12.7715 25.8063 13.052 25.7117L13.3642 25.6192C13.49 25.2967 13.3936 25.1568 13.7365 24.9392C14.1024 25.0556 13.9442 25.1441 14.2013 25.3791C14.474 25.3328 14.3439 25.3508 14.5508 25.1898L14.6885 25.1504L14.8491 25.0997C14.8324 25.2386 14.8797 25.3906 14.9892 25.5143C14.9691 25.5151 14.9679 25.5469 14.8972 25.6241C15.0669 25.6581 15.0091 25.6811 15.0794 25.5981C15.1566 25.6575 15.2528 25.7052 15.3676 25.7338C15.4169 25.7107 15.4603 25.6844 15.4992 25.6565C15.4616 25.7178 15.4082 25.7787 15.4159 25.9874C15.6483 26.1275 15.7061 26.2259 15.9661 26.1379C15.9315 25.7751 15.9959 26.0617 15.7989 25.8061C16.0082 25.7803 15.9414 25.8289 16.112 25.8089L16.5415 25.6135L16.5349 25.6L16.6995 25.2356L16.8639 25.1289L16.8971 24.9145C16.847 24.6418 16.771 24.6193 16.7337 24.4623L16.8976 24.2965C17.0608 24.4133 16.9239 24.4365 17.1962 24.5491L17.3059 24.2687C17.3293 24.2606 17.3498 24.2527 17.3681 24.2448L17.4691 24.2598L17.5166 24.195L17.6994 24.2689C17.8322 24.1469 17.729 24.1543 17.838 24.1098C17.8533 24.3363 17.6698 24.5949 17.8171 24.9716C17.4122 25.6882 18.6501 25.1961 18.1685 25.9538L18.2351 26.1198C18.3297 26.5114 18.4241 26.5684 18.5537 26.9264C18.6998 27.3302 19.0283 27.2624 19.3737 27.1952L19.5031 27.3835C19.5369 27.6987 19.5673 27.8114 19.8851 27.9276C20.2906 27.8841 20.2252 27.7865 20.4436 27.4938L20.7418 27.1515L20.9278 27.2221L21.0152 27.0731L21.177 27.5867C21.2529 27.8454 21.1081 27.8211 21.1226 28.0732C21.2671 27.7422 21.2931 27.5227 21.9017 27.6691C22.1283 27.3082 22.0714 26.9108 22.2072 26.7057C22.3491 26.4917 22.3169 26.4277 22.3022 26.1656C22.2853 25.8656 22.3097 25.9998 22.1257 25.917L22.1283 25.685C22.5651 25.4862 22.4139 25.5947 22.8211 25.668C23.2564 25.4064 23.3252 25.2178 23.1697 24.7795L23.218 24.753C23.2868 24.9289 23.3607 25.0317 23.452 25.2842C23.5982 25.6878 23.9266 25.62 24.272 25.553L24.4014 25.7413C24.4352 26.0565 24.4656 26.169 24.7834 26.2856C25.1887 26.2419 25.1235 26.1441 25.3419 25.8512L25.6402 25.5093L25.8261 25.5795L25.9133 25.4309L26.0753 25.9445C26.1512 26.203 26.0064 26.1789 26.0207 26.4312C26.1654 26.1 26.1914 25.8804 26.7998 26.0269C27.0266 25.6662 26.9697 25.2684 27.1057 25.0633C27.2474 24.8495 27.2152 24.7853 27.2003 24.5232C27.1836 24.2234 27.208 24.3574 27.024 24.2746L27.0266 24.0424C27.4632 23.844 27.312 23.9525 27.7196 24.0256C28.1545 23.764 28.2235 23.5754 28.068 23.1371L28.272 23.0253L28.0674 22.9162L28.2507 22.8516L28.6838 22.6962C29.0258 21.623 28.1225 21.9469 27.9883 21.3858L27.94 21.1718L28.1235 21.0439L28.2429 21.2882L28.6985 21.6242C29.0244 21.6937 29.0684 21.7196 29.2776 21.451L29.4635 21.2981C29.5847 21.171 29.5374 21.1536 29.6233 21.0677C29.7598 20.9313 29.6714 21.156 29.8636 20.8582C29.7213 20.6878 29.7119 20.7519 29.5873 20.5748C29.4851 20.4292 29.6225 20.5867 29.3935 20.5106C29.4245 19.8159 29.0904 20.1942 29.3361 19.8604L29.0958 19.626L29.3407 19.2948L29.092 19.166L29.0211 18.7852C29.1894 17.9777 28.4848 17.7655 28.4103 17.7143L28.4477 17.2157L28.1074 17.1236C27.6467 17.5078 27.6667 17.4754 27.7808 17.9457L27.3865 17.8589C27.4463 17.5898 27.4706 17.6927 27.4757 17.3653C27.7333 17.2392 27.7176 17.3212 27.8852 17.0671C28.5691 16.0292 27.9543 16.2323 28.2344 15.5114L27.7981 15.2288L27.7969 15.1279L28.1479 15.0047L28.0825 14.7362L28.361 14.3639L28.4632 14.5874L28.8597 14.451C29.0443 14.3141 29.07 14.3386 29.0841 14.1127L28.903 14.0449L28.8346 14.0404L28.8326 13.852ZM28.4475 12.7098L28.3314 12.8776C28.3294 12.8762 28.3268 12.875 28.3246 12.8738C28.1823 12.6294 28.3028 12.7764 28.07 12.6861C27.8168 12.6406 27.8699 12.678 27.7282 12.4835L27.9053 12.4025L27.8727 12.1144C28.0869 12.0575 28.1171 12.0745 28.1605 12.1017C28.0748 12.277 28.1672 12.5242 28.3059 12.7317L28.4475 12.7098ZM11.4669 20.9912C11.5023 21.0123 11.5458 21.0388 11.6074 21.0683L11.6929 21.0509C11.6839 21.0777 11.6744 21.1064 11.665 21.1366L11.8521 21.1688C11.7062 21.2971 11.8008 21.2649 11.665 21.1366L11.5855 21.3315C11.4955 21.2981 11.4649 21.143 11.4669 20.9912ZM12.1818 21.501L12.274 21.6645C12.2542 21.7583 12.2436 21.832 12.245 21.8943C12.1303 21.9145 12.1462 21.7864 11.9719 21.6354L11.7827 21.8235C11.6344 21.6617 11.6585 21.6998 11.6466 21.5016L12.0675 21.3817C12.1017 21.4202 12.1417 21.4601 12.1818 21.501ZM14.7585 23.9912L14.7724 23.9086C14.8314 23.9098 14.8646 23.9167 14.8843 23.9248C14.8839 23.9446 14.8835 23.9726 14.8892 24.0128C14.8252 24.0074 14.7813 24.0054 14.7585 23.9912ZM17.9483 24.0701L17.9504 24.0695L18.2049 23.994L18.2223 23.9938L18.1206 24.3337C17.991 24.1558 17.9717 24.2035 17.9483 24.0701ZM9.64227 27.6207C9.64529 27.6333 9.83508 27.6877 9.75558 27.5863C9.68816 27.5001 9.64046 27.6124 9.64227 27.6207ZM33.7385 10.1182C33.7431 10.1378 33.9454 10.208 33.8643 10.102C33.7922 10.0076 33.7383 10.1169 33.7385 10.1182ZM16.5057 3.37393L16.6711 3.23896C16.518 3.24963 16.4952 3.21564 16.5057 3.37393ZM24.3142 2.52477C24.2947 2.38703 24.3573 2.44473 24.2162 2.4307C24.2174 2.44058 24.0661 2.52338 24.3142 2.52477ZM31.4228 21.6949C31.4586 21.5621 31.4953 21.6099 31.3608 21.5528C31.3296 21.6566 31.2725 21.6386 31.4228 21.6949ZM22.7913 2.8455L22.9656 2.90419C22.9249 2.65737 22.9161 2.75183 22.7913 2.8455ZM15.6491 2.47991C15.6234 2.3396 15.7027 2.3481 15.5131 2.39177C15.5376 2.52062 15.4636 2.52516 15.6491 2.47991ZM30.0381 14.7789C30.2301 14.8117 30.1394 14.8563 30.2694 14.7052C30.0671 14.6372 30.1935 14.6389 30.0381 14.7789ZM28.9084 15.48C29.0638 15.4504 29.0843 15.5019 29.0717 15.3107C28.9563 15.3298 28.9076 15.3079 28.9084 15.48ZM25.5345 5.34497C25.6071 5.15585 25.5884 5.14498 25.4075 5.17957C25.4111 5.31474 25.3083 5.28865 25.5345 5.34497ZM7.82991 5.09854C7.80033 4.8948 7.81281 4.95112 7.6363 4.97543C7.65884 5.06989 7.48133 4.94598 7.68541 5.08155C7.82025 5.17107 7.75444 5.11297 7.82991 5.09854ZM17.4402 25.8965C17.5074 25.717 17.4945 25.7121 17.3613 25.5925C17.2922 25.7502 17.3101 25.7633 17.4402 25.8965ZM24.8643 5.71274C25.0104 5.63764 25.045 5.53587 25.0217 5.3843C24.8993 5.48864 24.8474 5.56255 24.8643 5.71274ZM8.74586 7.41621C8.88835 7.25574 8.83743 7.17847 8.62631 7.23084C8.62309 7.40593 8.58142 7.35534 8.74586 7.41621ZM16.5526 2.31806C16.6303 2.12676 16.6802 2.16036 16.4556 2.10404C16.3477 2.29158 16.3467 2.25838 16.5526 2.31806ZM30.1748 12.6404C30.4161 12.6491 30.3875 12.6167 30.3018 12.4365C30.1635 12.4681 30.0997 12.4519 30.1748 12.6404ZM29.4907 22.8782C29.6328 22.7541 29.6432 22.7569 29.4772 22.6126C29.2858 22.7869 29.3528 22.7765 29.4907 22.8782ZM28.7203 11.4555C28.9634 11.3227 28.8758 11.1877 28.6448 11.2407C28.6212 11.4399 28.5703 11.3156 28.7203 11.4555ZM31.7418 8.00946L31.9111 8.19956C32.0755 8.03317 32.0449 8.12625 31.9827 7.9312L31.7418 8.00946ZM25.8205 7.96855C26.0876 8.06163 25.9207 7.9142 26.2208 7.85907L26.0568 7.70829C25.8776 7.83852 25.8684 7.80038 25.8205 7.96855ZM26.7008 8.53057C26.8032 8.31695 26.7986 8.25094 26.536 8.26241C26.4265 8.47188 26.4704 8.51417 26.7008 8.53057ZM22.516 1.36949C22.5244 1.61948 22.5331 1.63805 22.7712 1.58489C22.8517 1.38649 22.8565 1.44775 22.7124 1.30388L22.516 1.36949ZM28.2809 15.7747C28.4781 15.8519 28.6335 15.8083 28.7352 15.6142C28.5671 15.4723 28.3568 15.601 28.2809 15.7747ZM17.6503 2.42042C17.7988 2.58899 17.8954 2.59156 18.0985 2.50125C18.0407 2.23881 17.8298 2.26114 17.6503 2.42042ZM27.5475 8.04562C27.7266 8.01301 27.8299 7.73516 27.7864 7.57193C27.5419 7.59604 27.4622 7.85314 27.5475 8.04562ZM20.6956 1.65208C20.8544 1.8163 20.8455 1.79358 21.0379 1.69319L21.0035 1.44004C20.7855 1.42858 20.7129 1.39992 20.6956 1.65208ZM27.8077 24.775C27.9677 24.5934 27.9643 24.5756 27.782 24.4153C27.4433 24.4681 27.4966 24.7746 27.8077 24.775ZM22.6786 4.30412C22.9903 4.20985 22.9746 4.0233 22.6973 3.91283C22.465 4.05532 22.4852 4.13219 22.6786 4.30412ZM25.8267 26.3255L25.8849 25.9627L25.4733 25.9751C25.5574 26.3146 25.6901 26.318 25.8267 26.3255ZM17.6756 27.0557C17.7662 26.8174 17.6899 26.6476 17.4408 26.5701C17.2634 26.8006 17.3959 27.0383 17.6756 27.0557ZM15.5354 1.44379C15.9355 1.33985 15.7944 0.869319 15.3969 1.04461C15.3547 1.29123 15.3348 1.28392 15.5354 1.44379ZM25.5536 10.1261L25.4023 9.81746L25.7205 9.74098C25.7023 10.0202 25.6973 9.82616 25.8102 9.86707C25.7376 10.0505 25.7535 10.0884 25.5536 10.1261ZM14.4852 4.76457L14.8099 4.72564C14.8634 4.45055 14.871 4.48593 14.7346 4.28436C14.382 4.17488 14.2405 4.4802 14.4852 4.76457ZM17.863 1.05963C17.537 1.31673 17.8894 1.78686 18.2233 1.5592C18.5028 1.3689 18.221 0.777229 17.863 1.05963ZM33.2042 11.0895L33.5395 11.0376C33.6002 10.7961 33.4457 10.4761 33.3448 10.2621C32.8912 10.3728 32.9949 10.7765 33.2042 11.0895ZM14.2749 0.00651907C13.8414 0.30927 14.1145 0.738694 14.424 0.657868C14.7241 0.580007 14.8539 -0.00138565 14.2749 0.00651907ZM29.0366 25.4668L29.449 25.0388C28.9145 24.1001 28.1881 24.9392 29.0366 25.4668ZM28.7929 7.3002C28.1432 7.55572 28.4721 8.51062 29.0485 8.246C29.5968 7.99404 29.3528 7.08006 28.7929 7.3002ZM32.2743 11.4037C32.1212 12.2041 32.7435 12.3897 33.2758 11.8687C33.7435 11.4111 33.077 10.8261 32.2743 11.4037ZM10.3233 28.3552C10.5975 28.16 10.6522 27.7477 10.782 27.465C11.0018 26.9859 11.2467 26.9553 10.9481 26.3917C10.868 26.4354 10.804 26.4854 10.7514 26.5403C10.652 26.4028 10.4884 26.3209 10.3064 26.3662C9.80187 26.4915 9.83689 27.1373 10.365 27.343C10.3529 27.3654 10.34 27.3877 10.3264 27.4094C10.1446 27.6966 9.60122 28.3278 10.3233 28.3552ZM33.0623 8.48453C34.0036 8.45963 33.8253 7.40692 33.3227 7.28934C32.8222 7.17195 32.3707 8.03139 33.0623 8.48453ZM24.5211 25.068L24.7612 24.7202L24.7757 24.5493L25.0716 24.7748C24.8589 24.9414 24.9941 24.8044 24.7963 24.8825C24.6934 24.9232 24.6288 24.9939 24.5211 25.068ZM20.6271 2.79333L20.5396 3.12315C20.7185 3.35397 20.709 3.24864 20.8298 3.35081C21.0454 3.5338 20.855 3.52491 21.1063 3.73399C21.4746 3.72846 21.4692 3.52037 21.6133 3.23263L21.8134 3.37887C22.0273 3.28718 22.2394 3.25417 22.3113 3.0279C22.3769 2.82179 22.2964 2.56034 22.0859 2.47852C21.7876 2.36272 21.8762 2.62733 21.471 2.36114C21.2688 2.22794 21.1794 2.21984 20.9367 2.19889C20.6785 2.44137 20.7555 2.56231 20.2983 2.52911C20.0433 2.51073 19.803 2.36904 19.5705 2.43999C19.7056 2.66191 20.2787 2.38268 20.6271 2.79333ZM26.9812 24.0116C26.8409 24.2019 26.8797 24.2898 26.6457 24.3189L26.6054 24.0859L26.5969 23.8191L26.8622 23.7952L26.9812 24.0116ZM26.2061 23.5794L25.8788 23.7456L25.8155 23.5446L25.5079 23.5086C25.8575 23.429 25.9 23.3816 26.2061 23.5794ZM24.7377 23.4454C24.7178 23.7314 24.7985 23.5908 24.5628 23.7748L24.4217 23.4956L24.7377 23.4454ZM28.2881 20.2351C28.2825 20.2098 28.3469 20.1321 28.4067 20.2132C28.4842 20.3177 28.292 20.2533 28.2881 20.2351ZM27.8721 20.0867C27.9909 20.0934 27.9285 19.957 27.9937 20.1926C27.7025 20.1853 27.8748 20.0981 27.8721 20.0867ZM26.7237 19.7418L26.6662 20.0217L26.4472 19.876L26.7237 19.7418ZM27.313 19.6707C27.2609 19.3116 27.462 19.5893 27.7999 19.3193C27.8691 19.5741 27.5264 19.661 27.313 19.6707ZM26.5291 19.4375L26.5724 19.5608L26.5291 19.4375ZM26.8131 22.5138C26.7817 22.2478 26.7171 22.3075 26.9345 22.184C27.1152 22.3417 27.0099 22.1895 27.0858 22.4585L26.8131 22.5138ZM15.8258 5.35485C15.9385 5.22166 16.0017 5.19123 16.079 5.23727C16.0907 5.25861 16.109 5.28312 16.139 5.31355C15.9891 5.46097 16.0639 5.46611 15.8258 5.35485ZM18.1482 4.49956C18.1444 4.48276 18.2045 4.40016 18.2629 4.46656C18.3398 4.5543 18.15 4.50766 18.1482 4.49956ZM17.1461 27.1039L17.2862 27.0462L17.1461 27.1039ZM3.97576 19.0986C3.97696 19.1051 4.09289 19.1312 4.04177 19.0589C3.99528 18.9931 3.97576 19.0986 3.97576 19.0986ZM0.00265124 17.8649C0.00526767 17.8791 0.161044 17.9307 0.104288 17.8552C0.0557843 17.7912 0.00124241 17.8585 0.00265124 17.8649ZM17.4498 24.9165C17.4506 24.9208 17.6245 24.9629 17.5581 24.8886C17.5134 24.8386 17.4444 24.891 17.4498 24.9165ZM11.4053 5.09163L11.4164 4.96041C11.3397 5.0357 11.2506 4.96179 11.4053 5.09163ZM9.81234 3.31899L9.73546 3.19588C9.73163 3.33717 9.62476 3.31109 9.81234 3.31899ZM2.40451 16.3361L2.40732 16.1926C2.32702 16.2902 2.23404 16.2047 2.40451 16.3361ZM3.83145 13.4572L4.01762 13.4469C3.83065 13.3363 3.97274 13.3268 3.83145 13.4572ZM3.65937 23.961C3.66159 23.9709 3.84775 24.026 3.77027 23.9319C3.71371 23.8632 3.65454 23.9402 3.65937 23.961ZM3.1379 22.3046L3.25987 22.1806C2.99038 22.2255 3.12844 22.2158 3.1379 22.3046ZM14.0682 3.1279L13.9372 3.0032C13.9565 3.13224 13.8706 3.13936 14.0682 3.1279ZM4.74417 29.2629C4.74699 29.2755 4.93678 29.3299 4.85748 29.2287C4.78986 29.1421 4.74216 29.2548 4.74417 29.2629ZM5.75088 24.1094L5.89579 24.1916C5.86761 24.0112 5.89881 24.0418 5.75088 24.1094ZM4.43061 19.2709C4.6053 19.3245 4.47629 19.3618 4.58497 19.231C4.42215 19.1603 4.55881 19.147 4.43061 19.2709ZM10.7508 4.12231C10.7251 3.982 10.8044 3.9905 10.6148 4.03397C10.6393 4.16282 10.5651 4.16756 10.7508 4.12231ZM6.40337 10.1908C6.46496 10.0003 6.49293 10.0151 6.28765 10.0629C6.31099 10.1872 6.20392 10.1358 6.40337 10.1908ZM6.08699 23.6584C6.25122 23.629 6.25162 23.6808 6.25887 23.4942C6.07833 23.5274 6.09927 23.4976 6.08699 23.6584ZM2.93161 6.74075C2.90223 6.537 2.9145 6.59332 2.7378 6.61783C2.76074 6.7119 2.58303 6.58819 2.7871 6.72375C2.92215 6.81347 2.85614 6.75537 2.93161 6.74075ZM5.85675 11.0802C6.02681 11.2336 5.91612 11.2075 6.10953 11.1482C6.02862 10.9747 6.02842 10.9812 5.85675 11.0802ZM12.5418 27.5389C12.6093 27.359 12.5962 27.3547 12.4628 27.2347C12.3939 27.3926 12.4118 27.4055 12.5418 27.5389ZM3.84755 9.05841C3.99004 8.89814 3.93933 8.82068 3.728 8.87305C3.72478 9.04814 3.68312 8.99774 3.84755 9.05841ZM6.84434 15.8998L6.96952 16.2035L6.74511 16.1608L6.84434 15.8998ZM3.72116 19.0174L3.83729 18.818L3.58229 18.7875C3.58893 19.0107 3.53761 18.9486 3.72116 19.0174ZM4.12449 10.8862C4.21989 10.7056 4.2374 10.6852 4.02205 10.632C3.91618 10.805 3.91236 10.8314 4.12449 10.8862ZM0.83688 18.1249C0.92463 17.9188 0.929461 17.9755 0.73947 17.8894C0.590134 18.0512 0.575844 18.1269 0.83688 18.1249ZM17.6179 3.01189C17.6261 3.26168 17.635 3.28026 17.8727 3.2271C17.9538 3.02889 17.9582 3.09035 17.8143 2.94609L17.6179 3.01189ZM12.7522 4.06263C12.9005 4.2312 12.9971 4.23396 13.2002 4.14345C13.1428 3.88102 12.9315 3.90355 12.7522 4.06263ZM15.7975 3.29429C15.9561 3.45851 15.947 3.43578 16.1398 3.33539L16.1054 3.08244C15.887 3.07078 15.8146 3.04233 15.7975 3.29429ZM22.9092 26.4172C23.0696 26.2358 23.0658 26.2178 22.8837 26.0579C22.545 26.1105 22.5985 26.4168 22.9092 26.4172ZM14.1491 27.4537C14.3258 27.3962 14.5971 27.0197 14.5688 26.8344C14.3824 26.9357 14.0918 27.2341 14.1491 27.4537ZM7.69748 27.8311C7.81079 27.6059 7.80274 27.691 7.67514 27.4721C7.26216 27.4845 7.32173 27.8691 7.69748 27.8311ZM20.9284 27.9679L20.9866 27.6051L20.5752 27.6173C20.6591 27.9568 20.792 27.9604 20.9284 27.9679ZM12.7773 28.6979C12.8681 28.4598 12.7914 28.2902 12.5423 28.2121C12.3651 28.4428 12.4976 28.6803 12.7773 28.6979ZM6.29409 27.789C6.62094 28.0351 6.3754 27.9424 6.5201 28.139L6.73425 27.9566L6.7592 27.5966C6.84554 27.2701 6.65233 27.1646 6.3605 27.097L6.11899 27.3114C6.13912 27.5377 6.10873 27.66 6.29409 27.789ZM7.52903 8.96968L7.51273 8.71219L7.6997 8.85981L7.52903 8.96968ZM10.6375 3.0862C11.0374 2.98205 10.8961 2.51172 10.4984 2.68681C10.4564 2.93344 10.4363 2.92613 10.6375 3.0862ZM6.71331 23.9879C6.56398 24.2062 6.56599 24.2294 6.72036 24.4432C7.27564 24.5714 7.25068 23.8485 6.71331 23.9879ZM4.59081 26.5211C4.84581 26.5531 4.7494 26.5824 4.95228 26.418L4.94 26.1014C4.716 25.9872 4.73089 25.9854 4.51353 26.082C4.44953 26.3395 4.44651 26.3071 4.59081 26.5211ZM7.07981 17.5757L7.33803 17.5192L7.45235 17.6366L7.18306 17.8886L7.05687 17.7997L7.07981 17.5757ZM12.9649 2.70183C12.6387 2.95893 12.9909 3.42907 13.325 3.20141C13.6045 3.0111 13.3227 2.41963 12.9649 2.70183ZM9.37661 1.64872C8.94309 1.95148 9.2164 2.3811 9.52574 2.30027C9.82603 2.22201 9.95564 1.64102 9.37661 1.64872ZM24.1383 27.1092L24.5509 26.6812C24.0164 25.7425 23.2898 26.5812 24.1383 27.1092ZM6.86446 14.8178C6.69641 14.918 6.72841 14.9198 6.5201 14.8684C6.52614 14.7249 6.62919 14.6032 6.77792 14.5644C6.83508 14.817 6.77349 14.6538 6.70929 14.8295L6.86446 14.8178ZM2.88069 9.34812C2.37633 9.84276 3.06525 10.5398 3.60785 10.0846C4.14663 9.63249 3.41182 8.8272 2.88069 9.34812ZM5.42524 29.9976C5.69916 29.8022 5.7541 29.3899 5.88371 29.1072C6.10369 28.6281 6.34843 28.5975 6.04996 28.0341C5.61402 28.2716 5.65086 28.6997 5.42786 29.0518C5.24632 29.3388 4.70291 29.97 5.42524 29.9976ZM2.41678 13.0707C2.70016 13.2157 3.48226 12.9408 3.82501 12.8523C4.2547 12.7416 4.72304 12.8809 5.12617 12.724C4.9245 12.6173 4.69909 12.7327 4.56948 12.5699C4.87861 12.4187 5.37935 12.38 5.72874 12.396L5.84205 12.5373L5.93323 12.3926C5.62429 12.0241 4.57853 12.3422 4.14522 12.4296C3.76443 12.5065 2.46227 12.6345 2.41678 13.0707ZM8.25558 24.9605C7.21526 24.4938 7.27524 25.4018 7.03694 25.6965C6.67588 26.1429 7.16796 26.5403 7.46201 26.3456C7.7164 26.1775 7.42196 26.1972 7.94846 25.9864C8.36064 25.8216 8.4341 25.3261 8.25558 24.9605ZM19.623 26.7104L19.8627 26.3626L19.8774 26.1917L20.1733 26.4168C19.9606 26.5838 20.0958 26.4468 19.8982 26.5249C19.7951 26.5654 19.7305 26.6361 19.623 26.7104ZM6.41344 18.0613C6.63019 18.1886 6.59517 18.2613 6.66541 18.4972L6.56015 18.713L6.50078 18.4476C6.36976 18.6142 6.49656 18.5528 6.31763 18.5901C6.17897 18.3455 6.21318 18.3856 6.43739 18.2368L6.41344 18.0613ZM6.84112 18.3583C6.81334 18.116 6.76303 18.1647 6.90512 17.9878L7.05385 18.1364L7.08806 18.3826L6.84112 18.3583ZM22.0829 25.6538C21.9426 25.8441 21.9814 25.932 21.7476 25.9613L21.7069 25.7281L21.6986 25.4615L21.9641 25.4376L22.0829 25.6538ZM7.16535 15.7845C7.16012 15.7596 7.29073 15.6594 7.26719 15.7642C7.24304 15.8697 7.16555 15.7855 7.16535 15.7845ZM6.60524 15.6179C6.80549 15.5855 6.93148 15.698 6.6471 15.8349L6.60524 15.6179ZM7.48817 16.1875C7.11342 16.214 7.45315 16.3734 7.12027 16.327C7.12328 16.1001 7.15428 16.1391 7.32012 15.9575L7.48817 16.1875ZM21.3076 25.2216L20.9807 25.388L20.9171 25.187L20.6096 25.151C20.9594 25.0712 21.0017 25.024 21.3076 25.2216ZM19.8394 25.0878C19.8195 25.3736 19.9002 25.2331 19.6645 25.417L19.5236 25.1378L19.8394 25.0878ZM19.0182 24.3556L18.6091 24.3847C18.5348 24.196 18.5678 24.2578 18.6787 24.0523L18.8971 24.0865L19.0182 24.3556ZM7.02567 9.06572C7.06754 9.21058 7.11564 9.11098 6.98019 9.20643C6.94638 9.09556 6.85963 9.15485 7.02567 9.06572ZM7.85427 9.59475L8.3065 9.58842L8.08109 9.96232L7.85427 9.59475ZM7.2698 20.909C7.2372 20.7159 7.22693 20.7963 7.3648 20.7801C7.37808 21.0064 7.35212 20.8831 7.2698 20.909ZM5.73458 20.8859C5.96845 20.7495 6.14314 20.525 6.17595 20.8171C5.93946 21.0171 5.98616 20.9983 5.73458 20.8859ZM21.9148 24.1562C21.8834 23.89 21.8186 23.9499 22.0362 23.8262C22.2169 23.9841 22.1116 23.8317 22.1877 24.1009L21.9148 24.1562ZM16.4324 25.1657C16.2149 25.0062 16.2831 24.9963 16.4228 24.8854C16.5365 25.0066 16.5288 24.9929 16.4324 25.1657ZM13.0037 24.9222C13.139 24.9422 13.2563 25.0931 13.2288 25.2194C13.0309 25.1558 13.0152 25.087 13.0037 24.9222ZM12.2263 24.9064C12.0834 25.0489 12.178 25.0107 12.0202 24.8983C12.182 24.8115 12.093 24.7718 12.2263 24.9064ZM10.2507 25.0528C10.4493 24.9906 10.4429 25.0056 10.581 25.1503C10.4143 25.2848 10.2919 25.22 10.2507 25.0528ZM13.3867 24.2183C13.553 24.195 13.5926 24.192 13.5208 24.3829C13.2849 24.3236 13.3944 24.3011 13.3867 24.2183ZM11.6026 24.6714C11.356 24.6926 11.199 24.6641 11.1201 24.4355C11.1837 24.4102 11.0899 24.3102 11.4782 24.321L11.6026 24.6714ZM9.38909 24.939C9.38868 24.9366 9.43819 24.84 9.50139 24.9315C9.57224 25.0342 9.39351 24.959 9.38909 24.939ZM11.1348 24.1782C11.0857 23.9887 11.1459 23.9254 11.3349 23.9738C11.2946 24.1817 11.3305 24.1286 11.1348 24.1782ZM11.2832 23.3911L11.1042 23.7778C10.8253 23.628 11.0787 23.6541 10.7102 23.6112L11.1648 23.3381L11.2832 23.3911ZM10.3666 23.844L10.1547 23.7855L10.1746 23.9679C10.0025 23.7946 9.95825 23.7944 10.237 23.6517L10.3666 23.844ZM7.63087 17.6765C7.64113 17.5408 7.73109 17.4329 7.84038 17.3918C7.90478 17.5866 7.84038 17.6418 7.63087 17.6765ZM8.76175 15.7255C8.52507 15.7721 8.62973 15.6897 8.61403 15.6399C8.75129 15.6122 8.71043 15.5342 8.76175 15.7255ZM7.81623 15.63C8.09176 15.5344 8.1312 15.4158 8.35259 15.4091C8.53212 15.614 8.50374 15.7411 8.34877 15.9899L7.88124 15.7974L7.81623 15.63ZM7.45637 9.89335L7.63207 10.0094L7.41532 10.1319L7.45637 9.89335ZM13.2499 6.14177C13.2461 6.12497 13.3062 6.04237 13.3646 6.10896C13.4415 6.19651 13.2517 6.15007 13.2499 6.14177Z" fill="#CE894B"/>
</svg>
