<svg width="23" height="22" viewBox="0 0 23 22" fill="none" xmlns="http://www.w3.org/2000/svg">
<path fill-rule="evenodd" clip-rule="evenodd" d="M2.68891 14.3564C2.68338 14.3412 2.58581 14.3126 2.62784 14.3611C2.66693 14.4063 2.69026 14.3604 2.68891 14.3564ZM1.30392 14.7966C1.30183 14.791 1.20656 14.7796 1.2533 14.8257C1.29235 14.8639 1.30607 14.8027 1.30392 14.7966ZM7.76673 18.5247C7.73862 18.6122 7.71762 18.5937 7.80428 18.5964L7.76673 18.5247ZM19.3192 9.72914C19.3162 9.72026 19.2058 9.69948 19.2507 9.74438C19.2891 9.78269 19.3206 9.73346 19.3192 9.72914ZM7.07359 20.0233C7.07012 20.0134 6.95715 19.9841 7.007 20.0372C7.04622 20.079 7.0772 20.0332 7.07359 20.0233ZM12.615 19.1273L12.6183 19.2147C12.6643 19.1585 12.7311 19.1996 12.615 19.1273ZM13.8467 20.1595L13.9093 20.2338C13.9002 20.1405 13.975 20.1487 13.8467 20.1595ZM2.657 13.0411L2.58592 13.1278C2.75365 13.0845 2.66976 13.1038 2.657 13.0411ZM10.9649 20.6502L11.0644 20.7211C11.0406 20.6378 11.0987 20.6257 10.9649 20.6502ZM3.22082 13.3432L3.13765 13.3947L3.0675 13.6347C2.80346 13.6527 2.90983 13.5401 2.78703 13.7092C2.96745 13.7468 2.88705 13.681 3.03219 13.7436C3.16703 13.8018 3.06397 13.8235 3.28624 13.8496L3.39873 13.9061L3.41122 13.9898L3.5674 14.0661L3.44855 14.0996C3.43382 14.2126 3.49137 14.3413 3.55689 14.4537C3.48564 14.486 3.44889 14.5369 3.34098 14.5832C3.03914 14.5287 3.17796 14.4261 2.86586 14.5766C2.56584 14.7212 2.64328 14.6972 2.40544 14.8582C1.868 14.5179 1.96529 14.6472 1.84571 14.3143C1.60793 14.4613 1.87925 14.6084 1.53991 14.8544C1.14443 15.1409 1.43953 15.0633 1.3233 15.4494C1.12478 15.5865 1.01724 15.5815 1.01203 15.842C1.00788 16.048 1.00418 16.201 1.24006 16.269C1.57214 16.1965 1.56628 15.9685 1.73071 15.7431C2.02343 15.7705 1.86712 15.7618 2.09137 15.6124C2.26526 15.4964 2.32239 15.5587 2.51496 15.4827C2.29524 15.2246 2.49071 15.0688 2.79184 15.0856L2.85684 15.1784L3.06624 15.3634L3.0844 15.1758L3.18612 15.2706L3.06624 15.3634L3.24458 15.3446C3.23715 15.1164 3.20695 15.0899 2.99463 15.0587L2.95536 14.8574L3.60579 14.8643C3.82401 14.8793 3.74501 14.7837 3.95987 14.8692C4.1388 14.9404 4.11154 14.9362 4.31227 14.9494L4.31764 15.0496L4.04179 15.1574C3.96246 15.0337 4.04606 14.969 3.79243 14.9061C3.67048 15.0609 3.52005 15.256 3.50953 15.471L3.41283 15.5522C3.13753 15.5791 3.16423 15.8389 3.28276 16.0163C3.45207 16.1282 3.46911 16.1011 3.58134 16.0548C3.54252 16.2363 3.64407 16.4415 3.7996 16.5203C3.85537 16.657 3.93585 16.7898 4.05337 16.8729L4.23306 16.751C4.55213 16.9103 4.50835 16.6909 4.84576 16.8244C4.9013 16.9869 4.80577 16.9169 4.90195 17.0098C5.08815 16.767 5.23059 16.1524 5.23348 16.1466C5.35412 16.2722 5.33463 16.2114 5.37049 16.3746L5.47 16.4496L5.53495 16.5829L5.62427 16.5659C5.81163 16.5238 5.71379 16.5307 5.74105 16.588L5.95003 16.6368C5.88624 16.8002 5.86349 16.6272 5.857 16.8698L6.14656 16.9174L6.0271 17.0888L6.09046 17.3046C6.38082 17.3652 6.17701 17.3065 6.43715 17.2707L6.57253 17.352C6.51636 17.5306 6.55189 17.7377 6.595 17.9199C6.68784 18.3113 6.72401 18.1418 6.9509 18.333C6.98544 18.6096 6.76907 18.5507 6.80251 18.896C6.83006 19.1768 6.65244 19.3726 6.91032 19.5335C7.12075 19.5276 7.10689 19.5203 7.17968 19.3465C7.37726 18.8735 7.56112 18.9263 7.50889 18.3421L7.71033 18.1498C7.80167 18.0802 7.80364 18.1788 7.76999 18.0541L7.94769 18.0059C8.09743 18.2024 8.00489 18.3034 8.01232 18.504C8.34677 18.635 8.29442 18.7102 8.55055 18.8505C8.694 18.8466 8.70365 18.8016 8.77357 18.8063C8.90078 18.8149 8.79885 18.8866 8.97709 18.866C9.0328 18.8595 9.47567 18.7802 9.4982 18.7701L9.39235 18.6326C9.59616 18.4833 9.75985 18.5772 9.94485 18.6755L10.1261 19.1474C10.2791 19.0946 10.2149 19.0934 10.2891 18.973C10.6586 19.0834 10.7048 18.9633 10.9337 19.0299C11.3831 19.1608 11.2155 19.0763 11.5707 18.9702C11.8093 19.0638 11.7129 19.2325 11.894 19.4282C12.0625 19.4295 12.21 19.3663 12.1505 19.1777C12.072 18.9282 11.9483 19.093 11.8007 18.9844C11.8624 18.9072 12.0958 18.863 12.2176 18.9355C12.2421 18.8325 12.2606 18.7862 12.294 18.747C12.32 18.756 12.3501 18.7684 12.3858 18.7853C12.5345 18.8555 12.5961 18.8532 12.7631 18.8465C12.8542 18.7398 12.8706 18.6706 12.9316 18.6279C13.036 18.6242 13.1329 18.6093 13.1989 18.5729C13.3644 18.5717 13.5292 18.6333 13.6734 18.5703C13.603 18.4844 13.4283 18.548 13.2405 18.543C13.2425 18.541 13.2446 18.5389 13.2465 18.5371C13.444 18.3288 13.3626 17.8827 13.2091 17.8572L13.1495 17.6282C13.2109 17.5944 13.2569 17.575 13.294 17.5642L13.325 17.645C13.4244 17.6106 13.4322 17.598 13.4457 17.5605C13.4799 17.5651 13.5194 17.5687 13.5778 17.5598C13.5221 17.4938 13.4987 17.497 13.4732 17.4963C13.4775 17.4883 13.4824 17.4797 13.4879 17.4704C13.8575 17.5809 13.9038 17.4606 14.1327 17.5275C14.519 17.64 14.4492 17.5934 14.6479 17.5106C14.6744 17.5466 14.7028 17.5752 14.7321 17.5928C14.7403 17.5639 14.7413 17.524 14.7365 17.4782C14.7471 17.4747 14.7581 17.4712 14.7697 17.4678C15.0083 17.5614 14.9119 17.7299 15.093 17.9256C15.2613 17.9269 15.409 17.8638 15.3495 17.6752C15.271 17.4257 15.1473 17.5906 14.9995 17.4819C15.0354 17.4373 15.1286 17.4036 15.2244 17.3972C15.2463 17.4161 15.2763 17.422 15.3577 17.5371C15.4474 17.6638 15.6233 18.1118 15.741 18.3924L15.7383 18.3919C15.7034 18.5171 15.6687 18.5084 15.7968 18.5221C15.8021 18.5338 15.8071 18.5448 15.8117 18.555C15.9582 18.8663 16.135 19.2033 16.273 19.5189C16.3872 19.78 16.5361 20.4697 16.7614 20.5819C16.9185 20.2766 16.2147 19.1111 16.0458 18.6585C15.9378 18.3692 15.7839 18.0789 15.6394 17.7857C15.6909 17.7777 15.6982 17.7716 15.6825 17.692L15.623 17.7524C15.5576 17.6187 15.4946 17.4845 15.439 17.3493C15.4768 17.231 15.5167 17.2242 15.6539 17.1023C15.8434 17.111 16.3068 17.1807 16.4454 17.0345C16.5441 16.9304 16.5732 16.7669 16.5583 16.6261C16.6077 16.6643 16.6613 16.7055 16.7183 16.7491C16.7134 16.8383 16.7267 16.8446 16.813 16.94C16.8715 16.9498 16.9201 16.9454 16.9579 16.9311C17.3253 17.2083 17.7616 17.5285 18.0912 17.7478L17.9787 17.7855C18.0993 17.8298 18.0887 17.8303 18.1246 17.77C18.3606 17.9255 18.5362 18.0243 18.5813 18.0089C18.5357 17.8672 17.7098 17.3357 17.0428 16.849C17.0678 16.78 17.0379 16.6851 16.9429 16.6019L16.7694 16.6445C16.667 16.5651 16.5729 16.4892 16.4919 16.4183C16.4731 16.3905 16.4513 16.3703 16.4274 16.3605C16.4194 16.3529 16.4115 16.3456 16.4037 16.3381L16.3484 16.1258C16.5978 15.9889 16.5906 16.0852 16.7768 16.0573C16.6614 15.9204 16.6845 16.0815 16.5404 15.886C16.6605 15.7611 16.6051 15.8424 16.7752 15.7858L16.7836 15.4564L16.9198 15.4092C16.874 15.2212 16.8086 15.322 16.8596 15.1328C17.0571 15.0812 16.9409 15.163 17.1467 15.1592L17.3175 15.1447L17.4009 15.3674L17.4121 15.3646C17.3937 15.5408 17.5425 15.7028 17.7204 15.7327C17.7626 15.8841 17.8424 16.0372 17.9311 16.0904C17.9527 16.0142 17.924 15.8634 17.8728 15.7243C17.9409 15.7046 18.0078 15.6621 18.0662 15.5907C18.217 15.4066 18.1616 15.2148 18.027 15.1115L18.0759 15.0805C18.2203 14.9603 18.131 15.0397 18.1482 15.0685C18.1914 15.289 18.2648 15.4307 18.3257 15.6369C18.4406 16.0271 18.3876 15.7959 18.5567 16.0347C18.6672 16.1908 18.9087 16.8352 19.0108 17.0524C19.1572 17.3638 19.3339 17.7007 19.472 18.0165C19.5861 18.2775 19.735 18.9673 19.9603 19.0795C20.1175 18.774 19.4137 17.6085 19.2448 17.156C19.0207 16.5557 18.5987 15.9512 18.4735 15.324L18.8751 15.5347L18.9616 15.4006C18.8158 15.3094 18.7885 15.3671 18.8498 15.1884C18.952 15.2666 18.9188 15.2609 18.9616 15.4006L19.0368 15.3199C19.1084 15.3369 19.1923 15.332 19.2347 15.3535C19.166 15.1607 19.3653 15.0602 19.453 14.8836C19.6884 15.0795 21.6144 16.5628 21.7803 16.5065C21.7048 16.2726 19.5051 14.977 19.3998 14.5732C19.5037 14.4285 19.6804 14.4001 19.6174 14.1904C19.5612 14.0029 19.3525 13.9726 19.1856 14.0379C19.122 14.2084 19.1876 14.2511 19.043 14.3996C18.8026 14.376 18.2039 13.7138 18.2039 13.7138C18.2589 13.2051 18.7777 13.6689 19.004 13.6041C18.9135 13.4411 18.0898 13.456 18.3462 12.9776C18.5194 12.654 19.431 12.6412 19.5942 12.4276C19.389 12.3769 19.0726 12.5783 18.8444 12.6113L18.6348 12.4234L18.6226 12.352L18.7887 12.3556L18.6464 12.2136C18.7631 12.1091 18.7873 12.1447 18.8229 12.0249L18.5511 12.1606L18.4008 12.1244C18.3646 11.9561 18.38 11.9754 18.4671 11.846C18.5935 11.6589 18.4835 11.6694 18.6333 11.5926L18.7538 11.5004L18.7942 11.4695C18.9995 11.5108 18.8312 11.519 18.985 11.4492C19.0175 11.2818 19.0426 11.3713 18.9066 11.2273C19.0568 11.136 19.0136 11.1984 19.0106 11.0421L18.8158 10.9919L18.8313 10.7453L18.6863 10.6882L18.6044 10.712C18.6931 10.5468 18.5806 10.6449 18.6274 10.4934C18.6402 10.452 18.7683 10.2713 18.8013 10.2215C18.9194 10.043 19.1058 9.83845 19.1579 9.64079C19.2526 9.54827 19.2796 9.48836 19.3551 9.389C19.4851 9.21779 19.5167 9.27483 19.678 9.14984C19.745 8.89102 19.6497 8.96481 19.8295 8.69417C19.9005 8.58729 20.0591 8.42798 20.0599 8.3175L19.6538 8.85472C19.337 8.8398 19.4779 8.80963 19.2441 8.98278L19.1521 9.03868C19.0099 8.86442 19.1491 8.92499 18.9297 8.80346L18.5386 8.83363L18.4072 8.59461L18.5627 8.65326C18.6917 8.5334 18.5984 8.60005 18.5874 8.41311L18.7764 8.25645L18.7483 8.1377L18.7421 8.07338L18.8535 8.01753C18.9773 7.95907 19.1329 7.9146 19.1321 7.75483C19.1313 7.54503 19.011 7.57354 18.882 7.48099L18.865 7.43575C19.0769 7.08286 19.5274 7.07724 19.5583 7.05509C19.753 6.83114 19.63 6.84648 19.7213 6.63039L20.2422 6.51824L20.3589 6.19903L19.9213 5.87548L19.7367 5.91697L19.6238 5.65856L19.403 5.73611L19.584 5.78586C19.5418 6.08351 19.5078 5.9794 19.3566 6.16094C19.4013 6.50272 19.5536 6.40931 19.5992 6.59044L19.2735 6.73334L19.186 6.57244L18.9449 6.51531C18.9751 6.36143 18.9505 6.38676 19.0831 6.38622L19.0436 6.26546L18.9766 6.37302C18.8398 6.20086 19.0079 6.29669 18.7881 6.17495C18.5711 6.37774 18.8577 6.30104 18.6635 6.43705L18.575 6.26965C18.3503 6.02411 18.5359 6.12768 18.2301 6.01424L18.1081 5.94343L17.9641 6.06333L17.8714 5.98593C17.8704 5.96475 17.9757 5.63692 17.9964 5.59779C18.0934 5.41499 18.2687 5.4051 18.1994 5.18407C17.9495 5.27018 18.0295 5.51646 17.8835 5.61675C17.7049 5.71044 17.7213 5.66179 17.5495 5.60719L17.4281 5.64734C17.1825 5.86367 17.4466 5.8299 17.2718 6.10839L17.1741 6.26349L16.8932 6.43647L16.7286 6.10966C16.9507 6.00389 17.0084 5.84853 17.1075 5.65739L16.937 5.61864C17.0678 5.44125 17.011 5.67034 17.1691 5.43207L17.0462 5.27112C17.0658 5.05637 17.0309 5.00214 16.8473 4.88709C16.6986 4.93452 16.577 5.02129 16.4155 4.91709C16.2958 4.83991 16.231 4.60415 16.1086 4.60619L15.9907 4.44635C16.0017 4.28827 16.0558 4.1933 15.9607 4.03376L15.7517 3.94268L15.5022 3.76168C15.4212 3.90963 15.452 3.81762 15.275 3.89562L15.164 3.89424L15.1588 4.00579C15.0378 4.01864 15.0703 3.97855 15.0421 3.98686C14.9188 4.02317 15.2492 4.05213 14.7363 4.03966C14.5423 4.03522 14.6144 4.11323 14.5956 4.02163L14.4657 3.94495L14.3773 3.95382C14.3702 3.95485 14.3635 3.95595 14.3571 3.95715C14.3376 3.85108 14.3258 3.78349 14.2118 3.72598C13.9689 3.59165 14.1437 3.63198 14.029 3.51461L13.8982 3.65336L13.9111 3.89287C13.9064 3.92548 13.9055 3.95471 13.9079 3.98061C13.7758 3.93835 13.7613 3.97234 13.6891 3.93695C13.554 3.87058 13.655 3.84357 13.4553 3.79142L13.4409 3.84604C13.4033 3.81491 13.3384 3.79925 13.2527 3.81851C13.1979 3.96689 13.193 3.92607 13.2792 4.03036L13.2666 4.05234L13.136 4.01941C13.0374 4.13187 13.1648 4.08579 12.9816 4.17224L12.7768 4.25996C12.7179 4.48336 12.7951 4.56733 12.5797 4.74016C12.3209 4.69479 12.4213 4.62286 12.2268 4.48999C12.0449 4.54385 12.1319 4.52085 12.0044 4.64476L11.914 4.68248L11.8088 4.72973C11.8087 4.63671 11.7638 4.54058 11.679 4.46841C11.6927 4.46616 11.6909 4.44509 11.7325 4.38809C11.6142 4.38022 11.6516 4.36017 11.6107 4.4209C11.5531 4.38831 11.4837 4.36516 11.4032 4.3561C11.3715 4.37557 11.3441 4.39662 11.32 4.41832C11.3405 4.3747 11.3718 4.33001 11.3493 4.19309C11.1793 4.12064 11.1319 4.06072 10.9621 4.14098C11.0158 4.37721 10.9481 4.19382 11.1035 4.34538C10.9631 4.38038 11.0046 4.34261 10.89 4.3704L10.6138 4.53605L10.6195 4.54434L10.5376 4.79869L10.4345 4.88313L10.4297 5.02733C10.4864 5.20282 10.5401 5.21115 10.5785 5.3114L10.4807 5.43475C10.3598 5.37174 10.4511 5.34477 10.2564 5.29385L10.2049 5.48811C10.1897 5.49545 10.1764 5.50242 10.1646 5.50921L10.0945 5.50797L10.0676 5.55477L9.93701 5.5217C9.85668 5.61347 9.92637 5.5998 9.85579 5.63846C9.82658 5.49047 9.9301 5.30421 9.79853 5.06853C10.0148 4.56143 9.2127 4.99192 9.47776 4.45115L9.41863 4.34743C9.32172 4.09732 9.25272 4.06789 9.13476 3.84293C9.00176 3.58929 8.78374 3.66213 8.55416 3.73603L8.45041 3.62295C8.40124 3.41806 8.37119 3.34641 8.14517 3.29704C7.87264 3.36046 7.92529 3.41921 7.80088 3.63087L7.62619 3.88207L7.49371 3.8515L7.44661 3.95722L7.2938 3.63249C7.22067 3.46846 7.32123 3.47208 7.29043 3.30708C7.21951 3.53769 7.22005 3.68466 6.79349 3.64028C6.66913 3.89759 6.74088 4.1547 6.6654 4.30158C6.58655 4.45483 6.61379 4.49428 6.64554 4.66577C6.68194 4.86209 6.65423 4.77572 6.78635 4.81454L6.80382 4.96771C6.52294 5.1362 6.61686 5.05172 6.33355 5.03828C6.05884 5.24808 6.02762 5.37827 6.16993 5.65389L6.13923 5.67549C6.07777 5.56544 6.01895 5.50403 5.93578 5.34536C5.8028 5.09185 5.58478 5.16469 5.35518 5.23845L5.25143 5.12539C5.20226 4.92049 5.17223 4.84896 4.94617 4.79933C4.6738 4.86287 4.72632 4.92177 4.60193 5.13356L4.42721 5.38451L4.29477 5.35419L4.24776 5.45963L4.09483 5.13492C4.02172 4.97102 4.12224 4.97451 4.09157 4.80937C4.02053 5.04012 4.02107 5.18708 3.59465 5.14269C3.47013 5.39989 3.54192 5.65726 3.46631 5.80415C3.38757 5.95726 3.41483 5.99684 3.44672 6.16831C3.48296 6.36452 3.45527 6.27827 3.58739 6.31709L3.60487 6.4704C3.3241 6.63861 3.41802 6.55413 3.13445 6.54085C2.86002 6.75062 2.82866 6.88083 2.97096 7.15646L2.84127 7.24769L2.9897 7.30206L2.87023 7.36037L2.5882 7.49989C2.44443 8.23675 3.03258 7.9458 3.17054 8.30416L3.2212 8.44111L3.10682 8.54113L3.0053 8.39034L2.66717 8.20791C2.43953 8.18998 2.40736 8.17669 2.28727 8.37167L2.17333 8.48844C2.10137 8.58259 2.13503 8.59 2.08365 8.65404C2.00205 8.75563 2.04356 8.59993 1.9374 8.81273C2.04843 8.91284 2.04955 8.86982 2.14907 8.97587C2.23077 9.06312 2.12411 8.97107 2.28637 9.0016C2.32291 9.46219 2.519 9.1842 2.37937 9.42531L2.56245 9.55922L2.42315 9.79856L2.60323 9.86218L2.68307 10.1072C2.63551 10.6539 3.13289 10.7334 3.18784 10.7608L3.20372 11.0927L3.4431 11.1242C3.7249 10.8315 3.71402 10.8546 3.59729 10.5543L3.87296 10.5777C3.85459 10.7602 3.82946 10.6945 3.85321 10.9108C3.68826 11.016 3.69214 10.9605 3.59908 11.1425C3.21955 11.8853 3.62134 11.6987 3.4904 12.1979L3.81095 12.3468L3.82016 12.4133L3.59137 12.5246L3.65819 12.696L3.49943 12.9653L3.41127 12.8267L3.15262 12.9506C3.03832 13.0567 3.01874 13.0428 3.02789 13.1929L3.15685 13.222L3.20382 13.2192L3.22082 13.3432ZM3.57776 14.0632L3.64291 13.9426L3.64788 13.9445C3.76505 14.0935 3.67076 14.0069 3.83681 14.0465C4.01298 14.0547 3.9737 14.0347 4.08631 14.1507L3.97243 14.2193L4.01855 14.4065C3.87746 14.4623 3.8555 14.4537 3.82364 14.4395C3.86747 14.3165 3.78404 14.1615 3.6724 14.0366L3.57776 14.0632ZM14.4527 7.14837C14.4268 7.13747 14.395 7.12374 14.3506 7.1096L14.2938 7.1284C14.2978 7.1099 14.3018 7.0902 14.3058 7.06946L14.1756 7.06426C14.2644 6.96721 14.2026 6.99655 14.3058 7.06946L14.3437 6.93419C14.4077 6.9485 14.4414 7.04815 14.4527 7.14837ZM13.9236 6.87352L13.8473 6.77368C13.8529 6.7101 13.8541 6.6606 13.8479 6.61968C13.9244 6.59656 13.9242 6.68234 14.0554 6.76694L14.1686 6.6267C14.283 6.72068 14.2634 6.69761 14.2879 6.82726L14.0113 6.94241C13.9849 6.91994 13.9543 6.89705 13.9236 6.87352ZM11.9625 5.45271L11.9599 5.50835C11.9196 5.51262 11.8964 5.51091 11.8823 5.50726C11.881 5.4942 11.8789 5.47566 11.8717 5.4497C11.9158 5.44773 11.9458 5.44528 11.9625 5.45271ZM9.78399 5.6741L9.78267 5.67467L9.61558 5.74625L9.60381 5.74787L9.64481 5.51508C9.74782 5.62122 9.75703 5.58817 9.78399 5.6741ZM15.145 2.62151C15.1419 2.61343 15.0081 2.59387 15.0707 2.65389C15.1237 2.70491 15.1469 2.62682 15.145 2.62151ZM0.190187 16.2251C0.185411 16.2126 0.0418749 16.1837 0.105891 16.2466C0.162788 16.3027 0.190187 16.2251 0.190187 16.2251ZM12.4836 19.1944L12.3822 19.2975C12.4856 19.2774 12.5039 19.2978 12.4836 19.1944ZM7.23727 20.4234C7.26199 20.5125 7.21459 20.4799 7.31182 20.477C7.31017 20.4706 7.40635 20.4031 7.23727 20.4234ZM0.806332 8.39476C0.792959 8.48537 0.764044 8.45699 0.860325 8.48312C0.872957 8.41204 0.913374 8.419 0.806332 8.39476ZM8.24763 20.0814L8.12408 20.0577C8.17224 20.2169 8.17044 20.1539 8.24763 20.0814ZM13.1411 19.7103C13.1702 19.8006 13.1155 19.8018 13.241 19.7568C13.2136 19.674 13.2637 19.6646 13.1411 19.7103ZM2.32304 12.8355C2.18959 12.8303 2.24769 12.7931 2.17171 12.9039C2.31508 12.9314 2.22886 12.941 2.32304 12.8355ZM3.03407 12.2764C2.93073 12.3093 2.91247 12.277 2.93698 12.4021C3.01391 12.3795 3.0489 12.3898 3.03407 12.2764ZM6.17238 18.6688C6.1386 18.7997 6.15225 18.8052 6.27258 18.7669C6.2589 18.6781 6.33109 18.6865 6.17238 18.6688ZM18.2479 17.3139C18.2849 17.4457 18.2717 17.4096 18.3899 17.3784C18.3667 17.3181 18.4979 17.3846 18.3477 17.3127C18.2484 17.2652 18.2981 17.2979 18.2479 17.3139ZM9.97846 4.42651C9.94758 4.55056 9.95676 4.55272 10.0574 4.62012C10.0913 4.51024 10.078 4.50317 9.97846 4.42651ZM6.59821 18.3689C6.50495 18.4309 6.48982 18.501 6.5183 18.5989C6.59296 18.5196 6.62218 18.4664 6.59821 18.3689ZM17.4319 15.8645C17.3482 15.9825 17.3893 16.029 17.5287 15.9764C17.5163 15.8607 17.5489 15.8905 17.4319 15.8645ZM12.5393 19.8945C12.5023 20.0272 12.4655 20.0094 12.6231 20.0273C12.681 19.8944 12.6845 19.9162 12.5393 19.8945ZM2.40744 14.2569C2.24241 14.2719 2.26456 14.2908 2.33789 14.4023C2.42941 14.3696 2.4742 14.3748 2.40744 14.2569ZM2.02371 7.44905C1.93726 7.54304 1.9299 7.54212 2.05492 7.62299C2.17078 7.49168 2.12602 7.50433 2.02371 7.44905ZM3.49615 14.9134C3.34163 15.0218 3.41244 15.1033 3.56537 15.0486C3.56487 14.9152 3.60985 14.9928 3.49615 14.9134ZM1.72473 17.4442L1.59371 17.3334C1.49556 17.4572 1.50867 17.3932 1.5672 17.5165L1.72473 17.4442ZM5.75995 16.9637C5.57037 16.9252 5.69621 17.0081 5.49646 17.0702L5.62066 17.1555C5.73182 17.0543 5.74129 17.0787 5.75995 16.9637ZM5.1139 16.6686C5.06188 16.8182 5.07051 16.8614 5.2484 16.8313C5.30556 16.6838 5.27217 16.6597 5.1139 16.6686ZM8.55757 21.0309C8.53107 20.8668 8.52365 20.8553 8.36594 20.9108C8.32759 21.0485 8.31921 21.0085 8.42927 21.091L8.55757 21.0309ZM3.4369 12.0284C3.29619 11.9944 3.19402 12.0365 3.14092 12.1731C3.26712 12.2523 3.39965 12.1494 3.4369 12.0284ZM11.7834 19.9211C11.6683 19.8227 11.6023 19.8293 11.4715 19.9062C11.5326 20.0743 11.6744 20.0415 11.7834 19.9211ZM4.57763 17.0609C4.45837 17.0977 4.41112 17.2898 4.45426 17.3937C4.61877 17.3568 4.6517 17.1805 4.57763 17.0609ZM9.77365 20.6886C9.6519 20.5939 9.65981 20.6082 9.53713 20.6908L9.58157 20.8548C9.73093 20.8436 9.78279 20.8563 9.77365 20.6886ZM3.01224 6.0544C2.91836 6.18784 2.92217 6.19926 3.05962 6.28929C3.28588 6.22548 3.22413 6.02799 3.01224 6.0544ZM8.20334 19.1102C7.99889 19.1991 8.02505 19.3207 8.22306 19.3698C8.36938 19.2559 8.3493 19.207 8.20334 19.1102ZM4.23245 4.86244L4.22295 5.10662L4.50216 5.06313C4.41671 4.84652 4.32612 4.85568 4.23245 4.86244ZM9.72194 3.68247C9.68004 3.84735 9.74606 3.95272 9.92215 3.98243C10.0238 3.81533 9.91386 3.66996 9.72194 3.68247ZM13.3045 20.3837C13.0407 20.4865 13.1758 20.7846 13.4319 20.635C13.4402 20.4687 13.4544 20.4719 13.3045 20.3837ZM5.76263 15.5184L5.89129 15.709L5.68098 15.7866C5.67014 15.601 5.68968 15.7285 5.60941 15.7112C5.64366 15.5841 5.62968 15.5604 5.76263 15.5184ZM13.744 18.1044L13.5262 18.1579C13.5125 18.3439 13.5044 18.3212 13.614 18.4424C13.8632 18.4843 13.9342 18.2709 13.744 18.1044ZM11.7515 20.8364C11.9522 20.639 11.6732 20.3592 11.4647 20.5379C11.2902 20.6874 11.5311 21.0533 11.7515 20.8364ZM0.473426 15.539L0.24943 15.602C0.228083 15.7664 0.359881 15.9641 0.446297 16.0965C0.746 15.9847 0.64192 15.7274 0.473426 15.539ZM14.282 21.2231C14.5521 20.9864 14.3305 20.7267 14.1264 20.8065C13.9285 20.8836 13.8884 21.278 14.282 21.2231ZM2.11807 5.70361L1.8728 6.02114C2.31466 6.59415 2.73961 5.97874 2.11807 5.70361ZM3.79148 17.6591C4.21264 17.4349 3.90949 16.8336 3.53896 17.0574C3.18658 17.2705 3.42851 17.8522 3.79148 17.6591ZM1.08047 15.2522C1.11835 14.7114 0.679227 14.6424 0.359985 15.0315C0.0794847 15.3733 0.581895 15.7018 1.08047 15.2522ZM14.6203 2.19563C14.4498 2.34784 14.4468 2.62429 14.3818 2.82185C14.2719 3.15648 14.1077 3.19766 14.3578 3.54362C14.4087 3.50796 14.4482 3.46952 14.4794 3.4288C14.5585 3.51096 14.6767 3.55087 14.7968 3.50544C15.13 3.3796 15.0525 2.95685 14.6759 2.86649C14.6823 2.85073 14.6892 2.8349 14.6967 2.8194C14.7966 2.61453 15.1142 2.15185 14.6203 2.19563ZM0.786199 17.2442C0.147334 17.3413 0.356103 18.02 0.708047 18.0544C1.0586 18.0889 1.29467 17.4837 0.786199 17.2442ZM5.22576 5.57951L5.09114 5.82938L5.09545 5.94331L4.8753 5.82003C5.00632 5.69197 4.92559 5.79384 5.05383 5.72543C5.12048 5.68977 5.1586 5.63759 5.22576 5.57951ZM9.72554 19.9304L9.75778 19.7054C9.6168 19.5686 9.63198 19.6372 9.54128 19.5802C9.37933 19.478 9.5097 19.4676 9.32119 19.3513C9.07086 19.3865 9.09184 19.5232 9.01759 19.7253L8.86924 19.646C8.73118 19.7248 8.58948 19.7647 8.55933 19.9201C8.53176 20.0616 8.60827 20.227 8.7584 20.2629C8.9711 20.3137 8.88885 20.1468 9.1868 20.2876C9.33557 20.3581 9.39709 20.3558 9.5641 20.3488C9.7198 20.1668 9.65727 20.0937 9.97138 20.0764C10.1465 20.0666 10.3219 20.1394 10.4743 20.0727C10.3639 19.938 9.99683 20.1712 9.72554 19.9304ZM3.63841 6.48682C3.71813 6.34934 3.68438 6.29469 3.84135 6.25548L3.88809 6.40563L3.91599 6.58078L3.73735 6.61929L3.63841 6.48682ZM4.20201 6.70532L4.41104 6.5677L4.47088 6.69476L4.68326 6.69212C4.45183 6.77458 4.42686 6.80949 4.20201 6.70532ZM5.21295 6.6678C5.20279 6.47758 5.1595 6.57712 5.30471 6.43563L5.42394 6.60763L5.21295 6.6678ZM3.06184 9.08848C3.06778 9.10467 3.03037 9.16139 2.98295 9.1131C2.92151 9.05082 3.05773 9.07682 3.06184 9.08848ZM3.35742 9.15066C3.27601 9.15641 3.32981 9.24096 3.26586 9.09125C3.46476 9.07111 3.35469 9.14333 3.35742 9.15066ZM4.16798 9.27958L4.18395 9.09017L4.34514 9.16742L4.16798 9.27958ZM3.77263 9.37699C3.83792 9.60924 3.67798 9.44343 3.47029 9.65035C3.40201 9.48835 3.62817 9.40165 3.77263 9.37699ZM3.87711 7.45981C3.92056 7.63247 3.9596 7.58759 3.82185 7.68765C3.6857 7.59917 3.77 7.69046 3.69602 7.51965L3.87711 7.45981ZM12.7822 17.8302C12.7165 17.9277 12.676 17.9531 12.6195 17.9294C12.6098 17.9163 12.5953 17.9017 12.5724 17.8843C12.6622 17.7742 12.6108 17.7772 12.7822 17.8302ZM11.2719 18.5931C11.2759 18.6038 11.2417 18.6634 11.1965 18.6247C11.1369 18.5734 11.27 18.5879 11.2719 18.5931ZM19.7104 7.75403C19.7091 7.74983 19.628 7.74257 19.6688 7.78587C19.7059 7.82527 19.7104 7.75403 19.7104 7.75403ZM22.5181 8.22685C22.5151 8.21769 22.4048 8.19704 22.4497 8.24194C22.488 8.28 22.5196 8.2309 22.5181 8.22685ZM10.0532 5.07339C10.0523 5.07059 9.9304 5.05775 9.98179 5.10104C10.0164 5.13017 10.059 5.08973 10.0532 5.07339ZM15.8139 17.6249L15.8173 17.7123C15.8633 17.6561 15.9301 17.6972 15.8139 17.6249ZM17.0457 18.6569L17.1083 18.7315C17.0991 18.638 17.1741 18.6461 17.0457 18.6569ZM21.0095 9.44055L21.0195 9.53537C21.0661 9.46413 21.1365 9.51257 21.0095 9.44055ZM20.2768 11.4608L20.1509 11.4835C20.2874 11.5404 20.1914 11.5588 20.2768 11.4608ZM19.5224 4.52139C19.5201 4.51506 19.3887 4.49467 19.4493 4.55004C19.4935 4.59053 19.5274 4.53465 19.5224 4.52139ZM20.0149 5.5687L19.9421 5.66084C20.1219 5.60817 20.0287 5.62638 20.0149 5.5687ZM14.1637 19.1477L14.2633 19.2186C14.2394 19.1352 14.2974 19.1232 14.1637 19.1477ZM18.3438 1.11909C18.3408 1.11099 18.2071 1.09143 18.2695 1.15134C18.3227 1.2026 18.3458 1.12426 18.3438 1.11909ZM18.086 4.6028L17.9805 4.56102C18.0146 4.67756 17.9908 4.66004 18.086 4.6028ZM19.3864 7.67941C19.263 7.65908 19.3478 7.6234 19.2846 7.71896C19.4014 7.75164 19.3094 7.77209 19.3864 7.67941ZM16.34 18.2078C16.3692 18.2981 16.3145 18.2993 16.44 18.2544C16.4126 18.1715 16.4628 18.162 16.34 18.2078ZM18.7966 13.8346C18.7705 13.9654 18.7502 13.9581 18.8861 13.9089C18.8598 13.829 18.937 13.8537 18.7966 13.8346ZM17.8945 4.9289C17.7851 4.96239 17.7806 4.92829 17.7911 5.0519C17.9113 5.01454 17.8995 5.036 17.8945 4.9289ZM21.4468 15.8114C21.4838 15.9432 21.4707 15.9072 21.589 15.8759C21.5656 15.8158 21.6969 15.8821 21.5467 15.8103C21.4473 15.7627 21.497 15.7953 21.4468 15.8114ZM19.095 13.2013C18.9665 13.1148 19.044 13.1225 18.9173 13.1782C18.9868 13.2856 18.9864 13.2813 19.095 13.2013ZM13.1774 2.92394C13.1464 3.04828 13.1557 3.05002 13.2565 3.11766C13.2903 3.00767 13.277 3.00074 13.1774 2.92394ZM20.6309 14.362C20.5471 14.4799 20.5881 14.5266 20.7276 14.474C20.7153 14.3583 20.7479 14.3879 20.6309 14.362ZM18.0227 10.1087L17.9122 9.91921L18.0686 9.92811L18.0227 10.1087ZM19.8905 7.78576L19.828 7.92716L20.0042 7.92537C19.9811 7.77885 20.0212 7.81536 19.8905 7.78576ZM20.2906 13.1808C20.2407 13.3081 20.2304 13.323 20.3815 13.3396C20.4392 13.2165 20.4396 13.1987 20.2906 13.1808ZM21.9285 8.1269C21.8858 8.27031 21.8779 8.23333 22.0144 8.27385C22.1026 8.15435 22.1061 8.10323 21.9285 8.1269ZM11.7564 19.5284C11.7301 19.3644 11.7225 19.3529 11.5651 19.4083C11.5263 19.5459 11.5182 19.5058 11.6281 19.5886L11.7564 19.5284ZM14.9823 18.4187C14.8673 18.3202 14.8013 18.3267 14.6705 18.4038C14.7313 18.5719 14.8734 18.5389 14.9823 18.4187ZM12.9725 19.1862C12.8509 19.0915 12.8589 19.1057 12.736 19.1884L12.7804 19.3522C12.9301 19.3412 12.9817 19.3537 12.9725 19.1862ZM6.21136 4.55194C6.11719 4.68529 6.12128 4.69682 6.25857 4.78661C6.48485 4.72292 6.42298 4.52557 6.21136 4.55194ZM12.0901 3.11785C11.9746 3.1709 11.8211 3.44234 11.8558 3.56211C11.9743 3.47931 12.1474 3.25767 12.0901 3.11785ZM16.4517 2.31608C16.3932 2.47431 16.3916 2.41747 16.4967 2.55088C16.7769 2.50728 16.7044 2.25886 16.4517 2.31608ZM7.43142 3.35988L7.42192 3.60405L7.70101 3.56072C7.6157 3.3441 7.52495 3.35314 7.43142 3.35988ZM12.9209 2.18004C12.8789 2.34481 12.9451 2.45001 13.1213 2.48012C13.2227 2.3129 13.1129 2.16766 12.9209 2.18004ZM17.4108 2.22355C17.1678 2.08936 17.3427 2.12942 17.2278 2.0122L17.0972 2.15079L17.11 2.3903C17.0783 2.61293 17.2187 2.66594 17.423 2.68548L17.5696 2.52343C17.5371 2.37598 17.5477 2.29273 17.4108 2.22355ZM18.1315 14.736L18.164 14.9044L18.0244 14.8231L18.1315 14.736ZM16.5032 18.8811C16.2395 18.9841 16.3747 19.282 16.631 19.1325C16.6392 18.9663 16.6535 18.9694 16.5032 18.8811ZM17.4407 4.76541C17.5243 4.60865 17.521 4.59358 17.3982 4.46585C17.0094 4.42889 17.0864 4.90331 17.4407 4.76541ZM18.6757 2.91344C18.4994 2.91419 18.5627 2.88666 18.4382 3.01244L18.4728 3.22009C18.6348 3.27619 18.6248 3.27864 18.7648 3.1963C18.787 3.02106 18.7917 3.04217 18.6757 2.91344ZM17.7233 9.024L17.5521 9.08339L17.4645 9.0158L17.627 8.82661L17.7203 8.87442L17.7233 9.024ZM14.9503 19.334C15.1511 19.1365 14.8723 18.8568 14.6637 19.0355C14.4892 19.1849 14.7301 19.5507 14.9503 19.334ZM17.481 19.7207C17.751 19.484 17.5293 19.2242 17.3254 19.304C17.1274 19.3813 17.0874 19.7754 17.481 19.7207ZM5.31704 4.20104L5.07162 4.51859C5.51349 5.09161 5.93861 4.47643 5.31704 4.20104ZM18.0987 10.8237C18.2049 10.7433 18.1829 10.7448 18.329 10.7609C18.3368 10.856 18.2767 10.945 18.1787 10.9833C18.1188 10.8217 18.1743 10.9241 18.2034 10.8027L18.0987 10.8237ZM21.2652 14.0882C21.5675 13.7189 21.0406 13.3184 20.7089 13.6649C20.3796 14.0092 20.9467 14.4771 21.2652 14.0882ZM17.8191 0.693084C17.6488 0.845407 17.6456 1.12188 17.5808 1.31941C17.4708 1.65406 17.3067 1.69524 17.5567 2.04108C17.8338 1.84712 17.7732 1.56809 17.8958 1.31682C17.9956 1.1121 18.3132 0.649416 17.8191 0.693084ZM21.2721 11.5943C21.0672 11.523 20.5574 11.7712 20.3314 11.859C20.048 11.9688 19.7176 11.9171 19.4561 12.0551C19.6023 12.1081 19.7462 12.0127 19.8479 12.109C19.65 12.2351 19.3122 12.3036 19.073 12.323L18.9841 12.2395L18.9341 12.3427C19.175 12.5592 19.8606 12.2598 20.1484 12.1651C20.4013 12.0818 21.2774 11.8858 21.2721 11.5943ZM16.3099 4.25635C17.057 4.47491 16.9408 3.88142 17.0786 3.66675C17.2874 3.3415 16.9194 3.12168 16.7353 3.27521C16.576 3.40788 16.7749 3.36962 16.4339 3.55375C16.1669 3.69773 16.158 4.03064 16.3099 4.25635ZM8.42459 4.07697L8.29024 4.3268L8.29442 4.44076L8.0743 4.31773C8.20529 4.18941 8.12457 4.29128 8.25266 4.22288C8.31946 4.18734 8.35758 4.13517 8.42459 4.07697ZM18.1367 8.64679C17.9785 8.58147 17.9964 8.53052 17.929 8.38099L17.9827 8.2297L18.0452 8.39958C18.1206 8.27852 18.0393 8.32991 18.158 8.28995C18.2728 8.43935 18.2461 8.41584 18.1058 8.53315L18.1367 8.64679ZM17.8208 8.48763C17.8599 8.64498 17.8901 8.60861 17.808 8.73739L17.6944 8.65217L17.6507 8.49277L17.8208 8.48763ZM6.83739 4.98439C6.91711 4.84691 6.88337 4.79227 7.04018 4.75294L7.08721 4.90318L7.11495 5.07823L6.93618 5.11674L6.83739 4.98439ZM17.8136 10.2122C17.8193 10.2281 17.7387 10.3054 17.746 10.2343C17.7537 10.1627 17.8136 10.2122 17.8136 10.2122ZM18.2089 10.274C18.0752 10.3125 17.9801 10.2492 18.1623 10.1345L18.2089 10.274ZM17.5604 9.97421C17.8134 9.92463 17.5688 9.84861 17.7993 9.8507C17.8161 10.0005 17.7918 9.97751 17.6939 10.1114L17.5604 9.97421ZM7.40112 5.20287L7.60987 5.06516L7.66985 5.19221L7.88222 5.18956C7.65068 5.27217 7.62582 5.30693 7.40112 5.20287ZM8.41192 5.16524C8.40178 4.97515 8.35848 5.07469 8.50369 4.9332L8.62278 5.10521L8.41192 5.16524ZM9.0318 5.57754L9.30799 5.52333C9.37421 5.64138 9.3466 5.60343 9.28815 5.74842L9.13663 5.7446L9.0318 5.57754ZM18.4663 14.6296C18.4258 14.5377 18.4013 14.6075 18.4856 14.5329C18.5178 14.6031 18.5719 14.5566 18.4663 14.6296ZM17.8582 14.3518L17.5508 14.3948L17.6732 14.129L17.8582 14.3518ZM17.3173 6.84286C17.3555 6.96735 17.3558 6.91344 17.2633 6.93594C17.2355 6.7879 17.2634 6.86698 17.3173 6.84286ZM18.3646 6.72652C18.2166 6.83646 18.1163 6.99943 18.0697 6.80969C18.2142 6.65758 18.1839 6.67396 18.3646 6.72652ZM7.07608 5.95725C7.11955 6.13004 7.1587 6.08502 7.02083 6.18522C6.88467 6.09662 6.96898 6.18804 6.89485 6.01712L7.07608 5.95725ZM10.7253 4.82192C10.8866 4.90841 10.841 4.92077 10.7551 5.00583C10.6676 4.93571 10.6739 4.94404 10.7253 4.82192ZM13.0801 4.68857C12.9863 4.687 12.8939 4.59752 12.9022 4.51191C13.0422 4.5369 13.0586 4.5809 13.0801 4.68857ZM13.6107 4.63236C13.6962 4.52618 13.635 4.55943 13.7517 4.62003C13.6488 4.69109 13.7126 4.70966 13.6107 4.63236ZM14.9438 4.3665C14.8137 4.42456 14.8168 4.41411 14.7108 4.33058C14.8131 4.22758 14.9018 4.25982 14.9438 4.3665ZM12.8777 5.18544C12.7664 5.21506 12.7397 5.22042 12.7728 5.08841C12.9383 5.10728 12.8656 5.13151 12.8777 5.18544ZM14.0549 4.7338C14.221 4.69873 14.3303 4.70404 14.403 4.84801C14.3618 4.87014 14.4339 4.92802 14.1687 4.95413L14.0549 4.7338ZM15.5399 4.3677C15.5399 4.3677 15.5147 4.43718 15.464 4.38228C15.4073 4.3206 15.5352 4.35492 15.5399 4.3677ZM14.4143 5.0189C14.4635 5.13963 14.4278 5.18647 14.2951 5.17075C14.3052 5.03024 14.2852 5.06836 14.4143 5.0189ZM14.3786 5.55051L14.4684 5.28022C14.6708 5.35506 14.4961 5.35958 14.7505 5.35627L14.4636 5.57528L14.3786 5.55051ZM14.9651 5.17335L15.1143 5.19376L15.0856 5.07521C15.2171 5.17472 15.2473 5.17106 15.0693 5.28901L14.9651 5.17335ZM17.3397 9.00478C17.344 9.09516 17.2917 9.17401 17.2207 9.21047C17.1606 9.08754 17.1999 9.04567 17.3397 9.00478ZM16.7316 10.388C16.8888 10.3369 16.8244 10.4002 16.8392 10.4317C16.7481 10.4617 16.7824 10.5097 16.7316 10.388ZM17.3833 10.3698C17.2036 10.4565 17.1866 10.5381 17.0364 10.5615C16.8972 10.4417 16.9059 10.3555 16.9908 10.1782L17.3251 10.2651L17.3833 10.3698ZM18.1043 14.1209L17.9751 14.0595L18.1125 13.9601L18.1043 14.1209ZM14.4708 17.0906C14.4748 17.1014 14.4407 17.161 14.3955 17.1221C14.3358 17.071 14.4689 17.0853 14.4708 17.0906Z" fill="#FBC55C"/>
</svg>
