<svg width="45" height="42" viewBox="0 0 45 42" fill="none" xmlns="http://www.w3.org/2000/svg">
<path fill-rule="evenodd" clip-rule="evenodd" d="M8.56569 18.1704L8.64343 18.3255L8.56569 18.1704ZM5.48963 28.0806C5.47877 28.0502 5.28874 27.9925 5.37083 28.0897C5.44718 28.18 5.49228 28.0887 5.48963 28.0806ZM2.79741 28.9503C2.79331 28.9392 2.60786 28.9158 2.69909 29.0081C2.77533 29.0847 2.80165 28.9624 2.79741 28.9503ZM15.3971 36.4326C15.3429 36.6069 15.302 36.5698 15.4706 36.5758L15.3971 36.4326ZM37.8206 18.9515C37.8146 18.9338 37.5997 18.8916 37.6874 18.9815C37.7623 19.0582 37.8233 18.9601 37.8206 18.9515ZM14.0579 39.4191C14.0511 39.3993 13.8311 39.3401 13.9284 39.4465C14.005 39.5301 14.065 39.4388 14.0579 39.4191ZM24.835 37.6662L24.8421 37.8408C24.9312 37.7289 25.0615 37.8113 24.835 37.6662ZM27.2385 39.7342L27.3607 39.8829C27.3423 39.6966 27.488 39.7134 27.2385 39.7342ZM5.41912 25.4551L5.28137 25.6279C5.60746 25.5424 5.44436 25.5804 5.41912 25.4551ZM21.634 40.6952L21.8281 40.8372C21.7812 40.6709 21.8941 40.6471 21.634 40.6952ZM6.51818 26.0617L6.35667 26.164L6.22169 26.6426C5.70801 26.6769 5.91429 26.4527 5.67642 26.7894C6.02774 26.8657 5.87087 26.7338 6.15369 26.8596C6.41645 26.9767 6.21603 27.0193 6.64871 27.0729L6.86797 27.1865L6.89279 27.3535L7.19721 27.5068L6.96616 27.5728C6.93822 27.7983 7.05101 28.0555 7.17923 28.2804C7.04079 28.3443 6.96962 28.4458 6.75993 28.5374C6.17223 28.4267 6.44171 28.2228 5.83536 28.5211C5.25248 28.808 5.40301 28.7605 4.94124 29.0803C3.89327 28.3978 4.08341 28.6563 3.84859 27.9912C3.38685 28.2831 3.91573 28.5783 3.257 29.0671C2.48927 29.6365 3.06299 29.4834 2.83931 30.2533C2.45388 30.5256 2.24459 30.515 2.23613 31.035C2.22937 31.446 2.22314 31.7515 2.68258 31.8887C3.3283 31.7461 3.31543 31.2911 3.63395 30.8422C4.20373 30.8986 3.89951 30.8804 4.33492 30.5835C4.67255 30.3531 4.7841 30.4778 5.15833 30.3274C4.72913 29.8109 5.1085 29.5013 5.69457 29.5367L5.82165 29.7223L6.23031 30.0928L6.26444 29.7186L6.46299 29.9084L6.23031 30.0928L6.57721 30.0566C6.56128 29.6009 6.50234 29.5478 6.08901 29.4844L6.01131 29.0822L7.277 29.1002C7.70173 29.1315 7.54739 28.9401 7.96602 29.1123C8.31466 29.2555 8.26158 29.2468 8.65228 29.2746L8.66337 29.4745L8.12728 29.6879C7.97214 29.4405 8.1344 29.312 7.64046 29.1847C7.40416 29.493 7.11268 29.8814 7.09359 30.3105L6.90594 30.4718C6.37041 30.5239 6.42404 31.0425 6.6558 31.3973C6.98597 31.6218 7.01897 31.5677 7.23704 31.476C7.16267 31.8382 7.3616 32.2484 7.66474 32.4065C7.77414 32.6797 7.93158 32.9453 8.16078 33.112L8.50966 32.8699C9.13156 33.1898 9.04498 32.7515 9.70239 33.0202C9.8115 33.345 9.62514 33.2046 9.8129 33.3905C10.1737 32.9073 10.4469 31.6814 10.4525 31.6698C10.6881 31.9213 10.6497 31.7999 10.7205 32.1257L10.9147 32.2762L11.0419 32.5427L11.2156 32.5092C11.5799 32.4264 11.3896 32.4395 11.443 32.5541L11.85 32.6529C11.7269 32.9786 11.6815 32.6332 11.6704 33.1174L12.2342 33.2142L12.0028 33.5554L12.1275 33.9865C12.6929 34.1093 12.2959 33.991 12.8019 33.9212L13.0658 34.0843C12.9577 34.4404 13.0282 34.8541 13.1132 35.2178C13.2964 35.9996 13.3656 35.6617 13.8084 36.0446C13.8773 36.5969 13.4559 36.4779 13.5232 37.1673C13.5786 37.728 13.2342 38.1177 13.7371 38.4405C14.1465 38.4299 14.1195 38.4154 14.26 38.069C14.6415 37.1262 14.9996 37.2328 14.8942 36.0665L15.285 35.6838C15.4622 35.5455 15.4667 35.7423 15.4004 35.4933L15.7459 35.3983C16.0385 35.7914 15.8591 35.9923 15.8749 36.3928C16.5265 36.6564 16.4251 36.806 16.9244 37.0878C17.2035 37.0809 17.222 36.9911 17.3581 37.0009C17.6057 37.0189 17.4078 37.1614 17.7545 37.1215C17.8629 37.1089 18.7241 36.9535 18.7679 36.9334L18.5611 36.6582C18.9567 36.3616 19.2758 36.55 19.6364 36.7475L19.992 37.6905C20.2895 37.5859 20.1646 37.5831 20.3082 37.3433C21.0278 37.5662 21.1171 37.3266 21.5629 37.461C22.4383 37.7253 22.1115 37.5555 22.8021 37.346C23.2669 37.5343 23.0804 37.8704 23.4341 38.2621C23.7619 38.2658 24.0486 38.1407 23.9316 37.7638C23.7773 37.2653 23.5375 37.5935 23.2497 37.3758C23.3692 37.222 23.8232 37.1353 24.0606 37.2809C24.1076 37.0755 24.1433 36.9832 24.208 36.9051C24.2587 36.9233 24.3174 36.9481 24.3869 36.9822C24.6768 37.1233 24.7965 37.119 25.1215 37.1067C25.2981 36.8944 25.3295 36.7562 25.448 36.6716C25.651 36.6648 25.8396 36.6357 25.9678 36.5633C26.2898 36.5622 26.6109 36.6861 26.8911 36.5613C26.7536 36.3894 26.4139 36.5151 26.0486 36.504C26.0524 36.5001 26.0565 36.4959 26.0601 36.4923C26.4431 36.0778 26.2819 35.187 25.9829 35.135L25.8655 34.6776C25.9849 34.6105 26.0743 34.572 26.1463 34.5508L26.2073 34.7123C26.4004 34.6443 26.4154 34.6192 26.4415 34.5443C26.5082 34.5539 26.5849 34.5611 26.6987 34.5439C26.5897 34.4118 26.5442 34.418 26.4947 34.4163C26.503 34.4005 26.5125 34.3834 26.5231 34.3649C27.243 34.5877 27.3322 34.3479 27.7781 34.4828C28.5305 34.71 28.3944 34.6164 28.7805 34.4526C28.8323 34.5245 28.8878 34.5818 28.945 34.6171C28.9607 34.5594 28.9624 34.4799 28.9528 34.3883C28.9733 34.3815 28.9946 34.3746 29.0173 34.3678C29.4821 34.5561 29.2956 34.8919 29.6492 35.2837C29.9768 35.2874 30.2638 35.1622 30.1468 34.7856C29.9925 34.2871 29.7528 34.6153 29.4646 34.3974C29.5341 34.3086 29.7152 34.2419 29.9016 34.2298C29.9443 34.2678 30.0027 34.2797 30.1619 34.5099C30.3373 34.7634 30.6823 35.6586 30.9132 36.2194L30.9079 36.2184C30.8408 36.4681 30.7733 36.4505 31.0227 36.4785C31.033 36.5021 31.0428 36.5241 31.0519 36.5444C31.339 37.1667 31.685 37.8404 31.9556 38.4711C32.1794 38.9931 32.4736 40.3706 32.9127 40.596C33.2166 39.9875 31.8396 37.6568 31.508 36.7525C31.2961 36.1743 30.9948 35.5939 30.7117 35.0078C30.8118 34.9923 30.826 34.9802 30.7949 34.8211L30.6795 34.9413C30.5514 34.6741 30.428 34.4059 30.3189 34.1355C30.3916 33.8997 30.4693 33.8864 30.7355 33.6439C31.1042 33.6625 32.0065 33.8047 32.2753 33.5138C32.4666 33.3066 32.5222 32.9804 32.4923 32.6993C32.5886 32.7759 32.6932 32.8584 32.8044 32.9459C32.7954 33.1238 32.8213 33.1364 32.9899 33.3274C33.1038 33.3474 33.1983 33.3389 33.2719 33.3107C33.9884 33.8663 34.8395 34.508 35.4822 34.948L35.2636 35.0225C35.4985 35.1116 35.478 35.1126 35.5474 34.9924C36.0077 35.3044 36.35 35.5025 36.4377 35.4722C36.3479 35.1891 34.7375 34.1229 33.4365 33.1472C33.4848 33.0098 33.4259 32.8201 33.2406 32.6534L32.9032 32.7374C32.7034 32.5784 32.5199 32.4263 32.3618 32.2842C32.325 32.2286 32.2825 32.1882 32.2359 32.1684C32.2202 32.1532 32.2048 32.1385 32.1896 32.1235L32.0807 31.6994C32.5651 31.4278 32.5516 31.62 32.9138 31.5654C32.6885 31.2915 32.7344 31.6131 32.4528 31.2221C32.6855 30.9735 32.5784 31.1355 32.909 31.0236L32.9232 30.3662L33.1879 30.2729C33.0976 29.8974 32.9709 30.098 33.0691 29.7207C33.453 29.619 33.2273 29.7817 33.6278 29.7754L33.9601 29.7476L34.1239 30.1926L34.1456 30.1869C34.1108 30.5385 34.4016 30.8629 34.748 30.9237C34.831 31.2261 34.9873 31.5322 35.1602 31.6389C35.2018 31.487 35.1449 31.1858 35.0444 30.9078C35.1768 30.8689 35.3067 30.7846 35.4198 30.6425C35.7122 30.2759 35.603 29.8928 35.3406 29.6859L35.4355 29.6242C35.7157 29.3852 35.5425 29.5431 35.576 29.6007C35.6615 30.0411 35.8052 30.3245 35.925 30.7364C36.1512 31.5157 36.0465 31.0541 36.3771 31.5317C36.5933 31.8441 37.0673 33.1318 37.2673 33.5659C37.5542 34.1883 37.9002 34.8619 38.1708 35.4929C38.3946 36.0147 38.6888 37.3924 39.1279 37.6178C39.4318 37.009 38.0548 34.6783 37.7232 33.7741C37.2833 32.5745 36.4583 31.3653 36.2107 30.1128L36.9934 30.5359L37.161 30.2688C36.8767 30.0858 36.824 30.2007 36.9421 29.8444C37.1414 30.0012 37.0769 29.9897 37.161 30.2688L37.3068 30.1082C37.4462 30.1425 37.6094 30.1333 37.692 30.1766C37.5572 29.7913 37.9444 29.592 38.1138 29.2401C38.5731 29.6325 42.3304 32.6054 42.6529 32.494C42.5045 32.0267 38.2158 29.4268 38.0084 28.6202C38.2096 28.332 38.5533 28.2765 38.4293 27.8575C38.3188 27.4829 37.9125 27.4212 37.5881 27.5503C37.4654 27.8903 37.5935 27.9759 37.313 28.2715C36.845 28.2228 35.6758 26.8976 35.6757 26.8974C35.7795 25.8823 36.7921 26.8113 37.232 26.6835C37.0548 26.3575 35.4522 26.3819 35.948 25.4288C36.283 24.7841 38.0568 24.7643 38.3728 24.339C37.9733 24.2365 37.3589 24.6365 36.9151 24.7008L36.5059 24.3245L36.4818 24.182L36.805 24.1902L36.5272 23.9059C36.7536 23.698 36.801 23.7692 36.8695 23.5304L36.3416 23.7995L36.0488 23.7262C35.9773 23.3901 36.0073 23.4288 36.1761 23.1711C36.4208 22.7984 36.2067 22.8187 36.4979 22.6663L36.7318 22.4831L36.8101 22.4217C37.2098 22.5054 36.8824 22.5207 37.1813 22.3824C37.2435 22.0485 37.2928 22.2272 37.0272 21.9391C37.319 21.7578 37.2353 21.882 37.2285 21.5699L36.8491 21.4687L36.8776 20.9765L36.5951 20.8617L36.4358 20.9087C36.6075 20.5795 36.3892 20.7745 36.4792 20.4725C36.504 20.3898 36.752 20.0302 36.8159 19.931C37.0446 19.5753 37.406 19.1683 37.5061 18.7741C37.6899 18.5901 37.742 18.4707 37.8882 18.2729C38.1402 17.932 38.2019 18.046 38.5151 17.7976C38.6437 17.2814 38.4588 17.4281 38.8069 16.8891C38.9444 16.6763 39.2519 16.3593 39.2529 16.1388L38.4661 17.2084C37.8496 17.1766 38.1235 17.1173 37.6696 17.4614L37.4911 17.5724C37.2132 17.2237 37.4844 17.3454 37.0568 17.1015L36.2959 17.1592L36.0386 16.6813L36.3416 16.7993C36.5918 16.5609 36.4108 16.6934 36.3882 16.3202L36.7549 16.0087L36.6996 15.7715L36.6869 15.6431L36.9034 15.5324C37.1439 15.4165 37.4464 15.3287 37.4439 15.0098C37.441 14.5911 37.2071 14.6472 36.9555 14.4617L36.9222 14.3713C37.3322 13.6683 38.2087 13.66 38.2687 13.616C38.6461 13.1702 38.407 13.2001 38.5832 12.7694L39.596 12.5489L39.8211 11.9125L38.9675 11.2639L38.6087 11.3456L38.3872 10.8291L37.9581 10.9825L38.3105 11.0829C38.2304 11.6767 38.1636 11.4687 37.8706 11.8301C37.9598 12.5125 38.2554 12.3271 38.3453 12.6889L37.7124 12.972L37.5412 12.6503L37.0717 12.5347C37.1295 12.2278 37.0817 12.2782 37.3397 12.278L37.2622 12.0367L37.1324 12.2509C36.8651 11.9064 37.1928 12.0988 36.7643 11.8544C36.3434 12.2578 36.9006 12.1065 36.5235 12.3767L36.3504 12.042C35.9116 11.5505 36.2732 11.7584 35.6775 11.5301L35.4397 11.388L35.1603 11.6264L34.9794 11.4713C34.9773 11.429 35.1801 10.7754 35.2201 10.6974C35.4077 10.3332 35.7487 10.3145 35.6124 9.87297C35.1267 10.0432 35.2839 10.5353 35.0006 10.7345C34.6536 10.9204 34.6852 10.8234 34.3505 10.7133L34.1147 10.7927C33.6381 11.2229 34.1519 11.1571 33.8134 11.7119L33.6242 12.0208L33.0788 12.3643L32.7564 11.7109C33.1879 11.5012 33.2992 11.1915 33.4909 10.8107L33.1588 10.7322C33.4122 10.379 33.3032 10.8359 33.6093 10.3613L33.3692 10.0393C33.4059 9.61084 33.3376 9.50238 32.9795 9.27157C32.6905 9.3653 32.4544 9.5377 32.1395 9.32869C31.9061 9.17389 31.7786 8.70293 31.5404 8.70621L31.3098 8.38643C31.3302 8.07099 31.435 7.88181 31.2489 7.56277L30.8417 7.37965L30.3549 7.0168C30.1984 7.31158 30.2576 7.12814 29.9137 7.28268L29.6977 7.27921L29.6884 7.50182C29.453 7.5267 29.516 7.44689 29.4612 7.4633C29.2214 7.53497 29.8645 7.59487 28.8664 7.56671C28.489 7.55661 28.6297 7.71277 28.5926 7.52983L28.3392 7.37595L28.1673 7.3931C28.1535 7.3951 28.1405 7.39726 28.128 7.39962C28.0895 7.18779 28.066 7.05282 27.8438 6.9373C27.3703 6.66763 27.7107 6.74925 27.4867 6.51426L27.2331 6.79035L27.2597 7.26846C27.2508 7.33352 27.2492 7.39186 27.2541 7.44356C26.9967 7.35837 26.9687 7.42611 26.8281 7.35501C26.5647 7.2217 26.7611 7.16844 26.3722 7.06306L26.3445 7.17199C26.2711 7.10961 26.1448 7.07795 25.9781 7.11584C25.8724 7.41163 25.8627 7.33014 26.0311 7.53884L26.0066 7.58262L25.7523 7.51606C25.5612 7.73989 25.8088 7.64874 25.4529 7.82011L25.0548 7.99388C24.9417 8.43938 25.0925 8.60748 24.6744 8.95105C24.1705 8.85883 24.3653 8.71592 23.986 8.44947C23.6325 8.5558 23.8017 8.51046 23.5544 8.75695L23.3786 8.83167L23.1743 8.92529C23.1734 8.73964 23.0856 8.54749 22.9201 8.40289C22.9466 8.3985 22.9429 8.35642 23.0237 8.24293C22.7934 8.22648 22.8661 8.18667 22.7868 8.30764C22.6746 8.24222 22.5393 8.19557 22.3826 8.17697C22.3211 8.21563 22.2679 8.25747 22.2211 8.30062C22.2608 8.21371 22.3213 8.1247 22.2766 7.85128C21.9455 7.7056 21.8527 7.58569 21.5229 7.74479C21.6289 8.21662 21.4961 7.85017 21.7994 8.15366C21.5265 8.22263 21.6069 8.1475 21.3842 8.20223L20.8477 8.53109L20.8588 8.54767L20.7011 9.05479L20.501 9.22267L20.4926 9.51044C20.6041 9.86106 20.7086 9.87804 20.7839 10.0784L20.5944 10.3239C20.3589 10.1974 20.5363 10.1442 20.157 10.0413L20.0582 10.4287C20.0286 10.4432 20.0027 10.4571 19.9798 10.4705L19.8435 10.4676L19.7913 10.5608L19.5371 10.494C19.3813 10.6766 19.5169 10.6498 19.3798 10.7265C19.322 10.431 19.5222 10.0599 19.2647 9.58862C19.6823 8.5779 18.1242 9.43199 18.6366 8.35438L18.5208 8.14697C18.3307 7.64717 18.1962 7.58799 17.9652 7.13825C17.7048 6.63117 17.281 6.77515 16.8348 6.92116L16.6322 6.69483C16.5352 6.28557 16.4763 6.14236 16.0361 6.04238C15.5062 6.16722 15.609 6.28481 15.3683 6.70646L15.03 7.20673L14.772 7.14486L14.681 7.35556L14.3816 6.70646C14.2383 6.37861 14.4339 6.38648 14.373 6.05697C14.2364 6.51678 14.2384 6.8101 13.4081 6.71881C13.1678 7.23158 13.309 7.7452 13.1631 8.03785C13.0107 8.34323 13.0639 8.42214 13.1268 8.76462C13.1989 9.15667 13.1444 8.9841 13.4017 9.06243L13.4367 9.36826C12.8912 9.70275 13.0734 9.53474 12.5221 9.50611C11.9889 9.92309 11.9289 10.1827 12.2076 10.7337L12.148 10.7767C12.0277 10.5566 11.9129 10.4337 11.75 10.1165C11.4896 9.60964 11.0659 9.75361 10.6196 9.89937L10.417 9.67304C10.32 9.26378 10.2611 9.12083 9.82087 9.02033C9.29128 9.14539 9.39385 9.26328 9.15316 9.68519L8.81478 10.1849L8.55686 10.1236L8.46607 10.3337L8.1664 9.68467C8.02308 9.35708 8.21873 9.36469 8.15799 9.03489C8.02122 9.49498 8.02321 9.78831 7.19317 9.69698C6.95252 10.2095 7.09386 10.7237 6.94766 11.0164C6.79543 11.3214 6.84872 11.4006 6.91186 11.7431C6.98366 12.1349 6.92921 11.9626 7.18655 12.0409L7.22156 12.347C6.67629 12.6809 6.85849 12.5129 6.30661 12.4846C5.77394 12.9015 5.71375 13.1612 5.99242 13.7122L5.74067 13.8935L6.02982 14.0029L5.7977 14.1186L5.24982 14.3952C4.97477 15.865 6.11739 15.288 6.38813 16.0042L6.48756 16.2778L6.26565 16.4767L6.06712 16.1751L5.40799 15.8089C4.96492 15.7716 4.90225 15.7449 4.6698 16.1333L4.44885 16.3656C4.30944 16.5531 4.37496 16.5681 4.27539 16.6955C4.11726 16.8978 4.19705 16.5873 3.99184 17.0113C4.20851 17.2118 4.21043 17.126 4.40476 17.3383C4.5643 17.513 4.35615 17.3286 4.67209 17.3905C4.74613 18.31 5.12594 17.7565 4.85578 18.2368L5.21287 18.5052L4.94336 18.982L5.29416 19.1102L5.45108 19.5996C5.36203 20.6905 6.33038 20.8525 6.43749 20.9074L6.47052 21.57L6.93651 21.6344C7.483 21.052 7.46198 21.0979 7.23292 20.4979L7.76947 20.5463C7.73489 20.9106 7.68558 20.7791 7.73317 21.211C7.41288 21.4199 7.42008 21.3093 7.24015 21.6718C6.50637 23.152 7.28703 22.7821 7.03543 23.7777L7.66013 24.077L7.67846 24.2097L7.234 24.4303L7.36512 24.7729L7.0579 25.3094L6.88547 25.0322L6.38295 25.2778C6.16122 25.4888 6.12304 25.4609 6.1418 25.7605L6.39293 25.8196L6.48431 25.8142L6.51818 26.0617ZM7.21734 27.5011L7.34334 27.2609C7.34623 27.2623 7.3499 27.2635 7.35302 27.2647C7.58198 27.5627 7.39795 27.3893 7.72132 27.4693C8.06417 27.487 7.98761 27.4467 8.20748 27.679L7.98634 27.8152L8.07726 28.189C7.80308 28.2996 7.76028 28.2823 7.69819 28.2536C7.78269 28.0086 7.61939 27.6986 7.40136 27.4486L7.21734 27.5011ZM28.3344 13.7695C28.284 13.7476 28.222 13.72 28.1356 13.6915L28.0252 13.7286C28.0327 13.6917 28.0405 13.6524 28.048 13.6111L27.7948 13.5999C27.9668 13.4067 27.8468 13.4649 28.048 13.6111L28.121 13.3413C28.2457 13.3703 28.3119 13.5694 28.3344 13.7695ZM27.3031 13.2175L27.154 13.0178C27.1645 12.8909 27.1665 12.7921 27.1543 12.7104C27.3029 12.6648 27.303 12.836 27.5589 13.0057L27.7783 12.7265C28.0015 12.9148 27.9632 12.8686 28.0118 13.1276L27.4743 13.3556C27.4226 13.3106 27.3629 13.2647 27.3031 13.2175ZM23.4779 10.3692L23.4732 10.4803C23.3949 10.4886 23.3498 10.485 23.3223 10.4776C23.3196 10.4515 23.3154 10.4145 23.3013 10.3627C23.387 10.359 23.4454 10.3543 23.4779 10.3692ZM19.2403 10.7972L19.2377 10.7983L18.913 10.9401L18.8901 10.9433L18.9684 10.4789C19.1696 10.6914 19.1873 10.6255 19.2403 10.7972ZM29.6525 4.73887C29.6464 4.72272 29.3861 4.68283 29.5082 4.80302C29.6117 4.90519 29.6563 4.74949 29.6525 4.73887ZM0.639367 31.7944C0.629998 31.7694 0.350488 31.7108 0.475459 31.8367C0.586537 31.949 0.639865 31.7962 0.639367 31.7944ZM24.5799 37.7992L24.3832 38.0045C24.5843 37.9649 24.62 38.0059 24.5799 37.7992ZM14.379 40.2187C14.4277 40.3968 14.3352 40.3312 14.5244 40.3262C14.5211 40.3134 14.7079 40.1792 14.379 40.2187ZM1.78824 16.1699C1.76279 16.3507 1.70636 16.2938 1.89388 16.3466C1.918 16.2048 1.99668 16.2189 1.78824 16.1699ZM16.3428 39.5426L16.1023 39.4944C16.197 39.8126 16.1931 39.6867 16.3428 39.5426ZM25.8625 38.8333C25.9198 39.0137 25.8134 39.0157 26.0573 38.9266C26.0034 38.7611 26.1007 38.7428 25.8625 38.8333ZM4.76798 25.0427C4.50825 25.0315 4.62107 24.9576 4.47392 25.1783C4.75307 25.234 4.58538 25.2528 4.76798 25.0427ZM6.14796 23.9314C5.94709 23.9964 5.91136 23.9319 5.95985 24.1816C6.1094 24.1371 6.17754 24.1579 6.14796 23.9314ZM12.2956 36.7098C12.2307 36.9709 12.2573 36.9821 12.4912 36.9064C12.464 36.7291 12.6046 36.7463 12.2956 36.7098ZM35.7844 34.0828C35.8573 34.3461 35.8315 34.274 36.0612 34.2126C36.0157 34.092 36.2713 34.2256 35.9786 34.0811C35.7852 33.9858 35.8819 34.0513 35.7844 34.0828ZM19.6107 8.30839C19.5514 8.55579 19.5693 8.56015 19.7656 8.69532C19.8309 8.47622 19.805 8.46204 19.6107 8.30839ZM13.1223 36.114C12.9412 36.2372 12.9122 36.377 12.9683 36.5726C13.1131 36.4149 13.1696 36.3089 13.1223 36.114ZM34.1873 31.1848C34.0252 31.4197 34.1054 31.513 34.3763 31.4088C34.3516 31.1778 34.4152 31.2375 34.1873 31.1848ZM24.6928 39.1969C24.6216 39.4617 24.5499 39.4258 24.8567 39.4625C24.9685 39.1976 24.9753 39.2411 24.6928 39.1969ZM4.94129 27.8803C4.62026 27.9091 4.66348 27.947 4.80689 28.1699C4.98477 28.1053 5.07195 28.1159 4.94129 27.8803ZM4.15106 14.2901C3.98344 14.4772 3.96912 14.4753 4.21293 14.6375C4.43754 14.3762 4.35051 14.4011 4.15106 14.2901ZM7.06398 29.1976C6.76398 29.4129 6.9023 29.576 7.19952 29.4677C7.19771 29.2016 7.28574 29.3567 7.06398 29.1976ZM3.63321 34.2373L3.37754 34.0153C3.18734 34.2617 3.21243 34.1341 3.32711 34.3805L3.63321 34.2373ZM11.4822 33.3041C11.113 33.2261 11.3584 33.3923 10.9701 33.5149L11.2124 33.6861C11.428 33.4848 11.4466 33.5334 11.4822 33.3041ZM10.2232 32.711C10.1229 33.0093 10.1399 33.0954 10.4859 33.0365C10.5962 32.7426 10.5311 32.6942 10.2232 32.711ZM16.952 41.4396C16.8994 41.112 16.8849 41.089 16.5783 41.1986C16.5046 41.4732 16.488 41.3934 16.7027 41.5587L16.952 41.4396ZM6.93025 23.439C6.65622 23.3702 6.45768 23.4535 6.35523 23.7259C6.60131 23.8847 6.85854 23.6803 6.93025 23.439ZM23.222 39.2451C22.9974 39.048 22.869 39.0607 22.615 39.2135C22.735 39.5493 23.0107 39.4847 23.222 39.2451ZM9.18213 33.4905C8.9503 33.5633 8.8596 33.9463 8.94422 34.1539C9.26408 34.0814 9.32704 33.7297 9.18213 33.4905ZM19.3161 40.7642C19.0786 40.5745 19.0941 40.6029 18.8559 40.7671L18.9435 41.0946C19.234 41.0734 19.335 41.099 19.3161 40.7642ZM6.0657 11.5129C5.88388 11.7786 5.89136 11.8015 6.15941 11.982C6.59927 11.8561 6.47785 11.4616 6.0657 11.5129ZM16.2504 37.6039C15.8532 37.7799 15.9049 38.0228 16.2905 38.122C16.5745 37.8958 16.5351 37.7979 16.2504 37.6039ZM8.43246 9.14171L8.41555 9.629L8.95858 9.544C8.79091 9.11113 8.61469 9.12882 8.43246 9.14171ZM19.1068 6.82174C19.0263 7.15056 19.1555 7.36129 19.4983 7.42172C19.6949 7.08886 19.4802 6.798 19.1068 6.82174ZM26.1847 40.1781C25.6721 40.3817 25.9369 40.9775 26.4343 40.6805C26.4494 40.3488 26.477 40.3551 26.1847 40.1781ZM11.4781 30.4195L11.7297 30.8006L11.321 30.9543C11.2987 30.5838 11.3375 30.8384 11.1812 30.8033C11.2471 30.5498 11.2197 30.5025 11.4781 30.4195ZM27.0254 35.6319L26.6019 35.7373C26.5766 36.1083 26.5606 36.063 26.7747 36.3056C27.2599 36.3909 27.3967 35.9654 27.0254 35.6319ZM23.1657 41.0718C23.555 40.6791 23.0103 40.119 22.6058 40.4743C22.2671 40.7714 22.7383 41.5032 23.1657 41.0718ZM1.18613 30.4268L0.750672 30.5511C0.710184 30.8791 0.967903 31.2745 1.13691 31.5394C1.71938 31.3181 1.51521 30.8039 1.18613 30.4268ZM28.0923 41.8599C28.6163 41.3891 28.1834 40.8694 27.7869 41.0274C27.4023 41.1799 27.3267 41.9668 28.0923 41.8599ZM4.32351 10.8071L3.84827 11.4392C4.71175 12.5857 5.53471 11.3602 4.32351 10.8071ZM7.65622 34.6793C8.47431 34.2347 7.88055 33.0326 7.161 33.477C6.47666 33.9 6.95115 35.0625 7.65622 34.6793ZM2.36554 29.8582C2.43578 28.7791 1.58086 28.6386 0.96214 29.413C0.418507 30.0935 1.39824 30.7523 2.36554 29.8582ZM28.6288 3.88551C28.2981 4.18821 28.2939 4.73996 28.1689 5.13385C27.9572 5.80103 27.6378 5.88218 28.1268 6.57427C28.2256 6.50343 28.3021 6.42695 28.3626 6.34588C28.517 6.51035 28.7473 6.59077 28.9808 6.50087C29.6283 6.25184 29.4749 5.40758 28.7414 5.22482C28.7537 5.19342 28.767 5.16188 28.7815 5.13098C28.9747 4.72272 29.5898 3.80129 28.6288 3.88551ZM1.80566 33.8321C0.563124 34.0218 0.973707 35.3778 1.65876 35.4488C2.34113 35.5198 2.7966 34.3133 1.80566 33.8321ZM10.3699 10.5793L10.1095 11.0771L10.1187 11.3045L9.68949 11.057C9.94363 10.8023 9.7872 11.0051 10.0363 10.8694C10.1657 10.7986 10.2396 10.6948 10.3699 10.5793ZM19.2177 39.2505L19.279 38.8018C19.0038 38.5278 19.0338 38.6649 18.8569 38.5505C18.5411 38.3456 18.7947 38.3255 18.4272 38.0922C17.9403 38.1609 17.982 38.4339 17.8388 38.8367L17.5496 38.6775C17.2815 38.8339 17.006 38.9127 16.9483 39.2225C16.8956 39.5048 17.0455 39.8355 17.3379 39.9081C17.7521 40.0108 17.591 39.6773 18.1716 39.9601C18.4616 40.1017 18.5813 40.0975 18.9062 40.0846C19.208 39.7224 19.0859 39.576 19.697 39.5435C20.0378 39.5252 20.3795 39.6716 20.6756 39.5395C20.46 39.2699 19.7471 39.733 19.2177 39.2505ZM7.28691 12.38C7.44116 12.1061 7.37515 11.9968 7.68033 11.9196L7.77225 12.2195L7.82764 12.5693L7.48029 12.645L7.28691 12.38ZM8.385 12.8197L8.79087 12.5464L8.90814 12.8003L9.32139 12.7964C8.87158 12.9595 8.8232 13.029 8.385 12.8197ZM10.352 12.7513C10.331 12.3715 10.2474 12.5699 10.529 12.2885L10.7621 12.6325L10.352 12.7513ZM6.18163 17.5689C6.19328 17.6012 6.12085 17.7142 6.02827 17.6175C5.90832 17.4928 6.17355 17.5456 6.18163 17.5689ZM6.75718 17.6949C6.5988 17.7058 6.70402 17.8749 6.57863 17.5757C6.96554 17.5368 6.75182 17.6802 6.75718 17.6949ZM8.33525 17.9574L8.36512 17.5794L8.67926 17.7346L8.33525 17.9574ZM7.56658 18.1492C7.69511 18.6132 7.38282 18.2812 6.98001 18.6929C6.84611 18.3691 7.28564 18.1976 7.56658 18.1492ZM8.64343 18.3255L8.56569 18.1704L8.64343 18.3255ZM7.75763 14.3235C7.84328 14.6684 7.91896 14.579 7.65155 14.7778C7.38605 14.6004 7.55067 14.7831 7.40562 14.4418L7.75763 14.3235ZM25.1521 35.0784C25.0249 35.2725 24.9463 35.3231 24.8363 35.2754C24.8173 35.2492 24.789 35.22 24.7442 35.185C24.9184 34.9659 24.8184 34.9716 25.1521 35.0784ZM22.2181 36.5914C22.2259 36.6128 22.1599 36.7316 22.0716 36.6539C21.9553 36.5512 22.2144 36.581 22.2181 36.5914ZM19.8001 6.67L19.6241 6.76931L19.8001 6.67ZM38.5692 15.0119C38.5666 15.0036 38.4087 14.9885 38.4884 15.0752C38.5609 15.1541 38.5692 15.0119 38.5692 15.0119ZM44.0356 15.9736C44.0298 15.9553 43.8149 15.9134 43.9026 16.0033C43.9775 16.0795 44.0385 15.9817 44.0356 15.9736ZM19.7603 9.59997C19.7585 9.59438 19.5212 9.56796 19.6215 9.6547C19.689 9.71306 19.7717 9.63262 19.7603 9.59997ZM31.0502 34.688L31.0573 34.8625C31.1464 34.7507 31.2767 34.8331 31.0502 34.688ZM33.4537 36.7558L33.5759 36.905C33.5576 36.7184 33.7034 36.7349 33.4537 36.7558ZM41.1079 18.3863L41.1279 18.5756C41.2181 18.4338 41.3554 18.5309 41.1079 18.3863ZM39.695 22.4137L39.4502 22.4583C39.7161 22.5728 39.5295 22.609 39.695 22.4137ZM38.1826 8.55879C38.1781 8.54615 37.9224 8.50461 38.0406 8.61552C38.1269 8.69661 38.1925 8.5853 38.1826 8.55879ZM39.1477 10.6522L39.0067 10.8357C39.3562 10.7317 39.1749 10.7675 39.1477 10.6522ZM27.8489 37.7168L28.0431 37.8591C27.9961 37.6924 28.1087 37.6687 27.8489 37.7168ZM35.8675 1.7607C35.8617 1.74452 35.6013 1.70462 35.7231 1.82459C35.827 1.92725 35.8715 1.77102 35.8675 1.7607ZM35.3881 8.71209L35.1825 8.62804C35.2497 8.86084 35.2033 8.82572 35.3881 8.71209ZM37.9383 14.8609C37.698 14.8196 37.8627 14.7489 37.7405 14.9392C37.9678 15.0052 37.789 15.0454 37.9383 14.8609ZM32.0777 35.8548C32.135 36.0352 32.0286 36.0372 32.2725 35.9484C32.2186 35.7829 32.3162 35.7643 32.0777 35.8548ZM36.83 27.1421C36.78 27.4031 36.7405 27.3883 37.0044 27.2911C36.9529 27.1314 37.1032 27.1812 36.83 27.1421ZM35.0176 9.36173C34.805 9.42787 34.7959 9.35978 34.8172 9.60655C35.0508 9.53275 35.028 9.57552 35.0176 9.36173ZM41.9996 31.1046C42.0723 31.3679 42.0467 31.2958 42.2766 31.2341C42.2307 31.1141 42.4865 31.2473 42.1938 31.1029C42.0001 31.0073 42.0971 31.0728 41.9996 31.1046ZM37.4066 25.8801C37.1559 25.7066 37.3068 25.7225 37.0605 25.8328C37.1964 26.0477 37.1956 26.0391 37.4066 25.8801ZM25.8259 5.32992C25.7664 5.57788 25.7844 5.58142 25.981 5.71707C26.046 5.49776 26.0202 5.48384 25.8259 5.32992ZM40.4025 28.2066C40.2404 28.4413 40.3204 28.5348 40.5916 28.4306C40.5668 28.1996 40.6303 28.259 40.4025 28.2066ZM35.3001 19.7008L35.084 19.3219L35.3882 19.3406L35.3001 19.7008ZM38.9199 15.0764L38.7991 15.3582L39.1419 15.3558C39.0961 15.0632 39.1744 15.1363 38.9199 15.0764ZM39.7329 25.8468C39.6365 26.1005 39.6167 26.1302 39.9107 26.1643C40.0223 25.919 40.0229 25.8835 39.7329 25.8468ZM42.8877 15.7703C42.8056 16.0563 42.7898 15.9824 43.0557 16.0642C43.2267 15.8262 43.2331 15.7242 42.8877 15.7703ZM23.1669 38.4612C23.1146 38.1338 23.0998 38.1108 22.7938 38.2204C22.7193 38.4948 22.7032 38.4147 22.9177 38.5806L23.1669 38.4612ZM29.437 36.267C29.2126 36.0698 29.0842 36.0823 28.8302 36.2353C28.9497 36.5712 29.2258 36.5063 29.437 36.267ZM25.5311 37.786C25.2939 37.5963 25.3096 37.6247 25.0709 37.789L25.1584 38.1162C25.4495 38.0951 25.5502 38.1205 25.5311 37.786ZM12.2812 8.53466C12.0988 8.8002 12.1068 8.82323 12.3746 9.00331C12.8145 8.87765 12.6928 8.48338 12.2812 8.53466ZM23.7113 5.70997C23.4868 5.81513 23.1899 6.3559 23.2582 6.59516C23.4882 6.43065 23.8237 5.98941 23.7113 5.70997ZM32.1933 4.13763C32.0806 4.45307 32.0772 4.33961 32.2824 4.60656C32.8273 4.52133 32.6847 4.02505 32.1933 4.13763ZM14.6477 6.16324L14.6307 6.65053L15.1735 6.56583C15.0061 6.13292 14.8296 6.15038 14.6477 6.16324ZM25.322 3.84354C25.2412 4.17212 25.3709 4.38253 25.7138 4.44374C25.9102 4.11065 25.6954 3.82005 25.322 3.84354ZM34.059 3.95909C33.5853 3.68972 33.9259 3.77079 33.7017 3.53608L33.4483 3.81188L33.4749 4.28999C33.4146 4.73411 33.688 4.84081 34.0857 4.88113L34.37 4.55863C34.3059 4.26414 34.3259 4.09805 34.059 3.95909ZM35.5415 28.9371L35.6057 29.2733L35.3337 29.1101L35.5415 28.9371ZM32.3994 37.1997C31.887 37.4035 32.1521 37.999 32.6498 37.7023C32.6646 37.3706 32.6925 37.3769 32.3994 37.1997ZM34.1335 9.03251C34.2951 8.72017 34.2887 8.69008 34.0488 8.43435C33.2921 8.3581 33.4449 9.30548 34.1335 9.03251ZM36.5249 5.34412C36.1818 5.34449 36.3047 5.28992 36.0632 5.54017L36.1319 5.95484C36.4475 6.06785 36.4281 6.07268 36.7 5.90924C36.7421 5.55963 36.7514 5.60178 36.5249 5.34412ZM34.7105 17.5339L34.3779 17.6514L34.2071 17.5159L34.522 17.1394L34.7038 17.2354L34.7105 17.5339ZM29.3807 38.0937C29.7702 37.7009 29.2258 37.1407 28.8211 37.4961C28.4824 37.7932 28.9535 38.5248 29.3807 38.0937ZM34.3075 38.8817C34.8315 38.4109 34.3983 37.891 34.002 38.0489C33.6173 38.202 33.5419 38.9884 34.3075 38.8817ZM10.5387 7.82859L10.0632 8.46081C10.9267 9.6073 11.75 8.3822 10.5387 7.82859ZM35.4527 21.1284C35.6587 20.9685 35.616 20.9715 35.9004 21.0044C35.9162 21.1942 35.7999 21.3716 35.6093 21.4474C35.4917 21.1245 35.6004 21.3291 35.6563 21.0871L35.4527 21.1284ZM41.635 27.664C42.2211 26.9289 41.1932 26.1262 40.55 26.8158C39.9113 27.5007 41.0179 28.4383 41.635 27.664ZM34.8438 0.907078C34.5134 1.21001 34.5089 1.76179 34.3841 2.15564C34.1721 2.82286 33.8531 2.90397 34.3417 3.59584C34.8797 3.21049 34.76 2.6532 34.997 2.15248C35.1899 1.74452 35.805 0.823082 34.8438 0.907078ZM41.6327 22.6867C41.2333 22.543 40.2431 23.0352 39.8038 23.2089C39.253 23.4262 38.6097 23.3209 38.1018 23.5946C38.3866 23.7015 38.666 23.512 38.8646 23.7047C38.4802 23.9553 37.8235 24.0897 37.3581 24.1269L37.1846 23.9598L37.0878 24.1654C37.5581 24.599 38.8903 24.0059 39.4498 23.8187C39.9413 23.654 41.6447 23.2684 41.6327 22.6867ZM31.9298 8.00927C33.3849 8.45026 33.1551 7.26498 33.4218 6.83741C33.8261 6.18959 33.1085 5.74851 32.7513 6.05375C32.4423 6.31753 32.829 6.24243 32.1666 6.60775C31.648 6.89341 31.6328 7.55779 31.9298 8.00927ZM16.5848 7.60082L16.325 8.0986L16.3339 8.32606L15.9047 8.0791C16.1588 7.82383 16.0024 8.02664 16.2512 7.89094C16.381 7.82044 16.4548 7.71655 16.5848 7.60082ZM35.5126 16.7837C35.2045 16.6523 35.2388 16.5508 35.1067 16.2519L35.2103 15.9503L35.3329 16.2897C35.4789 16.0486 35.3211 16.1506 35.5519 16.0716C35.7761 16.3706 35.7241 16.3235 35.4518 16.5567L35.5126 16.7837ZM34.897 16.464C34.9739 16.7783 35.0325 16.7059 34.8736 16.9624L34.652 16.7916L34.5659 16.4732L34.897 16.464ZM13.5021 9.40177C13.6564 9.12789 13.5904 9.01861 13.8953 8.94112L13.9877 9.24129L14.0428 9.59083L13.6952 9.66656L13.5021 9.40177ZM34.894 19.906C34.9051 19.9379 34.7487 20.0915 34.7625 19.9497C34.777 19.8068 34.8936 19.9047 34.894 19.906ZM35.6634 20.0319C35.4036 20.1079 35.2181 19.9809 35.572 19.7533L35.6634 20.0319ZM34.3997 19.4294C34.8917 19.3321 34.4153 19.1788 34.8639 19.1844C34.8974 19.4835 34.85 19.4375 34.6604 19.7042L34.3997 19.4294ZM14.6005 9.84143L15.0058 9.56792L15.1233 9.82187L15.5366 9.81795C15.0865 9.98135 15.0384 10.0506 14.6005 9.84143ZM16.5671 9.77279C16.5462 9.39332 16.4626 9.59172 16.7442 9.31026L16.9771 9.65434L16.5671 9.77279ZM17.776 10.5997L18.3131 10.4932C18.4427 10.7293 18.3887 10.6533 18.2759 10.9424L17.981 10.9338L17.776 10.5997ZM36.1922 28.7267C36.1128 28.543 36.0656 28.6822 36.2291 28.5339C36.2923 28.6742 36.3974 28.5817 36.1922 28.7267ZM35.0072 28.1685L34.4093 28.2522L34.6459 27.7225L35.0072 28.1685ZM33.9067 13.178C33.9818 13.4268 33.9821 13.3192 33.8022 13.3635C33.7471 13.0679 33.8019 13.2258 33.9067 13.178ZM35.9437 12.9526C35.6566 13.171 35.4624 13.4957 35.3706 13.1167C35.6506 12.814 35.5919 12.8465 35.9437 12.9526ZM13.9728 11.345C14.0585 11.6902 14.1344 11.6005 13.8668 11.7996C13.6012 11.6219 13.7659 11.8049 13.6205 11.4633L13.9728 11.345ZM21.0664 9.10235C21.381 9.27601 21.2922 9.30038 21.1256 9.4696C20.955 9.3291 20.9673 9.34577 21.0664 9.10235ZM25.6477 8.85126C25.4653 8.84753 25.2849 8.66835 25.3005 8.49754C25.573 8.54832 25.6052 8.63623 25.6477 8.85126ZM26.68 8.74246C26.8457 8.53109 26.7267 8.59706 26.9543 8.71877C26.7544 8.85994 26.8788 8.8974 26.68 8.74246ZM29.2722 8.22038C29.0194 8.33543 29.0255 8.31459 28.8187 8.14719C29.0171 7.94226 29.1899 8.00718 29.2722 8.22038ZM25.2571 9.84168C25.0408 9.90008 24.9888 9.9106 25.0523 9.64734C25.3745 9.68605 25.2332 9.73396 25.2571 9.84168ZM27.545 8.94778C27.868 8.87885 28.0806 8.89013 28.223 9.17795C28.143 9.22185 28.2837 9.33784 27.7678 9.38825L27.545 8.94778ZM30.4322 8.22658C30.4331 8.22963 30.3835 8.36509 30.2847 8.25518C30.1738 8.13173 30.423 8.20104 30.4322 8.22658ZM28.2462 9.51908C28.3426 9.76036 28.2734 9.85363 28.0151 9.8214C28.0339 9.54104 27.9953 9.61699 28.2462 9.51908ZM28.1801 10.5799L28.353 10.041C28.7473 10.1917 28.4074 10.1996 28.9025 10.1946L28.3456 10.6299L28.1801 10.5799ZM29.319 9.83089L29.6093 9.87256L29.5527 9.63579C29.8093 9.83523 29.868 9.82811 29.5225 10.0624L29.319 9.83089ZM33.964 17.4931C33.9729 17.6735 33.8717 17.8306 33.7337 17.9029C33.6161 17.6571 33.6923 17.5738 33.964 17.4931ZM32.7895 20.2499C33.0953 20.149 32.9703 20.275 32.9994 20.3379C32.8222 20.3972 32.8892 20.4931 32.7895 20.2499ZM34.0576 20.2179C33.7085 20.3897 33.6759 20.5524 33.3839 20.5981C33.1121 20.3583 33.1287 20.1863 33.2927 19.833L33.9438 20.0084L34.0576 20.2179ZM35.4847 27.7091L35.2328 27.5857L35.4995 27.3883L35.4847 27.7091ZM28.4333 33.6132C28.4412 33.6346 28.3752 33.7534 28.2868 33.6755C28.1705 33.573 28.4295 33.6025 28.4333 33.6132Z" fill="#6572A6"/>
</svg>
