<svg width="121" height="135" viewBox="0 0 121 135" fill="none" xmlns="http://www.w3.org/2000/svg">
<path fill-rule="evenodd" clip-rule="evenodd" d="M42.105 105.508L42.6024 105.336L42.105 105.508ZM70.8294 118.267C70.7338 118.288 70.4875 118.828 70.8119 118.621C71.1132 118.43 70.8549 118.263 70.8294 118.267ZM72.4307 126.536C72.3957 126.544 72.2546 127.083 72.5678 126.848C72.8277 126.651 72.469 126.528 72.4307 126.536ZM99.7834 92.1304C100.289 92.3549 100.161 92.462 100.243 91.9665L99.7834 92.1304ZM55.5681 19.4586C55.5124 19.4698 55.3035 20.0883 55.608 19.8629C55.8678 19.6704 55.5952 19.4538 55.5681 19.4586ZM108.283 97.192C108.221 97.2048 107.959 97.8321 108.317 97.5844C108.598 97.3894 108.345 97.1785 108.283 97.192ZM107.088 64.7347L107.617 64.7787C107.313 64.4742 107.611 64.1202 107.088 64.7347ZM114.238 58.4096L114.733 58.1044C114.164 58.0892 114.27 57.6656 114.238 58.4096ZM62.8836 117.5L63.3522 117.971C63.2183 116.977 63.2709 117.472 62.8836 117.5ZM115.009 75.3072L115.511 74.7869C114.991 74.8636 114.963 74.5216 115.009 75.3072ZM65.1305 114.482L65.3776 114.997L66.77 115.573C66.6784 117.101 66.0806 116.409 67.0059 117.237C67.3694 116.228 66.9119 116.642 67.3989 115.854C67.8516 115.122 67.9042 115.729 68.2302 114.472L68.6559 113.867L69.1692 113.856L69.747 113.015L69.8586 113.721C70.5282 113.887 71.3467 113.65 72.0736 113.355C72.2139 113.787 72.4929 114.035 72.6898 114.688C72.1326 116.381 71.6201 115.51 72.2897 117.411C72.9337 119.238 72.8476 118.776 73.6367 120.257C71.1801 123.097 72.0322 122.631 69.9367 123.077C70.6421 124.549 71.7333 123.097 72.9576 125.223C74.3835 127.7 74.1396 125.95 76.377 126.896C77.0521 128.135 76.9405 128.749 78.5059 128.967C79.743 129.14 80.662 129.271 81.2502 127.966C81.0653 126.008 79.688 125.877 78.4549 124.77C78.8415 123.109 78.6709 124 77.9408 122.605C77.3741 121.523 77.7926 121.24 77.4809 120.08C75.7601 121.155 74.9702 119.92 75.2993 118.203L75.9075 117.897L77.1804 116.829L76.0645 116.589L76.7125 116.074L77.1804 116.829L77.2027 115.792C75.8222 115.669 75.6397 115.824 75.2914 117.02L74.0488 117.1L74.5836 113.371C74.8394 112.129 74.2034 112.514 74.8817 111.342C75.446 110.366 75.3998 110.52 75.6317 109.377L76.2391 109.419L76.6791 111.08C75.874 111.446 75.548 110.919 74.9765 112.33C75.8166 113.142 76.8775 114.146 78.1648 114.362L78.58 114.976C78.5338 116.576 80.1184 116.61 81.2765 116.058C82.0791 115.167 81.9285 115.049 81.7348 114.372C82.7989 114.726 84.1116 114.291 84.7039 113.455C85.5695 113.234 86.4303 112.868 87.0201 112.253L86.4223 111.134C87.6235 109.417 86.2685 109.51 87.3286 107.669C88.3496 107.468 87.8554 107.966 88.4875 107.481C87.1668 106.237 83.5728 104.975 83.5401 104.954C84.3882 104.352 84.0072 104.42 85.0171 104.332L85.5447 103.815L86.3968 103.539L86.3617 103.014C86.2501 101.908 86.2175 102.474 86.5833 102.359L87.036 101.195C87.9718 101.679 86.9125 101.685 88.3687 101.897L88.8749 100.269L89.8162 101.079L91.164 100.871C91.7491 99.2482 91.2413 100.376 91.223 98.8566L91.8152 98.1382C92.8482 98.5897 94.1227 98.5354 95.2521 98.4195C97.68 98.1694 96.6868 97.8393 98.01 96.675C99.7021 96.6766 99.1832 97.8761 101.288 97.9336C103 97.9784 104.045 99.1395 105.21 97.7754C105.333 96.5631 105.279 96.6374 104.288 96.094C101.589 94.618 102.046 93.6008 98.4882 93.4785L97.4823 92.1831C97.1324 91.6085 97.7278 91.6685 96.9515 91.7716L96.796 90.7167C98.0929 89.9991 98.6309 90.6032 99.8448 90.7055C100.887 88.8803 101.3 89.2351 102.34 87.8662C102.425 87.0399 102.161 86.952 102.242 86.5541C102.391 85.83 102.745 86.467 102.756 85.4289C102.76 85.1044 102.618 82.5049 102.574 82.3682L101.665 82.8765C100.921 81.5987 101.61 80.7268 102.343 79.7359L105.322 79.0367C105.12 78.1201 105.064 78.4877 104.395 77.9746C105.341 75.9337 104.652 75.5813 105.227 74.3154C106.356 71.8302 105.72 72.7316 105.35 70.6155C106.095 69.3137 107.037 69.989 108.353 69.0907C108.489 68.1246 108.22 67.232 107.039 67.4374C105.477 67.7075 106.376 68.5369 105.61 69.3057C105.191 68.8958 105.102 67.5237 105.631 66.8772C105.03 66.6622 104.765 66.5224 104.554 66.3026C104.628 66.1595 104.725 65.9957 104.854 65.8031C105.39 65 105.423 64.6452 105.509 63.6815C104.936 63.0813 104.531 62.9375 104.32 62.5563C104.377 61.9545 104.361 61.3872 104.191 60.982C104.31 60.031 104.806 59.1296 104.535 58.2562C103.965 58.5982 104.215 59.6475 104.043 60.7215C104.033 60.7087 104.021 60.6951 104.012 60.6831C102.907 59.3989 100.159 59.5436 99.8886 60.4066L98.4643 60.5832C98.3073 60.2061 98.2252 59.928 98.1885 59.7074L98.6986 59.5875C98.5671 58.9922 98.497 58.9386 98.281 58.834C98.3352 58.6406 98.3862 58.4168 98.3774 58.0748C97.9374 58.3473 97.939 58.4839 97.9151 58.6294C97.8705 58.599 97.8227 58.5646 97.7708 58.5263C98.7162 56.4845 98.0267 56.1321 98.603 54.8663C99.5738 52.7302 99.2398 53.097 98.8923 51.8967C99.129 51.7705 99.3227 51.6282 99.451 51.4724C99.2829 51.4045 99.0437 51.3701 98.764 51.3645C98.7512 51.3014 98.7385 51.2359 98.7265 51.1663C99.471 49.8646 100.413 50.5398 101.729 49.6416C101.865 48.6763 101.596 47.7828 100.415 47.9882C98.8533 48.2583 99.7523 49.0878 98.9856 49.8574C98.7441 49.6192 98.6117 49.0598 98.646 48.5052C98.7767 48.3934 98.8349 48.2255 99.5897 47.8412C100.421 47.4176 103.252 46.732 105.031 46.2589L105.026 46.2741C105.754 46.565 105.675 46.7575 105.855 46.0319C105.93 46.0104 106 45.9896 106.064 45.9704C108.051 45.3543 110.214 44.5831 112.219 44.0189C113.879 43.5523 118.145 43.1958 118.992 41.9836C117.272 40.8608 109.719 44.0589 106.865 44.7014C105.041 45.1121 103.176 45.7858 101.3 46.4035C101.291 46.1023 101.26 46.0559 100.769 46.0887L101.087 46.4739C100.233 46.7528 99.3769 47.0173 98.5201 47.2386C97.8362 46.9366 97.8258 46.7024 97.1954 45.8266C97.3914 44.7453 98.163 42.1354 97.3875 41.234C96.8351 40.5923 95.8722 40.307 95.013 40.291C95.2808 40.0353 95.5694 39.7572 95.8754 39.4615C96.4087 39.5542 96.4565 39.4823 97.0965 39.0556C97.2002 38.7271 97.2105 38.445 97.1531 38.2173C99.1011 36.309 101.36 34.0355 102.931 32.3021L103.073 32.975C103.431 32.3149 103.426 32.3757 103.09 32.1263C104.206 30.8837 104.933 29.9471 104.875 29.677C103.987 29.8368 100.16 34.1937 96.7227 37.6707C96.3266 37.4773 95.732 37.5804 95.1589 38.0654L95.284 39.0923C94.7285 39.6229 94.2 40.108 93.7114 40.522C93.5297 40.6099 93.3918 40.7201 93.3145 40.8504C93.2627 40.8912 93.2125 40.9311 93.1615 40.9703L91.8407 41.1341C91.2055 39.6038 91.7801 39.7148 91.753 38.6256C90.8412 39.189 91.8288 39.173 90.5423 39.8587C89.8808 39.0795 90.3287 39.4559 90.1167 38.4386L88.1392 38.1526L87.9583 37.3366C86.7914 37.4637 87.3485 37.912 86.2478 37.4821C86.0868 36.3114 86.4917 37.0378 86.6248 35.8535L86.667 34.8625L88.0714 34.5445L88.0627 34.4782C89.11 34.7115 90.1988 33.9739 90.5136 32.9742C91.4573 32.8416 92.4401 32.4939 92.8275 32.0233C92.3851 31.8442 91.4549 31.9002 90.5782 32.0936C90.5112 31.6884 90.3064 31.2737 89.9206 30.8869C88.9259 29.888 87.7287 30.0678 87.005 30.7654L86.8551 30.4626C86.2406 29.5468 86.6511 30.1165 86.8376 30.039C88.1982 29.9503 89.1076 29.6315 90.3957 29.4309C92.8323 29.0529 91.4 29.1903 92.9662 28.392C93.9904 27.8702 98.0546 26.9496 99.4399 26.5205C101.426 25.9051 103.589 25.134 105.596 24.5698C107.254 24.1031 111.522 23.7467 112.368 22.5344C110.647 21.4116 103.094 24.6098 100.241 25.2523C96.4557 26.1049 92.4951 28.0908 88.623 28.3561L90.1964 26.2032L89.4543 25.6095C88.7944 26.3806 89.1212 26.5788 88.0914 26.0977C88.6397 25.5679 88.5808 25.7541 89.4543 25.6095L89.0255 25.1196C89.1817 24.7208 89.216 24.2358 89.3778 24.008C88.1647 24.2629 87.7104 23.0459 86.7132 22.4154C88.0714 21.2055 98.4651 11.2212 98.2515 10.2279C96.7857 10.4924 87.315 22.1836 84.8035 22.4961C84.0104 21.7952 83.9738 20.7604 82.6626 20.9705C81.4909 21.1575 81.1506 22.3338 81.4168 23.3391C82.3956 23.8274 82.7024 23.4814 83.4875 24.4188C83.1631 25.7821 78.7219 28.7404 78.7211 28.7404C75.6987 28.0572 78.8853 25.4137 78.6669 24.0679C77.6164 24.4699 77.0816 29.2087 74.3947 27.3915C72.5774 26.1633 73.1911 20.921 72.0282 19.8302C71.5675 20.9713 72.5407 22.9332 72.5662 24.2669L71.2758 25.3346L70.8366 25.3529L70.9841 24.402L70.0212 25.1164C69.48 24.3708 69.7128 24.2573 69.0185 23.9665L69.6299 25.6246L69.2975 26.4613C68.2565 26.5476 68.3849 26.4733 67.6715 25.8796C66.6401 25.0189 66.6202 25.6582 66.2711 24.7424L65.8072 23.984L65.6517 23.7299C66.0558 22.5816 65.9777 23.5533 65.6741 22.6199C64.6905 22.3123 65.2484 22.2331 64.2784 22.91C63.8424 21.9814 64.1852 22.2747 63.2414 22.1788L62.7919 23.2608L61.3181 22.9939L60.8646 23.7851L60.9459 24.2725C60.0181 23.6436 60.5235 24.3604 59.6467 23.9824C59.4068 23.8786 58.416 23.0131 58.1411 22.7877C57.1551 21.9806 56.0647 20.7628 54.9138 20.3208C54.4284 19.7103 54.088 19.5121 53.5468 19.0071C52.6142 18.1368 52.9817 17.997 52.3512 16.9805C50.8432 16.4091 51.2154 17.0093 49.7217 15.7818C49.1319 15.2967 48.2926 14.2714 47.6278 14.1867L50.5554 16.9062C50.2255 18.7138 50.1505 17.8835 51.0161 19.3507L51.2832 19.9189C50.1258 20.6093 50.5961 19.8541 49.6978 21.0257L49.583 23.2928L48.0439 23.8746L48.515 23.0243C47.8909 22.1972 48.2216 22.7806 47.0874 22.7086L46.2872 21.5107L45.5507 21.5859L45.1585 21.5755L44.9067 20.8954C44.6484 20.1426 44.4986 19.2172 43.5357 19.1062C42.2716 18.9591 42.3521 19.6703 41.6969 20.344L41.4116 20.4087C39.4468 18.9375 39.7545 16.3476 39.6445 16.1542C38.4433 14.8748 38.4425 15.5916 37.2103 14.9115L36.9297 11.8405L35.0957 10.9399L32.8153 13.2182L32.9253 14.3074L31.2833 14.7693L31.583 16.0927L32.0198 15.0898C33.7805 15.5469 33.1277 15.6667 34.1065 16.6656C36.1988 16.656 35.7517 15.7147 36.8771 15.5836L37.4908 17.5567L36.4555 17.9426L35.9286 19.2852C35.0247 19.0007 35.1586 19.1605 35.2559 18.3989L34.4987 18.538L35.0957 19.0007C33.9551 19.6616 34.6597 18.7657 33.7598 19.9397C34.8167 21.3317 34.572 19.6312 35.2439 20.8443L34.1687 21.231C32.5196 22.3434 33.284 21.3533 32.3689 23.0267L31.8501 23.6756L32.463 24.589L31.9266 25.0653C31.7982 25.0557 29.9036 24.2142 29.6836 24.0671C28.6562 23.3783 28.7296 22.365 27.3459 22.6031C27.675 24.0999 29.219 23.8186 29.7123 24.7288C30.1412 25.822 29.8606 25.6926 29.4015 26.6395L29.5513 27.3651C30.668 28.9314 30.6648 27.3907 32.2095 28.5958L33.0695 29.2687L33.8985 31.006L31.8054 31.7148C31.3367 30.3635 30.4448 29.9199 29.3688 29.2127L29.0061 30.1637C28.0369 29.2846 29.3736 29.7761 28.0584 28.6965L26.996 29.2854C25.7175 29.0177 25.3644 29.1792 24.5322 30.1501C24.7052 31.0379 25.1356 31.7987 24.3856 32.6506C23.83 33.2819 22.3611 33.4833 22.2806 34.1873L21.2284 34.7491C20.2847 34.5717 19.7539 34.1921 18.7209 34.6228L18.0139 35.7568L16.7346 37.0585C17.5644 37.6299 17.0335 37.387 17.3691 38.4594L17.2766 39.0955L17.9445 39.2058C17.9302 39.9098 17.7134 39.6941 17.7421 39.8619C17.8672 40.5963 18.2921 38.7207 17.8282 41.6559C17.6544 42.7659 18.1789 42.4087 17.613 42.4503L17.0526 43.1407L17.0391 43.6545C17.0399 43.6961 17.0415 43.7352 17.0439 43.7728C16.3903 43.808 15.9742 43.8271 15.5414 44.4401C14.5483 45.7371 14.9237 44.7629 14.1298 45.3367L14.8663 46.1878L16.3185 46.2869C16.5114 46.3372 16.6868 46.3636 16.8446 46.3684C16.4899 47.0964 16.6836 47.2043 16.4158 47.5926C15.9136 48.3206 15.8276 47.7213 15.3621 48.8297L15.6801 48.9519C15.4641 49.1453 15.3206 49.5065 15.3716 50.0124C16.2237 50.4343 15.9742 50.4327 16.6677 50.0132L16.7904 50.1019L16.4931 50.8275C17.0957 51.4748 16.9147 50.71 17.2965 51.824L17.6696 53.0635C18.9704 53.5629 19.5347 53.1801 20.4122 54.5418C19.9428 55.9947 19.5857 55.3665 18.638 56.387C18.8245 57.4698 18.752 56.9536 19.4016 57.7751L19.5602 58.3217L19.765 58.9594C19.2047 58.8931 18.5918 59.0809 18.0928 59.5156C18.0896 59.4357 17.9613 59.4309 17.6496 59.1504C17.5125 59.8241 17.4201 59.5947 17.7548 59.8736C17.5149 60.1805 17.3228 60.5625 17.2073 61.018C17.3005 61.2137 17.4065 61.3864 17.5189 61.5406C17.2718 61.3912 17.0263 61.1794 16.1846 61.2098C15.6195 62.1327 15.2226 62.3621 15.5773 63.3946C17.0407 63.2571 15.8849 63.5128 16.9155 62.7305C17.02 63.5616 16.8239 63.2963 16.9044 63.9739L17.6927 65.6793L17.7469 65.6529L19.2167 66.3066L19.6471 66.9595L20.5119 67.0913C21.6118 66.8923 21.7027 66.5903 22.3355 66.4424L23.0043 67.0929C22.5332 67.741 22.44 67.1976 21.9856 68.2788L23.1167 68.7144C23.1493 68.807 23.1812 68.8886 23.2131 68.9613L23.1525 69.3624L23.414 69.551L23.1159 70.2766C23.6077 70.8041 23.5782 70.3941 23.7575 70.8272C22.8441 70.888 21.8007 70.1592 20.2815 70.7441C17.3914 69.1363 19.3761 74.0517 16.3201 72.1394L15.6506 72.4039C14.0708 72.7795 13.8413 73.1543 12.397 73.6689C10.7686 74.2491 11.042 75.5533 11.313 76.9246L10.5534 77.4384C9.28211 77.5727 8.82779 77.6933 8.35911 78.9552C8.53447 80.5654 8.92821 80.3057 10.1087 81.1727L11.4892 82.357L11.2046 83.0954L11.8056 83.4423L9.73404 84.0848C8.69069 84.386 8.78872 83.8114 7.77168 83.869C9.10675 84.4428 9.99228 84.5458 9.40166 86.9624C10.8571 87.8622 12.46 87.6361 13.2873 88.1755C14.1505 88.7389 14.4088 88.611 15.4657 88.5527C16.6756 88.4855 16.1344 88.5822 16.4684 87.8518L17.4041 87.8622C18.206 89.5963 17.7684 88.9962 17.4727 90.6128C18.528 92.3413 19.2884 92.6146 21.0563 91.9969L21.1631 92.1887C20.4537 92.462 20.0392 92.7553 19.0206 93.1181C17.393 93.6982 17.6664 95.0024 17.9366 96.3737L17.177 96.8876C15.9057 97.0218 15.4521 97.1425 14.9819 98.4043C15.158 100.014 15.5526 99.7548 16.7338 100.622L18.1127 101.806L17.8298 102.545L18.4292 102.891L16.3576 103.534C15.3151 103.835 15.4123 103.261 14.3944 103.317C15.7303 103.892 16.6158 103.995 16.0252 106.411C17.4799 107.311 19.0843 107.085 19.9117 107.625C20.7741 108.188 21.0332 108.06 22.0901 108.001C23.2992 107.935 22.7588 108.031 23.0928 107.301L24.0293 107.311C24.8295 109.045 24.392 108.445 24.097 110.063C25.1524 111.79 25.9127 112.064 27.6806 111.446L28.1318 112.256L28.5717 111.444L28.8324 112.172L29.4589 113.891C33.7877 115.249 32.4813 111.663 34.7442 111.13L35.6074 110.938L36.1231 111.667L35.1379 112.14L33.7829 113.95C33.5023 115.243 33.3979 115.419 34.4811 116.249L35.0981 116.987C35.6106 117.468 35.6807 117.28 36.0274 117.622C36.5774 118.164 35.6711 117.813 36.8723 118.576C37.5594 118.011 37.3011 117.973 38.0153 117.479C38.6027 117.073 37.9675 117.619 38.2743 116.709C41.076 116.832 39.5504 115.506 40.8967 116.481L41.842 115.527L43.1779 116.5L43.6975 115.512L45.2335 115.231C48.4903 115.899 49.3463 113.101 49.5527 112.805L51.5637 112.954L51.9351 111.603C50.3857 109.773 50.5164 109.853 48.6194 110.306L48.9693 108.74C50.0549 108.978 49.6396 109.074 50.9603 109.094C51.4689 110.117 51.1381 110.055 52.1631 110.72C56.3493 113.436 55.5299 110.995 58.4376 112.107L59.5773 110.374L59.9846 110.37L60.4812 111.763L61.5644 111.504L63.0661 112.61L62.1646 113.016L62.7146 114.59C63.2669 115.323 63.1681 115.425 64.0791 115.481L64.3525 114.762L64.3709 114.49L65.1305 114.482ZM69.7375 112.953L69.0608 112.492C69.0663 112.484 69.0711 112.474 69.0759 112.465C70.0619 111.9 69.4689 112.379 69.8331 111.454C70.0164 110.449 69.8658 110.66 70.6501 110.097L70.9769 110.8L72.139 110.671C72.3686 111.521 72.3 111.641 72.19 111.814C71.483 111.473 70.4859 111.84 69.649 112.391L69.7375 112.953ZM36.3359 45.5301C36.2506 45.6707 36.1438 45.8433 36.025 46.0879L36.0952 46.4275C35.9868 46.3915 35.8712 46.354 35.7493 46.3164L35.6193 47.0596C35.102 46.4803 35.232 46.8558 35.7493 46.3164L34.9634 46.0008C35.0981 45.6436 35.7238 45.5221 36.3359 45.5301ZM34.2795 48.3686L33.6203 48.7346C33.2417 48.6563 32.9444 48.6139 32.6933 48.6195C32.612 48.164 33.1285 48.2271 33.7375 47.5351L32.9787 46.7839C33.6315 46.195 33.4776 46.2909 34.2771 46.2437L34.7609 47.9147C34.6055 48.0505 34.4445 48.2096 34.2795 48.3686ZM24.2357 58.5998L24.5689 58.6549C24.5641 58.8891 24.5362 59.0209 24.5036 59.0993C24.4238 59.0977 24.3107 59.0961 24.1489 59.1184C24.1704 58.8643 24.1783 58.6901 24.2357 58.5998ZM23.9177 71.2652L23.9201 71.2732L24.2246 72.2841L24.2254 72.3528L22.8544 71.9492C23.5718 71.4346 23.3797 71.3579 23.9177 71.2652ZM9.59695 38.2852C9.54593 38.2972 9.32674 39.0508 9.73563 38.7351C10.0832 38.4674 9.63042 38.278 9.59695 38.2852ZM80.1901 133.961C80.1112 133.98 79.8282 134.783 80.2555 134.461C80.6365 134.175 80.1957 133.961 80.1901 133.961ZM107.392 65.537L107.937 66.1939C107.893 65.5858 108.031 65.4955 107.392 65.537ZM110.817 96.5415C111.373 96.464 111.14 96.7126 111.197 96.1524C111.157 96.1572 110.823 95.5562 110.817 96.5415ZM33.4976 124.767C34.0332 124.909 33.8403 125.054 34.0707 124.521C33.6522 124.397 33.7247 124.17 33.4976 124.767ZM109.523 90.4946L109.287 91.1866C110.282 91.0252 109.901 90.99 109.523 90.4946ZM110.998 62.1359C111.564 62.0337 111.53 62.3485 111.354 61.5957C110.834 61.6932 110.816 61.3992 110.998 62.1359ZM61.3923 119.269C61.2599 120.031 61.0798 119.671 61.6896 120.187C61.9637 119.384 61.9566 119.886 61.3923 119.269ZM58.5643 114.783C58.6838 115.4 58.4758 115.482 59.2474 115.431C59.1701 114.973 59.2585 114.78 58.5643 114.783ZM99.4423 101.387C100.205 101.675 100.249 101.601 100.109 100.882C99.5642 100.897 99.6694 100.488 99.4423 101.387ZM100.436 31.0891C101.258 30.9716 101.031 31.0211 100.933 30.3203C100.552 30.4098 101.052 29.705 100.505 30.5153C100.144 31.0507 100.378 30.7894 100.436 31.0891ZM16.5513 69.2474C17.275 69.5143 17.2949 69.4631 17.7772 68.9341C17.1411 68.66 17.0885 68.7311 16.5513 69.2474ZM97.9589 98.7256C98.2618 99.3057 98.6723 99.4432 99.2837 99.3505C98.8628 98.8646 98.5647 98.6584 97.9589 98.7256ZM91.0883 34.7259C91.7355 35.2917 92.0472 35.0895 91.8359 34.2512C91.1297 34.2384 91.3338 34.073 91.0883 34.7259ZM111.651 65.7232C112.422 66.0317 112.287 66.2299 112.514 65.338C111.758 64.9097 111.892 64.9057 111.651 65.7232ZM70.0172 119.811C69.9822 120.769 70.1129 120.656 70.8398 120.316C70.7123 119.767 70.7776 119.513 70.0172 119.811ZM28.7248 117.095C29.2253 117.659 29.2142 117.701 29.796 117.042C29.093 116.282 29.1353 116.548 28.7248 117.095ZM74.7964 114.036C75.332 115.001 75.8764 114.654 75.6628 113.736C74.8594 113.643 75.3607 113.441 74.7964 114.036ZM88.6955 126.033L87.9288 126.705C88.5999 127.358 88.2245 127.237 89.0112 126.99L88.6955 126.033ZM88.8605 102.522C88.4851 103.583 89.0797 102.92 89.3021 104.112L89.9102 103.46C89.385 102.749 89.5388 102.712 88.8605 102.522ZM86.5937 106.018C87.4553 106.424 87.7215 106.406 87.6753 105.363C86.8304 104.928 86.6598 105.103 86.5937 106.018ZM115.477 89.4014C114.468 89.4349 114.394 89.4693 114.608 90.4146C115.408 90.7343 115.161 90.7535 115.741 90.1813L115.477 89.4014ZM57.3759 112.292C57.0642 113.075 57.2404 113.692 58.0231 114.095C58.5954 113.428 58.0765 112.593 57.3759 112.292ZM111.238 70.0817C110.558 70.6714 110.548 71.055 110.912 71.8613C111.97 71.632 111.88 70.7945 111.238 70.0817ZM88.5497 109.38C88.6812 110.091 89.8018 110.501 90.4602 110.328C90.363 109.357 89.326 109.041 88.5497 109.38ZM114.337 82.1732C113.675 82.8038 113.766 82.7686 114.171 83.5326L115.192 83.3959C115.238 82.5305 115.354 82.242 114.337 82.1732ZM21.0746 110.413C21.8071 111.048 21.8788 111.034 22.5252 110.31C22.3124 108.966 21.0762 109.177 21.0746 110.413ZM103.64 90.047C104.021 91.2849 104.773 91.2226 105.219 90.1214C104.644 89.1992 104.334 89.2791 103.64 90.047ZM14.8209 102.547L16.2843 102.778L16.2341 101.144C14.8647 101.478 14.8512 102.004 14.8209 102.547ZM11.8757 70.1823C12.837 70.542 13.5217 70.2391 13.8341 69.2498C12.9047 68.5457 11.9459 69.0716 11.8757 70.1823ZM115.177 61.6844C115.596 63.2731 117.494 62.7129 116.787 61.1346C115.792 60.9668 115.822 60.8877 115.177 61.6844ZM80.1582 101.463L81.4032 100.862L81.7117 102.125C80.5854 102.053 81.3682 102.033 81.2032 102.481C80.4635 102.193 80.3105 102.256 80.1582 101.463ZM101.783 57.5146L101.94 58.8036C103.05 59.0162 102.907 59.0465 103.72 58.5047C104.162 57.1046 102.93 56.5429 101.783 57.5146ZM116.727 70.9263C115.69 69.6318 113.793 71.031 114.712 72.3568C115.479 73.4668 117.866 72.348 116.727 70.9263ZM76.2726 131.84L76.4822 133.171C77.4562 133.412 78.7466 132.799 79.6098 132.398C79.1635 130.597 77.5351 131.009 76.2726 131.84ZM120.974 56.6795C119.753 54.9582 118.021 56.0426 118.347 57.2717C118.661 58.4632 121.006 58.9786 120.974 56.6795ZM18.2841 115.292L20.0105 116.93C23.7966 114.807 20.4122 111.923 18.2841 115.292ZM91.5562 114.325C90.5256 111.745 86.6742 113.051 87.7414 115.339C88.7577 117.516 92.4441 116.548 91.5562 114.325ZM75.0052 128.148C71.7771 127.54 71.0287 130.011 73.1298 132.124C74.9757 133.981 77.335 131.335 75.0052 128.148ZM6.63428 40.9895C7.42177 42.0779 9.08444 42.2952 10.225 42.8107C12.1571 43.6833 12.2806 44.6558 14.5539 43.4699C14.3777 43.1519 14.1761 42.8978 13.9545 42.6892C14.5092 42.2944 14.8392 41.6447 14.6567 40.9223C14.1513 38.9189 11.5466 39.058 10.7168 41.1549C10.6267 41.1069 10.5367 41.0558 10.449 41.0014C9.29088 40.2798 6.74507 38.1222 6.63428 40.9895ZM86.7794 131.276C86.8798 135.014 91.1258 134.306 91.6 132.31C92.0735 130.323 88.6071 128.531 86.7794 131.276ZM19.8926 97.363L21.2954 98.3164L21.9848 98.3739L21.0754 99.5487C20.4035 98.704 20.9558 99.241 20.641 98.4554C20.4768 98.0471 20.1915 97.7906 19.8926 97.363ZM109.734 81.9015L108.404 81.5539C107.473 82.2644 107.897 82.2268 107.485 82.7063C106.747 83.5621 106.783 82.8062 105.94 83.8043C105.962 85.2667 106.802 85.2451 107.962 85.8173L107.372 86.6116C107.742 87.4611 107.875 88.3034 108.788 88.5886C109.619 88.8492 110.674 88.5295 111.004 87.6936C111.471 86.5093 110.403 86.8609 111.477 85.2523C112.014 84.4492 112.047 84.0943 112.131 83.1306C111.153 82.1053 110.666 82.4114 110.8 80.5958C110.874 79.5833 111.445 78.6291 111.159 77.7061C110.264 78.2423 111.39 80.5183 109.734 81.9015ZM24.1536 107.131C23.3861 106.574 23.0314 106.728 22.9142 105.799L23.8539 105.639L24.93 105.605L25.0264 106.658L24.1536 107.131ZM25.8968 104.053L25.2265 102.754L26.0371 102.502L26.1822 101.281C26.5034 102.669 26.6947 102.838 25.8968 104.053ZM26.4372 98.2229C25.2839 98.1438 25.8506 98.4642 25.1085 97.5285L26.2348 96.9683L26.4372 98.2229ZM39.3854 112.32C39.4875 112.298 39.8007 112.554 39.4739 112.791C39.0523 113.099 39.3121 112.335 39.3854 112.32ZM39.984 110.668C39.9569 111.14 40.5069 110.892 39.5568 111.151C39.5863 109.995 39.9378 110.679 39.984 110.668ZM41.3749 106.109L40.2463 105.88L40.8337 105.011L41.3749 106.109ZM41.6618 108.449C43.1101 108.242 41.9902 109.04 43.079 110.382C42.0516 110.657 41.7009 109.296 41.6618 108.449ZM42.6024 105.336L42.105 105.508L42.6024 105.336ZM30.1946 106.463C31.2674 106.339 31.0267 106.082 31.5248 106.945C30.8888 107.663 31.5025 107.245 30.4177 107.546L30.1946 106.463ZM99.4024 62.8376C99.9396 63.2851 100.062 63.536 99.8767 63.8429C99.7906 63.8892 99.6918 63.9619 99.569 64.081C98.9744 63.4857 98.9537 63.7829 99.4024 62.8376ZM102.852 72.0587C102.92 72.0435 103.253 72.2825 102.985 72.5142C102.631 72.8195 102.819 72.0659 102.852 72.0587ZM11.6813 68.0798L11.914 68.636L11.6813 68.0798ZM43.9693 15.7858C43.943 15.7906 43.8378 16.2509 44.1295 16.0479C44.395 15.8633 43.9693 15.7858 43.9693 15.7858ZM48.9454 0.0102348C48.888 0.0206236 48.68 0.639148 48.9844 0.413794C49.2427 0.221204 48.9709 0.00464093 48.9454 0.0102348ZM20.5039 69.2857C20.4864 69.2889 20.3166 69.9794 20.6163 69.7157C20.8179 69.5382 20.6067 69.2641 20.5039 69.2857ZM100.464 45.2856L100.993 45.3295C100.69 45.025 100.988 44.671 100.464 45.2856ZM107.614 38.9605L108.11 38.6552C107.54 38.64 107.646 38.2157 107.614 38.9605ZM55.1114 9.54701L55.6901 9.5582C55.2963 9.23935 55.6415 8.87015 55.1114 9.54701ZM66.723 15.2128L66.7644 15.952C67.2108 15.2096 67.249 15.7738 66.723 15.2128ZM24.3577 14.5296C24.3178 14.5384 24.0955 15.2775 24.4749 14.9699C24.7522 14.7453 24.4414 14.5104 24.3577 14.5296ZM31.0386 12.459L31.5384 12.9433C31.3575 11.8733 31.3965 12.4215 31.0386 12.459ZM108.384 55.8588L108.887 55.3386C108.367 55.4153 108.338 55.0741 108.384 55.8588ZM2.97338 18.8369C2.92237 18.848 2.70318 19.6016 3.11127 19.2868C3.46039 19.0183 3.00606 18.8289 2.97338 18.8369ZM23.7591 22.8341L23.4275 23.4095C24.1552 23.2976 24.0317 23.4214 23.7591 22.8341ZM43.2743 17.5918C43.0583 18.2855 42.9077 17.7732 43.4353 18.2048C43.7207 17.5583 43.7741 18.1009 43.2743 17.5918ZM104.374 42.6868C104.94 42.5845 104.905 42.8994 104.73 42.1466C104.21 42.2441 104.191 41.9492 104.374 42.6868ZM79.8976 25.4249C80.666 25.6694 80.6062 25.7805 80.4133 24.9654C79.9119 25.0581 80.1192 24.6329 79.8976 25.4249ZM25.578 24.1686C25.6968 24.8207 25.4879 24.8223 26.2403 24.8511C26.1064 24.1343 26.2268 24.2174 25.578 24.1686ZM93.8127 11.6399C94.6344 11.5233 94.4073 11.572 94.3084 10.8704C93.929 10.9615 94.428 10.2558 93.8812 11.0662C93.5193 11.6024 93.7537 11.3403 93.8127 11.6399ZM76.31 23.2544C75.6915 23.9297 75.7967 23.4902 76.0358 24.2581C76.7357 23.9369 76.7093 23.9361 76.31 23.2544ZM9.92693 49.7982C10.6523 50.0659 10.6698 50.014 11.1536 49.4842C10.5168 49.2109 10.4649 49.282 9.92693 49.7982ZM84.4647 15.2768C85.1112 15.8425 85.4236 15.6412 85.2124 14.8021C84.5062 14.7893 84.7094 14.6239 84.4647 15.2768ZM56.8713 27.1757L55.6463 27.6728L55.8184 26.7818L56.8713 27.1757ZM44.2969 14.7749L45.1012 15.236L45.2239 14.2235C44.324 14.2499 44.5743 14.0461 44.2969 14.7749ZM77.0927 16.3764C77.8213 16.7551 77.9033 16.8247 78.1178 15.9696C77.4203 15.5493 77.3135 15.5341 77.0927 16.3764ZM47.8964 3.32261C48.7278 3.67103 48.499 3.69021 48.8465 2.93584C48.1937 2.34289 47.8885 2.28615 47.8964 3.32261ZM108.852 69.953C107.845 69.9858 107.77 70.0209 107.984 70.9647C108.784 71.2867 108.536 71.3043 109.118 70.7329L108.852 69.953ZM104.614 50.6333C103.935 51.2223 103.923 51.6059 104.288 52.4122C105.347 52.1844 105.256 51.3453 104.614 50.6333ZM107.713 62.7249C107.051 63.3546 107.143 63.3187 107.548 64.0842L108.568 63.9476C108.615 63.0805 108.73 62.7928 107.713 62.7249ZM14.451 90.9628C15.1827 91.5997 15.2553 91.5846 15.9001 90.8613C15.6881 89.5164 14.4526 89.729 14.451 90.9628ZM10.2705 56.18C10.5024 56.8817 12.0208 57.9589 12.7684 57.8462C12.3596 57.1062 11.156 55.9523 10.2705 56.18ZM8.74808 30.5632C9.65673 31.0132 9.31319 30.9812 10.1963 30.4745C10.1461 28.8347 8.59505 29.0713 8.74808 30.5632ZM8.19651 83.0978L9.65991 83.3288L9.61049 81.6954C8.24115 82.0286 8.2268 82.556 8.19651 83.0978ZM5.25217 50.7332C6.21263 51.0936 6.89651 50.7891 7.21135 49.7998C6.28118 49.0966 5.32311 49.6224 5.25217 50.7332ZM8.91785 24.9909C7.92551 26.2887 8.29933 25.3138 7.50626 25.8884L8.24194 26.7386L9.69419 26.8377C11.0109 27.1805 11.4366 26.4134 11.7092 25.2546L10.8443 24.2957C9.93171 24.3756 9.43833 24.2549 8.91785 24.9909ZM84.8226 29.8944L85.8612 29.8296L85.2658 30.572L84.8226 29.8944ZM108.553 42.2369C108.973 43.8248 110.87 43.2638 110.164 41.6847C109.169 41.5177 109.198 41.4378 108.553 42.2369ZM24.2493 26.6555C23.3685 26.0626 23.2753 26.0706 22.4129 26.6835C21.8956 28.8883 24.8112 28.7892 24.2493 26.6555ZM14.0318 18.2279C13.9027 19.2404 13.7847 18.8576 14.4479 19.6632L15.7247 19.6144C16.1854 18.725 16.1926 18.7841 15.8028 17.9211C14.7643 17.6669 14.895 17.655 14.0318 18.2279ZM50.1115 28.1107L50.3394 29.136L49.866 29.5899L48.8497 28.5207L49.2084 28.0196L50.1115 28.1107ZM110.103 51.478C109.066 50.1826 107.17 51.5811 108.088 52.9076C108.856 54.0176 111.241 52.8988 110.103 51.478ZM114.35 37.2304C113.129 35.509 111.397 36.5943 111.723 37.8225C112.038 39.0148 114.382 39.5294 114.35 37.2304ZM11.6597 95.8431L13.3862 97.4813C17.1722 95.3588 13.7895 92.474 11.6597 95.8431ZM61.2352 27.2557C60.8311 26.5884 60.824 26.7155 61.0312 25.8884C61.6099 25.9123 62.1008 26.3215 62.2571 26.912C61.2384 27.139 61.8968 26.8945 61.1882 26.6395L61.2352 27.2557ZM83.2962 11.4377C81.3012 9.43514 78.49 12.1705 80.3256 14.325C82.1493 16.4643 85.3973 13.5466 83.2962 11.4377ZM0.00991727 21.5411C0.798209 22.6287 2.46088 22.8469 3.60147 23.3615C5.53354 24.235 5.65708 25.2067 7.9295 24.0216C6.97143 22.2907 5.245 22.4369 3.82465 21.5515C2.66731 20.8307 0.121505 18.673 0.00991727 21.5411ZM68.282 9.59576C67.697 10.7209 68.8057 13.8263 69.1628 15.1872C69.6091 16.8934 69.0472 18.753 69.6801 20.3536C70.1105 19.5529 69.645 18.6579 70.3018 18.1432C70.9115 19.3707 71.0678 21.3589 71.0032 22.7462L70.4333 23.1961L71.0168 23.5581C72.5033 22.3314 71.22 18.1792 70.8677 16.4587C70.5576 14.9467 70.0411 9.77636 68.282 9.59576ZM20.3262 32.7792C22.2088 28.6485 18.5463 28.8867 17.3579 27.9405C15.5574 26.5069 13.9545 28.4607 14.7396 29.6283C15.4179 30.6384 15.3382 29.4692 16.1886 31.5598C16.8534 33.1964 18.8516 33.488 20.3262 32.7792ZM13.2682 77.9147L14.671 78.8665L15.3605 78.9248L14.4526 80.0995C13.7791 79.2548 14.3315 79.7918 14.0166 79.0071C13.8532 78.5979 13.5679 78.3414 13.2682 77.9147ZM48.1531 25.4648C47.6398 26.3255 47.3465 26.1864 46.3948 26.4653L45.5244 26.0474L46.5948 25.8116C45.9229 25.2914 46.1708 25.7949 46.0202 25.0844C47.0069 24.5338 46.8451 24.6697 47.4453 25.5599L48.1531 25.4648ZM46.9551 27.163C47.9323 27.0527 47.7362 26.8529 48.4496 27.4171L47.8502 28.0076L46.8571 28.1435L46.9551 27.163ZM17.5301 87.6816C16.7625 87.1246 16.4078 87.2789 16.2899 86.3503L17.2304 86.1889L18.3056 86.1561L18.4021 87.2101L17.5301 87.6816ZM57.336 28.4504C57.4364 28.4296 57.8406 28.9482 57.4181 28.8547C56.9925 28.7588 57.332 28.4512 57.336 28.4504ZM58.0079 26.2264C58.1387 27.0215 57.6851 27.5218 57.1328 26.3926L58.0079 26.2264ZM55.7108 29.7322C55.604 28.2442 54.9608 29.5931 55.1481 28.2713C56.0631 28.2833 55.9061 28.4064 56.6386 29.0649L55.7108 29.7322ZM19.2732 84.6034L18.6021 83.3056L19.4127 83.0531L19.5578 81.832C19.8798 83.2209 20.0703 83.3887 19.2732 84.6034ZM19.8129 78.7738C18.6603 78.6946 19.227 79.0151 18.485 78.0793L19.6112 77.5199L19.8129 78.7738ZM22.766 75.5133L22.6488 73.8887C23.41 73.5938 23.1605 73.7249 23.9894 74.1652L23.8516 75.0322L22.766 75.5133ZM84.4352 27.8958C83.851 28.062 84.2527 28.253 83.8677 27.7152C84.3149 27.5809 84.0758 27.2365 84.4352 27.8958ZM82.3015 31.1858L82.327 32.9814L80.819 32.0864L82.3015 31.1858ZM36.6675 28.8651C37.4462 28.7356 37.1218 28.6949 37.1872 29.2423C36.2745 29.295 36.7719 29.1919 36.6675 28.8651ZM36.7607 22.7694C37.3107 23.6979 38.2162 24.3916 37.0381 24.5218C36.2315 23.5829 36.3072 23.7683 36.7607 22.7694ZM23.5702 87.0144C24.6438 86.8897 24.4023 86.6324 24.9013 87.4962C24.2644 88.2138 24.879 87.7959 23.7934 88.098L23.5702 87.0144ZM19.4988 65.2461C20.142 64.3823 20.1819 64.6532 20.629 65.2078C20.1404 65.6593 20.1954 65.6289 19.4988 65.2461ZM20.4808 51.6322C20.4003 52.1692 19.7913 52.6351 19.282 52.5256C19.5387 51.7401 19.816 51.6778 20.4808 51.6322ZM20.5446 48.5452C19.9699 47.9778 20.1237 48.3534 20.5772 47.7269C20.9271 48.3694 21.0874 48.0162 20.5446 48.5452ZM19.9539 40.701C20.205 41.4897 20.1444 41.4641 19.561 42.0123C19.0182 41.3507 19.2796 40.8648 19.9539 40.701ZM23.3199 53.153C23.414 53.813 23.4259 53.9705 22.656 53.6852C22.8951 52.7486 22.986 53.1833 23.3199 53.153ZM21.4923 46.0687C21.407 45.0898 21.5217 44.4664 22.444 44.1532C22.546 44.4057 22.9493 44.0333 22.9054 45.5748L21.4923 46.0687ZM20.413 37.2799C20.4226 37.2783 20.8124 37.4749 20.4433 37.7258C20.0289 38.0071 20.3325 37.2975 20.413 37.2799ZM23.4817 44.2115C24.2461 44.0165 24.5012 44.2555 24.3059 45.0059C23.4674 44.846 23.6818 44.9883 23.4817 44.2115ZM26.6564 44.8005L25.0966 44.0901C25.7007 42.9825 25.5955 43.9886 25.7685 42.5254L26.87 44.3306L26.6564 44.8005ZM24.8295 41.1613L25.0655 40.3198L24.3298 40.3989C25.0288 39.7156 25.0296 39.5398 25.6051 40.6466L24.8295 41.1613ZM49.705 30.2987C50.2526 30.3395 50.6878 30.6967 50.8535 31.1306C50.0676 31.3863 49.8453 31.1306 49.705 30.2987ZM57.5743 34.789C57.3862 33.8493 57.7186 34.2648 57.9195 34.2025C58.0311 34.7475 58.3459 34.5853 57.5743 34.789ZM57.9593 31.0347C58.3451 32.1287 58.8233 32.2854 58.8504 33.1644C58.0239 33.8772 57.5114 33.7645 56.5079 33.1492L57.2842 31.2928L57.9593 31.0347ZM81.0972 29.6059L80.6293 30.3035L80.1351 29.4429L81.0972 29.6059ZM96.2285 52.6096C96.2963 52.5944 96.6295 52.8333 96.3608 53.0651C96.0077 53.3703 96.1951 52.6167 96.2285 52.6096Z" fill="url(#paint0_linear_195:3970)"/>
<defs>
<linearGradient id="paint0_linear_195:3970" x1="120.974" y1="67.2736" x2="0.00991527" y2="67.2736" gradientUnits="userSpaceOnUse">
<stop stop-color="#444C71"/>
<stop offset="1" stop-color="#6572A6"/>
</linearGradient>
</defs>
</svg>
