<svg width="66" height="59" viewBox="0 0 66 59" fill="none" xmlns="http://www.w3.org/2000/svg">
<path fill-rule="evenodd" clip-rule="evenodd" d="M51.5816 38.4697L51.4976 38.2271L51.5816 38.4697ZM57.8197 24.4635C57.8298 24.5102 58.0935 24.6303 57.9927 24.4721C57.899 24.3252 57.8173 24.4511 57.8197 24.4635ZM61.8621 23.6827C61.866 23.6998 62.1293 23.7686 62.0145 23.6159C61.9183 23.4892 61.8582 23.6641 61.8621 23.6827ZM45.0416 10.3455C45.1514 10.0991 45.2037 10.1613 44.9615 10.1212L45.0416 10.3455ZM9.51314 31.905C9.51861 31.9322 9.821 32.034 9.71082 31.8856C9.61667 31.7589 9.51079 31.8918 9.51314 31.905ZM47.5162 6.20092C47.5224 6.23123 47.8291 6.3591 47.708 6.1846C47.6127 6.0474 47.5095 6.1706 47.5162 6.20092ZM31.6481 6.78389L31.6696 6.52583C31.5208 6.6739 31.3477 6.52855 31.6481 6.78389ZM28.5559 3.29732L28.4066 3.05597C28.3992 3.33347 28.1921 3.28178 28.5559 3.29732ZM57.4446 28.338L57.6747 28.1094C57.1887 28.1747 57.4309 28.1491 57.4446 28.338ZM36.8169 2.9215L36.5625 2.67665C36.6001 2.93005 36.4328 2.94404 36.8169 2.9215ZM55.969 27.2424L56.2206 27.1219L56.5023 26.4429C57.2497 26.4876 56.9113 26.7791 57.3157 26.3279C56.8226 26.1507 57.025 26.3737 56.6398 26.1363C56.2819 25.9155 56.5789 25.8899 55.9643 25.7309L55.6686 25.5234L55.6631 25.2731L55.2517 24.9913L55.5971 24.9369C55.6783 24.6104 55.5623 24.2113 55.4181 23.8568C55.6295 23.7884 55.7506 23.6524 56.0698 23.5564C56.8977 23.8281 56.4718 24.078 57.4009 23.7515C58.294 23.4375 58.0681 23.4795 58.7925 23.0947C60.1806 24.2925 59.9532 23.8771 60.1712 24.8988C60.8905 24.5549 60.181 24.0228 61.2202 23.4258C62.4313 22.7305 61.5757 22.8495 62.0383 21.7585C62.6438 21.4293 62.9439 21.4838 63.0505 20.7204C63.1349 20.1173 63.1994 19.6692 62.5614 19.3823C61.6038 19.4725 61.5398 20.1441 60.9987 20.7453C60.1868 20.5568 60.6224 20.64 59.9403 20.996C59.4113 21.2723 59.273 21.0683 58.7057 21.2203C59.2312 22.0593 58.6276 22.4445 57.7884 22.284L57.6388 21.9874L57.1164 21.3668L56.9992 21.9109L56.7472 21.5949L57.1164 21.3668L56.6093 21.3559C56.5496 22.029 56.625 22.118 57.2098 22.2879L57.2489 22.8938L55.426 22.633C54.8188 22.5082 55.0067 22.8184 54.434 22.4876C53.957 22.2125 54.032 22.235 53.4733 22.1219L53.4936 21.8258L54.3059 21.6112C54.4848 22.0038 54.2273 22.1627 54.9169 22.4414C55.3138 22.0317 55.8049 21.5145 55.9104 20.8868L56.2104 20.6843C56.9926 20.7068 57.0094 19.9342 56.7394 19.3695C56.3038 18.9781 56.2464 19.0516 55.9151 19.146C56.0882 18.6272 55.8756 17.9871 55.467 17.6983C55.3588 17.2762 55.1798 16.8565 54.8794 16.5689L54.332 16.8604C53.4928 16.2747 53.5382 16.9354 52.6384 16.4185C52.54 15.9206 52.7834 16.1616 52.5462 15.8534C51.9379 16.4974 51.321 18.2498 51.3109 18.2657C51.0167 17.8522 51.0499 18.038 51.0069 17.5456L50.7542 17.2883L50.619 16.8728L50.3623 16.8899C49.8216 16.9443 50.0986 16.9603 50.0423 16.7819L49.4731 16.5611C49.7099 16.1049 49.7126 16.6214 49.8165 15.9113L49.0207 15.6645L49.4165 15.2055L49.3149 14.5483C48.5214 14.263 49.0726 14.5106 48.33 14.5196L47.9787 14.2308C48.1995 13.7271 48.1729 13.1057 48.1163 12.5549C47.994 11.3711 47.8326 11.8554 47.2634 11.2102C47.2642 10.3851 47.8506 10.6381 47.8787 9.6117C47.9006 8.77688 48.4683 8.26736 47.8014 7.69955C47.2087 7.63931 47.245 7.66574 46.9794 8.14921C46.2578 9.46518 45.7604 9.24209 45.7007 10.977L45.0674 11.4675C44.7865 11.6381 44.8158 11.3478 44.8661 11.7263L44.3504 11.8021C43.9996 11.1698 44.295 10.9075 44.345 10.3155C43.4527 9.80719 43.6261 9.60587 42.9569 9.09907C42.5529 9.05749 42.5099 9.18613 42.3154 9.14649C41.9614 9.0742 42.2728 8.90125 41.7653 8.89581C41.6067 8.89425 40.3358 8.96343 40.269 8.98481L40.5174 9.42787C39.8927 9.79087 39.4665 9.45469 38.9821 9.09752L38.6402 7.64475C38.1921 7.74347 38.3718 7.77067 38.121 8.09675C37.1232 7.63581 36.9509 7.9716 36.332 7.69139C35.117 7.14067 35.5577 7.45081 34.5232 7.63115C33.8868 7.26815 34.2169 6.80838 33.7778 6.16672C33.3054 6.10065 32.869 6.23162 32.9694 6.8076C33.1015 7.56935 33.507 7.13096 33.8828 7.50445C33.6824 7.70849 33.0116 7.75202 32.6956 7.49395C32.5905 7.78738 32.5221 7.91641 32.4147 8.01941C32.3447 7.98326 32.2646 7.93585 32.1705 7.87289C31.7778 7.61171 31.6044 7.59578 31.1332 7.5538C30.8398 7.83324 30.7695 8.03068 30.5831 8.13328C30.2889 8.10569 30.0116 8.11346 29.8135 8.19624C29.3486 8.13833 28.9079 7.89659 28.4809 8.02835C28.6481 8.30662 29.161 8.18458 29.6861 8.26853C29.6799 8.27358 29.6732 8.27902 29.6674 8.28369C29.0395 8.82235 29.1102 10.1624 29.5322 10.2942L29.6185 10.9887C29.4341 11.0652 29.2982 11.1053 29.1903 11.1232L29.1317 10.8744C28.8407 10.9385 28.8145 10.9727 28.7633 11.0781C28.6688 11.0516 28.5594 11.0268 28.3922 11.031C28.5254 11.2456 28.5922 11.2448 28.6633 11.2565C28.6485 11.2782 28.6317 11.3015 28.6129 11.3268C27.6147 10.8659 27.4424 11.2021 26.8236 10.9211C25.7793 10.4477 25.9586 10.6105 25.3718 10.78C25.3101 10.6645 25.2405 10.5701 25.1643 10.5075C25.1311 10.5895 25.1143 10.7061 25.1116 10.8426C25.0807 10.8488 25.0487 10.855 25.0147 10.8608C24.3783 10.4978 24.7084 10.0384 24.2693 9.39678C23.7973 9.33071 23.3605 9.46168 23.461 10.0373C23.593 10.799 23.9985 10.3606 24.3748 10.7345C24.2583 10.8523 23.9849 10.9168 23.7137 10.9001C23.659 10.8363 23.577 10.808 23.3891 10.4399C23.182 10.0346 22.8468 8.65407 22.6155 7.78661L22.6229 7.78894C22.7651 7.4341 22.8593 7.47258 22.5046 7.38513C22.494 7.3486 22.4839 7.3144 22.4745 7.28292C22.1733 6.3144 21.7962 5.25961 21.5204 4.28177C21.2923 3.4726 21.118 1.39217 20.5254 0.979422C19.9764 1.81813 21.54 5.50096 21.8541 6.89232C22.0549 7.78194 22.3842 8.69138 22.6862 9.60587C22.5389 9.61015 22.5163 9.6253 22.5323 9.8651L22.7206 9.70964C22.857 10.1263 22.9863 10.5437 23.0945 10.9615C22.9468 11.2949 22.8323 11.3 22.4042 11.6074C21.8756 11.5118 20.5996 11.1356 20.1589 11.5137C19.8452 11.7831 19.7057 12.2526 19.6979 12.6715C19.5729 12.5409 19.4369 12.4003 19.2924 12.251C19.3377 11.991 19.3025 11.9677 19.0939 11.6556C18.9333 11.6051 18.7954 11.6 18.6841 11.628C17.7511 10.6782 16.6396 9.57672 15.7922 8.8107L16.1212 8.74152C15.7985 8.56701 15.8282 8.56934 15.7063 8.73335C15.0988 8.18925 14.6409 7.83441 14.5088 7.86278C14.587 8.29574 16.717 10.162 18.4168 11.8379C18.3223 12.031 18.3727 12.321 18.6098 12.6004L19.1119 12.5394C19.3713 12.8103 19.6084 13.068 19.8108 13.3062C19.8538 13.3948 19.9077 13.462 19.9714 13.4997C19.9913 13.525 20.0108 13.5495 20.03 13.5744L20.1101 14.2184C19.3619 14.5281 19.4162 14.2479 18.8837 14.2611C19.1591 14.7057 19.1513 14.2242 19.4865 14.8515C19.1056 15.174 19.2896 14.9556 18.7923 15.059L18.6524 16.0232L18.2535 16.1115C18.3156 16.6804 18.5348 16.4088 18.3246 16.9455C17.7523 17.024 18.1074 16.8266 17.5284 16.7617L17.044 16.7411L16.8885 16.0563L16.856 16.0605C16.9701 15.5499 16.6095 15.019 16.1208 14.8655C16.0559 14.4053 15.886 13.9261 15.6559 13.7372C15.5684 13.9529 15.5957 14.4065 15.6902 14.834C15.4922 14.8666 15.2894 14.9665 15.1003 15.1546C14.612 15.6396 14.6999 16.2234 15.0409 16.5763L14.8929 16.6494C14.4451 16.949 14.7237 16.7488 14.6858 16.6579C14.6424 15.9945 14.4865 15.551 14.3885 14.923C14.2037 13.7349 14.2709 14.4333 13.8806 13.6696C13.6255 13.1702 13.1754 11.1884 12.9656 10.513C12.6648 9.54446 12.2878 8.48967 12.012 7.51144C11.7838 6.70266 11.6095 4.62184 11.0169 4.20909C10.468 5.04819 12.0315 8.73102 12.3456 10.1224C12.7625 11.9681 13.7333 13.8993 13.863 15.7873L12.8105 15.0201L12.5202 15.382C12.8972 15.7038 12.9941 15.5444 12.7589 16.0466C12.4999 15.7792 12.5909 15.8079 12.5202 15.382L12.2807 15.5911C12.0858 15.5149 11.8486 15.4982 11.7373 15.4193C11.8619 16.0108 11.2669 16.2323 10.9587 16.7185C10.3672 16.0563 5.48597 10.9883 5.00034 11.0925C5.12966 11.8072 10.8454 16.4251 10.9981 17.6497C10.6555 18.0364 10.1496 18.0543 10.2523 18.6936C10.3437 19.265 10.9188 19.4309 11.4103 19.3011C11.649 18.8238 11.4798 18.6742 11.9381 18.2914C12.6046 18.4496 14.0509 20.6151 14.0509 20.6155C13.7169 22.0893 12.4245 20.5355 11.7666 20.6419C11.9631 21.1542 14.2799 21.415 13.3915 22.7251C12.791 23.6112 10.2281 23.312 9.69481 23.879C10.2527 24.1036 11.2118 23.6291 11.8639 23.6167L12.3858 24.2459L12.3948 24.46L11.9299 24.3881L12.2792 24.8576C11.9147 25.1215 11.8592 25.008 11.717 25.3465L12.5277 25.0484L12.9367 25.2105C12.9789 25.7181 12.9426 25.6555 12.6523 26.0034C12.2315 26.5063 12.5441 26.516 12.0963 26.6862L11.7256 26.9124L11.6013 26.9882C11.0399 26.7911 11.515 26.8292 11.0587 26.9773C10.9083 27.4569 10.8696 27.1848 11.2005 27.6578C10.7465 27.8704 10.8899 27.7033 10.843 28.1635L11.372 28.3827L11.2415 29.1013L11.6283 29.3224L11.8666 29.2828C11.5592 29.7352 11.9096 29.4888 11.7248 29.9163C11.674 30.0333 11.2509 30.5163 11.1407 30.6504C10.7461 31.1312 10.1507 31.6629 9.93469 32.2241C9.6362 32.4608 9.53931 32.6267 9.2924 32.8906C8.86695 33.3453 8.79858 33.1661 8.30163 33.4736C8.02229 34.2089 8.31569 34.0274 7.7156 34.7557C7.47846 35.0433 6.97721 35.4526 6.93579 35.7767L8.26529 34.3492C9.14902 34.5101 8.7431 34.5466 9.4604 34.1246L9.73817 33.9944C10.0757 34.5587 9.70653 34.3294 10.2793 34.7674L11.3876 34.8233L11.6721 35.5738L11.2564 35.3441C10.852 35.6484 11.1372 35.4872 11.1021 36.0402L10.5164 36.4304L10.5531 36.7895L10.5481 36.9807L10.2156 37.1035C9.84756 37.2295 9.39515 37.3025 9.34085 37.772C9.26896 38.3884 9.61667 38.3492 9.94602 38.6686L9.97766 38.8078C9.25841 39.7658 7.9922 39.6158 7.89766 39.6694C7.27217 40.2551 7.62262 40.2555 7.29014 40.8563L5.78875 40.9931L5.34844 41.8874L6.46229 42.9994L6.99479 42.9457L7.2206 43.7463L7.86758 43.6002L7.37727 43.3872C7.60074 42.5287 7.65934 42.847 8.1477 42.3697C8.14301 41.3495 7.68278 41.5676 7.61871 41.0188L8.58331 40.7195L8.77201 41.2244L9.42836 41.4813C9.28928 41.922 9.36741 41.8567 8.99509 41.8093L9.06307 42.1785L9.28928 41.8874C9.61237 42.4436 9.17441 42.1 9.74833 42.5388C10.4289 42.0235 9.59753 42.1428 10.1906 41.8151L10.3797 42.3394C10.9235 43.1435 10.4395 42.7708 11.2575 43.217L11.5748 43.47L12.0213 43.1711L12.2542 43.4327C12.2495 43.4953 11.8381 44.4191 11.7662 44.5264C11.4294 45.0273 10.9341 44.9916 11.0505 45.6663C11.7822 45.5057 11.6447 44.7529 12.0897 44.5124C12.6242 44.3033 12.5609 44.4401 13.0238 44.6639L13.3786 44.5909C14.1443 44.0464 13.3911 44.0479 13.9802 43.2947L14.3092 42.8754L15.1585 42.4712L15.5051 43.4918C14.8444 43.7203 14.6276 44.1552 14.2818 44.6799L14.7467 44.8567C14.317 45.3293 14.5573 44.6775 14.0294 45.3188L14.3174 45.8369C14.1865 46.4603 14.2654 46.6324 14.7401 47.0382C15.1742 46.9539 15.5461 46.744 15.9626 47.1097C16.2712 47.3806 16.3696 48.0969 16.7138 48.1361L16.9885 48.6491C16.9018 49.1093 16.7162 49.3681 16.9268 49.8718L17.4811 50.2166L18.1176 50.8403C18.3969 50.4358 18.2781 50.6946 18.8024 50.531L19.1134 50.5761L19.1673 50.2504C19.5115 50.2574 19.406 50.3631 19.4881 50.3491C19.8471 50.2881 18.9302 50.0809 20.3652 50.3071C20.9078 50.3918 20.7332 50.1361 20.7535 50.4121L21.0911 50.6853L21.3423 50.6919C21.3626 50.6915 21.3817 50.6907 21.4001 50.6895C21.4173 51.0082 21.4267 51.2111 21.7263 51.4221C22.3604 51.9064 21.8842 51.7234 22.1647 52.1104L22.5807 51.7513L22.6292 51.0432C22.6538 50.9492 22.6667 50.8637 22.669 50.7867C23.025 50.9597 23.0777 50.8652 23.2676 50.9958C23.6235 51.2407 23.3305 51.2826 23.8723 51.5096L23.9321 51.3545C24.0267 51.4599 24.2033 51.5298 24.4506 51.5049C24.6568 51.0895 24.6561 51.2111 24.4509 50.873L24.4943 50.8131L24.8491 50.9581C25.1655 50.6643 24.7916 50.7525 25.3362 50.5663L25.9422 50.3845C26.1864 49.7502 25.9992 49.475 26.665 49.0471C27.3752 49.276 27.0681 49.4501 27.567 49.9123C28.0964 49.8213 27.844 49.8567 28.2457 49.5399L28.5129 49.4626L28.8247 49.3627C28.7922 49.6359 28.884 49.9348 29.0966 50.1781C29.0575 50.1796 29.0552 50.2422 28.918 50.3942C29.2474 50.461 29.1353 50.5061 29.2716 50.3429C29.4216 50.4599 29.6084 50.5535 29.8311 50.6099C29.9268 50.5644 30.0112 50.5127 30.0866 50.4579C30.0135 50.5784 29.91 50.6981 29.9248 51.1085C30.3761 51.3841 30.4882 51.5776 30.993 51.4047C30.9258 50.6911 31.0508 51.2546 30.6683 50.7521C31.0746 50.7012 30.9449 50.7968 31.2762 50.7576L32.1099 50.3732L32.097 50.3468L32.4166 49.6301L32.7358 49.4202L32.8003 48.9985C32.703 48.4622 32.5553 48.4179 32.483 48.1093L32.801 47.7832C33.1179 48.0129 32.8522 48.0584 33.3808 48.2799L33.5937 47.7284C33.6391 47.7125 33.6789 47.697 33.7145 47.6814L33.9106 47.7109L34.0028 47.5835L34.3575 47.7288C34.6154 47.489 34.415 47.5034 34.6267 47.416C34.6564 47.8614 34.3001 48.3701 34.5861 49.1109C33.8 50.5201 36.2031 49.5524 35.2682 51.0424L35.3975 51.3689C35.5812 52.1392 35.7644 52.2511 36.016 52.9554C36.2996 53.7494 36.9372 53.6161 37.6076 53.4839L37.8588 53.8543C37.9245 54.4742 37.9835 54.6957 38.6004 54.9243C39.3876 54.8388 39.2606 54.6468 39.6845 54.0712L40.2635 53.398L40.6245 53.5368L40.7941 53.2437L41.1082 54.2538C41.2554 54.7626 40.9745 54.7148 41.0027 55.2107C41.2832 54.5597 41.3336 54.1279 42.515 54.4159C42.9549 53.7062 42.8444 52.9247 43.1081 52.5212C43.3835 52.1003 43.321 51.9744 43.2925 51.4591C43.2597 50.8691 43.3069 51.133 42.9498 50.9701L42.9549 50.5139C43.8027 50.1229 43.5093 50.3363 44.2997 50.4805C45.1447 49.9659 45.2783 49.5951 44.9763 48.7331L45.0701 48.681C45.2037 49.0269 45.3471 49.229 45.5245 49.7257C45.8081 50.5193 46.4457 50.386 47.1161 50.2543L47.3673 50.6246C47.4329 51.2445 47.4919 51.4657 48.1088 51.695C48.8957 51.6091 48.7691 51.4167 49.193 50.8407L49.772 50.1684L50.133 50.3063L50.3021 50.0141L50.6166 51.0242C50.7639 51.5325 50.483 51.4851 50.5108 51.9814C50.7917 51.33 50.8421 50.8983 52.0231 51.1862C52.4634 50.477 52.3528 49.6946 52.6169 49.2912C52.892 48.8707 52.8295 48.7444 52.8006 48.229C52.7681 47.6394 52.8154 47.9029 52.4583 47.7401L52.4634 47.2834C53.3108 46.8932 53.0174 47.1066 53.8085 47.2504C54.6528 46.7358 54.7868 46.3651 54.4848 45.503L54.8809 45.2831L54.4836 45.0685L54.8395 44.9414L55.6803 44.636C56.3441 42.5252 54.5907 43.1622 54.3301 42.0588L54.2363 41.6379L54.5926 41.3865L54.8243 41.8668L55.7088 42.5275C56.3413 42.6643 56.4269 42.7153 56.8328 42.1871L57.1938 41.8863C57.429 41.6364 57.3372 41.6022 57.504 41.4331C57.7689 41.1649 57.5974 41.6068 57.9705 41.0211C57.6943 40.6861 57.6759 40.812 57.4341 40.4638C57.2356 40.1774 57.5024 40.4871 57.0578 40.3375C57.118 38.9714 56.4695 39.7153 56.9465 39.0588L56.48 38.5979L56.9555 37.9465L56.4726 37.6931L56.3351 36.9442C56.6617 35.3562 55.2939 34.9388 55.1493 34.8381L55.222 33.8576L54.5614 33.6764C53.6671 34.432 53.7058 34.3682 53.9273 35.2932L53.1619 35.1226C53.278 34.5933 53.3252 34.7958 53.335 34.1518C53.8351 33.9038 53.8046 34.0651 54.1301 33.5653C55.4576 31.5241 54.2641 31.9236 54.8079 30.5058L53.9609 29.9501L53.9585 29.7515L54.6399 29.5094L54.5129 28.9812L55.0536 28.249L55.2521 28.6885L56.0217 28.4204C56.38 28.151 56.43 28.1992 56.4574 27.755L56.1057 27.6217L55.9729 27.6127L55.969 27.2424ZM55.2216 24.996L54.9962 25.3259C54.9923 25.3232 54.9872 25.3209 54.9829 25.3186C54.7067 24.8378 54.9407 25.1269 54.4887 24.9493C53.9972 24.8599 54.1004 24.9334 53.8253 24.551L54.1691 24.3916L54.1058 23.825C54.5215 23.713 54.5801 23.7465 54.6645 23.8001C54.4981 24.1448 54.6774 24.631 54.9466 25.0391L55.2216 24.996ZM22.2592 41.2827C22.328 41.3243 22.4124 41.3764 22.5319 41.4343L22.6979 41.4001C22.6804 41.4529 22.662 41.5093 22.6436 41.5687L23.007 41.6321C22.7237 41.8843 22.9074 41.821 22.6436 41.5687L22.4893 41.9519C22.3147 41.8863 22.2553 41.5812 22.2592 41.2827ZM23.6469 42.2854L23.8259 42.6068C23.7876 42.7914 23.7669 42.9364 23.7696 43.0588C23.5469 43.0985 23.5778 42.8466 23.2394 42.5497L22.8722 42.9197C22.5843 42.6014 22.6311 42.6764 22.6081 42.2866L23.425 42.0507C23.4914 42.1264 23.5692 42.205 23.6469 42.2854ZM28.6489 47.1828L28.6758 47.0203C28.7903 47.0226 28.8547 47.0362 28.893 47.0522C28.8922 47.091 28.8915 47.1462 28.9024 47.2251C28.7782 47.2146 28.693 47.2108 28.6489 47.1828ZM34.8408 47.3378L34.8447 47.3367L35.3389 47.1882L35.3725 47.1878L35.1752 47.8563C34.9236 47.5065 34.8861 47.6002 34.8408 47.3378ZM18.7173 54.3207C18.7231 54.3456 19.0915 54.4524 18.9372 54.2531C18.8063 54.0836 18.7138 54.3044 18.7173 54.3207ZM65.4923 19.8992C65.5013 19.9377 65.8939 20.0757 65.7365 19.8674C65.5966 19.6816 65.4919 19.8965 65.4923 19.8992ZM32.0404 6.63543L32.3615 6.36998C32.0642 6.39097 32.0201 6.32412 32.0404 6.63543ZM47.1981 4.9654C47.1602 4.69452 47.2818 4.808 47.0079 4.78041C47.0102 4.79984 46.7164 4.96268 47.1981 4.9654ZM60.9971 42.6667C61.0667 42.4055 61.1378 42.4995 60.8768 42.3872C60.8162 42.5913 60.7053 42.5559 60.9971 42.6667ZM44.2418 5.59618L44.5802 5.71161C44.5013 5.22619 44.4841 5.41196 44.2418 5.59618ZM30.3776 4.87718C30.3276 4.60124 30.4816 4.61795 30.1135 4.70384C30.1612 4.95724 30.0174 4.96618 30.3776 4.87718ZM58.3092 29.0651C58.6819 29.1296 58.5057 29.2175 58.7581 28.9202C58.3655 28.7865 58.6108 28.79 58.3092 29.0651ZM56.1163 30.4441C56.4179 30.3858 56.4577 30.4872 56.4331 30.111C56.2093 30.1487 56.1147 30.1055 56.1163 30.4441ZM49.5669 10.5118C49.7079 10.1399 49.6716 10.1185 49.3203 10.1865C49.3274 10.4523 49.1277 10.401 49.5669 10.5118ZM15.1992 10.0272C15.1417 9.62647 15.1659 9.73723 14.8233 9.78504C14.8671 9.97081 14.5225 9.72713 14.9186 9.99374C15.1804 10.1698 15.0526 10.0555 15.1992 10.0272ZM33.8543 50.9297C33.9848 50.5768 33.9598 50.5671 33.7012 50.332C33.5672 50.6421 33.6019 50.6678 33.8543 50.9297ZM48.2659 11.2351C48.5495 11.0874 48.6167 10.8872 48.5714 10.5892C48.3339 10.7944 48.2331 10.9397 48.2659 11.2351ZM16.9772 14.5852C17.2538 14.2697 17.1549 14.1177 16.7451 14.2207C16.7388 14.565 16.658 14.4655 16.9772 14.5852ZM32.1314 4.55888C32.2822 4.18267 32.3791 4.24874 31.9431 4.13797C31.7337 4.5068 31.7317 4.44151 32.1314 4.55888ZM58.5745 24.8596C59.0429 24.8767 58.9874 24.8129 58.821 24.4585C58.5526 24.5207 58.4287 24.4888 58.5745 24.8596ZM57.2465 44.9939C57.5224 44.7498 57.5427 44.7553 57.2204 44.4716C56.8488 44.8143 56.9789 44.7937 57.2465 44.9939ZM55.751 22.5292C56.2229 22.268 56.053 22.0026 55.6045 22.1068C55.5588 22.4985 55.4599 22.2541 55.751 22.5292ZM61.6163 15.752L61.9449 16.1258C62.2641 15.7986 62.2047 15.9817 62.084 15.5981L61.6163 15.752ZM50.122 15.6715C50.6405 15.8546 50.3166 15.5646 50.8991 15.4562L50.5807 15.1597C50.233 15.4158 50.215 15.3408 50.122 15.6715ZM51.8309 16.7768C52.0297 16.3567 52.0207 16.2269 51.5109 16.2494C51.2984 16.6614 51.3835 16.7446 51.8309 16.7768ZM43.7074 2.69336C43.7238 3.185 43.7406 3.22154 44.2028 3.11699C44.359 2.72679 44.3684 2.84727 44.0887 2.56433L43.7074 2.69336ZM54.8981 31.0235C55.281 31.1755 55.5826 31.0896 55.7799 30.7079C55.4537 30.4289 55.0454 30.6819 54.8981 31.0235ZM34.2622 4.7602C34.5505 5.09171 34.7381 5.09677 35.1323 4.91915C35.0201 4.40303 34.6107 4.44695 34.2622 4.7602ZM53.4745 15.8231C53.8222 15.759 54.0226 15.2125 53.9382 14.8915C53.4635 14.9389 53.3088 15.4445 53.4745 15.8231ZM40.1736 3.24913C40.4819 3.5721 40.4647 3.5274 40.8382 3.32997L40.7714 2.83211C40.3483 2.80957 40.2072 2.75322 40.1736 3.24913ZM53.9796 48.7242C54.2902 48.367 54.2836 48.332 53.9296 48.0168C53.2721 48.1206 53.3756 48.7234 53.9796 48.7242ZM44.0231 8.4648C44.6282 8.27941 44.5978 7.91253 44.0594 7.69527C43.6085 7.97549 43.6476 8.12667 44.0231 8.4648ZM50.1341 51.7735L50.247 51.0599L49.4481 51.0844C49.6114 51.7521 49.8689 51.7587 50.1341 51.7735ZM34.3114 53.2095C34.4872 52.7408 34.3392 52.407 33.8555 52.2546C33.5113 52.7078 33.7684 53.1753 34.3114 53.2095ZM30.1569 2.8395C30.9336 2.63507 30.6597 1.70969 29.8881 2.05442C29.8061 2.53946 29.7674 2.52508 30.1569 2.8395ZM49.604 19.9148L49.3102 19.3077L49.9279 19.1573C49.8927 19.7065 49.8829 19.3248 50.1021 19.4053C49.9611 19.7659 49.9919 19.8405 49.604 19.9148ZM28.1183 9.37035L28.7485 9.29379C28.8524 8.75279 28.8672 8.82235 28.6024 8.42593C27.9179 8.21062 27.6432 8.81108 28.1183 9.37035ZM34.6752 2.08396C34.0422 2.58959 34.7263 3.51419 35.3745 3.06647C35.9171 2.6922 35.3702 1.52858 34.6752 2.08396ZM64.4551 21.8094L65.1059 21.7072C65.2239 21.2323 64.9239 20.6031 64.7281 20.1822C63.8475 20.3998 64.0487 21.1938 64.4551 21.8094ZM27.71 0.0128524C26.8685 0.608262 27.3987 1.4528 27.9995 1.29384C28.582 1.14071 28.834 -0.00269357 27.71 0.0128524ZM56.3652 50.0848L57.1657 49.243C56.128 47.3969 54.718 49.0471 56.3652 50.0848ZM55.892 14.3571C54.6309 14.8596 55.2693 16.7376 56.3882 16.2172C57.4524 15.7216 56.9789 13.9241 55.892 14.3571ZM62.6501 22.4274C62.3528 24.0014 63.5608 24.3664 64.5941 23.3419C65.5021 22.4418 64.2081 21.2914 62.6501 22.4274ZM20.0393 55.7653C20.5715 55.3813 20.6777 54.5706 20.9297 54.0144C21.3563 53.0724 21.8318 53.0121 21.252 51.9037C21.0965 51.9896 20.9723 52.0879 20.8703 52.1959C20.6773 51.9254 20.3597 51.7645 20.0065 51.8535C19.0271 52.1 19.0951 53.3701 20.1202 53.7746C20.0968 53.8186 20.0718 53.8625 20.0452 53.9052C19.6924 54.4699 18.6376 55.7113 20.0393 55.7653ZM64.1796 16.6863C66.0069 16.6373 65.6607 14.567 64.6852 14.3357C63.7135 14.1049 62.8372 15.7951 64.1796 16.6863ZM47.5998 49.3005L48.0659 48.6165L48.094 48.2803L48.6683 48.7238C48.2553 49.0514 48.5179 48.7821 48.1338 48.9356C47.9342 49.0156 47.8088 49.1548 47.5998 49.3005ZM40.0408 5.49358L39.8709 6.14223C40.2182 6.59617 40.1998 6.38902 40.4342 6.58996C40.8527 6.94984 40.4831 6.93236 40.971 7.34355C41.686 7.33266 41.6754 6.92342 41.9552 6.35754L42.3435 6.64514C42.7588 6.46481 43.1706 6.39991 43.3101 5.9549C43.4374 5.54954 43.2811 5.03536 42.8725 4.87446C42.2935 4.64671 42.4654 5.16711 41.679 4.6436C41.2863 4.38165 41.1129 4.36572 40.6417 4.32452C40.1404 4.80139 40.2901 5.03925 39.4024 4.97395C38.9074 4.93781 38.441 4.65915 37.9897 4.79867C38.2519 5.23513 39.3645 4.68597 40.0408 5.49358ZM52.3751 47.2228C52.1028 47.5971 52.1782 47.77 51.7238 47.8271L51.6457 47.3689L51.6293 46.8443L52.1442 46.7972L52.3751 47.2228ZM50.8706 46.3728L50.2353 46.6997L50.1123 46.3044L49.5153 46.2337C50.1939 46.0771 50.2763 45.9838 50.8706 46.3728ZM48.0201 46.1093C47.9815 46.6717 48.1381 46.3954 47.6806 46.7572L47.4068 46.208L48.0201 46.1093ZM54.9122 39.7957C54.9013 39.746 55.0263 39.5932 55.1423 39.7526C55.2927 39.9582 54.9196 39.8315 54.9122 39.7957ZM54.1047 39.5038C54.3352 39.5171 54.2141 39.2489 54.3406 39.7122C53.7753 39.6978 54.1097 39.5264 54.1047 39.5038ZM51.8754 38.8257L51.7637 39.376L51.3386 39.0895L51.8754 38.8257ZM53.0193 38.6857C52.9182 37.9796 53.3084 38.5256 53.9644 37.9947C54.0988 38.4957 53.4335 38.6667 53.0193 38.6857ZM51.4976 38.2271L51.5816 38.4697L51.4976 38.2271ZM52.0489 44.2772C51.9879 43.7541 51.8625 43.8715 52.2845 43.6286C52.6353 43.9387 52.431 43.6395 52.5783 44.1684L52.0489 44.2772ZM30.7206 10.5312C30.9394 10.2693 31.0621 10.2094 31.2121 10.3C31.2348 10.342 31.2703 10.3902 31.3286 10.45C31.0375 10.7399 31.1828 10.7501 30.7206 10.5312ZM35.2288 8.84917C35.2213 8.81614 35.3381 8.65368 35.4514 8.78427C35.6007 8.95683 35.2323 8.86511 35.2288 8.84917ZM33.2835 53.3044L33.5555 53.1909L33.2835 53.3044ZM7.71755 37.5606C7.7199 37.5734 7.94493 37.6247 7.8457 37.4825C7.75545 37.3531 7.71755 37.5606 7.71755 37.5606ZM0.00505677 35.1343C0.0101357 35.1623 0.312525 35.2637 0.202352 35.1152C0.108197 34.9893 0.00232198 35.1218 0.00505677 35.1343ZM33.8731 49.0024C33.8746 49.011 34.2122 49.0938 34.0833 48.9476C33.9965 48.8493 33.8625 48.9523 33.8731 49.0024ZM22.1397 10.0136L22.1611 9.7555C22.0123 9.90358 21.8392 9.75822 22.1397 10.0136ZM19.0474 6.52738L18.8982 6.28526C18.8907 6.56314 18.6833 6.51184 19.0474 6.52738ZM4.66748 32.1277L4.67295 31.8455C4.51707 32.0375 4.33657 31.8692 4.66748 32.1277ZM7.43743 26.4658L7.79882 26.4456C7.43587 26.228 7.71169 26.2093 7.43743 26.4658ZM7.1034 47.1233C7.1077 47.1427 7.46908 47.2512 7.31867 47.0662C7.20888 46.9309 7.09402 47.0825 7.1034 47.1233ZM6.09114 43.8657L6.32789 43.622C5.80476 43.7102 6.07277 43.6911 6.09114 43.8657ZM27.3088 6.15156L27.0545 5.90632C27.092 6.16011 26.9252 6.1741 27.3088 6.15156ZM9.20919 57.5504C9.21466 57.5752 9.58307 57.6821 9.42914 57.4831C9.29787 57.3129 9.20528 57.5344 9.20919 57.5504ZM11.1634 47.4152L11.4447 47.5769C11.39 47.222 11.4505 47.2823 11.1634 47.4152ZM8.6005 37.8995C8.93961 38.0048 8.68919 38.0783 8.90016 37.821C8.58409 37.6819 8.84937 37.6558 8.6005 37.8995ZM20.8692 8.10724C20.8191 7.8313 20.9731 7.84801 20.6051 7.93352C20.6527 8.18691 20.5086 8.19624 20.8692 8.10724ZM12.43 20.0419C12.5495 19.6672 12.6038 19.6964 12.2053 19.7904C12.2507 20.0349 12.0428 19.9338 12.43 20.0419ZM11.8158 46.5283C12.1346 46.4704 12.1354 46.5722 12.1495 46.2053C11.799 46.2706 11.8397 46.2119 11.8158 46.5283ZM5.69068 13.2568C5.63364 12.8561 5.65748 12.9669 5.31446 13.0151C5.35899 13.2001 5.01402 12.9568 5.41017 13.2234C5.67232 13.3999 5.54418 13.2856 5.69068 13.2568ZM11.3689 21.7912C11.699 22.0928 11.4841 22.0415 11.8596 21.9249C11.7025 21.5836 11.7021 21.5965 11.3689 21.7912ZM24.3459 54.1598C24.4767 53.8061 24.4513 53.7976 24.1923 53.5617C24.0587 53.8722 24.0935 53.8975 24.3459 54.1598ZM7.46869 17.8149C7.74529 17.4997 7.64684 17.3474 7.23662 17.4504C7.23037 17.7947 7.1495 17.6956 7.46869 17.8149ZM13.286 31.2695L13.529 31.8669L13.0934 31.7829L13.286 31.2695ZM7.22334 37.4009L7.44876 37.0087L6.95377 36.9489C6.96666 37.3877 6.86703 37.2656 7.22334 37.4009ZM8.00627 21.4095C8.19145 21.0543 8.22544 21.0143 7.80741 20.9097C7.60191 21.2498 7.59449 21.3019 8.00627 21.4095ZM1.62444 35.6457C1.79478 35.2404 1.80416 35.3519 1.43535 35.1825C1.14546 35.5008 1.11773 35.6496 1.62444 35.6457ZM34.1993 5.92342C34.2153 6.41468 34.2325 6.45121 34.6939 6.34666C34.8514 5.95685 34.8599 6.07772 34.5806 5.794L34.1993 5.92342ZM24.7541 7.98987C25.0421 8.32139 25.2296 8.32683 25.6238 8.14883C25.5124 7.6327 25.1022 7.67701 24.7541 7.98987ZM30.6656 6.4788C30.9734 6.80177 30.9558 6.75707 31.3301 6.55964L31.2633 6.06217C30.8394 6.03924 30.6988 5.98328 30.6656 6.4788ZM44.4708 51.9538C44.7822 51.597 44.7747 51.5617 44.4212 51.2473C43.7636 51.3506 43.8676 51.953 44.4708 51.9538ZM27.4659 53.9923C27.8089 53.8792 28.3355 53.1388 28.2804 52.7743C27.9187 52.9736 27.3545 53.5605 27.4659 53.9923ZM14.9421 54.7346C15.162 54.2915 15.1464 54.4591 14.8987 54.0284C14.097 54.0529 14.2127 54.8092 14.9421 54.7346ZM40.6257 55.0035L40.7386 54.29L39.94 54.3141C40.1029 54.9818 40.3608 54.9888 40.6257 55.0035ZM24.803 56.4392C24.9792 55.9709 24.8303 55.6374 24.3466 55.4839C24.0028 55.9375 24.2599 56.4046 24.803 56.4392ZM12.2178 54.6518C12.8523 55.1357 12.3757 54.9534 12.6566 55.3401L13.0723 54.9814L13.1207 54.2733C13.2883 53.6312 12.9133 53.4237 12.3468 53.2908L11.8779 53.7125C11.917 54.1575 11.858 54.398 12.2178 54.6518ZM14.6151 17.6404L14.5834 17.134L14.9464 17.4243L14.6151 17.6404ZM20.6492 6.06956C21.4255 5.86474 21.1512 4.93975 20.3792 5.2841C20.2976 5.76913 20.2585 5.75475 20.6492 6.06956ZM13.0316 47.1762C12.7418 47.6056 12.7457 47.6511 13.0453 48.0716C14.1232 48.3238 14.0748 46.9022 13.0316 47.1762ZM8.91148 52.1583C9.40648 52.2212 9.21934 52.2787 9.61315 51.9554L9.58932 51.3328C9.15449 51.1081 9.1834 51.1046 8.76146 51.2947C8.63722 51.8011 8.63136 51.7373 8.91148 52.1583ZM13.7431 34.5657L14.2443 34.4545L14.4662 34.6854L13.9435 35.1809L13.6985 35.006L13.7431 34.5657ZM25.1671 5.31363C24.5338 5.81927 25.2175 6.74386 25.866 6.29614C26.4087 5.92187 25.8617 4.75864 25.1671 5.31363ZM18.2016 3.24252C17.36 3.83793 17.8906 4.68286 18.4911 4.5239C19.074 4.36999 19.3256 3.22737 18.2016 3.24252ZM46.8567 53.3149L47.6576 52.4731C46.6199 50.627 45.2096 52.2764 46.8567 53.3149ZM13.325 29.1417C12.9988 29.3387 13.0609 29.3422 12.6566 29.2412C12.6683 28.959 12.8683 28.7196 13.1571 28.6434C13.268 29.1401 13.1485 28.8191 13.0238 29.1646L13.325 29.1417ZM5.59184 18.3847C4.61279 19.3575 5.9501 20.7282 7.00338 19.8332C8.04924 18.9439 6.62286 17.3602 5.59184 18.3847ZM10.5313 58.9954C11.063 58.611 11.1696 57.8003 11.4212 57.2441C11.8483 56.302 12.3233 56.2418 11.7439 55.1337C10.8977 55.6009 10.9692 56.4427 10.5363 57.1353C10.1839 57.6996 9.1291 58.9409 10.5313 58.9954ZM4.69131 25.7056C5.2414 25.9909 6.7596 25.4503 7.42493 25.2762C8.25904 25.0585 9.16816 25.3325 9.9507 25.024C9.55924 24.8141 9.12167 25.0411 8.87007 24.7208C9.47016 24.4235 10.4422 24.3473 11.1204 24.3788L11.3404 24.6567L11.5173 24.3722C10.9176 23.6474 8.88765 24.2731 8.04651 24.4449C7.30734 24.5961 4.77961 24.8479 4.69131 25.7056ZM16.0255 49.0891C14.006 48.1711 14.1224 49.9569 13.6599 50.5364C12.959 51.4144 13.9142 52.1959 14.485 51.8131C14.9788 51.4824 14.4072 51.5213 15.4293 51.1066C16.2294 50.7824 16.372 49.8081 16.0255 49.0891ZM38.0917 52.5306L38.557 51.8466L38.5855 51.5104L39.1598 51.953C38.7469 52.2815 39.0094 52.0121 38.6258 52.1656C38.4257 52.2453 38.3003 52.3844 38.0917 52.5306ZM12.4495 35.5206C12.8703 35.7709 12.8023 35.9139 12.9387 36.3779L12.7343 36.8023L12.6191 36.2804C12.3647 36.608 12.6109 36.4872 12.2636 36.5606C11.9944 36.0795 12.0608 36.1584 12.496 35.8657L12.4495 35.5206ZM13.2797 36.1047C13.2258 35.6282 13.1281 35.7238 13.404 35.376L13.6927 35.6683L13.7591 36.1525L13.2797 36.1047ZM42.8666 50.4525C42.5943 50.8267 42.6697 50.9997 42.2158 51.0572L42.1368 50.5986L42.1208 50.0743L42.6361 50.0273L42.8666 50.4525ZM13.9091 31.043C13.899 30.994 14.1525 30.7969 14.1068 31.0029C14.0599 31.2105 13.9095 31.0449 13.9091 31.043ZM12.8218 30.7153C13.2106 30.6516 13.4551 30.8727 12.9031 31.1421L12.8218 30.7153ZM14.5358 31.8354C13.8083 31.8875 14.4678 32.2011 13.8216 32.1098C13.8275 31.6636 13.8876 31.7402 14.2096 31.383L14.5358 31.8354ZM41.3617 49.6025L40.7272 49.9297L40.6038 49.5345L40.0068 49.4637C40.6858 49.3067 40.7679 49.2138 41.3617 49.6025ZM38.5117 49.3394C38.473 49.9014 38.6297 49.625 38.1722 49.9869L37.8987 49.4377L38.5117 49.3394ZM36.9177 47.8994L36.1234 47.9566C35.9793 47.5854 36.0433 47.7071 36.2586 47.3029L36.6825 47.3701L36.9177 47.8994ZM13.638 17.8293C13.7192 18.1142 13.8126 17.9183 13.5497 18.106C13.4841 17.888 13.3157 18.0046 13.638 17.8293ZM15.2464 18.8697L16.1243 18.8573L15.6867 19.5926L15.2464 18.8697ZM14.1119 41.121C14.0486 40.7413 14.0287 40.8995 14.2963 40.8676C14.3221 41.3126 14.2717 41.0701 14.1119 41.121ZM11.1317 41.0755C11.5857 40.8074 11.9248 40.3659 11.9885 40.9403C11.5295 41.3336 11.6201 41.2967 11.1317 41.0755ZM42.5404 47.5073C42.4795 46.9838 42.3537 47.1015 42.776 46.8582C43.1268 47.1688 42.9225 46.8691 43.0702 47.3985L42.5404 47.5073ZM31.8982 49.4925C31.4758 49.1789 31.6083 49.1594 31.8794 48.9414C32.1002 49.1796 32.0853 49.1528 31.8982 49.4925ZM25.2425 49.0137C25.505 49.0529 25.7328 49.3499 25.6793 49.5982C25.2952 49.4731 25.2647 49.3378 25.2425 49.0137ZM23.7333 48.9826C23.4559 49.2628 23.6395 49.1878 23.3332 48.9667C23.6473 48.7961 23.4746 48.7179 23.7333 48.9826ZM19.8983 49.2706C20.2839 49.1482 20.2714 49.1777 20.5394 49.4622C20.2159 49.7269 19.9784 49.5994 19.8983 49.2706ZM25.9859 47.6293C26.3087 47.5835 26.3856 47.5776 26.2461 47.9531C25.7883 47.8365 26.0008 47.7922 25.9859 47.6293ZM22.5225 48.5205C22.0439 48.5621 21.7392 48.5061 21.5861 48.0564C21.7095 48.0067 21.5275 47.81 22.2811 47.8314L22.5225 48.5205ZM18.2258 49.0467C18.225 49.0421 18.3211 48.852 18.4438 49.032C18.5813 49.2341 18.2344 49.086 18.2258 49.0467ZM21.6146 47.5504C21.5193 47.1777 21.6361 47.0533 22.0029 47.1486C21.9248 47.5574 21.9943 47.4529 21.6146 47.5504ZM21.9025 46.0024L21.5552 46.763C21.0137 46.4684 21.5056 46.5197 20.7902 46.4354L21.6728 45.8983L21.9025 46.0024ZM20.1233 46.8932L19.7119 46.7782L19.7506 47.1369C19.4166 46.7961 19.3306 46.7957 19.8717 46.5151L20.1233 46.8932ZM14.8128 34.7639C14.8327 34.4969 15.0073 34.2847 15.2195 34.2038C15.3445 34.5871 15.2195 34.6955 14.8128 34.7639ZM17.008 30.9268C16.5486 31.0185 16.7517 30.8564 16.7213 30.7585C16.9877 30.7041 16.9084 30.5505 17.008 30.9268ZM15.1726 30.739C15.7074 30.5509 15.784 30.3177 16.2138 30.3045C16.5623 30.7076 16.5072 30.9575 16.2063 31.4468L15.2988 31.0682L15.1726 30.739ZM14.474 19.457L14.8151 19.6851L14.3943 19.9261L14.474 19.457ZM25.7203 12.0788C25.7129 12.0458 25.8297 11.8834 25.943 12.0143C26.0922 12.1865 25.7238 12.0952 25.7203 12.0788Z" fill="url(#paint0_linear_195:3954)"/>
<defs>
<linearGradient id="paint0_linear_195:3954" x1="0.00500488" y1="29.504" x2="65.7737" y2="29.504" gradientUnits="userSpaceOnUse">
<stop stop-color="#CE894B"/>
<stop offset="1" stop-color="#EFA561"/>
</linearGradient>
</defs>
</svg>
